<?xml version="1.0" encoding="utf-8" standalone="no"?>
<!DOCTYPE svg PUBLIC "-//W3C//DTD SVG 1.1//EN"
  "http://www.w3.org/Graphics/SVG/1.1/DTD/svg11.dtd">
<svg xmlns:xlink="http://www.w3.org/1999/xlink" width="354.224062pt" height="260.93125pt" viewBox="0 0 354.224062 260.93125" xmlns="http://www.w3.org/2000/svg" version="1.1">
 <metadata>
  <rdf:RDF xmlns:dc="http://purl.org/dc/elements/1.1/" xmlns:cc="http://creativecommons.org/ns#" xmlns:rdf="http://www.w3.org/1999/02/22-rdf-syntax-ns#">
   <cc:Work>
    <dc:type rdf:resource="http://purl.org/dc/dcmitype/StillImage"/>
    <dc:date>2026-06-19T21:22:43.983571</dc:date>
    <dc:format>image/svg+xml</dc:format>
    <dc:creator>
     <cc:Agent>
      <dc:title>Matplotlib v3.10.9, https://matplotlib.org/</dc:title>
     </cc:Agent>
    </dc:creator>
   </cc:Work>
  </rdf:RDF>
 </metadata>
 <defs>
  <style type="text/css">*{stroke-linejoin: round; stroke-linecap: butt}</style>
 </defs>
 <g id="figure_1">
  <g id="patch_1">
   <path d="M 0 260.93125 
L 354.224062 260.93125 
L 354.224062 0 
L 0 0 
z
" style="fill: #ffffff"/>
  </g>
  <g id="axes_1">
   <g id="patch_2">
    <path d="M 39.632812 226.278437 
L 340.662812 226.278437 
L 340.662812 20.798437 
L 39.632812 20.798437 
z
" style="fill: #ffffff"/>
   </g>
   <g id="matplotlib.axis_1">
    <g id="xtick_1">
     <g id="line2d_1">
      <path d="M 39.632812 226.278437 
L 39.632812 20.798437 
" clip-path="url(#p95bc2329f0)" style="fill: none; stroke: #b0b0b0; stroke-opacity: 0.18; stroke-width: 0.6; stroke-linecap: square"/>
     </g>
     <g id="line2d_2">
      <defs>
       <path id="m99c10f566b" d="M 0 0 
L 0 3.5 
" style="stroke: #000000; stroke-width: 0.8"/>
      </defs>
      <g>
       <use xlink:href="#m99c10f566b" x="39.632812" y="226.278437" style="stroke: #000000; stroke-width: 0.8"/>
      </g>
     </g>
     <g id="text_1">
      <!-- 0.0 -->
      <g transform="translate(33.271563 239.357187) scale(0.08 -0.08)">
       <defs>
        <path id="DejaVuSans-30" d="M 2034 4250 
Q 1547 4250 1301 3770 
Q 1056 3291 1056 2328 
Q 1056 1369 1301 889 
Q 1547 409 2034 409 
Q 2525 409 2770 889 
Q 3016 1369 3016 2328 
Q 3016 3291 2770 3770 
Q 2525 4250 2034 4250 
z
M 2034 4750 
Q 2819 4750 3233 4129 
Q 3647 3509 3647 2328 
Q 3647 1150 3233 529 
Q 2819 -91 2034 -91 
Q 1250 -91 836 529 
Q 422 1150 422 2328 
Q 422 3509 836 4129 
Q 1250 4750 2034 4750 
z
" transform="scale(0.015625)"/>
        <path id="DejaVuSans-2e" d="M 684 794 
L 1344 794 
L 1344 0 
L 684 0 
L 684 794 
z
" transform="scale(0.015625)"/>
       </defs>
       <use xlink:href="#DejaVuSans-30"/>
       <use xlink:href="#DejaVuSans-2e" transform="translate(63.623047 0)"/>
       <use xlink:href="#DejaVuSans-30" transform="translate(95.410156 0)"/>
      </g>
     </g>
    </g>
    <g id="xtick_2">
     <g id="line2d_3">
      <path d="M 99.838812 226.278437 
L 99.838812 20.798437 
" clip-path="url(#p95bc2329f0)" style="fill: none; stroke: #b0b0b0; stroke-opacity: 0.18; stroke-width: 0.6; stroke-linecap: square"/>
     </g>
     <g id="line2d_4">
      <g>
       <use xlink:href="#m99c10f566b" x="99.838812" y="226.278437" style="stroke: #000000; stroke-width: 0.8"/>
      </g>
     </g>
     <g id="text_2">
      <!-- 0.2 -->
      <g transform="translate(93.477562 239.357187) scale(0.08 -0.08)">
       <defs>
        <path id="DejaVuSans-32" d="M 1228 531 
L 3431 531 
L 3431 0 
L 469 0 
L 469 531 
Q 828 903 1448 1529 
Q 2069 2156 2228 2338 
Q 2531 2678 2651 2914 
Q 2772 3150 2772 3378 
Q 2772 3750 2511 3984 
Q 2250 4219 1831 4219 
Q 1534 4219 1204 4116 
Q 875 4013 500 3803 
L 500 4441 
Q 881 4594 1212 4672 
Q 1544 4750 1819 4750 
Q 2544 4750 2975 4387 
Q 3406 4025 3406 3419 
Q 3406 3131 3298 2873 
Q 3191 2616 2906 2266 
Q 2828 2175 2409 1742 
Q 1991 1309 1228 531 
z
" transform="scale(0.015625)"/>
       </defs>
       <use xlink:href="#DejaVuSans-30"/>
       <use xlink:href="#DejaVuSans-2e" transform="translate(63.623047 0)"/>
       <use xlink:href="#DejaVuSans-32" transform="translate(95.410156 0)"/>
      </g>
     </g>
    </g>
    <g id="xtick_3">
     <g id="line2d_5">
      <path d="M 160.044812 226.278437 
L 160.044812 20.798437 
" clip-path="url(#p95bc2329f0)" style="fill: none; stroke: #b0b0b0; stroke-opacity: 0.18; stroke-width: 0.6; stroke-linecap: square"/>
     </g>
     <g id="line2d_6">
      <g>
       <use xlink:href="#m99c10f566b" x="160.044812" y="226.278437" style="stroke: #000000; stroke-width: 0.8"/>
      </g>
     </g>
     <g id="text_3">
      <!-- 0.4 -->
      <g transform="translate(153.683562 239.357187) scale(0.08 -0.08)">
       <defs>
        <path id="DejaVuSans-34" d="M 2419 4116 
L 825 1625 
L 2419 1625 
L 2419 4116 
z
M 2253 4666 
L 3047 4666 
L 3047 1625 
L 3713 1625 
L 3713 1100 
L 3047 1100 
L 3047 0 
L 2419 0 
L 2419 1100 
L 313 1100 
L 313 1709 
L 2253 4666 
z
" transform="scale(0.015625)"/>
       </defs>
       <use xlink:href="#DejaVuSans-30"/>
       <use xlink:href="#DejaVuSans-2e" transform="translate(63.623047 0)"/>
       <use xlink:href="#DejaVuSans-34" transform="translate(95.410156 0)"/>
      </g>
     </g>
    </g>
    <g id="xtick_4">
     <g id="line2d_7">
      <path d="M 220.250813 226.278437 
L 220.250813 20.798437 
" clip-path="url(#p95bc2329f0)" style="fill: none; stroke: #b0b0b0; stroke-opacity: 0.18; stroke-width: 0.6; stroke-linecap: square"/>
     </g>
     <g id="line2d_8">
      <g>
       <use xlink:href="#m99c10f566b" x="220.250813" y="226.278437" style="stroke: #000000; stroke-width: 0.8"/>
      </g>
     </g>
     <g id="text_4">
      <!-- 0.6 -->
      <g transform="translate(213.889563 239.357187) scale(0.08 -0.08)">
       <defs>
        <path id="DejaVuSans-36" d="M 2113 2584 
Q 1688 2584 1439 2293 
Q 1191 2003 1191 1497 
Q 1191 994 1439 701 
Q 1688 409 2113 409 
Q 2538 409 2786 701 
Q 3034 994 3034 1497 
Q 3034 2003 2786 2293 
Q 2538 2584 2113 2584 
z
M 3366 4563 
L 3366 3988 
Q 3128 4100 2886 4159 
Q 2644 4219 2406 4219 
Q 1781 4219 1451 3797 
Q 1122 3375 1075 2522 
Q 1259 2794 1537 2939 
Q 1816 3084 2150 3084 
Q 2853 3084 3261 2657 
Q 3669 2231 3669 1497 
Q 3669 778 3244 343 
Q 2819 -91 2113 -91 
Q 1303 -91 875 529 
Q 447 1150 447 2328 
Q 447 3434 972 4092 
Q 1497 4750 2381 4750 
Q 2619 4750 2861 4703 
Q 3103 4656 3366 4563 
z
" transform="scale(0.015625)"/>
       </defs>
       <use xlink:href="#DejaVuSans-30"/>
       <use xlink:href="#DejaVuSans-2e" transform="translate(63.623047 0)"/>
       <use xlink:href="#DejaVuSans-36" transform="translate(95.410156 0)"/>
      </g>
     </g>
    </g>
    <g id="xtick_5">
     <g id="line2d_9">
      <path d="M 280.456812 226.278437 
L 280.456812 20.798437 
" clip-path="url(#p95bc2329f0)" style="fill: none; stroke: #b0b0b0; stroke-opacity: 0.18; stroke-width: 0.6; stroke-linecap: square"/>
     </g>
     <g id="line2d_10">
      <g>
       <use xlink:href="#m99c10f566b" x="280.456812" y="226.278437" style="stroke: #000000; stroke-width: 0.8"/>
      </g>
     </g>
     <g id="text_5">
      <!-- 0.8 -->
      <g transform="translate(274.095562 239.357187) scale(0.08 -0.08)">
       <defs>
        <path id="DejaVuSans-38" d="M 2034 2216 
Q 1584 2216 1326 1975 
Q 1069 1734 1069 1313 
Q 1069 891 1326 650 
Q 1584 409 2034 409 
Q 2484 409 2743 651 
Q 3003 894 3003 1313 
Q 3003 1734 2745 1975 
Q 2488 2216 2034 2216 
z
M 1403 2484 
Q 997 2584 770 2862 
Q 544 3141 544 3541 
Q 544 4100 942 4425 
Q 1341 4750 2034 4750 
Q 2731 4750 3128 4425 
Q 3525 4100 3525 3541 
Q 3525 3141 3298 2862 
Q 3072 2584 2669 2484 
Q 3125 2378 3379 2068 
Q 3634 1759 3634 1313 
Q 3634 634 3220 271 
Q 2806 -91 2034 -91 
Q 1263 -91 848 271 
Q 434 634 434 1313 
Q 434 1759 690 2068 
Q 947 2378 1403 2484 
z
M 1172 3481 
Q 1172 3119 1398 2916 
Q 1625 2713 2034 2713 
Q 2441 2713 2670 2916 
Q 2900 3119 2900 3481 
Q 2900 3844 2670 4047 
Q 2441 4250 2034 4250 
Q 1625 4250 1398 4047 
Q 1172 3844 1172 3481 
z
" transform="scale(0.015625)"/>
       </defs>
       <use xlink:href="#DejaVuSans-30"/>
       <use xlink:href="#DejaVuSans-2e" transform="translate(63.623047 0)"/>
       <use xlink:href="#DejaVuSans-38" transform="translate(95.410156 0)"/>
      </g>
     </g>
    </g>
    <g id="xtick_6">
     <g id="line2d_11">
      <path d="M 340.662812 226.278437 
L 340.662812 20.798437 
" clip-path="url(#p95bc2329f0)" style="fill: none; stroke: #b0b0b0; stroke-opacity: 0.18; stroke-width: 0.6; stroke-linecap: square"/>
     </g>
     <g id="line2d_12">
      <g>
       <use xlink:href="#m99c10f566b" x="340.662812" y="226.278437" style="stroke: #000000; stroke-width: 0.8"/>
      </g>
     </g>
     <g id="text_6">
      <!-- 1.0 -->
      <g transform="translate(334.301562 239.357187) scale(0.08 -0.08)">
       <defs>
        <path id="DejaVuSans-31" d="M 794 531 
L 1825 531 
L 1825 4091 
L 703 3866 
L 703 4441 
L 1819 4666 
L 2450 4666 
L 2450 531 
L 3481 531 
L 3481 0 
L 794 0 
L 794 531 
z
" transform="scale(0.015625)"/>
       </defs>
       <use xlink:href="#DejaVuSans-31"/>
       <use xlink:href="#DejaVuSans-2e" transform="translate(63.623047 0)"/>
       <use xlink:href="#DejaVuSans-30" transform="translate(95.410156 0)"/>
      </g>
     </g>
    </g>
    <g id="text_7">
     <!-- Coverage -->
     <g transform="translate(168.586484 251.859531) scale(0.09 -0.09)">
      <defs>
       <path id="DejaVuSans-43" d="M 4122 4306 
L 4122 3641 
Q 3803 3938 3442 4084 
Q 3081 4231 2675 4231 
Q 1875 4231 1450 3742 
Q 1025 3253 1025 2328 
Q 1025 1406 1450 917 
Q 1875 428 2675 428 
Q 3081 428 3442 575 
Q 3803 722 4122 1019 
L 4122 359 
Q 3791 134 3420 21 
Q 3050 -91 2638 -91 
Q 1578 -91 968 557 
Q 359 1206 359 2328 
Q 359 3453 968 4101 
Q 1578 4750 2638 4750 
Q 3056 4750 3426 4639 
Q 3797 4528 4122 4306 
z
" transform="scale(0.015625)"/>
       <path id="DejaVuSans-6f" d="M 1959 3097 
Q 1497 3097 1228 2736 
Q 959 2375 959 1747 
Q 959 1119 1226 758 
Q 1494 397 1959 397 
Q 2419 397 2687 759 
Q 2956 1122 2956 1747 
Q 2956 2369 2687 2733 
Q 2419 3097 1959 3097 
z
M 1959 3584 
Q 2709 3584 3137 3096 
Q 3566 2609 3566 1747 
Q 3566 888 3137 398 
Q 2709 -91 1959 -91 
Q 1206 -91 779 398 
Q 353 888 353 1747 
Q 353 2609 779 3096 
Q 1206 3584 1959 3584 
z
" transform="scale(0.015625)"/>
       <path id="DejaVuSans-76" d="M 191 3500 
L 800 3500 
L 1894 563 
L 2988 3500 
L 3597 3500 
L 2284 0 
L 1503 0 
L 191 3500 
z
" transform="scale(0.015625)"/>
       <path id="DejaVuSans-65" d="M 3597 1894 
L 3597 1613 
L 953 1613 
Q 991 1019 1311 708 
Q 1631 397 2203 397 
Q 2534 397 2845 478 
Q 3156 559 3463 722 
L 3463 178 
Q 3153 47 2828 -22 
Q 2503 -91 2169 -91 
Q 1331 -91 842 396 
Q 353 884 353 1716 
Q 353 2575 817 3079 
Q 1281 3584 2069 3584 
Q 2775 3584 3186 3129 
Q 3597 2675 3597 1894 
z
M 3022 2063 
Q 3016 2534 2758 2815 
Q 2500 3097 2075 3097 
Q 1594 3097 1305 2825 
Q 1016 2553 972 2059 
L 3022 2063 
z
" transform="scale(0.015625)"/>
       <path id="DejaVuSans-72" d="M 2631 2963 
Q 2534 3019 2420 3045 
Q 2306 3072 2169 3072 
Q 1681 3072 1420 2755 
Q 1159 2438 1159 1844 
L 1159 0 
L 581 0 
L 581 3500 
L 1159 3500 
L 1159 2956 
Q 1341 3275 1631 3429 
Q 1922 3584 2338 3584 
Q 2397 3584 2469 3576 
Q 2541 3569 2628 3553 
L 2631 2963 
z
" transform="scale(0.015625)"/>
       <path id="DejaVuSans-61" d="M 2194 1759 
Q 1497 1759 1228 1600 
Q 959 1441 959 1056 
Q 959 750 1161 570 
Q 1363 391 1709 391 
Q 2188 391 2477 730 
Q 2766 1069 2766 1631 
L 2766 1759 
L 2194 1759 
z
M 3341 1997 
L 3341 0 
L 2766 0 
L 2766 531 
Q 2569 213 2275 61 
Q 1981 -91 1556 -91 
Q 1019 -91 701 211 
Q 384 513 384 1019 
Q 384 1609 779 1909 
Q 1175 2209 1959 2209 
L 2766 2209 
L 2766 2266 
Q 2766 2663 2505 2880 
Q 2244 3097 1772 3097 
Q 1472 3097 1187 3025 
Q 903 2953 641 2809 
L 641 3341 
Q 956 3463 1253 3523 
Q 1550 3584 1831 3584 
Q 2591 3584 2966 3190 
Q 3341 2797 3341 1997 
z
" transform="scale(0.015625)"/>
       <path id="DejaVuSans-67" d="M 2906 1791 
Q 2906 2416 2648 2759 
Q 2391 3103 1925 3103 
Q 1463 3103 1205 2759 
Q 947 2416 947 1791 
Q 947 1169 1205 825 
Q 1463 481 1925 481 
Q 2391 481 2648 825 
Q 2906 1169 2906 1791 
z
M 3481 434 
Q 3481 -459 3084 -895 
Q 2688 -1331 1869 -1331 
Q 1566 -1331 1297 -1286 
Q 1028 -1241 775 -1147 
L 775 -588 
Q 1028 -725 1275 -790 
Q 1522 -856 1778 -856 
Q 2344 -856 2625 -561 
Q 2906 -266 2906 331 
L 2906 616 
Q 2728 306 2450 153 
Q 2172 0 1784 0 
Q 1141 0 747 490 
Q 353 981 353 1791 
Q 353 2603 747 3093 
Q 1141 3584 1784 3584 
Q 2172 3584 2450 3431 
Q 2728 3278 2906 2969 
L 2906 3500 
L 3481 3500 
L 3481 434 
z
" transform="scale(0.015625)"/>
      </defs>
      <use xlink:href="#DejaVuSans-43"/>
      <use xlink:href="#DejaVuSans-6f" transform="translate(69.824219 0)"/>
      <use xlink:href="#DejaVuSans-76" transform="translate(131.005859 0)"/>
      <use xlink:href="#DejaVuSans-65" transform="translate(190.185547 0)"/>
      <use xlink:href="#DejaVuSans-72" transform="translate(251.708984 0)"/>
      <use xlink:href="#DejaVuSans-61" transform="translate(292.822266 0)"/>
      <use xlink:href="#DejaVuSans-67" transform="translate(354.101562 0)"/>
      <use xlink:href="#DejaVuSans-65" transform="translate(417.578125 0)"/>
     </g>
    </g>
   </g>
   <g id="matplotlib.axis_2">
    <g id="ytick_1">
     <g id="line2d_13">
      <path d="M 39.632812 226.278437 
L 340.662812 226.278437 
" clip-path="url(#p95bc2329f0)" style="fill: none; stroke: #b0b0b0; stroke-opacity: 0.18; stroke-width: 0.6; stroke-linecap: square"/>
     </g>
     <g id="line2d_14">
      <defs>
       <path id="m05c194664e" d="M 0 0 
L -3.5 0 
" style="stroke: #000000; stroke-width: 0.8"/>
      </defs>
      <g>
       <use xlink:href="#m05c194664e" x="39.632812" y="226.278437" style="stroke: #000000; stroke-width: 0.8"/>
      </g>
     </g>
     <g id="text_8">
      <!-- 0.0 -->
      <g transform="translate(19.910312 229.317812) scale(0.08 -0.08)">
       <use xlink:href="#DejaVuSans-30"/>
       <use xlink:href="#DejaVuSans-2e" transform="translate(63.623047 0)"/>
       <use xlink:href="#DejaVuSans-30" transform="translate(95.410156 0)"/>
      </g>
     </g>
    </g>
    <g id="ytick_2">
     <g id="line2d_15">
      <path d="M 39.632812 185.182437 
L 340.662812 185.182437 
" clip-path="url(#p95bc2329f0)" style="fill: none; stroke: #b0b0b0; stroke-opacity: 0.18; stroke-width: 0.6; stroke-linecap: square"/>
     </g>
     <g id="line2d_16">
      <g>
       <use xlink:href="#m05c194664e" x="39.632812" y="185.182437" style="stroke: #000000; stroke-width: 0.8"/>
      </g>
     </g>
     <g id="text_9">
      <!-- 0.2 -->
      <g transform="translate(19.910312 188.221812) scale(0.08 -0.08)">
       <use xlink:href="#DejaVuSans-30"/>
       <use xlink:href="#DejaVuSans-2e" transform="translate(63.623047 0)"/>
       <use xlink:href="#DejaVuSans-32" transform="translate(95.410156 0)"/>
      </g>
     </g>
    </g>
    <g id="ytick_3">
     <g id="line2d_17">
      <path d="M 39.632812 144.086437 
L 340.662812 144.086437 
" clip-path="url(#p95bc2329f0)" style="fill: none; stroke: #b0b0b0; stroke-opacity: 0.18; stroke-width: 0.6; stroke-linecap: square"/>
     </g>
     <g id="line2d_18">
      <g>
       <use xlink:href="#m05c194664e" x="39.632812" y="144.086437" style="stroke: #000000; stroke-width: 0.8"/>
      </g>
     </g>
     <g id="text_10">
      <!-- 0.4 -->
      <g transform="translate(19.910312 147.125812) scale(0.08 -0.08)">
       <use xlink:href="#DejaVuSans-30"/>
       <use xlink:href="#DejaVuSans-2e" transform="translate(63.623047 0)"/>
       <use xlink:href="#DejaVuSans-34" transform="translate(95.410156 0)"/>
      </g>
     </g>
    </g>
    <g id="ytick_4">
     <g id="line2d_19">
      <path d="M 39.632812 102.990437 
L 340.662812 102.990437 
" clip-path="url(#p95bc2329f0)" style="fill: none; stroke: #b0b0b0; stroke-opacity: 0.18; stroke-width: 0.6; stroke-linecap: square"/>
     </g>
     <g id="line2d_20">
      <g>
       <use xlink:href="#m05c194664e" x="39.632812" y="102.990437" style="stroke: #000000; stroke-width: 0.8"/>
      </g>
     </g>
     <g id="text_11">
      <!-- 0.6 -->
      <g transform="translate(19.910312 106.029812) scale(0.08 -0.08)">
       <use xlink:href="#DejaVuSans-30"/>
       <use xlink:href="#DejaVuSans-2e" transform="translate(63.623047 0)"/>
       <use xlink:href="#DejaVuSans-36" transform="translate(95.410156 0)"/>
      </g>
     </g>
    </g>
    <g id="ytick_5">
     <g id="line2d_21">
      <path d="M 39.632812 61.894437 
L 340.662812 61.894437 
" clip-path="url(#p95bc2329f0)" style="fill: none; stroke: #b0b0b0; stroke-opacity: 0.18; stroke-width: 0.6; stroke-linecap: square"/>
     </g>
     <g id="line2d_22">
      <g>
       <use xlink:href="#m05c194664e" x="39.632812" y="61.894437" style="stroke: #000000; stroke-width: 0.8"/>
      </g>
     </g>
     <g id="text_12">
      <!-- 0.8 -->
      <g transform="translate(19.910312 64.933812) scale(0.08 -0.08)">
       <use xlink:href="#DejaVuSans-30"/>
       <use xlink:href="#DejaVuSans-2e" transform="translate(63.623047 0)"/>
       <use xlink:href="#DejaVuSans-38" transform="translate(95.410156 0)"/>
      </g>
     </g>
    </g>
    <g id="ytick_6">
     <g id="line2d_23">
      <path d="M 39.632812 20.798437 
L 340.662812 20.798437 
" clip-path="url(#p95bc2329f0)" style="fill: none; stroke: #b0b0b0; stroke-opacity: 0.18; stroke-width: 0.6; stroke-linecap: square"/>
     </g>
     <g id="line2d_24">
      <g>
       <use xlink:href="#m05c194664e" x="39.632812" y="20.798437" style="stroke: #000000; stroke-width: 0.8"/>
      </g>
     </g>
     <g id="text_13">
      <!-- 1.0 -->
      <g transform="translate(19.910312 23.837812) scale(0.08 -0.08)">
       <use xlink:href="#DejaVuSans-31"/>
       <use xlink:href="#DejaVuSans-2e" transform="translate(63.623047 0)"/>
       <use xlink:href="#DejaVuSans-30" transform="translate(95.410156 0)"/>
      </g>
     </g>
    </g>
    <g id="text_14">
     <!-- Selective risk -->
     <g transform="translate(14.038594 153.584375) rotate(-90) scale(0.09 -0.09)">
      <defs>
       <path id="DejaVuSans-53" d="M 3425 4513 
L 3425 3897 
Q 3066 4069 2747 4153 
Q 2428 4238 2131 4238 
Q 1616 4238 1336 4038 
Q 1056 3838 1056 3469 
Q 1056 3159 1242 3001 
Q 1428 2844 1947 2747 
L 2328 2669 
Q 3034 2534 3370 2195 
Q 3706 1856 3706 1288 
Q 3706 609 3251 259 
Q 2797 -91 1919 -91 
Q 1588 -91 1214 -16 
Q 841 59 441 206 
L 441 856 
Q 825 641 1194 531 
Q 1563 422 1919 422 
Q 2459 422 2753 634 
Q 3047 847 3047 1241 
Q 3047 1584 2836 1778 
Q 2625 1972 2144 2069 
L 1759 2144 
Q 1053 2284 737 2584 
Q 422 2884 422 3419 
Q 422 4038 858 4394 
Q 1294 4750 2059 4750 
Q 2388 4750 2728 4690 
Q 3069 4631 3425 4513 
z
" transform="scale(0.015625)"/>
       <path id="DejaVuSans-6c" d="M 603 4863 
L 1178 4863 
L 1178 0 
L 603 0 
L 603 4863 
z
" transform="scale(0.015625)"/>
       <path id="DejaVuSans-63" d="M 3122 3366 
L 3122 2828 
Q 2878 2963 2633 3030 
Q 2388 3097 2138 3097 
Q 1578 3097 1268 2742 
Q 959 2388 959 1747 
Q 959 1106 1268 751 
Q 1578 397 2138 397 
Q 2388 397 2633 464 
Q 2878 531 3122 666 
L 3122 134 
Q 2881 22 2623 -34 
Q 2366 -91 2075 -91 
Q 1284 -91 818 406 
Q 353 903 353 1747 
Q 353 2603 823 3093 
Q 1294 3584 2113 3584 
Q 2378 3584 2631 3529 
Q 2884 3475 3122 3366 
z
" transform="scale(0.015625)"/>
       <path id="DejaVuSans-74" d="M 1172 4494 
L 1172 3500 
L 2356 3500 
L 2356 3053 
L 1172 3053 
L 1172 1153 
Q 1172 725 1289 603 
Q 1406 481 1766 481 
L 2356 481 
L 2356 0 
L 1766 0 
Q 1100 0 847 248 
Q 594 497 594 1153 
L 594 3053 
L 172 3053 
L 172 3500 
L 594 3500 
L 594 4494 
L 1172 4494 
z
" transform="scale(0.015625)"/>
       <path id="DejaVuSans-69" d="M 603 3500 
L 1178 3500 
L 1178 0 
L 603 0 
L 603 3500 
z
M 603 4863 
L 1178 4863 
L 1178 4134 
L 603 4134 
L 603 4863 
z
" transform="scale(0.015625)"/>
       <path id="DejaVuSans-20" transform="scale(0.015625)"/>
       <path id="DejaVuSans-73" d="M 2834 3397 
L 2834 2853 
Q 2591 2978 2328 3040 
Q 2066 3103 1784 3103 
Q 1356 3103 1142 2972 
Q 928 2841 928 2578 
Q 928 2378 1081 2264 
Q 1234 2150 1697 2047 
L 1894 2003 
Q 2506 1872 2764 1633 
Q 3022 1394 3022 966 
Q 3022 478 2636 193 
Q 2250 -91 1575 -91 
Q 1294 -91 989 -36 
Q 684 19 347 128 
L 347 722 
Q 666 556 975 473 
Q 1284 391 1588 391 
Q 1994 391 2212 530 
Q 2431 669 2431 922 
Q 2431 1156 2273 1281 
Q 2116 1406 1581 1522 
L 1381 1569 
Q 847 1681 609 1914 
Q 372 2147 372 2553 
Q 372 3047 722 3315 
Q 1072 3584 1716 3584 
Q 2034 3584 2315 3537 
Q 2597 3491 2834 3397 
z
" transform="scale(0.015625)"/>
       <path id="DejaVuSans-6b" d="M 581 4863 
L 1159 4863 
L 1159 1991 
L 2875 3500 
L 3609 3500 
L 1753 1863 
L 3688 0 
L 2938 0 
L 1159 1709 
L 1159 0 
L 581 0 
L 581 4863 
z
" transform="scale(0.015625)"/>
      </defs>
      <use xlink:href="#DejaVuSans-53"/>
      <use xlink:href="#DejaVuSans-65" transform="translate(63.476562 0)"/>
      <use xlink:href="#DejaVuSans-6c" transform="translate(125 0)"/>
      <use xlink:href="#DejaVuSans-65" transform="translate(152.783203 0)"/>
      <use xlink:href="#DejaVuSans-63" transform="translate(214.306641 0)"/>
      <use xlink:href="#DejaVuSans-74" transform="translate(269.287109 0)"/>
      <use xlink:href="#DejaVuSans-69" transform="translate(308.496094 0)"/>
      <use xlink:href="#DejaVuSans-76" transform="translate(336.279297 0)"/>
      <use xlink:href="#DejaVuSans-65" transform="translate(395.458984 0)"/>
      <use xlink:href="#DejaVuSans-20" transform="translate(456.982422 0)"/>
      <use xlink:href="#DejaVuSans-72" transform="translate(488.769531 0)"/>
      <use xlink:href="#DejaVuSans-69" transform="translate(529.882812 0)"/>
      <use xlink:href="#DejaVuSans-73" transform="translate(557.666016 0)"/>
      <use xlink:href="#DejaVuSans-6b" transform="translate(609.765625 0)"/>
     </g>
    </g>
   </g>
   <g id="line2d_25">
    <path d="M 39.778944 226.278437 
L 106.268579 226.278437 
L 106.414711 225.828809 
L 112.406084 225.865827 
L 112.552215 225.45487 
L 119.858769 225.529876 
L 120.0049 225.157637 
L 124.388832 225.21561 
L 124.534963 224.863773 
L 132.426041 224.984075 
L 132.572172 224.663029 
L 136.371579 224.726474 
L 136.517711 224.41889 
L 137.979021 224.446521 
L 138.125152 224.144372 
L 141.632298 224.21775 
L 141.778429 223.926735 
L 143.093609 223.95663 
L 143.23974 223.670088 
L 149.523376 223.819235 
L 149.669507 223.549619 
L 154.345701 223.660858 
L 154.491832 223.402763 
L 158.729633 223.505088 
L 159.021895 223.008866 
L 160.190944 223.040571 
L 160.337075 222.795726 
L 160.483206 222.799937 
L 160.629337 222.555974 
L 160.921599 222.564944 
L 161.06773 222.322144 
L 162.821303 222.378461 
L 162.967434 222.139622 
L 163.990351 222.173667 
L 164.136482 221.937311 
L 166.036186 222.002553 
L 166.182317 221.770216 
L 166.328448 221.775416 
L 166.474579 221.543875 
L 168.812677 221.629569 
L 169.104939 221.176225 
L 174.950181 221.396623 
L 175.096312 221.180228 
L 175.826968 221.207579 
L 175.973099 220.992778 
L 176.996016 221.03214 
L 177.142147 220.819351 
L 177.726672 220.842459 
L 177.872803 220.630996 
L 183.279652 220.843565 
L 183.425783 220.640267 
L 186.056143 220.741551 
L 186.202274 220.542206 
L 190.147812 220.692573 
L 190.293944 220.49869 
L 191.462992 220.543192 
L 191.609123 220.35113 
L 192.193647 220.37384 
L 192.339779 220.182859 
L 195.846924 220.31971 
L 195.993055 220.133241 
L 197.892759 220.207006 
L 198.03889 220.02305 
L 198.915677 220.057483 
L 199.061808 219.874844 
L 199.792463 219.904058 
L 199.938594 219.722558 
L 202.13056 219.810991 
L 202.276691 219.632184 
L 202.422822 219.63815 
L 202.568953 219.459819 
L 204.030264 219.520429 
L 204.176395 219.343944 
L 204.90705 219.3746 
L 205.053181 219.19918 
L 206.806754 219.273438 
L 206.952885 219.100097 
L 208.121934 219.149903 
L 208.268065 218.978022 
L 208.414196 218.984342 
L 208.706458 218.641756 
L 212.651997 218.815904 
L 212.798128 218.6488 
L 213.09039 218.661656 
L 213.236521 218.495104 
L 214.40557 218.547167 
L 214.551701 218.381963 
L 214.697832 218.388554 
L 214.843963 218.223759 
L 219.374026 218.426763 
L 219.520157 218.26622 
L 226.972842 218.584959 
L 227.265104 218.436911 
L 227.411235 218.443013 
L 227.703497 218.295532 
L 227.849628 218.301729 
L 228.14189 218.15481 
L 229.164808 218.198653 
L 229.45707 218.05291 
L 231.064512 218.121979 
L 231.356774 217.977797 
L 231.649036 217.990431 
L 231.941298 217.846887 
L 232.087429 217.853289 
L 232.379691 217.71028 
L 232.818084 217.729723 
L 233.110346 217.587441 
L 236.032968 217.716771 
L 236.32523 217.576833 
L 238.078803 217.653725 
L 238.371065 217.51532 
L 243.339521 217.729054 
L 243.631783 217.594111 
L 245.531487 217.674236 
L 245.823749 217.540805 
L 246.408274 217.565505 
L 246.846667 217.294122 
L 249.038633 217.388165 
L 249.330895 217.257364 
L 252.253516 217.381365 
L 252.545779 217.252549 
L 253.568696 217.295705 
L 253.860958 217.167796 
L 254.445482 217.192587 
L 254.737745 217.06534 
L 257.806497 217.194928 
L 258.24489 216.938437 
L 259.413939 216.988118 
L 259.706201 216.864015 
L 262.482691 216.98131 
L 262.774953 216.858922 
L 263.213346 216.877392 
L 263.505609 216.755539 
L 264.528526 216.798853 
L 264.820788 216.677815 
L 269.496982 216.873123 
L 269.789245 216.754603 
L 270.373769 216.778729 
L 270.666031 216.660778 
L 271.396686 216.691098 
L 271.688948 216.573778 
L 272.419604 216.604238 
L 272.711866 216.487541 
L 273.588652 216.524234 
L 274.027046 216.286268 
L 275.488356 216.348177 
L 275.780618 216.233314 
L 277.534191 216.307356 
L 277.826453 216.19353 
L 280.018419 216.285489 
L 280.602944 215.935903 
L 280.749075 215.942171 
L 281.041337 215.830302 
L 281.918123 215.868112 
L 282.210385 215.756871 
L 282.356516 215.763206 
L 282.941041 215.418233 
L 283.525565 215.444261 
L 283.817827 215.33426 
L 284.986876 215.386407 
L 285.717531 214.93067 
L 286.302055 214.957561 
L 286.740448 214.734617 
L 287.032711 214.748254 
L 287.324973 214.640632 
L 287.471104 214.647494 
L 287.763366 214.540181 
L 288.201759 214.560883 
L 288.786283 214.226825 
L 289.809201 214.276101 
L 290.832118 213.607769 
L 292.001167 213.666463 
L 293.024084 213.006373 
L 294.047002 213.059736 
L 294.339264 212.957015 
L 294.923788 212.987516 
L 295.362181 212.775466 
L 296.092837 212.813936 
L 296.53123 212.603147 
L 297.115754 212.634192 
L 297.554147 212.424545 
L 297.700279 212.43239 
L 297.992541 212.331831 
L 299.746113 212.425853 
L 300.184507 212.218673 
L 300.330638 212.226554 
L 300.6229 212.127239 
L 301.061293 212.15097 
L 301.353555 212.052017 
L 301.791948 212.075807 
L 302.522604 211.658404 
L 302.960997 211.682744 
L 303.691652 211.268277 
L 304.422308 211.309696 
L 304.860701 211.108013 
L 305.299094 211.133047 
L 305.883618 210.827965 
L 306.468143 210.861811 
L 306.760405 210.766271 
L 307.198798 210.791687 
L 307.49106 210.696484 
L 307.637191 210.704981 
L 307.929453 210.610028 
L 308.221715 210.627077 
L 308.660109 210.429355 
L 308.80624 210.43796 
L 309.098502 210.343709 
L 309.244633 210.352345 
L 309.829157 210.053408 
L 310.852075 210.00389 
L 311.58273 209.60596 
L 312.751779 209.567383 
L 313.336303 209.273953 
L 314.505351 209.237034 
L 314.797613 209.146011 
L 315.089876 209.05518 
L 316.405055 208.269103 
L 316.989579 208.198796 
L 317.574104 207.912717 
L 318.158628 207.843453 
L 319.035414 207.363961 
L 319.473808 207.286291 
L 319.76607 207.198917 
L 320.204463 207.121708 
L 320.642856 206.937886 
L 321.665774 206.901567 
L 322.396429 206.526872 
L 322.834822 206.45142 
L 323.565478 206.079426 
L 324.003871 206.004974 
L 324.296133 205.920306 
L 324.734526 205.84629 
L 325.026788 205.762001 
L 325.611312 205.698938 
L 326.195837 205.426566 
L 326.488099 205.343134 
L 327.218754 204.978681 
L 327.803279 204.917687 
L 328.095541 204.835236 
L 328.826196 204.785583 
L 329.556851 204.425474 
L 329.995245 204.355056 
L 330.7259 203.997474 
L 331.456555 203.950365 
L 332.041079 203.686933 
L 332.771735 203.64081 
L 333.50239 203.288383 
L 333.940783 203.220602 
L 334.963701 202.690432 
L 335.986618 202.670528 
L 336.717274 202.324301 
L 337.447929 202.282245 
L 337.886322 202.116164 
L 339.201502 202.122008 
L 339.932157 201.780822 
L 340.224419 201.704748 
L 340.662812 201.441292 
L 340.662812 201.441292 
" clip-path="url(#p95bc2329f0)" style="fill: none; stroke: #0072b2; stroke-width: 1.8; stroke-linecap: square"/>
   </g>
   <g id="line2d_26">
    <path d="M 39.778944 226.278437 
L 69.44355 226.278437 
L 69.589681 225.276096 
L 77.919152 225.494163 
L 78.065283 224.715852 
L 89.755769 225.080303 
L 104.515007 225.352852 
L 104.661138 224.893179 
L 110.067987 224.999516 
L 110.214118 224.57674 
L 130.672468 224.959144 
L 136.079317 225.033104 
L 136.225448 224.724126 
L 139.14807 224.769774 
L 139.294201 224.470696 
L 141.632298 224.512134 
L 141.778429 224.220698 
L 143.532002 224.255428 
L 143.678133 223.969673 
L 146.162361 224.023513 
L 146.308492 223.745122 
L 147.039147 223.762356 
L 147.185279 223.48659 
L 148.354327 223.51661 
L 148.500458 223.244505 
L 150.546293 223.300466 
L 150.692424 223.034016 
L 151.423079 223.055222 
L 151.569211 222.791179 
L 152.299866 222.813794 
L 152.445997 222.552116 
L 153.322783 222.580854 
L 153.468914 222.321826 
L 153.615046 222.326899 
L 153.761177 222.06886 
L 154.053439 222.079612 
L 154.19957 221.822876 
L 154.637963 221.839861 
L 154.784094 221.584732 
L 157.998978 221.712215 
L 158.145109 221.464479 
L 160.337075 221.5519 
L 160.483206 221.309151 
L 161.944516 221.368521 
L 162.090647 221.129177 
L 163.113565 221.171834 
L 163.259696 220.934986 
L 168.228152 221.141437 
L 168.374283 220.914033 
L 169.689463 220.96828 
L 169.835594 220.743623 
L 170.71238 220.780645 
L 170.858512 220.557948 
L 171.443036 220.583316 
L 171.589167 220.36207 
L 172.758215 220.414025 
L 172.904346 220.195148 
L 173.635002 220.228318 
L 173.781133 220.011074 
L 175.388575 220.085284 
L 175.534706 219.870997 
L 175.680837 219.877879 
L 175.826968 219.664274 
L 177.288279 219.734488 
L 177.43441 219.523528 
L 178.311196 219.566235 
L 178.457327 219.357006 
L 179.626376 219.414805 
L 179.772507 219.207697 
L 180.795424 219.258934 
L 180.941555 219.053701 
L 182.98739 219.156807 
L 183.133521 218.954812 
L 185.179356 219.057755 
L 185.325487 218.858899 
L 190.732337 219.124395 
L 191.024599 218.741526 
L 199.061808 219.121481 
L 199.207939 218.939866 
L 200.81538 219.013052 
L 200.961512 218.83351 
L 204.030264 218.972482 
L 204.176395 218.796484 
L 205.345444 218.849266 
L 205.491575 218.674772 
L 206.514492 218.72138 
L 206.806754 218.375361 
L 207.391279 218.402897 
L 207.53741 218.230918 
L 209.875507 218.341442 
L 210.021638 218.172022 
L 212.798128 218.301999 
L 212.944259 218.13547 
L 213.236521 218.149178 
L 213.382652 217.983198 
L 216.159143 218.113669 
L 216.305274 217.950464 
L 216.597536 217.964218 
L 216.743667 217.80154 
L 219.520157 217.932377 
L 219.666288 217.772366 
L 219.95855 217.786152 
L 220.104681 217.626648 
L 221.858254 217.709905 
L 222.004385 217.552123 
L 222.735041 217.586945 
L 222.881172 217.430016 
L 225.511531 217.55523 
L 225.803793 217.407637 
L 225.949924 217.414594 
L 226.242186 217.267568 
L 231.795167 217.527958 
L 232.087429 217.385226 
L 234.425526 217.491971 
L 234.863919 217.204096 
L 236.471361 217.2782 
L 236.763623 217.139223 
L 238.078803 217.199792 
L 238.371065 217.062055 
L 238.955589 217.089083 
L 239.393982 216.80862 
L 240.270769 216.850003 
L 240.709162 216.571897 
L 241.585948 216.614038 
L 241.878211 216.479536 
L 243.339521 216.549829 
L 243.631783 216.416575 
L 244.216308 216.444752 
L 244.50857 216.312218 
L 245.239225 216.347634 
L 245.531487 216.215897 
L 246.554405 216.265641 
L 246.846667 216.134855 
L 249.330895 216.255023 
L 249.623157 216.125981 
L 252.838041 216.279068 
L 253.130303 216.152113 
L 253.422565 216.165956 
L 253.714827 216.039502 
L 255.760662 216.136423 
L 256.052924 216.011375 
L 256.345186 216.025221 
L 256.637448 215.90066 
L 259.56007 216.03857 
L 259.852332 215.91581 
L 261.167512 215.977329 
L 261.459774 215.855539 
L 263.944002 215.970972 
L 264.236264 215.850695 
L 267.305016 215.991249 
L 267.597279 215.87272 
L 267.74341 215.879386 
L 268.035672 215.761227 
L 268.327934 215.774668 
L 268.766327 215.532672 
L 268.912458 215.539521 
L 269.350851 215.29859 
L 269.789245 215.319504 
L 270.081507 215.203105 
L 270.666031 215.231126 
L 271.250555 214.870084 
L 275.926749 215.095852 
L 276.219012 214.982749 
L 277.095798 215.024456 
L 277.534191 214.792762 
L 277.680322 214.799813 
L 277.972584 214.687904 
L 279.287764 214.751511 
L 279.580026 214.640411 
L 280.602944 214.689814 
L 280.895206 214.579394 
L 281.333599 214.600614 
L 281.625861 214.490636 
L 282.064254 214.511952 
L 282.356516 214.402411 
L 282.79491 214.423822 
L 283.087172 214.314716 
L 283.379434 214.329061 
L 283.671696 214.22033 
L 283.963958 214.234753 
L 284.25622 214.126394 
L 285.279138 214.176998 
L 285.717531 213.954518 
L 286.009793 213.969137 
L 286.448186 213.747686 
L 288.055628 213.828767 
L 288.34789 213.722668 
L 290.685987 213.839602 
L 290.978249 213.7346 
L 292.001167 213.785444 
L 292.293429 213.681052 
L 292.43956 213.688333 
L 293.024084 213.361875 
L 293.608609 213.391602 
L 293.900871 213.288323 
L 294.193133 213.303237 
L 294.631526 213.090036 
L 294.777657 213.09759 
L 295.069919 212.995119 
L 295.508312 213.017878 
L 295.800575 212.915791 
L 296.092837 212.931019 
L 296.677361 212.610922 
L 296.823492 212.618687 
L 297.115754 212.517575 
L 297.84641 212.556513 
L 298.284803 212.34759 
L 299.453851 212.410271 
L 299.746113 212.310415 
L 300.184507 212.333917 
L 300.476769 212.234426 
L 301.207424 212.273655 
L 301.645817 212.067885 
L 302.230342 212.099517 
L 302.522604 212.001061 
L 303.107128 212.032736 
L 303.39939 211.934681 
L 304.860701 212.01371 
L 305.299094 211.811199 
L 306.029749 211.850879 
L 306.468143 211.649522 
L 306.906536 211.673517 
L 307.344929 211.47311 
L 307.929453 211.505366 
L 308.221715 211.409645 
L 308.513978 211.425807 
L 309.098502 211.12373 
L 309.536895 211.037095 
L 309.829157 210.94245 
L 310.998206 210.897867 
L 311.58273 210.599684 
L 312.751779 210.556854 
L 313.044041 210.463836 
L 313.774696 210.396455 
L 314.066958 210.303954 
L 315.6744 210.288199 
L 316.112793 210.096344 
L 316.697317 210.022108 
L 316.989579 209.930977 
L 317.574104 209.857323 
L 317.866366 209.766652 
L 319.035414 209.72827 
L 319.76607 209.342684 
L 320.935118 209.306323 
L 321.373512 209.119579 
L 321.811905 209.039825 
L 322.104167 208.95136 
L 322.688691 208.88106 
L 323.127084 208.696128 
L 323.419346 208.608427 
L 323.711609 208.520907 
L 324.880657 208.488417 
L 325.611312 208.11388 
L 326.488099 208.064724 
L 326.780361 207.978692 
L 328.241672 207.967308 
L 328.680065 207.787315 
L 329.41072 207.730318 
L 329.849113 207.551408 
L 330.872031 207.514082 
L 331.310424 207.336393 
L 331.894948 207.271537 
L 332.333342 207.094833 
L 333.648521 207.078517 
L 334.086914 206.903152 
L 334.671439 206.839765 
L 335.402094 206.481698 
L 336.425012 206.448758 
L 337.155667 206.093762 
L 338.178584 206.062344 
L 339.055371 205.620126 
L 339.347633 205.540085 
L 340.516681 204.92209 
L 340.662812 204.932457 
L 340.662812 204.932457 
" clip-path="url(#p95bc2329f0)" style="fill: none; stroke: #56b4e9; stroke-width: 1.8; stroke-linecap: square"/>
   </g>
   <g id="line2d_27">
    <path d="M 39.778944 226.278437 
L 50.884905 226.278437 
L 51.177167 221.076412 
L 52.638478 221.660909 
L 52.784609 219.429104 
L 53.076871 219.578003 
L 53.223002 217.440588 
L 53.953657 217.891499 
L 54.099788 215.90066 
L 55.70723 216.938437 
L 55.999492 213.435937 
L 56.730147 213.984762 
L 56.876279 212.34759 
L 57.314672 212.692983 
L 57.460803 211.120077 
L 57.899196 211.483878 
L 58.045327 209.970501 
L 59.945031 211.495704 
L 61.990866 212.848372 
L 62.57539 213.190539 
L 62.721521 211.972868 
L 62.867652 212.06284 
L 63.013783 210.867437 
L 65.35188 212.268437 
L 65.498012 211.186686 
L 67.397715 212.21928 
L 67.543846 211.217076 
L 68.712895 211.822558 
L 68.859026 210.867437 
L 69.005157 210.944109 
L 69.151288 210.002794 
L 70.466468 210.697016 
L 70.75873 208.91393 
L 71.343254 209.234014 
L 71.489385 208.36963 
L 71.781647 208.532438 
L 71.927779 207.682962 
L 72.512303 208.013549 
L 72.658434 207.185163 
L 72.804565 207.269275 
L 72.950696 206.45142 
L 73.096827 206.538001 
L 73.389089 204.929866 
L 74.119745 205.382166 
L 74.265876 204.603332 
L 74.704269 204.874271 
L 74.996531 203.352983 
L 75.142662 203.447326 
L 75.288793 202.698765 
L 76.457842 203.447326 
L 76.603973 202.725394 
L 76.750104 202.818123 
L 77.188497 200.693379 
L 77.334628 200.792546 
L 77.480759 200.097588 
L 77.62689 200.198284 
L 77.773021 199.510928 
L 78.357546 199.914966 
L 78.503677 199.241595 
L 79.526594 199.934848 
L 79.672725 199.281065 
L 81.426298 200.413822 
L 81.572429 199.787985 
L 83.03374 200.679919 
L 83.179871 200.07629 
L 83.472133 200.250971 
L 83.618264 199.654783 
L 84.49505 200.175115 
L 84.641181 199.592723 
L 84.933444 199.764889 
L 85.079575 199.189434 
L 85.225706 199.276258 
L 85.371837 198.706041 
L 85.81023 198.967805 
L 86.102492 197.847243 
L 86.833147 198.287354 
L 87.12541 197.195114 
L 87.271541 197.284327 
L 87.417672 196.744615 
L 87.563803 196.834657 
L 87.856065 195.767771 
L 88.002196 195.859948 
L 88.148327 195.332654 
L 89.317376 196.06079 
L 89.463507 195.546825 
L 89.609638 195.636683 
L 89.755769 195.126951 
L 90.194162 195.39705 
L 90.486424 194.39361 
L 90.632555 194.48497 
L 91.070948 193.004687 
L 92.239997 193.744104 
L 92.386128 193.26503 
L 92.970652 193.626821 
L 93.555177 191.753343 
L 94.285832 192.214908 
L 94.431963 191.757797 
L 95.747143 192.566875 
L 95.893274 192.120723 
L 97.208453 192.900976 
L 97.354584 192.465273 
L 97.500715 192.55066 
L 97.646846 192.118034 
L 98.231371 192.458787 
L 98.523633 191.606874 
L 99.108157 191.947627 
L 99.254288 191.528143 
L 99.400419 191.613107 
L 99.54655 191.196486 
L 100.86173 191.950037 
L 101.007861 191.542533 
L 103.63822 192.970036 
L 103.784351 192.577845 
L 104.222745 192.806582 
L 104.368876 192.418302 
L 104.807269 192.646061 
L 104.9534 192.261614 
L 105.537924 192.563316 
L 105.684055 192.183305 
L 106.268579 192.482385 
L 106.414711 192.106709 
L 106.560842 192.18132 
L 106.853104 191.436177 
L 107.291497 191.661936 
L 107.437628 191.293696 
L 107.72989 191.443845 
L 107.876021 191.078438 
L 108.314414 191.303118 
L 108.460546 190.941113 
L 108.606677 191.01598 
L 108.752808 190.656112 
L 112.113822 192.307954 
L 112.406084 191.61916 
L 112.844478 191.826701 
L 112.990609 191.486007 
L 116.351623 193.010247 
L 116.497754 192.682848 
L 116.643885 192.746597 
L 116.790016 192.420937 
L 117.082279 192.548702 
L 117.22841 192.225255 
L 117.959065 192.542915 
L 118.251327 191.90446 
L 118.543589 192.031771 
L 118.835851 191.399914 
L 119.420376 191.655434 
L 119.566507 191.343081 
L 120.735555 191.846654 
L 120.881686 191.539013 
L 121.027817 191.601382 
L 121.173948 191.295283 
L 121.320079 191.357865 
L 121.466211 191.053295 
L 121.612342 191.116085 
L 121.758473 190.813028 
L 122.635259 191.187663 
L 122.78139 190.888209 
L 123.219783 191.073822 
L 123.365914 190.776657 
L 125.265618 191.56424 
L 125.411749 191.273327 
L 125.704012 191.39219 
L 125.850143 191.103048 
L 127.019191 191.573621 
L 127.165322 191.288521 
L 127.895978 191.578173 
L 128.042109 191.295892 
L 130.672468 192.306624 
L 131.256992 191.212473 
L 133.595089 192.085032 
L 133.887351 191.55391 
L 135.640924 192.188148 
L 135.787055 191.927678 
L 135.933186 191.979803 
L 136.079317 191.720438 
L 137.102235 192.083115 
L 137.248366 191.826701 
L 137.979021 192.082657 
L 138.125152 191.828527 
L 138.855808 192.082208 
L 139.001939 191.83032 
L 139.878725 192.131615 
L 140.024856 191.882222 
L 140.901643 192.180025 
L 141.047774 191.933077 
L 141.193905 191.982495 
L 141.340036 191.736541 
L 141.778429 191.884789 
L 141.92456 191.64038 
L 143.678133 192.224168 
L 143.824264 191.983739 
L 145.870099 192.64416 
L 146.01623 192.408108 
L 146.600754 192.593192 
L 146.746885 192.358819 
L 149.961769 193.347206 
L 150.1079 193.118967 
L 150.400162 193.206459 
L 150.692424 192.752753 
L 152.153735 193.188152 
L 152.445997 192.741546 
L 154.053439 193.21269 
L 154.19957 192.992774 
L 155.514749 193.370543 
L 155.66088 193.153198 
L 156.245405 193.31924 
L 156.391536 193.103319 
L 156.829929 193.227415 
L 156.97606 193.012684 
L 157.268322 193.095332 
L 157.414453 192.881564 
L 158.437371 193.169114 
L 158.583502 192.957356 
L 159.168026 193.120296 
L 159.460288 192.699998 
L 159.75255 192.781698 
L 159.898681 192.572727 
L 160.775468 192.816676 
L 161.06773 192.402673 
L 164.721007 193.392036 
L 164.867138 193.190643 
L 165.597793 193.382567 
L 165.743924 193.182586 
L 167.789759 193.710912 
L 167.93589 193.513973 
L 168.520414 193.662564 
L 168.958808 193.076584 
L 169.981725 193.337137 
L 170.273987 192.951144 
L 171.735298 193.319809 
L 171.881429 193.129178 
L 172.904346 193.383613 
L 173.050478 193.194582 
L 174.365657 193.517526 
L 174.511788 193.330398 
L 175.826968 193.648566 
L 175.973099 193.463304 
L 176.996016 193.707672 
L 177.142147 193.523921 
L 177.580541 193.628014 
L 178.018934 193.080507 
L 178.165065 193.115526 
L 178.311196 192.933949 
L 178.89572 193.073904 
L 179.480245 192.35384 
L 179.918638 192.459854 
L 180.2109 192.10297 
L 181.964473 192.524023 
L 182.110604 192.347894 
L 183.133521 192.589761 
L 183.279652 192.414999 
L 183.425783 192.449413 
L 183.571914 192.275148 
L 183.718046 192.309634 
L 183.864177 192.135864 
L 184.156439 192.204909 
L 184.30257 192.031771 
L 185.325487 192.272219 
L 185.471618 192.100401 
L 185.76388 192.168757 
L 186.056143 191.826701 
L 186.640667 191.963686 
L 186.932929 191.624072 
L 187.517453 191.761046 
L 187.809715 191.423842 
L 188.686502 191.628869 
L 188.832633 191.461552 
L 189.417157 191.597423 
L 189.563288 191.430952 
L 190.440075 191.633554 
L 190.732337 191.303118 
L 191.024599 191.370638 
L 191.316861 191.041983 
L 192.339779 191.278016 
L 192.48591 191.115034 
L 193.508827 191.348789 
L 193.654958 191.186976 
L 195.993055 191.711709 
L 196.431448 191.233852 
L 197.308235 191.428725 
L 197.454366 191.270734 
L 197.892759 191.367708 
L 198.03889 191.210356 
L 198.769546 191.371367 
L 198.915677 191.214878 
L 199.35407 191.311118 
L 199.500201 191.155257 
L 199.792463 191.21935 
L 199.938594 191.063998 
L 200.523118 191.191934 
L 200.669249 191.037312 
L 201.107643 191.13299 
L 201.253774 190.97898 
L 201.984429 191.137843 
L 202.13056 190.984661 
L 202.715084 191.111162 
L 202.861215 190.958688 
L 203.299609 191.053295 
L 203.44574 190.901417 
L 203.591871 190.932947 
L 203.738002 190.781447 
L 204.322526 190.907435 
L 204.468657 190.756629 
L 205.053181 190.882148 
L 205.345444 190.582176 
L 207.391279 191.017497 
L 207.683541 190.721464 
L 208.560327 190.906015 
L 208.706458 190.758991 
L 208.852589 190.789664 
L 208.99872 190.642993 
L 209.290982 190.704381 
L 209.729376 190.266479 
L 210.021638 190.328249 
L 210.167769 190.182979 
L 210.3139 190.213883 
L 210.460031 190.068959 
L 211.190686 190.223173 
L 211.336817 190.078982 
L 211.921342 190.201796 
L 212.067473 190.058234 
L 212.798128 190.211062 
L 213.09039 189.925615 
L 213.821046 190.078102 
L 213.967177 189.936208 
L 216.305274 190.417164 
L 216.451405 190.276983 
L 217.328191 190.454622 
L 217.766584 190.037092 
L 218.643371 190.214601 
L 218.789502 190.076415 
L 219.081764 190.135376 
L 219.227895 189.997591 
L 220.250812 190.203065 
L 220.543075 189.929391 
L 220.981468 190.017261 
L 221.127599 189.881014 
L 221.858254 190.026954 
L 222.004385 189.891354 
L 222.442779 189.978613 
L 222.58891 189.843485 
L 223.173434 189.95952 
L 223.319565 189.824945 
L 223.465696 189.853922 
L 223.757958 189.58558 
L 224.05022 189.643731 
L 224.342482 189.37657 
L 224.780876 189.463947 
L 224.927007 189.33093 
L 225.657662 189.476049 
L 225.803793 189.343649 
L 227.703497 189.716728 
L 228.14189 189.323895 
L 231.064512 189.888086 
L 231.210643 189.759109 
L 231.795167 189.870194 
L 231.941298 189.74172 
L 232.087429 189.769463 
L 232.23356 189.64126 
L 232.525822 189.696771 
L 232.671953 189.568914 
L 233.54874 189.734896 
L 233.841002 189.480665 
L 234.571657 189.618587 
L 234.863919 189.365863 
L 235.01005 189.393471 
L 235.156181 189.267466 
L 235.448444 189.322706 
L 235.594575 189.197036 
L 236.032968 189.279807 
L 236.179099 189.154542 
L 236.32523 189.182122 
L 236.617492 188.932295 
L 237.055885 189.015225 
L 237.202016 188.890804 
L 237.348147 188.918438 
L 237.64041 188.67029 
L 237.932672 188.725718 
L 238.078803 188.60206 
L 238.517196 188.685109 
L 238.663327 188.561844 
L 239.686245 188.754698 
L 239.978507 188.509685 
L 240.124638 188.537213 
L 240.270769 188.415043 
L 241.439817 188.634382 
L 241.585948 188.512938 
L 241.878211 188.567513 
L 242.024342 188.44638 
L 242.462735 188.528149 
L 242.608866 188.407394 
L 242.754997 188.434639 
L 243.339521 187.953617 
L 244.800832 188.226586 
L 245.531487 187.632447 
L 245.677618 187.659856 
L 245.96988 187.423508 
L 246.846667 187.587916 
L 247.138929 187.353001 
L 247.723453 187.462342 
L 248.015715 187.228592 
L 248.161846 187.255957 
L 248.307978 187.13939 
L 249.184764 187.303152 
L 249.477026 187.071251 
L 250.06155 187.18016 
L 250.646075 186.719269 
L 250.938337 186.773984 
L 251.37673 186.430349 
L 251.815123 186.51268 
L 251.961254 186.39863 
L 252.399647 186.4808 
L 252.984172 186.026876 
L 253.422565 186.109415 
L 253.714827 186.023994 
L 254.007089 185.938806 
L 254.299351 185.993727 
L 254.591613 185.908811 
L 254.883876 185.963624 
L 255.322269 185.767137 
L 255.614531 185.68293 
L 255.906793 185.737789 
L 256.491317 185.431672 
L 257.660366 185.65069 
L 258.098759 185.457327 
L 258.537152 185.539078 
L 258.829414 185.456411 
L 259.706201 185.619048 
L 259.998463 185.536713 
L 260.290725 185.590676 
L 260.582987 185.508596 
L 261.898167 185.749838 
L 262.33656 185.55996 
L 262.921084 185.666553 
L 263.359478 185.477706 
L 263.65174 185.530936 
L 263.944002 185.450164 
L 264.528526 185.55628 
L 265.11305 185.262339 
L 265.405312 185.315434 
L 265.697575 185.235567 
L 265.843706 185.262081 
L 266.42823 184.970602 
L 266.866623 185.050296 
L 267.305016 184.865909 
L 267.451147 184.892472 
L 267.74341 184.813864 
L 268.327934 184.919843 
L 268.766327 184.736881 
L 269.496982 184.868927 
L 269.789245 184.791047 
L 270.227638 184.86992 
L 270.5199 184.792286 
L 270.812162 184.844733 
L 271.104424 184.767326 
L 271.981211 184.923972 
L 272.273473 184.846855 
L 272.711866 184.924782 
L 273.004128 184.847905 
L 273.29639 184.899726 
L 273.588652 184.823072 
L 275.049963 185.080399 
L 275.488356 184.902353 
L 275.634487 184.927973 
L 276.803536 184.24556 
L 276.949667 184.271442 
L 277.241929 184.19674 
L 277.680322 184.274239 
L 278.118715 184.099638 
L 278.995502 184.25414 
L 279.433895 184.080534 
L 279.726157 184.131901 
L 280.602944 183.662209 
L 282.064254 183.919088 
L 282.502647 183.748281 
L 283.087172 183.850394 
L 284.25622 183.193921 
L 284.402351 183.219643 
L 284.840745 183.051715 
L 285.279138 183.12886 
L 285.863662 182.865452 
L 286.155924 182.91692 
L 286.448186 182.846608 
L 287.032711 182.949223 
L 287.324973 182.879122 
L 287.763366 182.955799 
L 288.34789 182.695429 
L 288.786283 182.772115 
L 289.224677 182.607922 
L 290.247594 182.786169 
L 290.539856 182.717156 
L 290.832118 182.767838 
L 291.416643 182.511078 
L 292.731822 182.738507 
L 293.024084 182.670225 
L 293.316346 182.720465 
L 294.339264 182.188065 
L 294.485395 182.213346 
L 294.777657 182.146135 
L 296.238968 182.397458 
L 296.823492 182.146938 
L 297.700279 182.296875 
L 298.284803 182.047997 
L 298.430934 182.072972 
L 298.723196 182.006943 
L 298.869327 182.031899 
L 299.161589 181.966028 
L 299.30772 181.990964 
L 299.599982 181.92525 
L 299.746113 181.950168 
L 300.769031 181.433894 
L 301.353555 181.534049 
L 301.645817 181.469358 
L 301.791948 181.494335 
L 302.084211 181.429796 
L 302.376473 181.479683 
L 302.814866 181.326122 
L 303.253259 181.400877 
L 303.545521 181.336799 
L 303.691652 181.361669 
L 304.130046 181.209067 
L 304.276177 181.233954 
L 304.568439 181.170307 
L 305.006832 181.244825 
L 305.445225 181.093171 
L 306.760405 181.315637 
L 307.052667 181.252492 
L 308.221715 181.336675 
L 308.660109 181.298296 
L 309.244633 181.0617 
L 309.975288 181.072837 
L 310.998206 180.579331 
L 311.728861 180.591692 
L 312.313385 180.359274 
L 313.628565 180.470096 
L 313.920827 180.409434 
L 315.236007 180.519371 
L 316.405055 179.953221 
L 317.135711 179.966989 
L 317.427973 179.907622 
L 318.597021 179.99431 
L 318.889283 179.935225 
L 319.473808 179.924725 
L 320.496725 179.45209 
L 320.935118 179.418323 
L 321.22738 179.360326 
L 322.688691 179.496465 
L 323.419346 179.19368 
L 323.711609 179.136421 
L 324.442264 178.835646 
L 325.172919 178.851887 
L 326.049706 178.472886 
L 326.488099 178.44127 
L 327.511016 177.985422 
L 327.94941 177.954707 
L 328.680065 177.661329 
L 328.972327 177.60666 
L 329.41072 177.473052 
L 330.287507 177.516969 
L 330.7259 177.3841 
L 331.456555 177.403625 
L 331.894948 177.271457 
L 332.333342 177.242272 
L 332.625604 177.188702 
L 333.210128 177.184162 
L 333.648521 177.053109 
L 334.379177 177.073261 
L 334.671439 177.02023 
L 335.109832 176.991692 
L 335.402094 176.938872 
L 335.840487 176.910524 
L 336.27888 176.781038 
L 336.717274 176.753007 
L 337.886322 176.242396 
L 338.616978 176.264244 
L 339.201502 176.06113 
L 339.786026 176.058885 
L 340.37055 175.85696 
L 340.662812 175.905913 
L 340.662812 175.905913 
" clip-path="url(#p95bc2329f0)" style="fill: none; stroke: #d55e00; stroke-width: 1.8; stroke-linecap: square"/>
   </g>
   <g id="line2d_28">
    <path d="M 39.778944 226.278437 
L 89.609638 226.278437 
L 89.755769 225.67937 
L 112.844478 225.868298 
L 112.990609 225.459792 
L 120.443293 225.535291 
L 120.735555 224.797501 
L 121.466211 224.810723 
L 121.612342 224.447065 
L 133.595089 224.680615 
L 133.74122 224.364028 
L 135.640924 224.401908 
L 135.933186 223.783991 
L 136.809973 223.806498 
L 136.956104 223.501681 
L 138.417414 223.542757 
L 138.563546 223.243282 
L 139.294201 223.265534 
L 139.732594 222.378817 
L 140.60938 222.412678 
L 140.755512 222.121328 
L 142.216822 222.180546 
L 142.362953 221.894085 
L 143.385871 221.937311 
L 143.532002 221.654415 
L 145.723968 221.749953 
L 145.870099 221.473541 
L 149.084982 221.614672 
L 149.231113 221.346917 
L 149.815638 221.373079 
L 149.961769 221.107418 
L 150.546293 221.134669 
L 150.692424 220.871069 
L 151.130817 220.89233 
L 151.276948 220.630427 
L 151.569211 220.645174 
L 151.715342 220.384617 
L 154.930225 220.548957 
L 155.076356 220.296108 
L 155.514749 220.31874 
L 155.66088 220.067455 
L 155.807012 220.075268 
L 155.953143 219.82492 
L 156.099274 219.833017 
L 156.245405 219.5836 
L 160.190944 219.802704 
L 160.337075 219.561779 
L 160.629337 219.578003 
L 160.775468 219.33822 
L 163.990351 219.517638 
L 164.136482 219.2844 
L 164.721007 219.317082 
L 164.867138 219.085439 
L 165.451662 219.118856 
L 165.597793 218.888786 
L 166.620711 218.948311 
L 166.766842 218.720552 
L 168.520414 218.823381 
L 168.666546 218.599117 
L 175.826968 219.002858 
L 176.11923 218.578438 
L 176.411492 218.59489 
L 176.557623 218.383795 
L 176.849885 218.40061 
L 176.996016 218.190395 
L 178.018934 218.25018 
L 178.165065 218.041897 
L 178.457327 218.059237 
L 178.749589 217.644824 
L 178.89572 217.653883 
L 179.041851 217.447536 
L 179.187982 217.456783 
L 179.334113 217.251073 
L 179.626376 217.26992 
L 179.918638 216.860604 
L 180.941555 216.928779 
L 181.087686 216.726165 
L 182.402866 216.814159 
L 182.695128 216.413718 
L 184.156439 216.513463 
L 184.30257 216.315771 
L 185.179356 216.375787 
L 185.325487 216.179621 
L 185.617749 216.199839 
L 185.76388 216.004437 
L 185.910012 216.014701 
L 186.202274 215.625437 
L 186.494536 215.646637 
L 186.640667 215.45295 
L 187.955846 215.54894 
L 188.101978 215.357256 
L 190.147812 215.5057 
L 190.293944 215.316847 
L 190.586206 215.33807 
L 190.732337 215.149927 
L 190.878468 215.160679 
L 191.024599 214.973071 
L 191.609123 215.016553 
L 191.901385 214.643773 
L 192.193647 214.666062 
L 192.339779 214.480543 
L 194.239482 214.625507 
L 194.385613 214.442479 
L 194.677876 214.46479 
L 194.824007 214.28243 
L 195.2624 214.316222 
L 195.408531 214.134685 
L 195.700793 214.157426 
L 195.846924 213.976548 
L 196.285317 214.010975 
L 196.577579 213.651175 
L 197.162104 213.698029 
L 197.308235 213.519253 
L 198.769546 213.636417 
L 198.915677 213.459502 
L 199.061808 213.471251 
L 199.35407 213.118694 
L 199.646332 213.14273 
L 199.792463 212.967233 
L 199.938594 212.979367 
L 200.230856 212.629629 
L 200.523118 212.654423 
L 200.669249 212.480325 
L 201.253774 212.530228 
L 201.546036 212.184141 
L 202.861215 212.297703 
L 203.007346 212.126416 
L 204.176395 212.226963 
L 204.322526 212.057107 
L 204.760919 212.094862 
L 204.90705 211.925723 
L 205.053181 211.938402 
L 205.199312 211.7697 
L 205.929968 211.833446 
L 206.076099 211.665725 
L 206.806754 211.729591 
L 207.099016 211.396378 
L 207.975803 211.473889 
L 208.121934 211.308516 
L 209.437113 211.424462 
L 209.583245 211.260553 
L 209.729376 211.273455 
L 209.875507 211.109957 
L 210.021638 211.122966 
L 210.167769 210.959877 
L 210.3139 210.972992 
L 210.460031 210.810311 
L 210.752293 210.83673 
L 210.898424 210.674581 
L 211.044555 210.687883 
L 211.190686 210.526138 
L 211.921342 210.592941 
L 212.067473 210.432099 
L 212.505866 210.472284 
L 212.798128 210.152159 
L 212.944259 210.165756 
L 213.09039 210.006222 
L 213.821046 210.074478 
L 213.967177 209.915822 
L 214.697832 209.984114 
L 214.843963 209.826327 
L 214.990094 209.840037 
L 215.136225 209.682634 
L 215.428487 209.710225 
L 215.574618 209.553321 
L 216.305274 209.62249 
L 216.451405 209.466438 
L 217.035929 209.521831 
L 217.328191 209.211431 
L 217.912715 209.267388 
L 218.058846 209.113032 
L 218.49724 209.155104 
L 218.789502 208.847834 
L 219.227895 208.890382 
L 219.374026 208.737462 
L 219.812419 208.780141 
L 219.95855 208.627805 
L 220.543075 208.684835 
L 220.689206 208.533191 
L 222.004385 208.661162 
L 222.150516 208.510751 
L 222.296647 208.524965 
L 222.58891 208.225083 
L 223.027303 208.268238 
L 223.173434 208.118979 
L 224.196351 208.219625 
L 224.342482 208.071349 
L 224.634745 208.100112 
L 224.780876 207.952281 
L 225.073138 207.981164 
L 225.219269 207.833776 
L 225.3654 207.848288 
L 225.511531 207.701236 
L 226.096055 207.759472 
L 226.388317 207.466888 
L 226.534448 207.481596 
L 227.118973 206.899575 
L 227.411235 206.929737 
L 227.557366 206.785 
L 227.703497 206.800147 
L 227.849628 206.655736 
L 228.726414 206.746722 
L 228.872546 206.603132 
L 229.018677 206.618314 
L 229.45707 206.189169 
L 229.749332 206.220052 
L 229.895463 206.077639 
L 230.333856 206.124077 
L 230.479987 205.982174 
L 231.210643 206.059582 
L 231.649036 205.636611 
L 232.671953 205.745992 
L 232.818084 205.606093 
L 234.279395 205.76129 
L 234.571657 205.483985 
L 234.717788 205.499561 
L 234.863919 205.361312 
L 235.302312 205.408176 
L 235.448444 205.270408 
L 235.740706 205.301716 
L 236.179099 204.890185 
L 236.909754 204.9694 
L 237.202016 204.696958 
L 237.494279 204.728836 
L 237.786541 204.457553 
L 238.224934 204.505722 
L 238.809458 203.966596 
L 239.832376 204.080598 
L 240.124638 203.96319 
L 240.270769 203.979443 
L 240.563031 203.862437 
L 241.732079 203.992103 
L 242.024342 203.875925 
L 242.462735 203.924345 
L 242.754997 203.808682 
L 242.901128 203.824836 
L 243.339521 203.578351 
L 243.631783 203.610873 
L 244.362439 203.105104 
L 244.654701 203.138138 
L 245.093094 202.895223 
L 245.385356 202.928438 
L 245.677618 202.815828 
L 246.262143 202.8822 
L 246.846667 202.513473 
L 246.992798 202.53022 
L 247.577322 202.163778 
L 247.869584 202.197623 
L 248.307978 201.960426 
L 249.038633 202.045276 
L 249.477026 201.809719 
L 249.915419 201.860731 
L 250.353812 201.626537 
L 250.499944 201.643621 
L 251.37673 201.036588 
L 251.522861 201.053996 
L 251.815123 200.947225 
L 252.545779 201.034155 
L 252.984172 200.804547 
L 253.276434 200.839395 
L 253.568696 200.733793 
L 254.737745 200.872622 
L 255.176138 200.645678 
L 255.322269 200.663045 
L 255.614531 200.558681 
L 255.760662 200.576071 
L 256.052924 200.472036 
L 256.199055 200.48945 
L 256.491317 200.385742 
L 256.637448 200.403178 
L 257.075842 200.179163 
L 257.221973 200.196691 
L 257.660366 199.973692 
L 257.806497 199.991311 
L 258.24489 199.76932 
L 258.683283 199.822373 
L 259.267808 199.482642 
L 260.144594 199.589186 
L 260.436856 199.488524 
L 261.605905 199.629616 
L 262.044298 199.41213 
L 262.33656 199.447388 
L 262.628822 199.3479 
L 262.921084 199.38315 
L 263.505609 199.050996 
L 263.797871 199.086495 
L 264.090133 198.988125 
L 265.11305 199.111931 
L 265.989837 198.553893 
L 266.135968 198.571779 
L 266.42823 198.475087 
L 266.866623 198.528727 
L 267.305016 198.318386 
L 267.451147 198.336321 
L 267.889541 198.126888 
L 268.035672 198.144899 
L 269.058589 197.485062 
L 270.666031 197.685395 
L 270.958293 197.591716 
L 271.542817 197.66402 
L 271.835079 197.570722 
L 272.711866 197.678713 
L 273.150259 197.475233 
L 273.29639 197.493247 
L 273.734783 197.290622 
L 273.880914 197.308706 
L 274.173177 197.21678 
L 274.319308 197.234876 
L 274.903832 196.924152 
L 275.196094 196.960571 
L 275.488356 196.86959 
L 275.780618 196.905987 
L 276.07288 196.815298 
L 276.365143 196.851672 
L 276.949667 196.544571 
L 277.095798 196.562868 
L 277.534191 196.365194 
L 278.118715 196.438511 
L 278.410978 196.349282 
L 278.557109 196.367587 
L 279.141633 196.064478 
L 279.433895 196.101302 
L 279.726157 196.012972 
L 279.872288 196.031382 
L 280.16455 195.943298 
L 280.310681 195.961716 
L 281.041337 195.555944 
L 281.187468 195.574529 
L 281.918123 195.171393 
L 282.941041 195.302173 
L 283.233303 195.216074 
L 283.379434 195.234696 
L 283.963958 194.94028 
L 284.548482 195.015072 
L 284.840745 194.92988 
L 285.133007 194.967199 
L 285.863662 194.572325 
L 287.471104 194.777966 
L 288.34789 194.285371 
L 288.640152 194.322921 
L 289.370808 193.935477 
L 290.247594 194.04863 
L 290.978249 193.664461 
L 291.562774 193.740131 
L 292.293429 193.358854 
L 293.024084 193.453778 
L 293.462478 193.273878 
L 293.608609 193.292868 
L 294.339264 192.915936 
L 294.923788 192.992324 
L 295.362181 192.814552 
L 295.800575 192.87182 
L 296.238968 192.694861 
L 296.823492 192.771187 
L 297.115754 192.692603 
L 297.261885 192.711654 
L 297.554147 192.63327 
L 297.700279 192.652322 
L 298.284803 192.380042 
L 298.869327 192.456476 
L 299.161589 192.378865 
L 299.30772 192.397942 
L 299.599982 192.320529 
L 300.6229 192.453622 
L 301.353555 192.089135 
L 302.230342 192.20329 
L 302.960997 191.841723 
L 303.107128 191.860822 
L 303.837783 191.501402 
L 304.276177 191.559012 
L 305.152963 191.108223 
L 305.883618 191.204738 
L 306.17588 191.130543 
L 307.052667 191.245782 
L 307.637191 190.986071 
L 307.929453 190.912599 
L 308.80624 190.470034 
L 309.098502 190.39744 
L 309.683026 190.141533 
L 310.705944 190.167128 
L 311.58273 189.731484 
L 311.874992 189.660424 
L 312.313385 189.499059 
L 312.751779 189.448154 
L 313.482434 189.107829 
L 313.774696 189.037926 
L 314.35922 188.789267 
L 314.651482 188.719925 
L 315.089876 188.561684 
L 315.382138 188.492767 
L 315.820531 188.335305 
L 316.258924 188.28689 
L 316.697317 188.130252 
L 317.281842 188.102416 
L 317.574104 188.034526 
L 318.012497 187.986889 
L 318.889283 187.569489 
L 319.327677 187.522805 
L 319.76607 187.369079 
L 320.204463 187.322854 
L 320.642856 187.16992 
L 321.081249 187.124149 
L 321.958036 186.713965 
L 322.834822 186.730429 
L 323.565478 186.409184 
L 323.85774 186.344535 
L 324.150002 186.280019 
L 324.588395 186.236181 
L 325.172919 186.002675 
L 325.611312 185.959419 
L 326.195837 185.727311 
L 326.488099 185.663949 
L 327.072623 185.43315 
L 327.364885 185.370281 
L 327.803279 185.224117 
L 328.095541 185.161619 
L 328.387803 185.099247 
L 328.680065 185.037002 
L 329.118458 184.892006 
L 329.556851 184.851018 
L 329.849113 184.789273 
L 330.287507 184.748543 
L 331.018162 184.440484 
L 331.456555 184.400441 
L 331.748817 184.339548 
L 332.333342 184.320714 
L 332.917866 184.097192 
L 333.794652 184.120842 
L 334.086914 184.06071 
L 334.671439 184.042578 
L 335.255963 183.821374 
L 335.548225 183.761835 
L 335.986618 183.622086 
L 336.425012 183.583922 
L 336.863405 183.444849 
L 337.301798 183.407058 
L 337.740191 183.268653 
L 338.032453 183.210152 
L 338.763109 182.913826 
L 339.055371 182.85587 
L 339.639895 182.640211 
L 340.662812 182.688748 
L 340.662812 182.688748 
" clip-path="url(#p95bc2329f0)" style="fill: none; stroke: #009e73; stroke-width: 1.8; stroke-linecap: square"/>
   </g>
   <g id="line2d_29">
    <path d="M 39.778944 226.278437 
L 82.156953 226.278437 
L 82.303084 225.574739 
L 89.609638 225.677619 
L 89.755769 225.080303 
L 91.947735 225.130505 
L 92.093866 224.561334 
L 92.532259 224.575565 
L 92.67839 224.014195 
L 93.262914 224.038873 
L 93.409046 223.48659 
L 93.555177 223.494156 
L 93.99357 221.859513 
L 94.431963 221.894864 
L 94.870356 220.298861 
L 95.162618 220.330332 
L 95.308749 219.806626 
L 96.039405 219.890458 
L 96.185536 219.376009 
L 96.477798 219.411497 
L 97.500715 215.90066 
L 97.646846 215.9268 
L 97.792978 215.436528 
L 98.815895 215.623919 
L 99.108157 214.666546 
L 99.400419 214.723327 
L 99.692681 213.779654 
L 99.838812 213.809991 
L 101.446254 208.790778 
L 102.469172 209.075461 
L 102.615303 208.638623 
L 103.199827 208.800828 
L 103.345958 208.36963 
L 103.492089 208.410611 
L 103.63822 207.982273 
L 104.222745 208.147849 
L 104.368876 207.724939 
L 105.684055 208.094367 
L 105.976317 207.269275 
L 106.268579 207.352648 
L 107.437628 204.136196 
L 107.583759 204.183814 
L 107.72989 203.790283 
L 107.876021 203.838437 
L 108.752808 201.516577 
L 108.898939 201.568817 
L 111.675429 194.602007 
L 111.82156 194.66613 
L 112.990609 191.89533 
L 113.575133 192.167133 
L 114.305788 190.490336 
L 114.744181 190.699216 
L 115.91323 188.095372 
L 116.205492 188.241109 
L 116.643885 187.287925 
L 117.374541 187.654377 
L 117.666803 187.029449 
L 117.812934 187.102811 
L 117.959065 186.792542 
L 118.105196 186.866073 
L 118.251327 186.557397 
L 118.543589 186.704512 
L 118.835851 186.092312 
L 119.566507 186.459644 
L 119.712638 186.157343 
L 120.151031 186.375788 
L 120.297162 186.075829 
L 120.443293 186.148528 
L 120.735555 185.552672 
L 121.320079 185.84409 
L 121.466211 185.549366 
L 122.050735 185.838225 
L 122.196866 185.546119 
L 122.342997 185.618084 
L 125.55788 179.451363 
L 126.580798 177.584858 
L 126.726929 177.666558 
L 127.019191 177.141916 
L 127.457584 177.38719 
L 128.334371 175.83936 
L 128.626633 176.005006 
L 129.211157 174.992238 
L 129.503419 175.159023 
L 129.64955 174.908437 
L 129.795681 174.991695 
L 130.526337 173.7522 
L 130.818599 173.920553 
L 130.96473 173.675557 
L 131.695385 174.093041 
L 131.841516 173.850102 
L 132.27991 174.098185 
L 132.572172 173.61611 
L 132.864434 173.781196 
L 133.156696 173.303125 
L 133.595089 173.550288 
L 133.74122 173.313096 
L 134.033482 173.477075 
L 134.179613 173.241096 
L 135.348662 173.88888 
L 135.640924 173.422852 
L 135.933186 173.583263 
L 136.225448 173.120979 
L 136.517711 173.281333 
L 136.663842 173.051691 
L 137.248366 173.370414 
L 137.394497 173.142354 
L 137.83289 173.379568 
L 137.979021 173.152851 
L 138.271283 173.31026 
L 138.417414 173.084651 
L 139.001939 173.397555 
L 139.14807 173.173474 
L 139.294201 173.251341 
L 140.60938 171.265702 
L 140.755512 171.345201 
L 141.047774 170.911348 
L 141.193905 170.991013 
L 142.362953 169.281851 
L 142.509084 169.362812 
L 142.801346 168.94195 
L 143.093609 169.103918 
L 143.532002 168.478156 
L 143.678133 168.559336 
L 143.824264 168.352098 
L 144.408788 168.675258 
L 144.554919 168.469301 
L 144.847181 168.629882 
L 146.01623 167.005361 
L 146.162361 167.086668 
L 146.308492 166.886273 
L 146.454623 166.967521 
L 146.746885 166.568697 
L 147.039147 166.731172 
L 147.185279 166.532894 
L 148.208196 167.095773 
L 148.354327 166.899136 
L 148.646589 167.05833 
L 148.938851 166.667261 
L 149.377245 166.905388 
L 150.546293 165.365394 
L 150.692424 165.445543 
L 151.715342 164.125426 
L 151.861473 164.206354 
L 152.153735 163.833866 
L 152.299866 163.914858 
L 152.88439 163.176192 
L 153.030521 163.25751 
L 156.099274 159.503883 
L 156.245405 159.58756 
L 156.391536 159.413857 
L 156.829929 159.663974 
L 156.97606 159.49104 
L 157.852846 159.986373 
L 158.29124 159.472132 
L 158.583502 159.636275 
L 160.044812 157.95135 
L 160.190944 158.034171 
L 161.213861 156.879543 
L 161.359992 156.962855 
L 161.798385 156.474227 
L 162.090647 156.640824 
L 162.236779 156.478914 
L 162.38291 156.562009 
L 162.821303 156.078865 
L 163.259696 156.327799 
L 163.405827 156.167788 
L 163.698089 156.332949 
L 164.428745 155.539421 
L 165.451662 156.114535 
L 166.766842 154.714713 
L 167.205235 154.960637 
L 167.351366 154.807133 
L 167.643628 154.97031 
L 167.789759 154.81732 
L 168.666546 155.3029 
L 169.397201 154.545555 
L 169.543332 154.626244 
L 172.173691 151.970345 
L 172.319822 152.052182 
L 174.365657 150.059175 
L 174.657919 150.224152 
L 175.826968 149.113201 
L 175.973099 149.195908 
L 176.411492 148.784378 
L 176.557623 148.867082 
L 179.626376 146.059732 
L 179.772507 146.14338 
L 181.233817 144.849831 
L 181.526079 145.017552 
L 181.672211 144.889754 
L 182.695128 145.471696 
L 182.841259 145.344478 
L 183.571914 145.755311 
L 183.718046 145.628579 
L 184.448701 146.035491 
L 185.471618 145.157075 
L 185.617749 145.238277 
L 186.056143 144.865703 
L 186.202274 144.946872 
L 187.225191 144.086437 
L 187.371322 144.167735 
L 188.101978 143.560603 
L 188.248109 143.641938 
L 188.686502 143.280634 
L 188.832633 143.361924 
L 191.462992 141.238591 
L 191.609123 141.320361 
L 191.901385 141.089033 
L 192.047516 141.17071 
L 192.339779 140.940332 
L 192.48591 141.021917 
L 193.070434 140.563923 
L 193.216565 140.645478 
L 193.94722 140.078021 
L 194.093351 140.159573 
L 194.677876 139.709578 
L 194.824007 139.791093 
L 195.700793 139.122595 
L 195.846924 139.204125 
L 196.139186 138.983013 
L 196.285317 139.064445 
L 197.454366 138.1884 
L 197.600497 138.26989 
L 198.03889 137.944784 
L 198.185021 138.026198 
L 198.477283 137.810507 
L 200.376987 138.856038 
L 200.523118 138.74881 
L 201.107643 139.065659 
L 201.399905 138.851988 
L 201.546036 138.930892 
L 201.838298 138.718041 
L 202.13056 138.875524 
L 202.276691 138.769435 
L 202.422822 138.847989 
L 202.568953 138.742115 
L 202.715084 138.820552 
L 202.861215 138.714892 
L 203.007346 138.793214 
L 203.591871 138.372555 
L 203.738002 138.450833 
L 204.760919 137.722013 
L 204.90705 137.800312 
L 206.368361 136.774879 
L 206.660623 136.931491 
L 207.975803 136.024201 
L 208.268065 136.180621 
L 208.706458 135.881445 
L 208.852589 135.959508 
L 210.021638 135.169381 
L 210.3139 135.32539 
L 210.606162 135.129617 
L 210.752293 135.207455 
L 210.898424 135.109837 
L 211.190686 135.26515 
L 211.482948 135.070478 
L 211.629079 135.14797 
L 212.067473 134.857251 
L 212.359735 135.01194 
L 212.505866 134.915394 
L 212.651997 134.992559 
L 212.944259 134.799989 
L 213.09039 134.877056 
L 213.236521 134.78103 
L 213.528783 134.934807 
L 213.674914 134.838975 
L 213.821046 134.915686 
L 213.967177 134.82003 
L 214.551701 135.125656 
L 214.697832 135.030224 
L 214.843963 135.106327 
L 220.250812 131.684489 
L 220.543075 131.837307 
L 220.689206 131.747687 
L 220.835337 131.823921 
L 222.296647 130.935718 
L 222.442779 131.011931 
L 224.196351 129.964772 
L 224.342482 130.040969 
L 225.219269 129.524863 
L 225.3654 129.600987 
L 225.657662 129.430048 
L 225.803793 129.506067 
L 225.949924 129.420806 
L 226.096055 129.496713 
L 226.388317 129.326607 
L 226.534448 129.402409 
L 226.680579 129.317562 
L 226.826711 129.393254 
L 227.703497 128.886985 
L 228.434152 129.263886 
L 228.726414 129.096243 
L 228.872546 129.171287 
L 229.895463 128.588637 
L 230.479987 128.88784 
L 230.626118 128.80514 
L 230.772249 128.879661 
L 230.91838 128.797093 
L 231.064512 128.871506 
L 231.210643 128.789071 
L 231.356774 128.863377 
L 232.23356 128.371427 
L 232.671953 128.593774 
L 232.964215 128.430818 
L 233.110346 128.504721 
L 233.54874 128.261226 
L 233.694871 128.335034 
L 234.279395 128.012101 
L 234.425526 128.085819 
L 235.302312 127.605069 
L 236.32523 128.118229 
L 237.202016 127.641958 
L 237.348147 127.71486 
L 239.393982 126.619886 
L 239.686245 126.765479 
L 240.709162 126.226403 
L 240.855293 126.299062 
L 241.878211 125.765461 
L 243.047259 126.343121 
L 243.339521 126.191694 
L 243.777914 126.406626 
L 243.924046 126.331084 
L 244.070177 126.402526 
L 244.216308 126.327095 
L 244.50857 126.469679 
L 244.654701 126.394361 
L 245.385356 126.749062 
L 245.531487 126.673867 
L 246.700536 127.236207 
L 246.846667 127.161146 
L 246.992798 127.230996 
L 248.015715 126.708536 
L 248.161846 126.778311 
L 249.330895 126.187483 
L 249.477026 126.257184 
L 249.623157 126.183796 
L 249.769288 126.253403 
L 251.37673 125.452847 
L 251.668992 125.591821 
L 251.815123 125.51965 
L 251.961254 125.588995 
L 252.838041 125.158054 
L 253.130303 125.29648 
L 253.276434 125.225004 
L 253.422565 125.294077 
L 253.568696 125.2227 
L 253.714827 125.29168 
L 253.860958 125.220402 
L 254.007089 125.28929 
L 254.15322 125.218111 
L 254.299351 125.286906 
L 254.737745 125.073954 
L 255.4684 125.416555 
L 255.760662 125.275084 
L 255.906793 125.343329 
L 256.345186 125.131843 
L 257.221973 125.539418 
L 257.514235 125.39892 
L 258.098759 125.668832 
L 258.391021 125.528725 
L 258.537152 125.595981 
L 258.683283 125.526069 
L 259.413939 125.861017 
L 259.56007 125.791208 
L 259.706201 125.857933 
L 260.729118 125.371868 
L 261.02138 125.505078 
L 261.167512 125.43601 
L 261.313643 125.502485 
L 262.044298 125.158516 
L 262.482691 125.357441 
L 262.628822 125.288922 
L 262.774953 125.355058 
L 263.213346 125.150045 
L 263.359478 125.216099 
L 263.505609 125.147941 
L 264.236264 125.476928 
L 264.528526 125.340894 
L 264.674657 125.406437 
L 265.11305 125.203052 
L 265.989837 125.594564 
L 266.135968 125.526954 
L 266.574361 125.72158 
L 267.012754 125.519286 
L 267.158885 125.583999 
L 267.74341 125.315491 
L 268.181803 125.509154 
L 268.327934 125.442246 
L 269.20472 125.827362 
L 269.350851 125.760549 
L 269.496982 125.824451 
L 269.643113 125.757726 
L 269.789245 125.821549 
L 269.935376 125.75491 
L 270.666031 126.072821 
L 270.812162 126.006276 
L 271.688948 126.385138 
L 271.835079 126.318689 
L 272.711866 126.694713 
L 272.857997 126.628362 
L 273.880914 127.063515 
L 274.027046 126.997265 
L 274.173177 127.059123 
L 274.319308 126.992958 
L 274.465439 127.054741 
L 274.757701 126.922664 
L 275.634487 127.291787 
L 275.780618 127.225888 
L 276.365143 127.470462 
L 276.511274 127.404656 
L 276.803536 127.526497 
L 276.949667 127.460777 
L 277.534191 127.703573 
L 277.826453 127.572401 
L 278.410978 127.814031 
L 278.557109 127.748578 
L 279.433895 128.108834 
L 279.580026 128.04348 
L 281.333599 128.756188 
L 281.47973 128.690957 
L 281.771992 128.808745 
L 282.356516 128.548636 
L 282.502647 128.607439 
L 282.648779 128.542611 
L 282.941041 128.660011 
L 283.087172 128.595268 
L 283.379434 128.712394 
L 283.525565 128.647736 
L 284.25622 128.939346 
L 284.402351 128.874784 
L 284.986876 129.106835 
L 285.5714 128.849418 
L 286.155924 129.080429 
L 286.302055 129.016281 
L 286.594317 129.131384 
L 286.740448 129.06732 
L 287.032711 129.182159 
L 287.178842 129.118178 
L 288.201759 129.518014 
L 288.640152 129.447193 
L 288.786283 129.503986 
L 289.224677 129.433356 
L 289.955332 129.716032 
L 290.247594 129.708828 
L 290.393725 129.765104 
L 290.978249 129.631158 
L 291.12438 129.687316 
L 291.855036 129.490929 
L 292.147298 129.484039 
L 293.024084 129.818968 
L 293.608609 129.686286 
L 293.900871 129.679219 
L 294.339264 129.609705 
L 295.362181 129.878963 
L 296.53123 130.317641 
L 296.823492 130.309937 
L 297.261885 130.35669 
L 297.554147 130.348964 
L 299.453851 131.050361 
L 299.746113 131.041921 
L 300.476769 131.193575 
L 300.769031 131.185007 
L 302.084211 131.547123 
L 302.668735 131.415171 
L 303.253259 131.511608 
L 303.691652 131.441514 
L 303.983914 131.432777 
L 304.276177 131.424059 
L 304.568439 131.41536 
L 304.860701 131.40668 
L 305.883618 131.658394 
L 306.17588 131.64949 
L 306.760405 131.744149 
L 307.49106 131.553615 
L 307.783322 131.544879 
L 308.367846 131.41573 
L 309.975288 131.868708 
L 310.413681 131.799776 
L 310.998206 131.892632 
L 311.58273 131.764262 
L 312.167254 131.856797 
L 312.459516 131.847886 
L 313.336303 132.04068 
L 313.920827 131.913089 
L 315.382138 132.304277 
L 315.6744 132.294997 
L 316.112793 132.335414 
L 316.405055 132.326125 
L 317.720235 132.662484 
L 318.012497 132.652905 
L 318.597021 132.741444 
L 319.327677 132.556369 
L 320.058332 132.693487 
L 320.788987 132.509498 
L 321.22738 132.548847 
L 321.519643 132.539505 
L 322.104167 132.62718 
L 323.711609 132.100104 
L 324.296133 132.188006 
L 324.588395 132.179135 
L 325.903575 132.506554 
L 326.195837 132.497407 
L 326.488099 132.48828 
L 326.780361 132.47917 
L 327.218754 132.517746 
L 327.657147 132.451953 
L 327.94941 132.442918 
L 328.533934 132.320967 
L 329.556851 132.548901 
L 329.995245 132.483591 
L 330.7259 132.615867 
L 331.018162 132.606762 
L 331.602686 132.691451 
L 332.187211 132.570525 
L 333.210128 132.794754 
L 333.50239 132.785548 
L 333.794652 132.776361 
L 334.379177 132.656167 
L 335.255963 132.832268 
L 335.840487 132.712557 
L 336.132749 132.703514 
L 336.425012 132.694489 
L 337.155667 132.823388 
L 337.59406 132.75934 
L 338.324715 132.887576 
L 338.616978 132.878437 
L 339.055371 132.914904 
L 339.493764 132.851128 
L 340.078288 132.932951 
L 340.37055 132.923821 
L 340.662812 133.014457 
L 340.662812 133.014457 
" clip-path="url(#p95bc2329f0)" style="fill: none; stroke: #cc79a7; stroke-width: 1.8; stroke-linecap: square"/>
   </g>
   <g id="line2d_30">
    <path d="M 39.778944 226.278437 
L 92.239997 226.278437 
L 92.386128 225.709241 
L 121.466211 225.911509 
L 122.050735 225.914111 
L 122.196866 225.551075 
L 123.365914 225.56123 
L 123.512046 225.2045 
L 131.256992 225.29528 
L 131.403123 224.969648 
L 133.156696 224.994188 
L 133.302827 224.675629 
L 135.494793 224.712279 
L 135.640924 224.401908 
L 136.371579 224.416081 
L 136.517711 224.108965 
L 137.540628 224.131632 
L 137.686759 223.828601 
L 139.14807 223.864576 
L 139.294201 223.566825 
L 139.732594 223.5787 
L 139.878725 223.283102 
L 143.385871 223.384353 
L 143.678133 222.815291 
L 148.938851 222.981967 
L 149.084982 222.712029 
L 156.099274 222.926819 
L 156.245405 222.673525 
L 156.97606 222.695972 
L 157.122191 222.444855 
L 157.706715 222.463834 
L 157.852846 222.214556 
L 158.29124 222.229571 
L 158.437371 221.981808 
L 159.168026 222.008071 
L 159.460288 221.517316 
L 161.06773 221.580339 
L 161.213861 221.339014 
L 167.643628 221.587113 
L 167.789759 221.358164 
L 169.835594 221.435475 
L 170.127856 220.986119 
L 170.420118 220.997946 
L 170.566249 220.774509 
L 171.443036 220.81112 
L 171.589167 220.589622 
L 171.735298 220.595915 
L 171.881429 220.375145 
L 175.534706 220.533835 
L 175.680837 220.319297 
L 177.142147 220.382625 
L 177.288279 220.170752 
L 180.064769 220.291507 
L 180.941555 219.053701 
L 181.379948 219.076046 
L 181.672211 218.668067 
L 181.818342 218.675889 
L 181.964473 218.472729 
L 182.548997 218.504654 
L 182.695128 218.302707 
L 184.30257 218.391326 
L 184.448701 218.191939 
L 185.76388 218.264717 
L 185.910012 218.067448 
L 187.517453 218.156698 
L 187.955846 217.573373 
L 188.101978 217.581941 
L 188.39424 217.195333 
L 188.540371 217.204247 
L 188.686502 217.011692 
L 189.85555 217.083807 
L 190.001681 216.893054 
L 190.147812 216.902166 
L 190.293944 216.711958 
L 190.440075 216.721228 
L 190.586206 216.531564 
L 193.216565 216.698495 
L 193.362696 216.512278 
L 195.2624 216.631489 
L 195.408531 216.447781 
L 195.554662 216.456994 
L 195.700793 216.273793 
L 195.846924 216.283152 
L 195.993055 216.100456 
L 196.139186 216.109959 
L 196.285317 215.927766 
L 196.577579 215.947041 
L 196.723711 215.765507 
L 198.623414 215.891121 
L 198.769546 215.711973 
L 199.35407 215.750642 
L 199.500201 215.572441 
L 200.230856 215.621149 
L 200.376987 215.444037 
L 201.253774 215.502814 
L 201.399905 215.326929 
L 208.560327 215.791136 
L 208.706458 215.622603 
L 209.290982 215.659316 
L 209.583245 215.324216 
L 209.729376 215.333627 
L 209.875507 215.166644 
L 212.798128 215.354184 
L 212.944259 215.190141 
L 213.528783 215.227412 
L 213.674914 215.064164 
L 214.259439 215.101701 
L 214.990094 214.292104 
L 218.49724 214.52713 
L 218.643371 214.368984 
L 219.374026 214.417397 
L 219.520157 214.260111 
L 221.127599 214.366553 
L 221.27373 214.210827 
L 223.319565 214.345231 
L 223.465696 214.191379 
L 223.757958 214.210564 
L 223.904089 214.057185 
L 226.242186 214.210309 
L 226.388317 214.05897 
L 226.680579 214.078063 
L 226.826711 213.927181 
L 227.118973 213.946434 
L 227.265104 213.796008 
L 227.995759 213.844427 
L 228.14189 213.694779 
L 228.434152 213.714258 
L 228.580283 213.565058 
L 229.164808 213.604266 
L 229.45707 213.465597 
L 233.841002 213.754826 
L 234.425526 213.32996 
L 234.571657 213.339667 
L 235.01005 213.061325 
L 235.302312 213.081066 
L 235.594575 212.94752 
L 235.886837 212.967373 
L 236.179099 212.834393 
L 236.617492 212.864313 
L 236.909754 212.731978 
L 237.202016 212.752017 
L 237.494279 212.62024 
L 238.371065 212.680496 
L 238.955589 212.268437 
L 239.10172 212.278701 
L 239.540113 212.008993 
L 239.978507 212.040217 
L 240.270769 211.9113 
L 240.4169 211.921756 
L 240.709162 211.793292 
L 241.439817 211.845737 
L 241.732079 211.718033 
L 242.316604 211.760024 
L 242.608866 211.632995 
L 243.047259 211.664558 
L 243.339521 211.538122 
L 245.677618 211.705388 
L 245.96988 211.580505 
L 246.408274 211.611667 
L 246.846667 211.35288 
L 247.138929 211.373902 
L 247.577322 211.116526 
L 248.746371 211.201289 
L 249.038633 211.07894 
L 249.184764 211.089539 
L 250.06155 210.439354 
L 250.646075 210.48323 
L 250.938337 210.362974 
L 252.107385 210.450542 
L 252.838041 209.94144 
L 254.299351 210.052651 
L 254.737745 209.806535 
L 255.4684 209.862297 
L 255.760662 209.745564 
L 256.052924 209.767891 
L 256.345186 209.6516 
L 256.491317 209.662804 
L 256.929711 209.419957 
L 257.368104 209.453901 
L 257.806497 209.21245 
L 258.683283 209.280759 
L 258.975546 209.166512 
L 259.998463 209.245944 
L 260.290725 209.132424 
L 261.02138 209.189012 
L 261.605905 208.828194 
L 263.359478 208.964969 
L 263.65174 208.853519 
L 263.797871 208.864878 
L 264.090133 208.753776 
L 264.820788 208.810637 
L 265.11305 208.70011 
L 265.259181 208.711494 
L 265.551444 208.601309 
L 266.42823 208.669649 
L 266.720492 208.560085 
L 267.305016 208.605575 
L 267.74341 208.376272 
L 268.766327 208.456193 
L 269.058589 208.348017 
L 269.643113 208.393584 
L 269.935376 208.285899 
L 270.5199 208.33145 
L 271.104424 207.987604 
L 271.981211 208.056626 
L 272.565735 207.715627 
L 273.734783 207.808325 
L 274.027046 207.70325 
L 274.757701 207.760973 
L 275.049963 207.656414 
L 275.196094 207.667966 
L 275.634487 207.448072 
L 276.07288 207.482986 
L 276.657405 207.149288 
L 276.803536 207.161075 
L 277.095798 207.058154 
L 277.241929 207.069975 
L 277.826453 206.738928 
L 278.264846 206.774825 
L 278.557109 206.673006 
L 279.433895 206.74469 
L 279.726157 206.643404 
L 280.456812 206.702976 
L 280.749075 206.602171 
L 280.895206 206.614089 
L 281.333599 206.401291 
L 282.210385 206.473136 
L 282.502647 206.373335 
L 282.941041 206.4092 
L 283.379434 206.198557 
L 284.986876 206.330111 
L 285.425269 206.121363 
L 287.617235 206.299534 
L 287.909497 206.20211 
L 288.786283 206.27276 
L 289.370808 205.958882 
L 289.809201 205.994489 
L 290.393725 205.68254 
L 290.685987 205.706517 
L 290.978249 205.610972 
L 292.147298 205.706655 
L 292.731822 205.398253 
L 293.170215 205.434357 
L 293.462478 205.340061 
L 294.339264 205.412138 
L 294.631526 205.3183 
L 294.777657 205.330305 
L 295.069919 205.236721 
L 295.800575 205.296738 
L 296.092837 205.203566 
L 296.385099 205.227555 
L 296.823492 205.029937 
L 297.261885 205.066095 
L 297.84641 204.765251 
L 297.992541 204.777419 
L 298.284803 204.685624 
L 298.723196 204.72216 
L 299.746113 204.114303 
L 300.038376 204.139178 
L 300.6229 203.843611 
L 301.791948 203.943655 
L 302.668735 203.447326 
L 302.960997 203.472666 
L 303.39939 203.282892 
L 304.276177 203.359078 
L 304.568439 203.271024 
L 305.591356 203.359514 
L 306.029749 203.1718 
L 306.468143 203.209763 
L 306.906536 203.02291 
L 307.198798 203.048312 
L 308.221715 202.466011 
L 308.513978 202.491894 
L 309.244633 202.110871 
L 310.852075 202.143394 
L 311.58273 202.097825 
L 312.167254 201.819156 
L 312.605647 201.748437 
L 312.89791 201.66479 
L 313.920827 201.647111 
L 315.382138 200.797611 
L 316.258924 200.769827 
L 316.697317 200.593437 
L 319.181546 200.714276 
L 319.473808 200.633675 
L 319.76607 200.553242 
L 320.204463 200.379396 
L 320.788987 200.326442 
L 321.22738 200.15358 
L 321.958036 200.114835 
L 322.834822 199.665703 
L 323.711609 199.642141 
L 324.003871 199.563926 
L 325.31905 199.581803 
L 325.611312 199.504089 
L 326.049706 199.440233 
L 326.341968 199.362862 
L 326.926492 199.313107 
L 327.218754 199.2361 
L 327.511016 199.15925 
L 327.803279 199.082555 
L 328.533934 199.047401 
L 328.972327 198.881104 
L 329.702982 198.846599 
L 329.995245 198.770798 
L 330.7259 198.736691 
L 331.018162 198.661266 
L 331.456555 198.59986 
L 331.894948 198.435898 
L 332.625604 198.402846 
L 333.063997 198.239832 
L 333.356259 198.165502 
L 333.794652 198.003246 
L 334.086914 197.929336 
L 334.671439 197.680181 
L 335.255963 197.635155 
L 335.548225 197.561973 
L 335.840487 197.488936 
L 336.571143 197.155288 
L 337.009536 197.097248 
L 337.59406 196.85217 
L 337.886322 196.780329 
L 338.470846 196.536589 
L 338.763109 196.465267 
L 339.639895 196.051959 
L 340.662812 196.054923 
L 340.662812 196.054923 
" clip-path="url(#p95bc2329f0)" style="fill: none; stroke: #e69f00; stroke-width: 1.8; stroke-linecap: square"/>
   </g>
   <g id="patch_3">
    <path d="M 39.632812 226.278437 
L 39.632812 20.798437 
" style="fill: none; stroke: #000000; stroke-width: 0.8; stroke-linejoin: miter; stroke-linecap: square"/>
   </g>
   <g id="patch_4">
    <path d="M 39.632812 226.278437 
L 340.662812 226.278437 
" style="fill: none; stroke: #000000; stroke-width: 0.8; stroke-linejoin: miter; stroke-linecap: square"/>
   </g>
   <g id="text_15">
    <!-- PathVQA -->
    <g transform="translate(168.388437 14.798437) scale(0.1 -0.1)">
     <defs>
      <path id="DejaVuSans-50" d="M 1259 4147 
L 1259 2394 
L 2053 2394 
Q 2494 2394 2734 2622 
Q 2975 2850 2975 3272 
Q 2975 3691 2734 3919 
Q 2494 4147 2053 4147 
L 1259 4147 
z
M 628 4666 
L 2053 4666 
Q 2838 4666 3239 4311 
Q 3641 3956 3641 3272 
Q 3641 2581 3239 2228 
Q 2838 1875 2053 1875 
L 1259 1875 
L 1259 0 
L 628 0 
L 628 4666 
z
" transform="scale(0.015625)"/>
      <path id="DejaVuSans-68" d="M 3513 2113 
L 3513 0 
L 2938 0 
L 2938 2094 
Q 2938 2591 2744 2837 
Q 2550 3084 2163 3084 
Q 1697 3084 1428 2787 
Q 1159 2491 1159 1978 
L 1159 0 
L 581 0 
L 581 4863 
L 1159 4863 
L 1159 2956 
Q 1366 3272 1645 3428 
Q 1925 3584 2291 3584 
Q 2894 3584 3203 3211 
Q 3513 2838 3513 2113 
z
" transform="scale(0.015625)"/>
      <path id="DejaVuSans-56" d="M 1831 0 
L 50 4666 
L 709 4666 
L 2188 738 
L 3669 4666 
L 4325 4666 
L 2547 0 
L 1831 0 
z
" transform="scale(0.015625)"/>
      <path id="DejaVuSans-51" d="M 2522 4238 
Q 1834 4238 1429 3725 
Q 1025 3213 1025 2328 
Q 1025 1447 1429 934 
Q 1834 422 2522 422 
Q 3209 422 3611 934 
Q 4013 1447 4013 2328 
Q 4013 3213 3611 3725 
Q 3209 4238 2522 4238 
z
M 3406 84 
L 4238 -825 
L 3475 -825 
L 2784 -78 
Q 2681 -84 2626 -87 
Q 2572 -91 2522 -91 
Q 1538 -91 948 567 
Q 359 1225 359 2328 
Q 359 3434 948 4092 
Q 1538 4750 2522 4750 
Q 3503 4750 4090 4092 
Q 4678 3434 4678 2328 
Q 4678 1516 4351 937 
Q 4025 359 3406 84 
z
" transform="scale(0.015625)"/>
      <path id="DejaVuSans-41" d="M 2188 4044 
L 1331 1722 
L 3047 1722 
L 2188 4044 
z
M 1831 4666 
L 2547 4666 
L 4325 0 
L 3669 0 
L 3244 1197 
L 1141 1197 
L 716 0 
L 50 0 
L 1831 4666 
z
" transform="scale(0.015625)"/>
     </defs>
     <use xlink:href="#DejaVuSans-50"/>
     <use xlink:href="#DejaVuSans-61" transform="translate(55.802734 0)"/>
     <use xlink:href="#DejaVuSans-74" transform="translate(117.082031 0)"/>
     <use xlink:href="#DejaVuSans-68" transform="translate(156.291016 0)"/>
     <use xlink:href="#DejaVuSans-56" transform="translate(219.669922 0)"/>
     <use xlink:href="#DejaVuSans-51" transform="translate(288.078125 0)"/>
     <use xlink:href="#DejaVuSans-41" transform="translate(366.789062 0)"/>
    </g>
   </g>
   <g id="legend_1">
    <g id="line2d_31">
     <path d="M 196.800781 29.967344 
L 203.800781 29.967344 
L 210.800781 29.967344 
" style="fill: none; stroke: #0072b2; stroke-width: 1.8; stroke-linecap: square"/>
    </g>
    <g id="text_16">
     <!-- Qwen2.5-VL -->
     <g transform="translate(216.400781 32.417344) scale(0.07 -0.07)">
      <defs>
       <path id="DejaVuSans-77" d="M 269 3500 
L 844 3500 
L 1563 769 
L 2278 3500 
L 2956 3500 
L 3675 769 
L 4391 3500 
L 4966 3500 
L 4050 0 
L 3372 0 
L 2619 2869 
L 1863 0 
L 1184 0 
L 269 3500 
z
" transform="scale(0.015625)"/>
       <path id="DejaVuSans-6e" d="M 3513 2113 
L 3513 0 
L 2938 0 
L 2938 2094 
Q 2938 2591 2744 2837 
Q 2550 3084 2163 3084 
Q 1697 3084 1428 2787 
Q 1159 2491 1159 1978 
L 1159 0 
L 581 0 
L 581 3500 
L 1159 3500 
L 1159 2956 
Q 1366 3272 1645 3428 
Q 1925 3584 2291 3584 
Q 2894 3584 3203 3211 
Q 3513 2838 3513 2113 
z
" transform="scale(0.015625)"/>
       <path id="DejaVuSans-35" d="M 691 4666 
L 3169 4666 
L 3169 4134 
L 1269 4134 
L 1269 2991 
Q 1406 3038 1543 3061 
Q 1681 3084 1819 3084 
Q 2600 3084 3056 2656 
Q 3513 2228 3513 1497 
Q 3513 744 3044 326 
Q 2575 -91 1722 -91 
Q 1428 -91 1123 -41 
Q 819 9 494 109 
L 494 744 
Q 775 591 1075 516 
Q 1375 441 1709 441 
Q 2250 441 2565 725 
Q 2881 1009 2881 1497 
Q 2881 1984 2565 2268 
Q 2250 2553 1709 2553 
Q 1456 2553 1204 2497 
Q 953 2441 691 2322 
L 691 4666 
z
" transform="scale(0.015625)"/>
       <path id="DejaVuSans-2d" d="M 313 2009 
L 1997 2009 
L 1997 1497 
L 313 1497 
L 313 2009 
z
" transform="scale(0.015625)"/>
       <path id="DejaVuSans-4c" d="M 628 4666 
L 1259 4666 
L 1259 531 
L 3531 531 
L 3531 0 
L 628 0 
L 628 4666 
z
" transform="scale(0.015625)"/>
      </defs>
      <use xlink:href="#DejaVuSans-51"/>
      <use xlink:href="#DejaVuSans-77" transform="translate(78.710938 0)"/>
      <use xlink:href="#DejaVuSans-65" transform="translate(160.498047 0)"/>
      <use xlink:href="#DejaVuSans-6e" transform="translate(222.021484 0)"/>
      <use xlink:href="#DejaVuSans-32" transform="translate(285.400391 0)"/>
      <use xlink:href="#DejaVuSans-2e" transform="translate(349.023438 0)"/>
      <use xlink:href="#DejaVuSans-35" transform="translate(380.810547 0)"/>
      <use xlink:href="#DejaVuSans-2d" transform="translate(444.433594 0)"/>
      <use xlink:href="#DejaVuSans-56" transform="translate(474.642578 0)"/>
      <use xlink:href="#DejaVuSans-4c" transform="translate(543.050781 0)"/>
     </g>
    </g>
    <g id="line2d_32">
     <path d="M 196.800781 40.242031 
L 203.800781 40.242031 
L 210.800781 40.242031 
" style="fill: none; stroke: #56b4e9; stroke-width: 1.8; stroke-linecap: square"/>
    </g>
    <g id="text_17">
     <!-- InternVL2.5 -->
     <g transform="translate(216.400781 42.692031) scale(0.07 -0.07)">
      <defs>
       <path id="DejaVuSans-49" d="M 628 4666 
L 1259 4666 
L 1259 0 
L 628 0 
L 628 4666 
z
" transform="scale(0.015625)"/>
      </defs>
      <use xlink:href="#DejaVuSans-49"/>
      <use xlink:href="#DejaVuSans-6e" transform="translate(29.492188 0)"/>
      <use xlink:href="#DejaVuSans-74" transform="translate(92.871094 0)"/>
      <use xlink:href="#DejaVuSans-65" transform="translate(132.080078 0)"/>
      <use xlink:href="#DejaVuSans-72" transform="translate(193.603516 0)"/>
      <use xlink:href="#DejaVuSans-6e" transform="translate(232.966797 0)"/>
      <use xlink:href="#DejaVuSans-56" transform="translate(296.345703 0)"/>
      <use xlink:href="#DejaVuSans-4c" transform="translate(364.753906 0)"/>
      <use xlink:href="#DejaVuSans-32" transform="translate(420.466797 0)"/>
      <use xlink:href="#DejaVuSans-2e" transform="translate(484.089844 0)"/>
      <use xlink:href="#DejaVuSans-35" transform="translate(515.876953 0)"/>
     </g>
    </g>
    <g id="line2d_33">
     <path d="M 196.800781 50.516719 
L 203.800781 50.516719 
L 210.800781 50.516719 
" style="fill: none; stroke: #d55e00; stroke-width: 1.8; stroke-linecap: square"/>
    </g>
    <g id="text_18">
     <!-- LLaVA-OV -->
     <g transform="translate(216.400781 52.966719) scale(0.07 -0.07)">
      <defs>
       <path id="DejaVuSans-4f" d="M 2522 4238 
Q 1834 4238 1429 3725 
Q 1025 3213 1025 2328 
Q 1025 1447 1429 934 
Q 1834 422 2522 422 
Q 3209 422 3611 934 
Q 4013 1447 4013 2328 
Q 4013 3213 3611 3725 
Q 3209 4238 2522 4238 
z
M 2522 4750 
Q 3503 4750 4090 4092 
Q 4678 3434 4678 2328 
Q 4678 1225 4090 567 
Q 3503 -91 2522 -91 
Q 1538 -91 948 565 
Q 359 1222 359 2328 
Q 359 3434 948 4092 
Q 1538 4750 2522 4750 
z
" transform="scale(0.015625)"/>
      </defs>
      <use xlink:href="#DejaVuSans-4c"/>
      <use xlink:href="#DejaVuSans-4c" transform="translate(55.712891 0)"/>
      <use xlink:href="#DejaVuSans-61" transform="translate(111.425781 0)"/>
      <use xlink:href="#DejaVuSans-56" transform="translate(172.705078 0)"/>
      <use xlink:href="#DejaVuSans-41" transform="translate(234.738281 0)"/>
      <use xlink:href="#DejaVuSans-2d" transform="translate(300.896484 0)"/>
      <use xlink:href="#DejaVuSans-4f" transform="translate(339.730469 0)"/>
      <use xlink:href="#DejaVuSans-56" transform="translate(416.691406 0)"/>
     </g>
    </g>
    <g id="line2d_34">
     <path d="M 272.314375 29.967344 
L 279.314375 29.967344 
L 286.314375 29.967344 
" style="fill: none; stroke: #009e73; stroke-width: 1.8; stroke-linecap: square"/>
    </g>
    <g id="text_19">
     <!-- SmolVLM -->
     <g transform="translate(291.914375 32.417344) scale(0.07 -0.07)">
      <defs>
       <path id="DejaVuSans-6d" d="M 3328 2828 
Q 3544 3216 3844 3400 
Q 4144 3584 4550 3584 
Q 5097 3584 5394 3201 
Q 5691 2819 5691 2113 
L 5691 0 
L 5113 0 
L 5113 2094 
Q 5113 2597 4934 2840 
Q 4756 3084 4391 3084 
Q 3944 3084 3684 2787 
Q 3425 2491 3425 1978 
L 3425 0 
L 2847 0 
L 2847 2094 
Q 2847 2600 2669 2842 
Q 2491 3084 2119 3084 
Q 1678 3084 1418 2786 
Q 1159 2488 1159 1978 
L 1159 0 
L 581 0 
L 581 3500 
L 1159 3500 
L 1159 2956 
Q 1356 3278 1631 3431 
Q 1906 3584 2284 3584 
Q 2666 3584 2933 3390 
Q 3200 3197 3328 2828 
z
" transform="scale(0.015625)"/>
       <path id="DejaVuSans-4d" d="M 628 4666 
L 1569 4666 
L 2759 1491 
L 3956 4666 
L 4897 4666 
L 4897 0 
L 4281 0 
L 4281 4097 
L 3078 897 
L 2444 897 
L 1241 4097 
L 1241 0 
L 628 0 
L 628 4666 
z
" transform="scale(0.015625)"/>
      </defs>
      <use xlink:href="#DejaVuSans-53"/>
      <use xlink:href="#DejaVuSans-6d" transform="translate(63.476562 0)"/>
      <use xlink:href="#DejaVuSans-6f" transform="translate(160.888672 0)"/>
      <use xlink:href="#DejaVuSans-6c" transform="translate(222.070312 0)"/>
      <use xlink:href="#DejaVuSans-56" transform="translate(249.853516 0)"/>
      <use xlink:href="#DejaVuSans-4c" transform="translate(318.261719 0)"/>
      <use xlink:href="#DejaVuSans-4d" transform="translate(373.974609 0)"/>
     </g>
    </g>
    <g id="line2d_35">
     <path d="M 272.314375 40.242031 
L 279.314375 40.242031 
L 286.314375 40.242031 
" style="fill: none; stroke: #cc79a7; stroke-width: 1.8; stroke-linecap: square"/>
    </g>
    <g id="text_20">
     <!-- MedGemma -->
     <g transform="translate(291.914375 42.692031) scale(0.07 -0.07)">
      <defs>
       <path id="DejaVuSans-64" d="M 2906 2969 
L 2906 4863 
L 3481 4863 
L 3481 0 
L 2906 0 
L 2906 525 
Q 2725 213 2448 61 
Q 2172 -91 1784 -91 
Q 1150 -91 751 415 
Q 353 922 353 1747 
Q 353 2572 751 3078 
Q 1150 3584 1784 3584 
Q 2172 3584 2448 3432 
Q 2725 3281 2906 2969 
z
M 947 1747 
Q 947 1113 1208 752 
Q 1469 391 1925 391 
Q 2381 391 2643 752 
Q 2906 1113 2906 1747 
Q 2906 2381 2643 2742 
Q 2381 3103 1925 3103 
Q 1469 3103 1208 2742 
Q 947 2381 947 1747 
z
" transform="scale(0.015625)"/>
       <path id="DejaVuSans-47" d="M 3809 666 
L 3809 1919 
L 2778 1919 
L 2778 2438 
L 4434 2438 
L 4434 434 
Q 4069 175 3628 42 
Q 3188 -91 2688 -91 
Q 1594 -91 976 548 
Q 359 1188 359 2328 
Q 359 3472 976 4111 
Q 1594 4750 2688 4750 
Q 3144 4750 3555 4637 
Q 3966 4525 4313 4306 
L 4313 3634 
Q 3963 3931 3569 4081 
Q 3175 4231 2741 4231 
Q 1884 4231 1454 3753 
Q 1025 3275 1025 2328 
Q 1025 1384 1454 906 
Q 1884 428 2741 428 
Q 3075 428 3337 486 
Q 3600 544 3809 666 
z
" transform="scale(0.015625)"/>
      </defs>
      <use xlink:href="#DejaVuSans-4d"/>
      <use xlink:href="#DejaVuSans-65" transform="translate(86.279297 0)"/>
      <use xlink:href="#DejaVuSans-64" transform="translate(147.802734 0)"/>
      <use xlink:href="#DejaVuSans-47" transform="translate(211.279297 0)"/>
      <use xlink:href="#DejaVuSans-65" transform="translate(288.769531 0)"/>
      <use xlink:href="#DejaVuSans-6d" transform="translate(350.292969 0)"/>
      <use xlink:href="#DejaVuSans-6d" transform="translate(447.705078 0)"/>
      <use xlink:href="#DejaVuSans-61" transform="translate(545.117188 0)"/>
     </g>
    </g>
    <g id="line2d_36">
     <path d="M 272.314375 50.516719 
L 279.314375 50.516719 
L 286.314375 50.516719 
" style="fill: none; stroke: #e69f00; stroke-width: 1.8; stroke-linecap: square"/>
    </g>
    <g id="text_21">
     <!-- HuatuoGPT -->
     <g transform="translate(291.914375 52.966719) scale(0.07 -0.07)">
      <defs>
       <path id="DejaVuSans-48" d="M 628 4666 
L 1259 4666 
L 1259 2753 
L 3553 2753 
L 3553 4666 
L 4184 4666 
L 4184 0 
L 3553 0 
L 3553 2222 
L 1259 2222 
L 1259 0 
L 628 0 
L 628 4666 
z
" transform="scale(0.015625)"/>
       <path id="DejaVuSans-75" d="M 544 1381 
L 544 3500 
L 1119 3500 
L 1119 1403 
Q 1119 906 1312 657 
Q 1506 409 1894 409 
Q 2359 409 2629 706 
Q 2900 1003 2900 1516 
L 2900 3500 
L 3475 3500 
L 3475 0 
L 2900 0 
L 2900 538 
Q 2691 219 2414 64 
Q 2138 -91 1772 -91 
Q 1169 -91 856 284 
Q 544 659 544 1381 
z
M 1991 3584 
L 1991 3584 
z
" transform="scale(0.015625)"/>
       <path id="DejaVuSans-54" d="M -19 4666 
L 3928 4666 
L 3928 4134 
L 2272 4134 
L 2272 0 
L 1638 0 
L 1638 4134 
L -19 4134 
L -19 4666 
z
" transform="scale(0.015625)"/>
      </defs>
      <use xlink:href="#DejaVuSans-48"/>
      <use xlink:href="#DejaVuSans-75" transform="translate(75.195312 0)"/>
      <use xlink:href="#DejaVuSans-61" transform="translate(138.574219 0)"/>
      <use xlink:href="#DejaVuSans-74" transform="translate(199.853516 0)"/>
      <use xlink:href="#DejaVuSans-75" transform="translate(239.0625 0)"/>
      <use xlink:href="#DejaVuSans-6f" transform="translate(302.441406 0)"/>
      <use xlink:href="#DejaVuSans-47" transform="translate(363.623047 0)"/>
      <use xlink:href="#DejaVuSans-50" transform="translate(441.113281 0)"/>
      <use xlink:href="#DejaVuSans-54" transform="translate(501.416016 0)"/>
     </g>
    </g>
   </g>
  </g>
 </g>
 <defs>
  <clipPath id="p95bc2329f0">
   <rect x="39.632812" y="20.798437" width="301.03" height="205.48"/>
  </clipPath>
 </defs>
</svg>
