<?xml version="1.0" encoding="utf-8" standalone="no"?>
<!DOCTYPE svg PUBLIC "-//W3C//DTD SVG 1.1//EN"
  "http://www.w3.org/Graphics/SVG/1.1/DTD/svg11.dtd">
<svg xmlns:xlink="http://www.w3.org/1999/xlink" width="354.224062pt" height="260.93125pt" viewBox="0 0 354.224062 260.93125" xmlns="http://www.w3.org/2000/svg" version="1.1">
 <metadata>
  <rdf:RDF xmlns:dc="http://purl.org/dc/elements/1.1/" xmlns:cc="http://creativecommons.org/ns#" xmlns:rdf="http://www.w3.org/1999/02/22-rdf-syntax-ns#">
   <cc:Work>
    <dc:type rdf:resource="http://purl.org/dc/dcmitype/StillImage"/>
    <dc:date>2026-06-19T21:22:43.569813</dc:date>
    <dc:format>image/svg+xml</dc:format>
    <dc:creator>
     <cc:Agent>
      <dc:title>Matplotlib v3.10.9, https://matplotlib.org/</dc:title>
     </cc:Agent>
    </dc:creator>
   </cc:Work>
  </rdf:RDF>
 </metadata>
 <defs>
  <style type="text/css">*{stroke-linejoin: round; stroke-linecap: butt}</style>
 </defs>
 <g id="figure_1">
  <g id="patch_1">
   <path d="M 0 260.93125 
L 354.224062 260.93125 
L 354.224062 0 
L 0 0 
z
" style="fill: #ffffff"/>
  </g>
  <g id="axes_1">
   <g id="patch_2">
    <path d="M 39.632812 226.278437 
L 340.662812 226.278437 
L 340.662812 20.798437 
L 39.632812 20.798437 
z
" style="fill: #ffffff"/>
   </g>
   <g id="matplotlib.axis_1">
    <g id="xtick_1">
     <g id="line2d_1">
      <path d="M 39.632812 226.278437 
L 39.632812 20.798437 
" clip-path="url(#pfa0d6e4df1)" style="fill: none; stroke: #b0b0b0; stroke-opacity: 0.18; stroke-width: 0.6; stroke-linecap: square"/>
     </g>
     <g id="line2d_2">
      <defs>
       <path id="m66e1ffd909" d="M 0 0 
L 0 3.5 
" style="stroke: #000000; stroke-width: 0.8"/>
      </defs>
      <g>
       <use xlink:href="#m66e1ffd909" x="39.632812" y="226.278437" style="stroke: #000000; stroke-width: 0.8"/>
      </g>
     </g>
     <g id="text_1">
      <!-- 0.0 -->
      <g transform="translate(33.271563 239.357187) scale(0.08 -0.08)">
       <defs>
        <path id="DejaVuSans-30" d="M 2034 4250 
Q 1547 4250 1301 3770 
Q 1056 3291 1056 2328 
Q 1056 1369 1301 889 
Q 1547 409 2034 409 
Q 2525 409 2770 889 
Q 3016 1369 3016 2328 
Q 3016 3291 2770 3770 
Q 2525 4250 2034 4250 
z
M 2034 4750 
Q 2819 4750 3233 4129 
Q 3647 3509 3647 2328 
Q 3647 1150 3233 529 
Q 2819 -91 2034 -91 
Q 1250 -91 836 529 
Q 422 1150 422 2328 
Q 422 3509 836 4129 
Q 1250 4750 2034 4750 
z
" transform="scale(0.015625)"/>
        <path id="DejaVuSans-2e" d="M 684 794 
L 1344 794 
L 1344 0 
L 684 0 
L 684 794 
z
" transform="scale(0.015625)"/>
       </defs>
       <use xlink:href="#DejaVuSans-30"/>
       <use xlink:href="#DejaVuSans-2e" transform="translate(63.623047 0)"/>
       <use xlink:href="#DejaVuSans-30" transform="translate(95.410156 0)"/>
      </g>
     </g>
    </g>
    <g id="xtick_2">
     <g id="line2d_3">
      <path d="M 99.838812 226.278437 
L 99.838812 20.798437 
" clip-path="url(#pfa0d6e4df1)" style="fill: none; stroke: #b0b0b0; stroke-opacity: 0.18; stroke-width: 0.6; stroke-linecap: square"/>
     </g>
     <g id="line2d_4">
      <g>
       <use xlink:href="#m66e1ffd909" x="99.838812" y="226.278437" style="stroke: #000000; stroke-width: 0.8"/>
      </g>
     </g>
     <g id="text_2">
      <!-- 0.2 -->
      <g transform="translate(93.477562 239.357187) scale(0.08 -0.08)">
       <defs>
        <path id="DejaVuSans-32" d="M 1228 531 
L 3431 531 
L 3431 0 
L 469 0 
L 469 531 
Q 828 903 1448 1529 
Q 2069 2156 2228 2338 
Q 2531 2678 2651 2914 
Q 2772 3150 2772 3378 
Q 2772 3750 2511 3984 
Q 2250 4219 1831 4219 
Q 1534 4219 1204 4116 
Q 875 4013 500 3803 
L 500 4441 
Q 881 4594 1212 4672 
Q 1544 4750 1819 4750 
Q 2544 4750 2975 4387 
Q 3406 4025 3406 3419 
Q 3406 3131 3298 2873 
Q 3191 2616 2906 2266 
Q 2828 2175 2409 1742 
Q 1991 1309 1228 531 
z
" transform="scale(0.015625)"/>
       </defs>
       <use xlink:href="#DejaVuSans-30"/>
       <use xlink:href="#DejaVuSans-2e" transform="translate(63.623047 0)"/>
       <use xlink:href="#DejaVuSans-32" transform="translate(95.410156 0)"/>
      </g>
     </g>
    </g>
    <g id="xtick_3">
     <g id="line2d_5">
      <path d="M 160.044812 226.278437 
L 160.044812 20.798437 
" clip-path="url(#pfa0d6e4df1)" style="fill: none; stroke: #b0b0b0; stroke-opacity: 0.18; stroke-width: 0.6; stroke-linecap: square"/>
     </g>
     <g id="line2d_6">
      <g>
       <use xlink:href="#m66e1ffd909" x="160.044812" y="226.278437" style="stroke: #000000; stroke-width: 0.8"/>
      </g>
     </g>
     <g id="text_3">
      <!-- 0.4 -->
      <g transform="translate(153.683562 239.357187) scale(0.08 -0.08)">
       <defs>
        <path id="DejaVuSans-34" d="M 2419 4116 
L 825 1625 
L 2419 1625 
L 2419 4116 
z
M 2253 4666 
L 3047 4666 
L 3047 1625 
L 3713 1625 
L 3713 1100 
L 3047 1100 
L 3047 0 
L 2419 0 
L 2419 1100 
L 313 1100 
L 313 1709 
L 2253 4666 
z
" transform="scale(0.015625)"/>
       </defs>
       <use xlink:href="#DejaVuSans-30"/>
       <use xlink:href="#DejaVuSans-2e" transform="translate(63.623047 0)"/>
       <use xlink:href="#DejaVuSans-34" transform="translate(95.410156 0)"/>
      </g>
     </g>
    </g>
    <g id="xtick_4">
     <g id="line2d_7">
      <path d="M 220.250813 226.278437 
L 220.250813 20.798437 
" clip-path="url(#pfa0d6e4df1)" style="fill: none; stroke: #b0b0b0; stroke-opacity: 0.18; stroke-width: 0.6; stroke-linecap: square"/>
     </g>
     <g id="line2d_8">
      <g>
       <use xlink:href="#m66e1ffd909" x="220.250813" y="226.278437" style="stroke: #000000; stroke-width: 0.8"/>
      </g>
     </g>
     <g id="text_4">
      <!-- 0.6 -->
      <g transform="translate(213.889563 239.357187) scale(0.08 -0.08)">
       <defs>
        <path id="DejaVuSans-36" d="M 2113 2584 
Q 1688 2584 1439 2293 
Q 1191 2003 1191 1497 
Q 1191 994 1439 701 
Q 1688 409 2113 409 
Q 2538 409 2786 701 
Q 3034 994 3034 1497 
Q 3034 2003 2786 2293 
Q 2538 2584 2113 2584 
z
M 3366 4563 
L 3366 3988 
Q 3128 4100 2886 4159 
Q 2644 4219 2406 4219 
Q 1781 4219 1451 3797 
Q 1122 3375 1075 2522 
Q 1259 2794 1537 2939 
Q 1816 3084 2150 3084 
Q 2853 3084 3261 2657 
Q 3669 2231 3669 1497 
Q 3669 778 3244 343 
Q 2819 -91 2113 -91 
Q 1303 -91 875 529 
Q 447 1150 447 2328 
Q 447 3434 972 4092 
Q 1497 4750 2381 4750 
Q 2619 4750 2861 4703 
Q 3103 4656 3366 4563 
z
" transform="scale(0.015625)"/>
       </defs>
       <use xlink:href="#DejaVuSans-30"/>
       <use xlink:href="#DejaVuSans-2e" transform="translate(63.623047 0)"/>
       <use xlink:href="#DejaVuSans-36" transform="translate(95.410156 0)"/>
      </g>
     </g>
    </g>
    <g id="xtick_5">
     <g id="line2d_9">
      <path d="M 280.456812 226.278437 
L 280.456812 20.798437 
" clip-path="url(#pfa0d6e4df1)" style="fill: none; stroke: #b0b0b0; stroke-opacity: 0.18; stroke-width: 0.6; stroke-linecap: square"/>
     </g>
     <g id="line2d_10">
      <g>
       <use xlink:href="#m66e1ffd909" x="280.456812" y="226.278437" style="stroke: #000000; stroke-width: 0.8"/>
      </g>
     </g>
     <g id="text_5">
      <!-- 0.8 -->
      <g transform="translate(274.095562 239.357187) scale(0.08 -0.08)">
       <defs>
        <path id="DejaVuSans-38" d="M 2034 2216 
Q 1584 2216 1326 1975 
Q 1069 1734 1069 1313 
Q 1069 891 1326 650 
Q 1584 409 2034 409 
Q 2484 409 2743 651 
Q 3003 894 3003 1313 
Q 3003 1734 2745 1975 
Q 2488 2216 2034 2216 
z
M 1403 2484 
Q 997 2584 770 2862 
Q 544 3141 544 3541 
Q 544 4100 942 4425 
Q 1341 4750 2034 4750 
Q 2731 4750 3128 4425 
Q 3525 4100 3525 3541 
Q 3525 3141 3298 2862 
Q 3072 2584 2669 2484 
Q 3125 2378 3379 2068 
Q 3634 1759 3634 1313 
Q 3634 634 3220 271 
Q 2806 -91 2034 -91 
Q 1263 -91 848 271 
Q 434 634 434 1313 
Q 434 1759 690 2068 
Q 947 2378 1403 2484 
z
M 1172 3481 
Q 1172 3119 1398 2916 
Q 1625 2713 2034 2713 
Q 2441 2713 2670 2916 
Q 2900 3119 2900 3481 
Q 2900 3844 2670 4047 
Q 2441 4250 2034 4250 
Q 1625 4250 1398 4047 
Q 1172 3844 1172 3481 
z
" transform="scale(0.015625)"/>
       </defs>
       <use xlink:href="#DejaVuSans-30"/>
       <use xlink:href="#DejaVuSans-2e" transform="translate(63.623047 0)"/>
       <use xlink:href="#DejaVuSans-38" transform="translate(95.410156 0)"/>
      </g>
     </g>
    </g>
    <g id="xtick_6">
     <g id="line2d_11">
      <path d="M 340.662812 226.278437 
L 340.662812 20.798437 
" clip-path="url(#pfa0d6e4df1)" style="fill: none; stroke: #b0b0b0; stroke-opacity: 0.18; stroke-width: 0.6; stroke-linecap: square"/>
     </g>
     <g id="line2d_12">
      <g>
       <use xlink:href="#m66e1ffd909" x="340.662812" y="226.278437" style="stroke: #000000; stroke-width: 0.8"/>
      </g>
     </g>
     <g id="text_6">
      <!-- 1.0 -->
      <g transform="translate(334.301562 239.357187) scale(0.08 -0.08)">
       <defs>
        <path id="DejaVuSans-31" d="M 794 531 
L 1825 531 
L 1825 4091 
L 703 3866 
L 703 4441 
L 1819 4666 
L 2450 4666 
L 2450 531 
L 3481 531 
L 3481 0 
L 794 0 
L 794 531 
z
" transform="scale(0.015625)"/>
       </defs>
       <use xlink:href="#DejaVuSans-31"/>
       <use xlink:href="#DejaVuSans-2e" transform="translate(63.623047 0)"/>
       <use xlink:href="#DejaVuSans-30" transform="translate(95.410156 0)"/>
      </g>
     </g>
    </g>
    <g id="text_7">
     <!-- Coverage -->
     <g transform="translate(168.586484 251.859531) scale(0.09 -0.09)">
      <defs>
       <path id="DejaVuSans-43" d="M 4122 4306 
L 4122 3641 
Q 3803 3938 3442 4084 
Q 3081 4231 2675 4231 
Q 1875 4231 1450 3742 
Q 1025 3253 1025 2328 
Q 1025 1406 1450 917 
Q 1875 428 2675 428 
Q 3081 428 3442 575 
Q 3803 722 4122 1019 
L 4122 359 
Q 3791 134 3420 21 
Q 3050 -91 2638 -91 
Q 1578 -91 968 557 
Q 359 1206 359 2328 
Q 359 3453 968 4101 
Q 1578 4750 2638 4750 
Q 3056 4750 3426 4639 
Q 3797 4528 4122 4306 
z
" transform="scale(0.015625)"/>
       <path id="DejaVuSans-6f" d="M 1959 3097 
Q 1497 3097 1228 2736 
Q 959 2375 959 1747 
Q 959 1119 1226 758 
Q 1494 397 1959 397 
Q 2419 397 2687 759 
Q 2956 1122 2956 1747 
Q 2956 2369 2687 2733 
Q 2419 3097 1959 3097 
z
M 1959 3584 
Q 2709 3584 3137 3096 
Q 3566 2609 3566 1747 
Q 3566 888 3137 398 
Q 2709 -91 1959 -91 
Q 1206 -91 779 398 
Q 353 888 353 1747 
Q 353 2609 779 3096 
Q 1206 3584 1959 3584 
z
" transform="scale(0.015625)"/>
       <path id="DejaVuSans-76" d="M 191 3500 
L 800 3500 
L 1894 563 
L 2988 3500 
L 3597 3500 
L 2284 0 
L 1503 0 
L 191 3500 
z
" transform="scale(0.015625)"/>
       <path id="DejaVuSans-65" d="M 3597 1894 
L 3597 1613 
L 953 1613 
Q 991 1019 1311 708 
Q 1631 397 2203 397 
Q 2534 397 2845 478 
Q 3156 559 3463 722 
L 3463 178 
Q 3153 47 2828 -22 
Q 2503 -91 2169 -91 
Q 1331 -91 842 396 
Q 353 884 353 1716 
Q 353 2575 817 3079 
Q 1281 3584 2069 3584 
Q 2775 3584 3186 3129 
Q 3597 2675 3597 1894 
z
M 3022 2063 
Q 3016 2534 2758 2815 
Q 2500 3097 2075 3097 
Q 1594 3097 1305 2825 
Q 1016 2553 972 2059 
L 3022 2063 
z
" transform="scale(0.015625)"/>
       <path id="DejaVuSans-72" d="M 2631 2963 
Q 2534 3019 2420 3045 
Q 2306 3072 2169 3072 
Q 1681 3072 1420 2755 
Q 1159 2438 1159 1844 
L 1159 0 
L 581 0 
L 581 3500 
L 1159 3500 
L 1159 2956 
Q 1341 3275 1631 3429 
Q 1922 3584 2338 3584 
Q 2397 3584 2469 3576 
Q 2541 3569 2628 3553 
L 2631 2963 
z
" transform="scale(0.015625)"/>
       <path id="DejaVuSans-61" d="M 2194 1759 
Q 1497 1759 1228 1600 
Q 959 1441 959 1056 
Q 959 750 1161 570 
Q 1363 391 1709 391 
Q 2188 391 2477 730 
Q 2766 1069 2766 1631 
L 2766 1759 
L 2194 1759 
z
M 3341 1997 
L 3341 0 
L 2766 0 
L 2766 531 
Q 2569 213 2275 61 
Q 1981 -91 1556 -91 
Q 1019 -91 701 211 
Q 384 513 384 1019 
Q 384 1609 779 1909 
Q 1175 2209 1959 2209 
L 2766 2209 
L 2766 2266 
Q 2766 2663 2505 2880 
Q 2244 3097 1772 3097 
Q 1472 3097 1187 3025 
Q 903 2953 641 2809 
L 641 3341 
Q 956 3463 1253 3523 
Q 1550 3584 1831 3584 
Q 2591 3584 2966 3190 
Q 3341 2797 3341 1997 
z
" transform="scale(0.015625)"/>
       <path id="DejaVuSans-67" d="M 2906 1791 
Q 2906 2416 2648 2759 
Q 2391 3103 1925 3103 
Q 1463 3103 1205 2759 
Q 947 2416 947 1791 
Q 947 1169 1205 825 
Q 1463 481 1925 481 
Q 2391 481 2648 825 
Q 2906 1169 2906 1791 
z
M 3481 434 
Q 3481 -459 3084 -895 
Q 2688 -1331 1869 -1331 
Q 1566 -1331 1297 -1286 
Q 1028 -1241 775 -1147 
L 775 -588 
Q 1028 -725 1275 -790 
Q 1522 -856 1778 -856 
Q 2344 -856 2625 -561 
Q 2906 -266 2906 331 
L 2906 616 
Q 2728 306 2450 153 
Q 2172 0 1784 0 
Q 1141 0 747 490 
Q 353 981 353 1791 
Q 353 2603 747 3093 
Q 1141 3584 1784 3584 
Q 2172 3584 2450 3431 
Q 2728 3278 2906 2969 
L 2906 3500 
L 3481 3500 
L 3481 434 
z
" transform="scale(0.015625)"/>
      </defs>
      <use xlink:href="#DejaVuSans-43"/>
      <use xlink:href="#DejaVuSans-6f" transform="translate(69.824219 0)"/>
      <use xlink:href="#DejaVuSans-76" transform="translate(131.005859 0)"/>
      <use xlink:href="#DejaVuSans-65" transform="translate(190.185547 0)"/>
      <use xlink:href="#DejaVuSans-72" transform="translate(251.708984 0)"/>
      <use xlink:href="#DejaVuSans-61" transform="translate(292.822266 0)"/>
      <use xlink:href="#DejaVuSans-67" transform="translate(354.101562 0)"/>
      <use xlink:href="#DejaVuSans-65" transform="translate(417.578125 0)"/>
     </g>
    </g>
   </g>
   <g id="matplotlib.axis_2">
    <g id="ytick_1">
     <g id="line2d_13">
      <path d="M 39.632812 226.278437 
L 340.662812 226.278437 
" clip-path="url(#pfa0d6e4df1)" style="fill: none; stroke: #b0b0b0; stroke-opacity: 0.18; stroke-width: 0.6; stroke-linecap: square"/>
     </g>
     <g id="line2d_14">
      <defs>
       <path id="m4906d1a86b" d="M 0 0 
L -3.5 0 
" style="stroke: #000000; stroke-width: 0.8"/>
      </defs>
      <g>
       <use xlink:href="#m4906d1a86b" x="39.632812" y="226.278437" style="stroke: #000000; stroke-width: 0.8"/>
      </g>
     </g>
     <g id="text_8">
      <!-- 0.0 -->
      <g transform="translate(19.910312 229.317812) scale(0.08 -0.08)">
       <use xlink:href="#DejaVuSans-30"/>
       <use xlink:href="#DejaVuSans-2e" transform="translate(63.623047 0)"/>
       <use xlink:href="#DejaVuSans-30" transform="translate(95.410156 0)"/>
      </g>
     </g>
    </g>
    <g id="ytick_2">
     <g id="line2d_15">
      <path d="M 39.632812 185.182437 
L 340.662812 185.182437 
" clip-path="url(#pfa0d6e4df1)" style="fill: none; stroke: #b0b0b0; stroke-opacity: 0.18; stroke-width: 0.6; stroke-linecap: square"/>
     </g>
     <g id="line2d_16">
      <g>
       <use xlink:href="#m4906d1a86b" x="39.632812" y="185.182437" style="stroke: #000000; stroke-width: 0.8"/>
      </g>
     </g>
     <g id="text_9">
      <!-- 0.2 -->
      <g transform="translate(19.910312 188.221812) scale(0.08 -0.08)">
       <use xlink:href="#DejaVuSans-30"/>
       <use xlink:href="#DejaVuSans-2e" transform="translate(63.623047 0)"/>
       <use xlink:href="#DejaVuSans-32" transform="translate(95.410156 0)"/>
      </g>
     </g>
    </g>
    <g id="ytick_3">
     <g id="line2d_17">
      <path d="M 39.632812 144.086437 
L 340.662812 144.086437 
" clip-path="url(#pfa0d6e4df1)" style="fill: none; stroke: #b0b0b0; stroke-opacity: 0.18; stroke-width: 0.6; stroke-linecap: square"/>
     </g>
     <g id="line2d_18">
      <g>
       <use xlink:href="#m4906d1a86b" x="39.632812" y="144.086437" style="stroke: #000000; stroke-width: 0.8"/>
      </g>
     </g>
     <g id="text_10">
      <!-- 0.4 -->
      <g transform="translate(19.910312 147.125812) scale(0.08 -0.08)">
       <use xlink:href="#DejaVuSans-30"/>
       <use xlink:href="#DejaVuSans-2e" transform="translate(63.623047 0)"/>
       <use xlink:href="#DejaVuSans-34" transform="translate(95.410156 0)"/>
      </g>
     </g>
    </g>
    <g id="ytick_4">
     <g id="line2d_19">
      <path d="M 39.632812 102.990437 
L 340.662812 102.990437 
" clip-path="url(#pfa0d6e4df1)" style="fill: none; stroke: #b0b0b0; stroke-opacity: 0.18; stroke-width: 0.6; stroke-linecap: square"/>
     </g>
     <g id="line2d_20">
      <g>
       <use xlink:href="#m4906d1a86b" x="39.632812" y="102.990437" style="stroke: #000000; stroke-width: 0.8"/>
      </g>
     </g>
     <g id="text_11">
      <!-- 0.6 -->
      <g transform="translate(19.910312 106.029812) scale(0.08 -0.08)">
       <use xlink:href="#DejaVuSans-30"/>
       <use xlink:href="#DejaVuSans-2e" transform="translate(63.623047 0)"/>
       <use xlink:href="#DejaVuSans-36" transform="translate(95.410156 0)"/>
      </g>
     </g>
    </g>
    <g id="ytick_5">
     <g id="line2d_21">
      <path d="M 39.632812 61.894437 
L 340.662812 61.894437 
" clip-path="url(#pfa0d6e4df1)" style="fill: none; stroke: #b0b0b0; stroke-opacity: 0.18; stroke-width: 0.6; stroke-linecap: square"/>
     </g>
     <g id="line2d_22">
      <g>
       <use xlink:href="#m4906d1a86b" x="39.632812" y="61.894437" style="stroke: #000000; stroke-width: 0.8"/>
      </g>
     </g>
     <g id="text_12">
      <!-- 0.8 -->
      <g transform="translate(19.910312 64.933812) scale(0.08 -0.08)">
       <use xlink:href="#DejaVuSans-30"/>
       <use xlink:href="#DejaVuSans-2e" transform="translate(63.623047 0)"/>
       <use xlink:href="#DejaVuSans-38" transform="translate(95.410156 0)"/>
      </g>
     </g>
    </g>
    <g id="ytick_6">
     <g id="line2d_23">
      <path d="M 39.632812 20.798437 
L 340.662812 20.798437 
" clip-path="url(#pfa0d6e4df1)" style="fill: none; stroke: #b0b0b0; stroke-opacity: 0.18; stroke-width: 0.6; stroke-linecap: square"/>
     </g>
     <g id="line2d_24">
      <g>
       <use xlink:href="#m4906d1a86b" x="39.632812" y="20.798437" style="stroke: #000000; stroke-width: 0.8"/>
      </g>
     </g>
     <g id="text_13">
      <!-- 1.0 -->
      <g transform="translate(19.910312 23.837812) scale(0.08 -0.08)">
       <use xlink:href="#DejaVuSans-31"/>
       <use xlink:href="#DejaVuSans-2e" transform="translate(63.623047 0)"/>
       <use xlink:href="#DejaVuSans-30" transform="translate(95.410156 0)"/>
      </g>
     </g>
    </g>
    <g id="text_14">
     <!-- Selective risk -->
     <g transform="translate(14.038594 153.584375) rotate(-90) scale(0.09 -0.09)">
      <defs>
       <path id="DejaVuSans-53" d="M 3425 4513 
L 3425 3897 
Q 3066 4069 2747 4153 
Q 2428 4238 2131 4238 
Q 1616 4238 1336 4038 
Q 1056 3838 1056 3469 
Q 1056 3159 1242 3001 
Q 1428 2844 1947 2747 
L 2328 2669 
Q 3034 2534 3370 2195 
Q 3706 1856 3706 1288 
Q 3706 609 3251 259 
Q 2797 -91 1919 -91 
Q 1588 -91 1214 -16 
Q 841 59 441 206 
L 441 856 
Q 825 641 1194 531 
Q 1563 422 1919 422 
Q 2459 422 2753 634 
Q 3047 847 3047 1241 
Q 3047 1584 2836 1778 
Q 2625 1972 2144 2069 
L 1759 2144 
Q 1053 2284 737 2584 
Q 422 2884 422 3419 
Q 422 4038 858 4394 
Q 1294 4750 2059 4750 
Q 2388 4750 2728 4690 
Q 3069 4631 3425 4513 
z
" transform="scale(0.015625)"/>
       <path id="DejaVuSans-6c" d="M 603 4863 
L 1178 4863 
L 1178 0 
L 603 0 
L 603 4863 
z
" transform="scale(0.015625)"/>
       <path id="DejaVuSans-63" d="M 3122 3366 
L 3122 2828 
Q 2878 2963 2633 3030 
Q 2388 3097 2138 3097 
Q 1578 3097 1268 2742 
Q 959 2388 959 1747 
Q 959 1106 1268 751 
Q 1578 397 2138 397 
Q 2388 397 2633 464 
Q 2878 531 3122 666 
L 3122 134 
Q 2881 22 2623 -34 
Q 2366 -91 2075 -91 
Q 1284 -91 818 406 
Q 353 903 353 1747 
Q 353 2603 823 3093 
Q 1294 3584 2113 3584 
Q 2378 3584 2631 3529 
Q 2884 3475 3122 3366 
z
" transform="scale(0.015625)"/>
       <path id="DejaVuSans-74" d="M 1172 4494 
L 1172 3500 
L 2356 3500 
L 2356 3053 
L 1172 3053 
L 1172 1153 
Q 1172 725 1289 603 
Q 1406 481 1766 481 
L 2356 481 
L 2356 0 
L 1766 0 
Q 1100 0 847 248 
Q 594 497 594 1153 
L 594 3053 
L 172 3053 
L 172 3500 
L 594 3500 
L 594 4494 
L 1172 4494 
z
" transform="scale(0.015625)"/>
       <path id="DejaVuSans-69" d="M 603 3500 
L 1178 3500 
L 1178 0 
L 603 0 
L 603 3500 
z
M 603 4863 
L 1178 4863 
L 1178 4134 
L 603 4134 
L 603 4863 
z
" transform="scale(0.015625)"/>
       <path id="DejaVuSans-20" transform="scale(0.015625)"/>
       <path id="DejaVuSans-73" d="M 2834 3397 
L 2834 2853 
Q 2591 2978 2328 3040 
Q 2066 3103 1784 3103 
Q 1356 3103 1142 2972 
Q 928 2841 928 2578 
Q 928 2378 1081 2264 
Q 1234 2150 1697 2047 
L 1894 2003 
Q 2506 1872 2764 1633 
Q 3022 1394 3022 966 
Q 3022 478 2636 193 
Q 2250 -91 1575 -91 
Q 1294 -91 989 -36 
Q 684 19 347 128 
L 347 722 
Q 666 556 975 473 
Q 1284 391 1588 391 
Q 1994 391 2212 530 
Q 2431 669 2431 922 
Q 2431 1156 2273 1281 
Q 2116 1406 1581 1522 
L 1381 1569 
Q 847 1681 609 1914 
Q 372 2147 372 2553 
Q 372 3047 722 3315 
Q 1072 3584 1716 3584 
Q 2034 3584 2315 3537 
Q 2597 3491 2834 3397 
z
" transform="scale(0.015625)"/>
       <path id="DejaVuSans-6b" d="M 581 4863 
L 1159 4863 
L 1159 1991 
L 2875 3500 
L 3609 3500 
L 1753 1863 
L 3688 0 
L 2938 0 
L 1159 1709 
L 1159 0 
L 581 0 
L 581 4863 
z
" transform="scale(0.015625)"/>
      </defs>
      <use xlink:href="#DejaVuSans-53"/>
      <use xlink:href="#DejaVuSans-65" transform="translate(63.476562 0)"/>
      <use xlink:href="#DejaVuSans-6c" transform="translate(125 0)"/>
      <use xlink:href="#DejaVuSans-65" transform="translate(152.783203 0)"/>
      <use xlink:href="#DejaVuSans-63" transform="translate(214.306641 0)"/>
      <use xlink:href="#DejaVuSans-74" transform="translate(269.287109 0)"/>
      <use xlink:href="#DejaVuSans-69" transform="translate(308.496094 0)"/>
      <use xlink:href="#DejaVuSans-76" transform="translate(336.279297 0)"/>
      <use xlink:href="#DejaVuSans-65" transform="translate(395.458984 0)"/>
      <use xlink:href="#DejaVuSans-20" transform="translate(456.982422 0)"/>
      <use xlink:href="#DejaVuSans-72" transform="translate(488.769531 0)"/>
      <use xlink:href="#DejaVuSans-69" transform="translate(529.882812 0)"/>
      <use xlink:href="#DejaVuSans-73" transform="translate(557.666016 0)"/>
      <use xlink:href="#DejaVuSans-6b" transform="translate(609.765625 0)"/>
     </g>
    </g>
   </g>
   <g id="line2d_25">
    <path d="M 40.476034 226.278437 
L 41.319255 123.538437 
L 42.162476 157.785104 
L 43.005698 174.908437 
L 43.848919 185.182437 
L 44.69214 192.031771 
L 45.535362 196.924152 
L 46.378583 200.593437 
L 47.221804 203.447326 
L 48.065025 205.730437 
L 48.908247 207.598437 
L 49.751468 209.155104 
L 51.437911 211.601295 
L 53.124353 213.435937 
L 54.810796 214.862882 
L 56.497238 216.004437 
L 59.026902 217.344524 
L 61.556566 218.375361 
L 64.929451 219.429104 
L 68.302336 220.234908 
L 72.518443 221.00972 
L 77.57777 221.712215 
L 84.323541 222.401456 
L 92.755754 223.01685 
L 96.128639 223.211572 
L 96.97186 220.234908 
L 105.404073 221.00972 
L 115.522728 221.712215 
L 128.171048 222.364533 
L 129.014269 222.401456 
L 129.85749 220.517316 
L 130.700712 220.57066 
L 131.543933 218.737887 
L 134.073597 218.939866 
L 134.916818 217.186402 
L 145.878695 218.124469 
L 159.370235 219.043226 
L 167.802448 219.519227 
L 168.64567 218.220398 
L 170.332112 218.324373 
L 172.018555 215.808119 
L 176.234661 216.131277 
L 177.077883 214.932916 
L 188.039759 215.770938 
L 188.882981 214.669398 
L 192.255866 214.925951 
L 193.099087 213.859317 
L 193.942308 213.927181 
L 194.78553 212.877568 
L 202.374521 213.502479 
L 205.747406 209.589707 
L 209.120291 209.921821 
L 210.806734 208.058536 
L 211.649955 208.147849 
L 212.493177 207.23395 
L 218.395726 207.862777 
L 220.082168 206.114512 
L 225.984717 206.753189 
L 226.827939 205.915555 
L 227.67116 206.006868 
L 229.357602 204.360571 
L 231.044045 204.55368 
L 231.887266 203.747736 
L 241.1627 204.784714 
L 242.849143 203.257857 
L 244.535586 203.447326 
L 245.378807 202.698765 
L 248.751692 203.079083 
L 249.594913 202.347032 
L 252.124577 202.63193 
L 253.81102 201.20017 
L 254.654241 201.298516 
L 255.497462 200.593437 
L 257.183905 200.792546 
L 258.027126 200.097588 
L 258.870348 200.198284 
L 259.713569 199.510928 
L 270.675446 200.780919 
L 271.518667 200.126437 
L 274.891552 200.501377 
L 275.734773 199.85958 
L 276.577995 199.953598 
L 281.637322 196.208194 
L 293.44242 197.60681 
L 295.972084 195.86199 
L 297.658527 196.06079 
L 301.874633 193.243068 
L 302.717855 193.34895 
L 304.404297 192.249902 
L 306.09074 192.465273 
L 306.933961 191.923737 
L 307.777182 192.031771 
L 308.620404 191.494989 
L 311.150067 191.819059 
L 311.993289 191.289583 
L 314.522953 191.611566 
L 317.052616 190.054 
L 317.895838 190.163771 
L 321.268723 188.135443 
L 322.111944 188.249303 
L 324.641608 186.763053 
L 327.171272 187.110696 
L 330.544157 185.182437 
L 331.387378 185.301212 
L 332.2306 184.827141 
L 333.917042 185.064684 
L 335.603485 184.128694 
L 336.446706 184.248437 
L 337.289927 183.785406 
L 338.133149 183.905443 
L 340.662812 182.534796 
L 340.662812 182.534796 
" clip-path="url(#pfa0d6e4df1)" style="fill: none; stroke: #0072b2; stroke-width: 1.8; stroke-linecap: square"/>
   </g>
   <g id="line2d_26">
    <path d="M 40.476034 226.278437 
L 50.594689 226.278437 
L 51.437911 211.601295 
L 53.124353 213.435937 
L 54.810796 214.862882 
L 55.654017 204.648964 
L 57.34046 206.708914 
L 59.026902 208.410611 
L 60.713345 209.840037 
L 63.243009 211.601295 
L 65.772672 213.021663 
L 68.302336 214.191379 
L 71.675221 215.463701 
L 75.048107 216.493676 
L 79.264213 217.534608 
L 84.323541 218.524475 
L 86.009983 218.806437 
L 86.853205 215.27058 
L 90.22609 216.004437 
L 91.069311 212.804339 
L 96.128639 214.010975 
L 102.031188 215.17141 
L 104.560852 215.604152 
L 106.247294 210.672362 
L 111.306622 211.773967 
L 112.149843 209.553321 
L 118.052392 210.812201 
L 124.798163 212.037249 
L 129.85749 212.835821 
L 131.543933 209.312199 
L 133.230376 209.617897 
L 134.073597 207.932009 
L 136.603261 208.410611 
L 137.446482 206.793265 
L 145.035474 208.196198 
L 147.565137 208.62 
L 148.408359 207.164019 
L 150.094801 207.455842 
L 152.624465 203.276945 
L 161.056678 204.874271 
L 161.899899 203.604782 
L 163.586342 203.913267 
L 166.116006 200.250971 
L 168.64567 200.761313 
L 169.488891 199.592723 
L 172.018555 200.102641 
L 173.704997 197.847243 
L 175.39144 198.200425 
L 176.234661 197.105351 
L 178.764325 197.635771 
L 179.607546 196.570486 
L 181.293989 196.924152 
L 182.13721 195.881988 
L 188.882981 197.255839 
L 189.726202 196.264505 
L 192.255866 196.761973 
L 193.099087 195.795141 
L 193.942308 195.961716 
L 195.628751 194.068059 
L 200.688079 195.079903 
L 202.374521 193.273878 
L 204.904185 193.77905 
L 205.747406 192.900976 
L 209.120291 193.565204 
L 209.963513 192.709923 
L 216.709283 193.988723 
L 217.552504 193.167916 
L 220.082168 193.632082 
L 221.768611 192.031771 
L 225.984717 192.806582 
L 227.67116 191.263908 
L 228.514381 191.420223 
L 229.357602 190.661904 
L 230.200824 190.819499 
L 231.044045 190.070508 
L 233.573709 190.542785 
L 234.41693 189.807961 
L 235.260151 189.965162 
L 236.103373 189.239124 
L 236.946594 189.397412 
L 238.633037 187.968607 
L 240.319479 188.290538 
L 241.1627 187.589735 
L 242.005922 187.750937 
L 243.692364 186.371165 
L 245.378807 186.698274 
L 246.222028 186.021131 
L 247.908471 186.347101 
L 248.751692 185.679567 
L 251.281356 186.164812 
L 252.124577 185.508596 
L 253.81102 185.829619 
L 254.654241 185.182437 
L 258.870348 185.972745 
L 263.086454 182.856249 
L 264.772897 183.181509 
L 266.459339 181.9742 
L 267.30256 182.138289 
L 268.989003 180.951967 
L 269.832224 181.117998 
L 273.205109 178.802914 
L 274.048331 178.973689 
L 274.891552 178.406753 
L 276.577995 178.747477 
L 277.421216 178.187374 
L 278.264437 178.357307 
L 279.107658 177.802522 
L 283.323765 178.641206 
L 284.166986 178.09692 
L 286.69665 178.590246 
L 288.383093 177.520471 
L 289.226314 177.685194 
L 290.069535 177.156956 
L 290.912756 177.321793 
L 293.44242 175.76176 
L 294.285642 175.929034 
L 295.972084 174.908437 
L 296.815305 175.076864 
L 299.344969 173.574152 
L 300.188191 173.744716 
L 304.404297 171.309266 
L 306.933961 171.829479 
L 309.463625 170.413563 
L 310.306846 170.587596 
L 311.993289 169.660109 
L 313.679731 170.00853 
L 314.522953 169.55083 
L 315.366174 169.724309 
L 316.209395 169.270267 
L 318.739059 169.786957 
L 319.58228 169.338197 
L 320.425502 169.509188 
L 321.268723 169.063946 
L 322.111944 169.234736 
L 324.641608 167.917254 
L 325.484829 168.089411 
L 327.171272 167.225534 
L 328.014493 167.398204 
L 328.857714 166.970799 
L 329.700936 167.143205 
L 337.289927 163.412035 
L 338.133149 163.589624 
L 340.662812 162.389698 
L 340.662812 162.389698 
" clip-path="url(#pfa0d6e4df1)" style="fill: none; stroke: #56b4e9; stroke-width: 1.8; stroke-linecap: square"/>
   </g>
   <g id="line2d_27">
    <path d="M 40.476034 20.798437 
L 49.751468 20.798437 
L 50.594689 36.604591 
L 52.281132 34.497104 
L 53.967574 32.885496 
L 54.810796 43.629549 
L 55.654017 42.427911 
L 56.497238 51.620437 
L 57.34046 50.152723 
L 59.026902 65.468003 
L 60.713345 78.332837 
L 61.556566 84.023053 
L 63.243009 79.507009 
L 64.929451 75.593104 
L 66.615894 85.010937 
L 68.302336 81.233732 
L 69.145558 79.507009 
L 70.832 87.4406 
L 71.675221 85.686859 
L 73.361664 92.716437 
L 75.048107 99.076533 
L 77.57777 107.55666 
L 80.107434 114.976771 
L 81.793877 119.428837 
L 84.323541 113.845985 
L 85.166762 115.928067 
L 86.009983 114.198437 
L 87.696426 118.131069 
L 88.539647 116.45292 
L 90.22609 120.113771 
L 92.755754 115.384469 
L 94.442196 118.796591 
L 95.285418 117.311771 
L 97.815081 122.049452 
L 100.344745 126.392326 
L 102.874409 130.387771 
L 106.247294 135.242994 
L 107.090516 136.380937 
L 107.933737 134.953993 
L 108.776958 136.067706 
L 109.620179 134.678919 
L 112.149843 137.874251 
L 112.993065 136.528552 
L 114.679507 138.545404 
L 117.209171 134.705829 
L 119.738835 137.597595 
L 120.582056 136.380937 
L 123.954941 139.976837 
L 125.641384 141.669026 
L 127.327827 139.344591 
L 131.543933 143.332382 
L 135.760039 146.970367 
L 139.976146 150.302639 
L 140.819367 150.935771 
L 141.662588 149.860256 
L 145.878695 152.892723 
L 146.721916 153.470563 
L 147.565137 152.434062 
L 152.624465 155.740527 
L 153.467686 154.740956 
L 158.527014 157.785104 
L 163.586342 160.58075 
L 169.488891 163.567009 
L 171.175334 164.371002 
L 172.861776 162.553627 
L 178.764325 165.257104 
L 179.607546 165.624703 
L 180.450768 164.757479 
L 187.196538 167.569866 
L 193.099087 169.827888 
L 194.78553 168.208003 
L 202.374521 170.91595 
L 203.217742 170.142149 
L 208.27707 171.826237 
L 209.120291 171.074855 
L 211.649955 171.886673 
L 215.022841 168.98113 
L 219.238947 170.326137 
L 221.768611 168.249363 
L 228.514381 170.32183 
L 229.357602 169.657282 
L 234.41693 171.127961 
L 235.260151 170.479989 
L 236.103373 170.719468 
L 238.633037 168.813692 
L 246.222028 170.924642 
L 247.065249 170.314372 
L 252.124577 171.64685 
L 252.967798 171.050611 
L 263.086454 173.551494 
L 263.929675 172.977234 
L 269.832224 174.343932 
L 270.675446 173.783547 
L 279.107658 175.631959 
L 279.95088 175.088683 
L 289.226314 176.991005 
L 290.912756 175.942733 
L 291.755978 176.11108 
L 293.44242 175.079102 
L 295.972084 175.584359 
L 296.815305 175.076864 
L 301.031412 175.902696 
L 304.404297 173.926845 
L 306.933961 174.422286 
L 307.777182 173.939192 
L 309.463625 174.266312 
L 311.150067 173.313096 
L 316.209395 174.281974 
L 317.052616 173.815459 
L 320.425502 174.445645 
L 321.268723 173.985623 
L 324.641608 174.604473 
L 325.484829 174.150768 
L 328.014493 174.608028 
L 330.544157 173.270553 
L 332.2306 173.576074 
L 333.917042 172.700558 
L 334.760263 172.853637 
L 335.603485 172.420432 
L 338.133149 172.876856 
L 338.97637 172.448466 
L 339.819591 172.599673 
L 340.662812 172.17446 
L 340.662812 172.17446 
" clip-path="url(#pfa0d6e4df1)" style="fill: none; stroke: #d55e00; stroke-width: 1.8; stroke-linecap: square"/>
   </g>
   <g id="line2d_28">
    <path d="M 40.476034 226.278437 
L 53.124353 226.278437 
L 53.967574 214.191379 
L 55.654017 215.463701 
L 57.34046 216.493676 
L 59.870123 217.716771 
L 62.399787 218.668067 
L 65.772672 219.65005 
L 66.615894 219.857188 
L 67.459115 213.825104 
L 70.832 215.17141 
L 74.204885 216.255023 
L 77.57777 217.145993 
L 78.420992 212.877568 
L 80.950656 213.698029 
L 81.793877 209.840037 
L 86.009983 211.334437 
L 87.696426 211.858788 
L 88.539647 208.564644 
L 91.912532 209.70747 
L 93.598975 203.804062 
L 97.815081 205.43264 
L 99.501524 206.019846 
L 100.344745 203.447326 
L 102.031188 204.064383 
L 102.874409 201.620837 
L 107.090516 203.161937 
L 108.776958 198.714047 
L 110.463401 199.370342 
L 112.993065 193.21269 
L 113.836286 193.588437 
L 115.522728 189.74866 
L 119.738835 191.67128 
L 120.582056 192.031771 
L 122.268499 188.537213 
L 123.954941 189.292037 
L 124.798163 187.623784 
L 125.641384 188.002751 
L 127.327827 184.787284 
L 132.387154 187.050437 
L 136.603261 188.756003 
L 138.289703 185.884933 
L 144.192252 188.165212 
L 147.565137 182.935 
L 153.467686 185.182437 
L 155.99735 181.608872 
L 156.840572 181.930236 
L 157.683793 180.779295 
L 159.370235 181.420128 
L 160.213457 180.296899 
L 161.899899 180.931127 
L 162.743121 179.834328 
L 165.272784 180.769444 
L 166.959227 178.650623 
L 167.802448 178.963964 
L 170.332112 175.902696 
L 174.548219 177.476937 
L 177.077883 174.593284 
L 179.607546 175.527353 
L 181.293989 173.685342 
L 182.13721 173.996544 
L 182.980432 173.095379 
L 187.196538 174.614895 
L 190.569423 171.177655 
L 193.099087 172.08591 
L 194.78553 170.441481 
L 195.628751 170.743302 
L 196.471972 169.937147 
L 202.374521 171.980614 
L 204.060964 170.430027 
L 208.27707 171.826237 
L 209.120291 171.074855 
L 209.963513 171.34814 
L 210.806734 170.606516 
L 211.649955 170.879418 
L 212.493177 170.147316 
L 214.179619 170.689645 
L 215.866062 169.25528 
L 216.709283 169.526818 
L 217.552504 168.821945 
L 225.984717 171.421786 
L 231.887266 173.105981 
L 232.730488 172.440883 
L 236.946594 173.591258 
L 238.633037 172.296404 
L 247.908471 174.700462 
L 249.594913 173.464301 
L 250.438135 173.675557 
L 251.281356 173.066485 
L 252.967798 173.487133 
L 253.81102 172.885997 
L 256.340684 173.509255 
L 258.027126 172.330021 
L 259.713569 172.743418 
L 260.55679 172.163476 
L 266.459339 173.571672 
L 269.832224 171.333236 
L 273.205109 172.126669 
L 274.048331 171.582322 
L 276.577995 172.166267 
L 277.421216 171.629501 
L 278.264437 171.822607 
L 279.95088 170.762788 
L 281.637322 171.149657 
L 282.480544 170.627604 
L 283.323765 170.820168 
L 284.166986 170.302851 
L 286.69665 170.87598 
L 287.539871 170.365512 
L 289.226314 170.743302 
L 291.755978 169.238839 
L 292.599199 169.428971 
L 295.128863 167.957381 
L 295.972084 168.149227 
L 301.031412 165.297276 
L 302.717855 165.688181 
L 304.404297 164.765316 
L 306.09074 165.15464 
L 306.933961 164.699258 
L 308.620404 165.085334 
L 310.306846 164.18635 
L 311.150067 164.379183 
L 311.993289 163.93466 
L 312.83651 164.127079 
L 313.679731 163.686068 
L 314.522953 163.878069 
L 315.366174 163.440517 
L 316.209395 163.632096 
L 317.052616 163.197951 
L 318.739059 163.579102 
L 320.425502 162.721561 
L 324.641608 163.661751 
L 326.328051 162.821379 
L 328.857714 163.376397 
L 329.700936 162.961926 
L 330.544157 163.145452 
L 331.387378 162.734044 
L 333.073821 163.099242 
L 338.133149 160.687364 
L 338.97637 160.872128 
L 340.662812 160.087401 
L 340.662812 160.087401 
" clip-path="url(#pfa0d6e4df1)" style="fill: none; stroke: #009e73; stroke-width: 1.8; stroke-linecap: square"/>
   </g>
   <g id="line2d_29">
    <path d="M 40.476034 226.278437 
L 41.319255 123.538437 
L 42.162476 89.291771 
L 43.005698 72.168437 
L 43.848919 61.894437 
L 44.69214 55.045104 
L 45.535362 50.152723 
L 46.378583 46.483437 
L 47.221804 66.46066 
L 48.065025 82.442437 
L 48.908247 95.518437 
L 49.751468 106.415104 
L 50.594689 115.635361 
L 51.437911 123.538437 
L 53.124353 136.380937 
L 54.810796 146.369549 
L 56.497238 154.360437 
L 58.183681 160.898438 
L 59.870123 166.346771 
L 61.556566 170.956899 
L 63.243009 174.908437 
L 64.929451 178.333104 
L 66.615894 181.329687 
L 68.302336 183.973732 
L 69.988779 186.323993 
L 72.518443 189.397412 
L 75.048107 192.031771 
L 77.57777 194.314882 
L 80.107434 196.312604 
L 82.637098 198.0753 
L 86.009983 200.126437 
L 89.382869 201.899454 
L 92.755754 203.447326 
L 96.97186 205.126085 
L 101.187967 206.574876 
L 106.247294 208.071349 
L 112.149843 209.553321 
L 118.052392 210.812201 
L 124.798163 212.037249 
L 126.484605 212.313777 
L 127.327827 210.472284 
L 130.700712 211.057697 
L 131.543933 209.312199 
L 139.132925 210.606234 
L 148.408359 211.942624 
L 158.527014 213.162693 
L 159.370235 211.808015 
L 170.332112 213.021663 
L 182.980432 214.191379 
L 190.569423 214.799108 
L 191.412644 213.721326 
L 204.904185 214.746397 
L 205.747406 213.761889 
L 222.611832 214.915488 
L 224.298275 215.019259 
L 225.141496 214.136437 
L 239.476258 215.007383 
L 240.319479 214.191379 
L 258.027126 215.17141 
L 258.870348 214.423822 
L 262.243233 214.603438 
L 263.929675 213.146257 
L 265.616118 213.244258 
L 266.459339 212.528846 
L 270.675446 212.779751 
L 272.361888 211.388582 
L 273.205109 211.442336 
L 274.891552 210.075713 
L 283.323765 210.636361 
L 285.010207 209.331633 
L 290.069535 209.673993 
L 290.912756 209.040182 
L 291.755978 209.097835 
L 292.599199 208.470171 
L 293.44242 208.529335 
L 294.285642 207.907709 
L 295.128863 207.968338 
L 295.972084 207.352648 
L 296.815305 207.4147 
L 298.501748 206.198959 
L 306.933961 206.832381 
L 307.777182 206.247368 
L 308.620404 206.310162 
L 309.463625 205.730437 
L 314.522953 206.108622 
L 316.209395 204.978681 
L 317.895838 205.107771 
L 318.739059 204.550945 
L 320.425502 204.681441 
L 322.111944 203.583632 
L 324.641608 203.785065 
L 325.484829 203.245281 
L 332.2306 203.776305 
L 338.133149 200.158099 
L 339.819591 200.304842 
L 340.662812 199.802023 
L 340.662812 199.802023 
" clip-path="url(#pfa0d6e4df1)" style="fill: none; stroke: #cc79a7; stroke-width: 1.8; stroke-linecap: square"/>
   </g>
   <g id="line2d_30">
    <path d="M 40.476034 226.278437 
L 69.145558 226.278437 
L 69.988779 220.57066 
L 75.048107 221.386057 
L 80.950656 222.084968 
L 88.539647 222.735679 
L 97.815081 223.300466 
L 110.463401 223.832247 
L 127.327827 224.302668 
L 148.408359 224.685569 
L 149.25158 223.117207 
L 155.154129 223.278729 
L 155.99735 221.811481 
L 171.175334 222.326899 
L 172.018555 221.043278 
L 172.861776 221.076412 
L 173.704997 219.816802 
L 174.548219 219.857188 
L 175.39144 218.620798 
L 180.450768 218.895923 
L 181.293989 217.716771 
L 182.13721 217.767432 
L 182.980432 216.60879 
L 189.726202 217.043381 
L 190.569423 215.947041 
L 198.158415 216.441629 
L 200.688079 213.368699 
L 206.590628 213.825104 
L 207.433849 212.855121 
L 209.120291 212.988686 
L 209.963513 212.037249 
L 221.768611 212.960289 
L 222.611832 212.074751 
L 230.200824 212.640384 
L 231.044045 211.795266 
L 231.887266 211.858788 
L 232.730488 211.024464 
L 244.535586 211.903293 
L 245.378807 211.120077 
L 248.751692 211.364567 
L 249.594913 210.599241 
L 256.340684 211.087309 
L 257.183905 210.349755 
L 258.027126 210.411256 
L 259.713569 208.958284 
L 265.616118 209.410676 
L 266.459339 208.709516 
L 267.30256 208.774586 
L 268.145782 208.080947 
L 269.832224 208.214262 
L 271.518667 206.851237 
L 273.205109 206.991506 
L 274.891552 205.656789 
L 277.421216 205.876168 
L 278.264437 205.222183 
L 279.107658 205.296325 
L 279.95088 204.648964 
L 280.794101 204.724591 
L 281.637322 204.083734 
L 283.323765 204.23733 
L 284.166986 203.604782 
L 290.069535 204.139178 
L 290.912756 203.523941 
L 291.755978 203.600043 
L 292.599199 202.990704 
L 294.285642 203.144928 
L 295.128863 202.543124 
L 297.658527 202.775823 
L 298.501748 202.183063 
L 299.344969 202.261295 
L 301.031412 201.090567 
L 301.874633 201.171556 
L 303.561076 200.019013 
L 306.933961 200.350362 
L 308.620404 199.224644 
L 311.150067 199.476698 
L 311.993289 198.923515 
L 312.83651 199.007944 
L 314.522953 197.914634 
L 316.209395 198.087584 
L 317.052616 197.548711 
L 317.895838 197.635771 
L 318.739059 197.101519 
L 320.425502 197.276756 
L 321.268723 196.748378 
L 322.111944 196.836527 
L 322.955165 196.312604 
L 327.171272 196.751986 
L 331.387378 194.209305 
L 334.760263 194.575809 
L 335.603485 194.080717 
L 336.446706 194.172188 
L 337.289927 193.681044 
L 338.133149 193.773127 
L 338.97637 193.285874 
L 339.819591 193.37855 
L 340.662812 192.895132 
L 340.662812 192.895132 
" clip-path="url(#pfa0d6e4df1)" style="fill: none; stroke: #e69f00; stroke-width: 1.8; stroke-linecap: square"/>
   </g>
   <g id="patch_3">
    <path d="M 39.632812 226.278437 
L 39.632812 20.798437 
" style="fill: none; stroke: #000000; stroke-width: 0.8; stroke-linejoin: miter; stroke-linecap: square"/>
   </g>
   <g id="patch_4">
    <path d="M 39.632812 226.278437 
L 340.662812 226.278437 
" style="fill: none; stroke: #000000; stroke-width: 0.8; stroke-linejoin: miter; stroke-linecap: square"/>
   </g>
   <g id="text_15">
    <!-- SLAKE-en -->
    <g transform="translate(166.167344 14.798437) scale(0.1 -0.1)">
     <defs>
      <path id="DejaVuSans-4c" d="M 628 4666 
L 1259 4666 
L 1259 531 
L 3531 531 
L 3531 0 
L 628 0 
L 628 4666 
z
" transform="scale(0.015625)"/>
      <path id="DejaVuSans-41" d="M 2188 4044 
L 1331 1722 
L 3047 1722 
L 2188 4044 
z
M 1831 4666 
L 2547 4666 
L 4325 0 
L 3669 0 
L 3244 1197 
L 1141 1197 
L 716 0 
L 50 0 
L 1831 4666 
z
" transform="scale(0.015625)"/>
      <path id="DejaVuSans-4b" d="M 628 4666 
L 1259 4666 
L 1259 2694 
L 3353 4666 
L 4166 4666 
L 1850 2491 
L 4331 0 
L 3500 0 
L 1259 2247 
L 1259 0 
L 628 0 
L 628 4666 
z
" transform="scale(0.015625)"/>
      <path id="DejaVuSans-45" d="M 628 4666 
L 3578 4666 
L 3578 4134 
L 1259 4134 
L 1259 2753 
L 3481 2753 
L 3481 2222 
L 1259 2222 
L 1259 531 
L 3634 531 
L 3634 0 
L 628 0 
L 628 4666 
z
" transform="scale(0.015625)"/>
      <path id="DejaVuSans-2d" d="M 313 2009 
L 1997 2009 
L 1997 1497 
L 313 1497 
L 313 2009 
z
" transform="scale(0.015625)"/>
      <path id="DejaVuSans-6e" d="M 3513 2113 
L 3513 0 
L 2938 0 
L 2938 2094 
Q 2938 2591 2744 2837 
Q 2550 3084 2163 3084 
Q 1697 3084 1428 2787 
Q 1159 2491 1159 1978 
L 1159 0 
L 581 0 
L 581 3500 
L 1159 3500 
L 1159 2956 
Q 1366 3272 1645 3428 
Q 1925 3584 2291 3584 
Q 2894 3584 3203 3211 
Q 3513 2838 3513 2113 
z
" transform="scale(0.015625)"/>
     </defs>
     <use xlink:href="#DejaVuSans-53"/>
     <use xlink:href="#DejaVuSans-4c" transform="translate(63.476562 0)"/>
     <use xlink:href="#DejaVuSans-41" transform="translate(121.439453 0)"/>
     <use xlink:href="#DejaVuSans-4b" transform="translate(189.847656 0)"/>
     <use xlink:href="#DejaVuSans-45" transform="translate(255.423828 0)"/>
     <use xlink:href="#DejaVuSans-2d" transform="translate(318.607422 0)"/>
     <use xlink:href="#DejaVuSans-65" transform="translate(354.691406 0)"/>
     <use xlink:href="#DejaVuSans-6e" transform="translate(416.214844 0)"/>
    </g>
   </g>
   <g id="legend_1">
    <g id="line2d_31">
     <path d="M 196.800781 29.967344 
L 203.800781 29.967344 
L 210.800781 29.967344 
" style="fill: none; stroke: #0072b2; stroke-width: 1.8; stroke-linecap: square"/>
    </g>
    <g id="text_16">
     <!-- Qwen2.5-VL -->
     <g transform="translate(216.400781 32.417344) scale(0.07 -0.07)">
      <defs>
       <path id="DejaVuSans-51" d="M 2522 4238 
Q 1834 4238 1429 3725 
Q 1025 3213 1025 2328 
Q 1025 1447 1429 934 
Q 1834 422 2522 422 
Q 3209 422 3611 934 
Q 4013 1447 4013 2328 
Q 4013 3213 3611 3725 
Q 3209 4238 2522 4238 
z
M 3406 84 
L 4238 -825 
L 3475 -825 
L 2784 -78 
Q 2681 -84 2626 -87 
Q 2572 -91 2522 -91 
Q 1538 -91 948 567 
Q 359 1225 359 2328 
Q 359 3434 948 4092 
Q 1538 4750 2522 4750 
Q 3503 4750 4090 4092 
Q 4678 3434 4678 2328 
Q 4678 1516 4351 937 
Q 4025 359 3406 84 
z
" transform="scale(0.015625)"/>
       <path id="DejaVuSans-77" d="M 269 3500 
L 844 3500 
L 1563 769 
L 2278 3500 
L 2956 3500 
L 3675 769 
L 4391 3500 
L 4966 3500 
L 4050 0 
L 3372 0 
L 2619 2869 
L 1863 0 
L 1184 0 
L 269 3500 
z
" transform="scale(0.015625)"/>
       <path id="DejaVuSans-35" d="M 691 4666 
L 3169 4666 
L 3169 4134 
L 1269 4134 
L 1269 2991 
Q 1406 3038 1543 3061 
Q 1681 3084 1819 3084 
Q 2600 3084 3056 2656 
Q 3513 2228 3513 1497 
Q 3513 744 3044 326 
Q 2575 -91 1722 -91 
Q 1428 -91 1123 -41 
Q 819 9 494 109 
L 494 744 
Q 775 591 1075 516 
Q 1375 441 1709 441 
Q 2250 441 2565 725 
Q 2881 1009 2881 1497 
Q 2881 1984 2565 2268 
Q 2250 2553 1709 2553 
Q 1456 2553 1204 2497 
Q 953 2441 691 2322 
L 691 4666 
z
" transform="scale(0.015625)"/>
       <path id="DejaVuSans-56" d="M 1831 0 
L 50 4666 
L 709 4666 
L 2188 738 
L 3669 4666 
L 4325 4666 
L 2547 0 
L 1831 0 
z
" transform="scale(0.015625)"/>
      </defs>
      <use xlink:href="#DejaVuSans-51"/>
      <use xlink:href="#DejaVuSans-77" transform="translate(78.710938 0)"/>
      <use xlink:href="#DejaVuSans-65" transform="translate(160.498047 0)"/>
      <use xlink:href="#DejaVuSans-6e" transform="translate(222.021484 0)"/>
      <use xlink:href="#DejaVuSans-32" transform="translate(285.400391 0)"/>
      <use xlink:href="#DejaVuSans-2e" transform="translate(349.023438 0)"/>
      <use xlink:href="#DejaVuSans-35" transform="translate(380.810547 0)"/>
      <use xlink:href="#DejaVuSans-2d" transform="translate(444.433594 0)"/>
      <use xlink:href="#DejaVuSans-56" transform="translate(474.642578 0)"/>
      <use xlink:href="#DejaVuSans-4c" transform="translate(543.050781 0)"/>
     </g>
    </g>
    <g id="line2d_32">
     <path d="M 196.800781 40.242031 
L 203.800781 40.242031 
L 210.800781 40.242031 
" style="fill: none; stroke: #56b4e9; stroke-width: 1.8; stroke-linecap: square"/>
    </g>
    <g id="text_17">
     <!-- InternVL2.5 -->
     <g transform="translate(216.400781 42.692031) scale(0.07 -0.07)">
      <defs>
       <path id="DejaVuSans-49" d="M 628 4666 
L 1259 4666 
L 1259 0 
L 628 0 
L 628 4666 
z
" transform="scale(0.015625)"/>
      </defs>
      <use xlink:href="#DejaVuSans-49"/>
      <use xlink:href="#DejaVuSans-6e" transform="translate(29.492188 0)"/>
      <use xlink:href="#DejaVuSans-74" transform="translate(92.871094 0)"/>
      <use xlink:href="#DejaVuSans-65" transform="translate(132.080078 0)"/>
      <use xlink:href="#DejaVuSans-72" transform="translate(193.603516 0)"/>
      <use xlink:href="#DejaVuSans-6e" transform="translate(232.966797 0)"/>
      <use xlink:href="#DejaVuSans-56" transform="translate(296.345703 0)"/>
      <use xlink:href="#DejaVuSans-4c" transform="translate(364.753906 0)"/>
      <use xlink:href="#DejaVuSans-32" transform="translate(420.466797 0)"/>
      <use xlink:href="#DejaVuSans-2e" transform="translate(484.089844 0)"/>
      <use xlink:href="#DejaVuSans-35" transform="translate(515.876953 0)"/>
     </g>
    </g>
    <g id="line2d_33">
     <path d="M 196.800781 50.516719 
L 203.800781 50.516719 
L 210.800781 50.516719 
" style="fill: none; stroke: #d55e00; stroke-width: 1.8; stroke-linecap: square"/>
    </g>
    <g id="text_18">
     <!-- LLaVA-OV -->
     <g transform="translate(216.400781 52.966719) scale(0.07 -0.07)">
      <defs>
       <path id="DejaVuSans-4f" d="M 2522 4238 
Q 1834 4238 1429 3725 
Q 1025 3213 1025 2328 
Q 1025 1447 1429 934 
Q 1834 422 2522 422 
Q 3209 422 3611 934 
Q 4013 1447 4013 2328 
Q 4013 3213 3611 3725 
Q 3209 4238 2522 4238 
z
M 2522 4750 
Q 3503 4750 4090 4092 
Q 4678 3434 4678 2328 
Q 4678 1225 4090 567 
Q 3503 -91 2522 -91 
Q 1538 -91 948 565 
Q 359 1222 359 2328 
Q 359 3434 948 4092 
Q 1538 4750 2522 4750 
z
" transform="scale(0.015625)"/>
      </defs>
      <use xlink:href="#DejaVuSans-4c"/>
      <use xlink:href="#DejaVuSans-4c" transform="translate(55.712891 0)"/>
      <use xlink:href="#DejaVuSans-61" transform="translate(111.425781 0)"/>
      <use xlink:href="#DejaVuSans-56" transform="translate(172.705078 0)"/>
      <use xlink:href="#DejaVuSans-41" transform="translate(234.738281 0)"/>
      <use xlink:href="#DejaVuSans-2d" transform="translate(300.896484 0)"/>
      <use xlink:href="#DejaVuSans-4f" transform="translate(339.730469 0)"/>
      <use xlink:href="#DejaVuSans-56" transform="translate(416.691406 0)"/>
     </g>
    </g>
    <g id="line2d_34">
     <path d="M 272.314375 29.967344 
L 279.314375 29.967344 
L 286.314375 29.967344 
" style="fill: none; stroke: #009e73; stroke-width: 1.8; stroke-linecap: square"/>
    </g>
    <g id="text_19">
     <!-- SmolVLM -->
     <g transform="translate(291.914375 32.417344) scale(0.07 -0.07)">
      <defs>
       <path id="DejaVuSans-6d" d="M 3328 2828 
Q 3544 3216 3844 3400 
Q 4144 3584 4550 3584 
Q 5097 3584 5394 3201 
Q 5691 2819 5691 2113 
L 5691 0 
L 5113 0 
L 5113 2094 
Q 5113 2597 4934 2840 
Q 4756 3084 4391 3084 
Q 3944 3084 3684 2787 
Q 3425 2491 3425 1978 
L 3425 0 
L 2847 0 
L 2847 2094 
Q 2847 2600 2669 2842 
Q 2491 3084 2119 3084 
Q 1678 3084 1418 2786 
Q 1159 2488 1159 1978 
L 1159 0 
L 581 0 
L 581 3500 
L 1159 3500 
L 1159 2956 
Q 1356 3278 1631 3431 
Q 1906 3584 2284 3584 
Q 2666 3584 2933 3390 
Q 3200 3197 3328 2828 
z
" transform="scale(0.015625)"/>
       <path id="DejaVuSans-4d" d="M 628 4666 
L 1569 4666 
L 2759 1491 
L 3956 4666 
L 4897 4666 
L 4897 0 
L 4281 0 
L 4281 4097 
L 3078 897 
L 2444 897 
L 1241 4097 
L 1241 0 
L 628 0 
L 628 4666 
z
" transform="scale(0.015625)"/>
      </defs>
      <use xlink:href="#DejaVuSans-53"/>
      <use xlink:href="#DejaVuSans-6d" transform="translate(63.476562 0)"/>
      <use xlink:href="#DejaVuSans-6f" transform="translate(160.888672 0)"/>
      <use xlink:href="#DejaVuSans-6c" transform="translate(222.070312 0)"/>
      <use xlink:href="#DejaVuSans-56" transform="translate(249.853516 0)"/>
      <use xlink:href="#DejaVuSans-4c" transform="translate(318.261719 0)"/>
      <use xlink:href="#DejaVuSans-4d" transform="translate(373.974609 0)"/>
     </g>
    </g>
    <g id="line2d_35">
     <path d="M 272.314375 40.242031 
L 279.314375 40.242031 
L 286.314375 40.242031 
" style="fill: none; stroke: #cc79a7; stroke-width: 1.8; stroke-linecap: square"/>
    </g>
    <g id="text_20">
     <!-- MedGemma -->
     <g transform="translate(291.914375 42.692031) scale(0.07 -0.07)">
      <defs>
       <path id="DejaVuSans-64" d="M 2906 2969 
L 2906 4863 
L 3481 4863 
L 3481 0 
L 2906 0 
L 2906 525 
Q 2725 213 2448 61 
Q 2172 -91 1784 -91 
Q 1150 -91 751 415 
Q 353 922 353 1747 
Q 353 2572 751 3078 
Q 1150 3584 1784 3584 
Q 2172 3584 2448 3432 
Q 2725 3281 2906 2969 
z
M 947 1747 
Q 947 1113 1208 752 
Q 1469 391 1925 391 
Q 2381 391 2643 752 
Q 2906 1113 2906 1747 
Q 2906 2381 2643 2742 
Q 2381 3103 1925 3103 
Q 1469 3103 1208 2742 
Q 947 2381 947 1747 
z
" transform="scale(0.015625)"/>
       <path id="DejaVuSans-47" d="M 3809 666 
L 3809 1919 
L 2778 1919 
L 2778 2438 
L 4434 2438 
L 4434 434 
Q 4069 175 3628 42 
Q 3188 -91 2688 -91 
Q 1594 -91 976 548 
Q 359 1188 359 2328 
Q 359 3472 976 4111 
Q 1594 4750 2688 4750 
Q 3144 4750 3555 4637 
Q 3966 4525 4313 4306 
L 4313 3634 
Q 3963 3931 3569 4081 
Q 3175 4231 2741 4231 
Q 1884 4231 1454 3753 
Q 1025 3275 1025 2328 
Q 1025 1384 1454 906 
Q 1884 428 2741 428 
Q 3075 428 3337 486 
Q 3600 544 3809 666 
z
" transform="scale(0.015625)"/>
      </defs>
      <use xlink:href="#DejaVuSans-4d"/>
      <use xlink:href="#DejaVuSans-65" transform="translate(86.279297 0)"/>
      <use xlink:href="#DejaVuSans-64" transform="translate(147.802734 0)"/>
      <use xlink:href="#DejaVuSans-47" transform="translate(211.279297 0)"/>
      <use xlink:href="#DejaVuSans-65" transform="translate(288.769531 0)"/>
      <use xlink:href="#DejaVuSans-6d" transform="translate(350.292969 0)"/>
      <use xlink:href="#DejaVuSans-6d" transform="translate(447.705078 0)"/>
      <use xlink:href="#DejaVuSans-61" transform="translate(545.117188 0)"/>
     </g>
    </g>
    <g id="line2d_36">
     <path d="M 272.314375 50.516719 
L 279.314375 50.516719 
L 286.314375 50.516719 
" style="fill: none; stroke: #e69f00; stroke-width: 1.8; stroke-linecap: square"/>
    </g>
    <g id="text_21">
     <!-- HuatuoGPT -->
     <g transform="translate(291.914375 52.966719) scale(0.07 -0.07)">
      <defs>
       <path id="DejaVuSans-48" d="M 628 4666 
L 1259 4666 
L 1259 2753 
L 3553 2753 
L 3553 4666 
L 4184 4666 
L 4184 0 
L 3553 0 
L 3553 2222 
L 1259 2222 
L 1259 0 
L 628 0 
L 628 4666 
z
" transform="scale(0.015625)"/>
       <path id="DejaVuSans-75" d="M 544 1381 
L 544 3500 
L 1119 3500 
L 1119 1403 
Q 1119 906 1312 657 
Q 1506 409 1894 409 
Q 2359 409 2629 706 
Q 2900 1003 2900 1516 
L 2900 3500 
L 3475 3500 
L 3475 0 
L 2900 0 
L 2900 538 
Q 2691 219 2414 64 
Q 2138 -91 1772 -91 
Q 1169 -91 856 284 
Q 544 659 544 1381 
z
M 1991 3584 
L 1991 3584 
z
" transform="scale(0.015625)"/>
       <path id="DejaVuSans-50" d="M 1259 4147 
L 1259 2394 
L 2053 2394 
Q 2494 2394 2734 2622 
Q 2975 2850 2975 3272 
Q 2975 3691 2734 3919 
Q 2494 4147 2053 4147 
L 1259 4147 
z
M 628 4666 
L 2053 4666 
Q 2838 4666 3239 4311 
Q 3641 3956 3641 3272 
Q 3641 2581 3239 2228 
Q 2838 1875 2053 1875 
L 1259 1875 
L 1259 0 
L 628 0 
L 628 4666 
z
" transform="scale(0.015625)"/>
       <path id="DejaVuSans-54" d="M -19 4666 
L 3928 4666 
L 3928 4134 
L 2272 4134 
L 2272 0 
L 1638 0 
L 1638 4134 
L -19 4134 
L -19 4666 
z
" transform="scale(0.015625)"/>
      </defs>
      <use xlink:href="#DejaVuSans-48"/>
      <use xlink:href="#DejaVuSans-75" transform="translate(75.195312 0)"/>
      <use xlink:href="#DejaVuSans-61" transform="translate(138.574219 0)"/>
      <use xlink:href="#DejaVuSans-74" transform="translate(199.853516 0)"/>
      <use xlink:href="#DejaVuSans-75" transform="translate(239.0625 0)"/>
      <use xlink:href="#DejaVuSans-6f" transform="translate(302.441406 0)"/>
      <use xlink:href="#DejaVuSans-47" transform="translate(363.623047 0)"/>
      <use xlink:href="#DejaVuSans-50" transform="translate(441.113281 0)"/>
      <use xlink:href="#DejaVuSans-54" transform="translate(501.416016 0)"/>
     </g>
    </g>
   </g>
  </g>
 </g>
 <defs>
  <clipPath id="pfa0d6e4df1">
   <rect x="39.632812" y="20.798437" width="301.03" height="205.48"/>
  </clipPath>
 </defs>
</svg>
