<?xml version="1.0" encoding="utf-8" standalone="no"?>
<!DOCTYPE svg PUBLIC "-//W3C//DTD SVG 1.1//EN"
  "http://www.w3.org/Graphics/SVG/1.1/DTD/svg11.dtd">
<svg xmlns:xlink="http://www.w3.org/1999/xlink" width="536.4pt" height="255.6pt" viewBox="0 0 536.4 255.6" xmlns="http://www.w3.org/2000/svg" version="1.1">
 <metadata>
  <rdf:RDF xmlns:dc="http://purl.org/dc/elements/1.1/" xmlns:cc="http://creativecommons.org/ns#" xmlns:rdf="http://www.w3.org/1999/02/22-rdf-syntax-ns#">
   <cc:Work>
    <dc:type rdf:resource="http://purl.org/dc/dcmitype/StillImage"/>
    <dc:date>2026-06-21T22:41:58.878573</dc:date>
    <dc:format>image/svg+xml</dc:format>
    <dc:creator>
     <cc:Agent>
      <dc:title>Matplotlib v3.10.9, https://matplotlib.org/</dc:title>
     </cc:Agent>
    </dc:creator>
   </cc:Work>
  </rdf:RDF>
 </metadata>
 <defs>
  <style type="text/css">*{stroke-linejoin: round; stroke-linecap: butt}</style>
 </defs>
 <g id="figure_1">
  <g id="patch_1">
   <path d="M 0 255.6 
L 536.4 255.6 
L 536.4 0 
L 0 0 
z
" style="fill: #ffffff"/>
  </g>
  <g id="axes_1">
   <g id="patch_2">
    <path d="M 45.001115 217.324998 
L 258.868662 217.324998 
L 258.868662 16.29474 
L 45.001115 16.29474 
z
" style="fill: #ffffff"/>
   </g>
   <g id="FillBetweenPolyCollection_1">
    <defs>
     <path id="m2a5747d720" d="M 49.395654 -231.573327 
L 49.395654 -231.573327 
L 78.692578 -173.847676 
L 107.989502 -134.511251 
L 137.286426 -99.900886 
L 166.58335 -75.578949 
L 195.880275 -59.823428 
L 225.177199 -45.429123 
L 254.474123 -38.275002 
L 254.474123 -38.275002 
L 254.474123 -38.275002 
L 225.177199 -89.396426 
L 195.880275 -112.262448 
L 166.58335 -128.76504 
L 137.286426 -154.480501 
L 107.989502 -178.775125 
L 78.692578 -204.371346 
L 49.395654 -231.573327 
z
"/>
    </defs>
    <g clip-path="url(#p7cd7592cf2)">
     <use xlink:href="#m2a5747d720" x="0" y="255.6" style="fill: #4c78a8; fill-opacity: 0.15"/>
    </g>
   </g>
   <g id="FillBetweenPolyCollection_2">
    <defs>
     <path id="mf4d975f36c" d="M 49.395654 -231.573327 
L 49.395654 -231.573327 
L 78.692578 -189.507571 
L 107.989502 -163.634031 
L 137.286426 -136.112939 
L 166.58335 -101.59601 
L 195.880275 -81.336929 
L 225.177199 -53.83182 
L 254.474123 -38.275002 
L 254.474123 -38.275002 
L 254.474123 -38.275002 
L 225.177199 -88.943795 
L 195.880275 -122.961936 
L 166.58335 -141.885584 
L 137.286426 -168.393066 
L 107.989502 -189.344132 
L 78.692578 -207.700037 
L 49.395654 -231.573327 
z
"/>
    </defs>
    <g clip-path="url(#p7cd7592cf2)">
     <use xlink:href="#mf4d975f36c" x="0" y="255.6" style="fill: #e15759; fill-opacity: 0.15"/>
    </g>
   </g>
   <g id="FillBetweenPolyCollection_3">
    <defs>
     <path id="m3bcb7c2874" d="M 49.395654 -231.573327 
L 49.395654 -231.573327 
L 78.692578 -195.424225 
L 107.989502 -169.300753 
L 137.286426 -135.441179 
L 166.58335 -108.252819 
L 195.880275 -88.583642 
L 225.177199 -53.329611 
L 254.474123 -38.275002 
L 254.474123 -38.275002 
L 254.474123 -38.275002 
L 225.177199 -76.561074 
L 195.880275 -119.014326 
L 166.58335 -142.049461 
L 137.286426 -167.046014 
L 107.989502 -191.822594 
L 78.692578 -209.508633 
L 49.395654 -231.573327 
z
"/>
    </defs>
    <g clip-path="url(#p7cd7592cf2)">
     <use xlink:href="#m3bcb7c2874" x="0" y="255.6" style="fill: #f28e2b; fill-opacity: 0.15"/>
    </g>
   </g>
   <g id="matplotlib.axis_1">
    <g id="xtick_1">
     <g id="line2d_1">
      <path d="M 49.395654 217.324998 
L 49.395654 16.29474 
" clip-path="url(#p7cd7592cf2)" style="fill: none; stroke: #e6e6e6; stroke-width: 0.7; stroke-linecap: square"/>
     </g>
     <g id="line2d_2">
      <defs>
       <path id="m09407bc25f" d="M 0 0 
L 0 3.5 
" style="stroke: #000000; stroke-width: 0.8"/>
      </defs>
      <g>
       <use xlink:href="#m09407bc25f" x="49.395654" y="217.324998" style="stroke: #000000; stroke-width: 0.8"/>
      </g>
     </g>
     <g id="text_1">
      <text style="font-size: 7.8px; font-family: 'DejaVu Sans'" transform="translate(43.516986 239.141342) rotate(-35)">0.50</text>
     </g>
    </g>
    <g id="xtick_2">
     <g id="line2d_3">
      <path d="M 78.692578 217.324998 
L 78.692578 16.29474 
" clip-path="url(#p7cd7592cf2)" style="fill: none; stroke: #e6e6e6; stroke-width: 0.7; stroke-linecap: square"/>
     </g>
     <g id="line2d_4">
      <g>
       <use xlink:href="#m09407bc25f" x="78.692578" y="217.324998" style="stroke: #000000; stroke-width: 0.8"/>
      </g>
     </g>
     <g id="text_2">
      <text style="font-size: 7.8px; font-family: 'DejaVu Sans'" transform="translate(72.81391 239.141342) rotate(-35)">0.60</text>
     </g>
    </g>
    <g id="xtick_3">
     <g id="line2d_5">
      <path d="M 107.989502 217.324998 
L 107.989502 16.29474 
" clip-path="url(#p7cd7592cf2)" style="fill: none; stroke: #e6e6e6; stroke-width: 0.7; stroke-linecap: square"/>
     </g>
     <g id="line2d_6">
      <g>
       <use xlink:href="#m09407bc25f" x="107.989502" y="217.324998" style="stroke: #000000; stroke-width: 0.8"/>
      </g>
     </g>
     <g id="text_3">
      <text style="font-size: 7.8px; font-family: 'DejaVu Sans'" transform="translate(102.110834 239.141342) rotate(-35)">0.70</text>
     </g>
    </g>
    <g id="xtick_4">
     <g id="line2d_7">
      <path d="M 137.286426 217.324998 
L 137.286426 16.29474 
" clip-path="url(#p7cd7592cf2)" style="fill: none; stroke: #e6e6e6; stroke-width: 0.7; stroke-linecap: square"/>
     </g>
     <g id="line2d_8">
      <g>
       <use xlink:href="#m09407bc25f" x="137.286426" y="217.324998" style="stroke: #000000; stroke-width: 0.8"/>
      </g>
     </g>
     <g id="text_4">
      <text style="font-size: 7.8px; font-family: 'DejaVu Sans'" transform="translate(131.407758 239.141342) rotate(-35)">0.80</text>
     </g>
    </g>
    <g id="xtick_5">
     <g id="line2d_9">
      <path d="M 166.58335 217.324998 
L 166.58335 16.29474 
" clip-path="url(#p7cd7592cf2)" style="fill: none; stroke: #e6e6e6; stroke-width: 0.7; stroke-linecap: square"/>
     </g>
     <g id="line2d_10">
      <g>
       <use xlink:href="#m09407bc25f" x="166.58335" y="217.324998" style="stroke: #000000; stroke-width: 0.8"/>
      </g>
     </g>
     <g id="text_5">
      <text style="font-size: 7.8px; font-family: 'DejaVu Sans'" transform="translate(160.704683 239.141342) rotate(-35)">0.90</text>
     </g>
    </g>
    <g id="xtick_6">
     <g id="line2d_11">
      <path d="M 195.880275 217.324998 
L 195.880275 16.29474 
" clip-path="url(#p7cd7592cf2)" style="fill: none; stroke: #e6e6e6; stroke-width: 0.7; stroke-linecap: square"/>
     </g>
     <g id="line2d_12">
      <g>
       <use xlink:href="#m09407bc25f" x="195.880275" y="217.324998" style="stroke: #000000; stroke-width: 0.8"/>
      </g>
     </g>
     <g id="text_6">
      <text style="font-size: 7.8px; font-family: 'DejaVu Sans'" transform="translate(190.001607 239.141342) rotate(-35)">0.95</text>
     </g>
    </g>
    <g id="xtick_7">
     <g id="line2d_13">
      <path d="M 225.177199 217.324998 
L 225.177199 16.29474 
" clip-path="url(#p7cd7592cf2)" style="fill: none; stroke: #e6e6e6; stroke-width: 0.7; stroke-linecap: square"/>
     </g>
     <g id="line2d_14">
      <g>
       <use xlink:href="#m09407bc25f" x="225.177199" y="217.324998" style="stroke: #000000; stroke-width: 0.8"/>
      </g>
     </g>
     <g id="text_7">
      <text style="font-size: 7.8px; font-family: 'DejaVu Sans'" transform="translate(219.298531 239.141342) rotate(-35)">0.99</text>
     </g>
    </g>
    <g id="xtick_8">
     <g id="line2d_15">
      <path d="M 254.474123 217.324998 
L 254.474123 16.29474 
" clip-path="url(#p7cd7592cf2)" style="fill: none; stroke: #e6e6e6; stroke-width: 0.7; stroke-linecap: square"/>
     </g>
     <g id="line2d_16">
      <g>
       <use xlink:href="#m09407bc25f" x="254.474123" y="217.324998" style="stroke: #000000; stroke-width: 0.8"/>
      </g>
     </g>
     <g id="text_8">
      <text style="font-size: 7.8px; font-family: 'DejaVu Sans'" transform="translate(248.595455 239.141342) rotate(-35)">1.00</text>
     </g>
    </g>
    <g id="text_9">
     <text style="font-size: 8.4px; font-family: 'DejaVu Sans'; text-anchor: middle" x="151.934888" y="250.852823" transform="rotate(-0 151.934888 250.852823)">Confidence threshold α</text>
    </g>
   </g>
   <g id="matplotlib.axis_2">
    <g id="ytick_1">
     <g id="line2d_17">
      <path d="M 45.001115 217.324998 
L 258.868662 217.324998 
" clip-path="url(#p7cd7592cf2)" style="fill: none; stroke: #e6e6e6; stroke-width: 0.7; stroke-linecap: square"/>
     </g>
     <g id="line2d_18">
      <defs>
       <path id="mb5b3acc3e2" d="M 0 0 
L -3.5 0 
" style="stroke: #000000; stroke-width: 0.8"/>
      </defs>
      <g>
       <use xlink:href="#mb5b3acc3e2" x="45.001115" y="217.324998" style="stroke: #000000; stroke-width: 0.8"/>
      </g>
     </g>
     <g id="text_10">
      <text style="font-size: 8px; font-family: 'DejaVu Sans'; text-anchor: end" x="38.001115" y="220.364373" transform="rotate(-0 38.001115 220.364373)">0%</text>
     </g>
    </g>
    <g id="ytick_2">
     <g id="line2d_19">
      <path d="M 45.001115 178.665333 
L 258.868662 178.665333 
" clip-path="url(#p7cd7592cf2)" style="fill: none; stroke: #e6e6e6; stroke-width: 0.7; stroke-linecap: square"/>
     </g>
     <g id="line2d_20">
      <g>
       <use xlink:href="#mb5b3acc3e2" x="45.001115" y="178.665333" style="stroke: #000000; stroke-width: 0.8"/>
      </g>
     </g>
     <g id="text_11">
      <text style="font-size: 8px; font-family: 'DejaVu Sans'; text-anchor: end" x="38.001115" y="181.704708" transform="rotate(-0 38.001115 181.704708)">20%</text>
     </g>
    </g>
    <g id="ytick_3">
     <g id="line2d_21">
      <path d="M 45.001115 140.005668 
L 258.868662 140.005668 
" clip-path="url(#p7cd7592cf2)" style="fill: none; stroke: #e6e6e6; stroke-width: 0.7; stroke-linecap: square"/>
     </g>
     <g id="line2d_22">
      <g>
       <use xlink:href="#mb5b3acc3e2" x="45.001115" y="140.005668" style="stroke: #000000; stroke-width: 0.8"/>
      </g>
     </g>
     <g id="text_12">
      <text style="font-size: 8px; font-family: 'DejaVu Sans'; text-anchor: end" x="38.001115" y="143.045043" transform="rotate(-0 38.001115 143.045043)">40%</text>
     </g>
    </g>
    <g id="ytick_4">
     <g id="line2d_23">
      <path d="M 45.001115 101.346003 
L 258.868662 101.346003 
" clip-path="url(#p7cd7592cf2)" style="fill: none; stroke: #e6e6e6; stroke-width: 0.7; stroke-linecap: square"/>
     </g>
     <g id="line2d_24">
      <g>
       <use xlink:href="#mb5b3acc3e2" x="45.001115" y="101.346003" style="stroke: #000000; stroke-width: 0.8"/>
      </g>
     </g>
     <g id="text_13">
      <text style="font-size: 8px; font-family: 'DejaVu Sans'; text-anchor: end" x="38.001115" y="104.385378" transform="rotate(-0 38.001115 104.385378)">60%</text>
     </g>
    </g>
    <g id="ytick_5">
     <g id="line2d_25">
      <path d="M 45.001115 62.686338 
L 258.868662 62.686338 
" clip-path="url(#p7cd7592cf2)" style="fill: none; stroke: #e6e6e6; stroke-width: 0.7; stroke-linecap: square"/>
     </g>
     <g id="line2d_26">
      <g>
       <use xlink:href="#mb5b3acc3e2" x="45.001115" y="62.686338" style="stroke: #000000; stroke-width: 0.8"/>
      </g>
     </g>
     <g id="text_14">
      <text style="font-size: 8px; font-family: 'DejaVu Sans'; text-anchor: end" x="38.001115" y="65.725713" transform="rotate(-0 38.001115 65.725713)">80%</text>
     </g>
    </g>
    <g id="ytick_6">
     <g id="line2d_27">
      <path d="M 45.001115 24.026673 
L 258.868662 24.026673 
" clip-path="url(#p7cd7592cf2)" style="fill: none; stroke: #e6e6e6; stroke-width: 0.7; stroke-linecap: square"/>
     </g>
     <g id="line2d_28">
      <g>
       <use xlink:href="#mb5b3acc3e2" x="45.001115" y="24.026673" style="stroke: #000000; stroke-width: 0.8"/>
      </g>
     </g>
     <g id="text_15">
      <text style="font-size: 8px; font-family: 'DejaVu Sans'; text-anchor: end" x="38.001115" y="27.066048" transform="rotate(-0 38.001115 27.066048)">100%</text>
     </g>
    </g>
    <g id="text_16">
     <text style="font-size: 8.4px; font-family: 'DejaVu Sans'; text-anchor: middle" x="9.382927" y="116.809869" transform="rotate(-90 9.382927 116.809869)">CER@α (%)</text>
    </g>
   </g>
   <g id="line2d_29">
    <path d="M 49.395654 24.026673 
L 78.692578 65.731519 
L 107.989502 99.043664 
L 137.286426 129.231993 
L 166.58335 154.743313 
L 195.880275 171.435897 
L 225.177199 190.1905 
L 254.474123 217.324998 
" clip-path="url(#p7cd7592cf2)" style="fill: none; stroke: #4c78a8; stroke-width: 2; stroke-linecap: square"/>
    <defs>
     <path id="mfdcf5f2c05" d="M 0 2.25 
C 0.596707 2.25 1.169055 2.012926 1.59099 1.59099 
C 2.012926 1.169055 2.25 0.596707 2.25 0 
C 2.25 -0.596707 2.012926 -1.169055 1.59099 -1.59099 
C 1.169055 -2.012926 0.596707 -2.25 0 -2.25 
C -0.596707 -2.25 -1.169055 -2.012926 -1.59099 -1.59099 
C -2.012926 -1.169055 -2.25 -0.596707 -2.25 0 
C -2.25 0.596707 -2.012926 1.169055 -1.59099 1.59099 
C -1.169055 2.012926 -0.596707 2.25 0 2.25 
z
" style="stroke: #4c78a8"/>
    </defs>
    <g clip-path="url(#p7cd7592cf2)">
     <use xlink:href="#mfdcf5f2c05" x="49.395654" y="24.026673" style="fill: #4c78a8; stroke: #4c78a8"/>
     <use xlink:href="#mfdcf5f2c05" x="78.692578" y="65.731519" style="fill: #4c78a8; stroke: #4c78a8"/>
     <use xlink:href="#mfdcf5f2c05" x="107.989502" y="99.043664" style="fill: #4c78a8; stroke: #4c78a8"/>
     <use xlink:href="#mfdcf5f2c05" x="137.286426" y="129.231993" style="fill: #4c78a8; stroke: #4c78a8"/>
     <use xlink:href="#mfdcf5f2c05" x="166.58335" y="154.743313" style="fill: #4c78a8; stroke: #4c78a8"/>
     <use xlink:href="#mfdcf5f2c05" x="195.880275" y="171.435897" style="fill: #4c78a8; stroke: #4c78a8"/>
     <use xlink:href="#mfdcf5f2c05" x="225.177199" y="190.1905" style="fill: #4c78a8; stroke: #4c78a8"/>
     <use xlink:href="#mfdcf5f2c05" x="254.474123" y="217.324998" style="fill: #4c78a8; stroke: #4c78a8"/>
    </g>
   </g>
   <g id="line2d_30">
    <path d="M 49.395654 24.026673 
L 78.692578 56.396986 
L 107.989502 78.362092 
L 137.286426 102.809611 
L 166.58335 133.908559 
L 195.880275 154.266668 
L 225.177199 185.777031 
L 254.474123 217.324998 
" clip-path="url(#p7cd7592cf2)" style="fill: none; stroke: #e15759; stroke-width: 2; stroke-linecap: square"/>
    <defs>
     <path id="m4b7eb6342d" d="M -2.25 2.25 
L 2.25 2.25 
L 2.25 -2.25 
L -2.25 -2.25 
z
" style="stroke: #e15759; stroke-linejoin: miter"/>
    </defs>
    <g clip-path="url(#p7cd7592cf2)">
     <use xlink:href="#m4b7eb6342d" x="49.395654" y="24.026673" style="fill: #e15759; stroke: #e15759; stroke-linejoin: miter"/>
     <use xlink:href="#m4b7eb6342d" x="78.692578" y="56.396986" style="fill: #e15759; stroke: #e15759; stroke-linejoin: miter"/>
     <use xlink:href="#m4b7eb6342d" x="107.989502" y="78.362092" style="fill: #e15759; stroke: #e15759; stroke-linejoin: miter"/>
     <use xlink:href="#m4b7eb6342d" x="137.286426" y="102.809611" style="fill: #e15759; stroke: #e15759; stroke-linejoin: miter"/>
     <use xlink:href="#m4b7eb6342d" x="166.58335" y="133.908559" style="fill: #e15759; stroke: #e15759; stroke-linejoin: miter"/>
     <use xlink:href="#m4b7eb6342d" x="195.880275" y="154.266668" style="fill: #e15759; stroke: #e15759; stroke-linejoin: miter"/>
     <use xlink:href="#m4b7eb6342d" x="225.177199" y="185.777031" style="fill: #e15759; stroke: #e15759; stroke-linejoin: miter"/>
     <use xlink:href="#m4b7eb6342d" x="254.474123" y="217.324998" style="fill: #e15759; stroke: #e15759; stroke-linejoin: miter"/>
    </g>
   </g>
   <g id="line2d_31">
    <path d="M 49.395654 24.026673 
L 78.692578 53.003391 
L 107.989502 74.974663 
L 137.286426 104.209086 
L 166.58335 130.590361 
L 195.880275 151.997711 
L 225.177199 191.287467 
L 254.474123 217.324998 
" clip-path="url(#p7cd7592cf2)" style="fill: none; stroke: #f28e2b; stroke-width: 2; stroke-linecap: square"/>
    <defs>
     <path id="me417c5f9a7" d="M 0 -2.25 
L -2.25 2.25 
L 2.25 2.25 
z
" style="stroke: #f28e2b; stroke-linejoin: miter"/>
    </defs>
    <g clip-path="url(#p7cd7592cf2)">
     <use xlink:href="#me417c5f9a7" x="49.395654" y="24.026673" style="fill: #f28e2b; stroke: #f28e2b; stroke-linejoin: miter"/>
     <use xlink:href="#me417c5f9a7" x="78.692578" y="53.003391" style="fill: #f28e2b; stroke: #f28e2b; stroke-linejoin: miter"/>
     <use xlink:href="#me417c5f9a7" x="107.989502" y="74.974663" style="fill: #f28e2b; stroke: #f28e2b; stroke-linejoin: miter"/>
     <use xlink:href="#me417c5f9a7" x="137.286426" y="104.209086" style="fill: #f28e2b; stroke: #f28e2b; stroke-linejoin: miter"/>
     <use xlink:href="#me417c5f9a7" x="166.58335" y="130.590361" style="fill: #f28e2b; stroke: #f28e2b; stroke-linejoin: miter"/>
     <use xlink:href="#me417c5f9a7" x="195.880275" y="151.997711" style="fill: #f28e2b; stroke: #f28e2b; stroke-linejoin: miter"/>
     <use xlink:href="#me417c5f9a7" x="225.177199" y="191.287467" style="fill: #f28e2b; stroke: #f28e2b; stroke-linejoin: miter"/>
     <use xlink:href="#me417c5f9a7" x="254.474123" y="217.324998" style="fill: #f28e2b; stroke: #f28e2b; stroke-linejoin: miter"/>
    </g>
   </g>
   <g id="line2d_32">
    <path d="M 166.58335 217.324998 
L 166.58335 16.29474 
" clip-path="url(#p7cd7592cf2)" style="fill: none; stroke-dasharray: 2.7,2.7; stroke-dashoffset: 0; stroke: #777777; stroke-width: 0.9"/>
   </g>
   <g id="patch_3">
    <path d="M 45.001115 217.324998 
L 45.001115 16.29474 
" style="fill: none; stroke: #000000; stroke-width: 0.8; stroke-linejoin: miter; stroke-linecap: square"/>
   </g>
   <g id="patch_4">
    <path d="M 45.001115 217.324998 
L 258.868662 217.324998 
" style="fill: none; stroke: #000000; stroke-width: 0.8; stroke-linejoin: miter; stroke-linecap: square"/>
   </g>
   <g id="text_17">
    <text style="font-size: 7.2px; font-family: 'DejaVu Sans'; fill: #555555" transform="translate(168.927104 194.234315)">primary</text>
    <text style="font-size: 7.2px; font-family: 'DejaVu Sans'; fill: #555555" transform="translate(168.927104 202.29674)">α=0.90</text>
   </g>
   <g id="text_18">
    <text style="font-size: 9.6px; font-family: 'DejaVu Sans'; text-anchor: middle" x="151.934888" y="10.29474" transform="rotate(-0 151.934888 10.29474)">A. High-confidence error concentration</text>
   </g>
   <g id="legend_1">
    <g id="line2d_33">
     <path d="M 162.321162 26.77349 
L 170.321162 26.77349 
L 178.321162 26.77349 
" style="fill: none; stroke: #4c78a8; stroke-width: 2; stroke-linecap: square"/>
     <g>
      <use xlink:href="#mfdcf5f2c05" x="170.321162" y="26.77349" style="fill: #4c78a8; stroke: #4c78a8"/>
     </g>
    </g>
    <g id="text_19">
     <text style="font-size: 8px; font-family: 'DejaVu Sans'; text-anchor: start" x="184.721162" y="29.57349" transform="rotate(-0 184.721162 29.57349)">Zero-shot</text>
    </g>
    <g id="line2d_34">
     <path d="M 162.321162 38.51599 
L 170.321162 38.51599 
L 178.321162 38.51599 
" style="fill: none; stroke: #e15759; stroke-width: 2; stroke-linecap: square"/>
     <g>
      <use xlink:href="#m4b7eb6342d" x="170.321162" y="38.51599" style="fill: #e15759; stroke: #e15759; stroke-linejoin: miter"/>
     </g>
    </g>
    <g id="text_20">
     <text style="font-size: 8px; font-family: 'DejaVu Sans'; text-anchor: start" x="184.721162" y="41.31599" transform="rotate(-0 184.721162 41.31599)">In-dataset FT</text>
    </g>
    <g id="line2d_35">
     <path d="M 162.321162 50.25849 
L 170.321162 50.25849 
L 178.321162 50.25849 
" style="fill: none; stroke: #f28e2b; stroke-width: 2; stroke-linecap: square"/>
     <g>
      <use xlink:href="#me417c5f9a7" x="170.321162" y="50.25849" style="fill: #f28e2b; stroke: #f28e2b; stroke-linejoin: miter"/>
     </g>
    </g>
    <g id="text_21">
     <text style="font-size: 8px; font-family: 'DejaVu Sans'; text-anchor: start" x="184.721162" y="53.05849" transform="rotate(-0 184.721162 53.05849)">Cross-dataset FT</text>
    </g>
   </g>
  </g>
  <g id="axes_2">
   <g id="patch_5">
    <path d="M 314.648615 217.324998 
L 528.516162 217.324998 
L 528.516162 16.29474 
L 314.648615 16.29474 
z
" style="fill: #ffffff"/>
   </g>
   <g id="patch_6">
    <path d="M 314.648615 217.324998 
L 528.516162 217.324998 
L 528.516162 53.695718 
L 314.648615 53.695718 
z
" clip-path="url(#p1a9929247a)" style="fill: #f2b8b5; opacity: 0.18"/>
   </g>
   <g id="FillBetweenPolyCollection_4">
    <defs>
     <path id="mdd0f78b27e" d="M 319.043154 -201.904282 
L 319.043154 -201.904282 
L 348.340078 -136.79842 
L 377.637002 -94.046195 
L 406.933926 -71.77152 
L 436.23085 -84.390354 
L 465.527775 -102.787426 
L 494.824699 -146.363911 
L 524.121623 -201.904282 
L 524.121623 -201.904282 
L 524.121623 -201.904282 
L 494.824699 -242.847865 
L 465.527775 -228.980297 
L 436.23085 -221.859011 
L 406.933926 -204.980103 
L 377.637002 -208.848554 
L 348.340078 -218.411103 
L 319.043154 -201.904282 
z
"/>
    </defs>
    <g clip-path="url(#p1a9929247a)">
     <use xlink:href="#mdd0f78b27e" x="0" y="255.6" style="fill: #e15759; fill-opacity: 0.15"/>
    </g>
   </g>
   <g id="FillBetweenPolyCollection_5">
    <defs>
     <path id="m832b10ecd7" d="M 319.043154 -201.904282 
L 319.043154 -201.904282 
L 348.340078 -131.941182 
L 377.637002 -90.022125 
L 406.933926 -77.316846 
L 436.23085 -82.872909 
L 465.527775 -100.919093 
L 494.824699 -167.592917 
L 524.121623 -201.904282 
L 524.121623 -201.904282 
L 524.121623 -201.904282 
L 494.824699 -248.694799 
L 465.527775 -211.651805 
L 436.23085 -205.126172 
L 406.933926 -207.206654 
L 377.637002 -197.105288 
L 348.340078 -208.325647 
L 319.043154 -201.904282 
z
"/>
    </defs>
    <g clip-path="url(#p1a9929247a)">
     <use xlink:href="#m832b10ecd7" x="0" y="255.6" style="fill: #f28e2b; fill-opacity: 0.15"/>
    </g>
   </g>
   <g id="matplotlib.axis_3">
    <g id="xtick_9">
     <g id="line2d_36">
      <path d="M 319.043154 217.324998 
L 319.043154 16.29474 
" clip-path="url(#p1a9929247a)" style="fill: none; stroke: #e6e6e6; stroke-width: 0.7; stroke-linecap: square"/>
     </g>
     <g id="line2d_37">
      <g>
       <use xlink:href="#m09407bc25f" x="319.043154" y="217.324998" style="stroke: #000000; stroke-width: 0.8"/>
      </g>
     </g>
     <g id="text_22">
      <text style="font-size: 7.8px; font-family: 'DejaVu Sans'" transform="translate(313.164486 239.141342) rotate(-35)">0.50</text>
     </g>
    </g>
    <g id="xtick_10">
     <g id="line2d_38">
      <path d="M 348.340078 217.324998 
L 348.340078 16.29474 
" clip-path="url(#p1a9929247a)" style="fill: none; stroke: #e6e6e6; stroke-width: 0.7; stroke-linecap: square"/>
     </g>
     <g id="line2d_39">
      <g>
       <use xlink:href="#m09407bc25f" x="348.340078" y="217.324998" style="stroke: #000000; stroke-width: 0.8"/>
      </g>
     </g>
     <g id="text_23">
      <text style="font-size: 7.8px; font-family: 'DejaVu Sans'" transform="translate(342.46141 239.141342) rotate(-35)">0.60</text>
     </g>
    </g>
    <g id="xtick_11">
     <g id="line2d_40">
      <path d="M 377.637002 217.324998 
L 377.637002 16.29474 
" clip-path="url(#p1a9929247a)" style="fill: none; stroke: #e6e6e6; stroke-width: 0.7; stroke-linecap: square"/>
     </g>
     <g id="line2d_41">
      <g>
       <use xlink:href="#m09407bc25f" x="377.637002" y="217.324998" style="stroke: #000000; stroke-width: 0.8"/>
      </g>
     </g>
     <g id="text_24">
      <text style="font-size: 7.8px; font-family: 'DejaVu Sans'" transform="translate(371.758334 239.141342) rotate(-35)">0.70</text>
     </g>
    </g>
    <g id="xtick_12">
     <g id="line2d_42">
      <path d="M 406.933926 217.324998 
L 406.933926 16.29474 
" clip-path="url(#p1a9929247a)" style="fill: none; stroke: #e6e6e6; stroke-width: 0.7; stroke-linecap: square"/>
     </g>
     <g id="line2d_43">
      <g>
       <use xlink:href="#m09407bc25f" x="406.933926" y="217.324998" style="stroke: #000000; stroke-width: 0.8"/>
      </g>
     </g>
     <g id="text_25">
      <text style="font-size: 7.8px; font-family: 'DejaVu Sans'" transform="translate(401.055258 239.141342) rotate(-35)">0.80</text>
     </g>
    </g>
    <g id="xtick_13">
     <g id="line2d_44">
      <path d="M 436.23085 217.324998 
L 436.23085 16.29474 
" clip-path="url(#p1a9929247a)" style="fill: none; stroke: #e6e6e6; stroke-width: 0.7; stroke-linecap: square"/>
     </g>
     <g id="line2d_45">
      <g>
       <use xlink:href="#m09407bc25f" x="436.23085" y="217.324998" style="stroke: #000000; stroke-width: 0.8"/>
      </g>
     </g>
     <g id="text_26">
      <text style="font-size: 7.8px; font-family: 'DejaVu Sans'" transform="translate(430.352183 239.141342) rotate(-35)">0.90</text>
     </g>
    </g>
    <g id="xtick_14">
     <g id="line2d_46">
      <path d="M 465.527775 217.324998 
L 465.527775 16.29474 
" clip-path="url(#p1a9929247a)" style="fill: none; stroke: #e6e6e6; stroke-width: 0.7; stroke-linecap: square"/>
     </g>
     <g id="line2d_47">
      <g>
       <use xlink:href="#m09407bc25f" x="465.527775" y="217.324998" style="stroke: #000000; stroke-width: 0.8"/>
      </g>
     </g>
     <g id="text_27">
      <text style="font-size: 7.8px; font-family: 'DejaVu Sans'" transform="translate(459.649107 239.141342) rotate(-35)">0.95</text>
     </g>
    </g>
    <g id="xtick_15">
     <g id="line2d_48">
      <path d="M 494.824699 217.324998 
L 494.824699 16.29474 
" clip-path="url(#p1a9929247a)" style="fill: none; stroke: #e6e6e6; stroke-width: 0.7; stroke-linecap: square"/>
     </g>
     <g id="line2d_49">
      <g>
       <use xlink:href="#m09407bc25f" x="494.824699" y="217.324998" style="stroke: #000000; stroke-width: 0.8"/>
      </g>
     </g>
     <g id="text_28">
      <text style="font-size: 7.8px; font-family: 'DejaVu Sans'" transform="translate(488.946031 239.141342) rotate(-35)">0.99</text>
     </g>
    </g>
    <g id="xtick_16">
     <g id="line2d_50">
      <path d="M 524.121623 217.324998 
L 524.121623 16.29474 
" clip-path="url(#p1a9929247a)" style="fill: none; stroke: #e6e6e6; stroke-width: 0.7; stroke-linecap: square"/>
     </g>
     <g id="line2d_51">
      <g>
       <use xlink:href="#m09407bc25f" x="524.121623" y="217.324998" style="stroke: #000000; stroke-width: 0.8"/>
      </g>
     </g>
     <g id="text_29">
      <text style="font-size: 7.8px; font-family: 'DejaVu Sans'" transform="translate(518.242955 239.141342) rotate(-35)">1.00</text>
     </g>
    </g>
    <g id="text_30">
     <text style="font-size: 8.4px; font-family: 'DejaVu Sans'; text-anchor: middle" x="421.582388" y="250.852823" transform="rotate(-0 421.582388 250.852823)">Confidence threshold α</text>
    </g>
   </g>
   <g id="matplotlib.axis_4">
    <g id="ytick_7">
     <g id="line2d_52">
      <path d="M 314.648615 217.324998 
L 528.516162 217.324998 
" clip-path="url(#p1a9929247a)" style="fill: none; stroke: #e6e6e6; stroke-width: 0.7; stroke-linecap: square"/>
     </g>
     <g id="line2d_53">
      <g>
       <use xlink:href="#mb5b3acc3e2" x="314.648615" y="217.324998" style="stroke: #000000; stroke-width: 0.8"/>
      </g>
     </g>
     <g id="text_31">
      <text style="font-size: 8px; font-family: 'DejaVu Sans'; text-anchor: end" x="307.648615" y="220.364373" transform="rotate(-0 307.648615 220.364373)">-35 pp</text>
     </g>
    </g>
    <g id="ytick_8">
     <g id="line2d_54">
      <path d="M 314.648615 193.949387 
L 528.516162 193.949387 
" clip-path="url(#p1a9929247a)" style="fill: none; stroke: #e6e6e6; stroke-width: 0.7; stroke-linecap: square"/>
     </g>
     <g id="line2d_55">
      <g>
       <use xlink:href="#mb5b3acc3e2" x="314.648615" y="193.949387" style="stroke: #000000; stroke-width: 0.8"/>
      </g>
     </g>
     <g id="text_32">
      <text style="font-size: 8px; font-family: 'DejaVu Sans'; text-anchor: end" x="307.648615" y="196.988762" transform="rotate(-0 307.648615 196.988762)">-30 pp</text>
     </g>
    </g>
    <g id="ytick_9">
     <g id="line2d_56">
      <path d="M 314.648615 170.573775 
L 528.516162 170.573775 
" clip-path="url(#p1a9929247a)" style="fill: none; stroke: #e6e6e6; stroke-width: 0.7; stroke-linecap: square"/>
     </g>
     <g id="line2d_57">
      <g>
       <use xlink:href="#mb5b3acc3e2" x="314.648615" y="170.573775" style="stroke: #000000; stroke-width: 0.8"/>
      </g>
     </g>
     <g id="text_33">
      <text style="font-size: 8px; font-family: 'DejaVu Sans'; text-anchor: end" x="307.648615" y="173.61315" transform="rotate(-0 307.648615 173.61315)">-25 pp</text>
     </g>
    </g>
    <g id="ytick_10">
     <g id="line2d_58">
      <path d="M 314.648615 147.198164 
L 528.516162 147.198164 
" clip-path="url(#p1a9929247a)" style="fill: none; stroke: #e6e6e6; stroke-width: 0.7; stroke-linecap: square"/>
     </g>
     <g id="line2d_59">
      <g>
       <use xlink:href="#mb5b3acc3e2" x="314.648615" y="147.198164" style="stroke: #000000; stroke-width: 0.8"/>
      </g>
     </g>
     <g id="text_34">
      <text style="font-size: 8px; font-family: 'DejaVu Sans'; text-anchor: end" x="307.648615" y="150.237539" transform="rotate(-0 307.648615 150.237539)">-20 pp</text>
     </g>
    </g>
    <g id="ytick_11">
     <g id="line2d_60">
      <path d="M 314.648615 123.822552 
L 528.516162 123.822552 
" clip-path="url(#p1a9929247a)" style="fill: none; stroke: #e6e6e6; stroke-width: 0.7; stroke-linecap: square"/>
     </g>
     <g id="line2d_61">
      <g>
       <use xlink:href="#mb5b3acc3e2" x="314.648615" y="123.822552" style="stroke: #000000; stroke-width: 0.8"/>
      </g>
     </g>
     <g id="text_35">
      <text style="font-size: 8px; font-family: 'DejaVu Sans'; text-anchor: end" x="307.648615" y="126.861927" transform="rotate(-0 307.648615 126.861927)">-15 pp</text>
     </g>
    </g>
    <g id="ytick_12">
     <g id="line2d_62">
      <path d="M 314.648615 100.446941 
L 528.516162 100.446941 
" clip-path="url(#p1a9929247a)" style="fill: none; stroke: #e6e6e6; stroke-width: 0.7; stroke-linecap: square"/>
     </g>
     <g id="line2d_63">
      <g>
       <use xlink:href="#mb5b3acc3e2" x="314.648615" y="100.446941" style="stroke: #000000; stroke-width: 0.8"/>
      </g>
     </g>
     <g id="text_36">
      <text style="font-size: 8px; font-family: 'DejaVu Sans'; text-anchor: end" x="307.648615" y="103.486316" transform="rotate(-0 307.648615 103.486316)">-10 pp</text>
     </g>
    </g>
    <g id="ytick_13">
     <g id="line2d_64">
      <path d="M 314.648615 77.07133 
L 528.516162 77.07133 
" clip-path="url(#p1a9929247a)" style="fill: none; stroke: #e6e6e6; stroke-width: 0.7; stroke-linecap: square"/>
     </g>
     <g id="line2d_65">
      <g>
       <use xlink:href="#mb5b3acc3e2" x="314.648615" y="77.07133" style="stroke: #000000; stroke-width: 0.8"/>
      </g>
     </g>
     <g id="text_37">
      <text style="font-size: 8px; font-family: 'DejaVu Sans'; text-anchor: end" x="307.648615" y="80.110705" transform="rotate(-0 307.648615 80.110705)">-5 pp</text>
     </g>
    </g>
    <g id="ytick_14">
     <g id="line2d_66">
      <path d="M 314.648615 53.695718 
L 528.516162 53.695718 
" clip-path="url(#p1a9929247a)" style="fill: none; stroke: #e6e6e6; stroke-width: 0.7; stroke-linecap: square"/>
     </g>
     <g id="line2d_67">
      <g>
       <use xlink:href="#mb5b3acc3e2" x="314.648615" y="53.695718" style="stroke: #000000; stroke-width: 0.8"/>
      </g>
     </g>
     <g id="text_38">
      <text style="font-size: 8px; font-family: 'DejaVu Sans'; text-anchor: end" x="307.648615" y="56.735093" transform="rotate(-0 307.648615 56.735093)">0 pp</text>
     </g>
    </g>
    <g id="ytick_15">
     <g id="line2d_68">
      <path d="M 314.648615 30.320107 
L 528.516162 30.320107 
" clip-path="url(#p1a9929247a)" style="fill: none; stroke: #e6e6e6; stroke-width: 0.7; stroke-linecap: square"/>
     </g>
     <g id="line2d_69">
      <g>
       <use xlink:href="#mb5b3acc3e2" x="314.648615" y="30.320107" style="stroke: #000000; stroke-width: 0.8"/>
      </g>
     </g>
     <g id="text_39">
      <text style="font-size: 8px; font-family: 'DejaVu Sans'; text-anchor: end" x="307.648615" y="33.359482" transform="rotate(-0 307.648615 33.359482)">5 pp</text>
     </g>
    </g>
    <g id="text_40">
     <text style="font-size: 8.4px; font-family: 'DejaVu Sans'; text-anchor: middle" x="276.135427" y="116.809869" transform="rotate(-90 276.135427 116.809869)">Delta CER@α (percentage points)</text>
    </g>
   </g>
   <g id="line2d_70">
    <path d="M 314.648615 53.695718 
L 528.516162 53.695718 
" clip-path="url(#p1a9929247a)" style="fill: none; stroke: #333333; stroke-linecap: square"/>
   </g>
   <g id="line2d_71">
    <path d="M 319.043154 53.695718 
L 348.340078 76.272263 
L 377.637002 103.716263 
L 406.933926 117.601016 
L 436.23085 104.086752 
L 465.527775 95.221296 
L 494.824699 64.370156 
L 524.121623 53.695718 
" clip-path="url(#p1a9929247a)" style="fill: none; stroke: #e15759; stroke-width: 2; stroke-linecap: square"/>
    <g clip-path="url(#p1a9929247a)">
     <use xlink:href="#m4b7eb6342d" x="319.043154" y="53.695718" style="fill: #e15759; stroke: #e15759; stroke-linejoin: miter"/>
     <use xlink:href="#m4b7eb6342d" x="348.340078" y="76.272263" style="fill: #e15759; stroke: #e15759; stroke-linejoin: miter"/>
     <use xlink:href="#m4b7eb6342d" x="377.637002" y="103.716263" style="fill: #e15759; stroke: #e15759; stroke-linejoin: miter"/>
     <use xlink:href="#m4b7eb6342d" x="406.933926" y="117.601016" style="fill: #e15759; stroke: #e15759; stroke-linejoin: miter"/>
     <use xlink:href="#m4b7eb6342d" x="436.23085" y="104.086752" style="fill: #e15759; stroke: #e15759; stroke-linejoin: miter"/>
     <use xlink:href="#m4b7eb6342d" x="465.527775" y="95.221296" style="fill: #e15759; stroke: #e15759; stroke-linejoin: miter"/>
     <use xlink:href="#m4b7eb6342d" x="494.824699" y="64.370156" style="fill: #e15759; stroke: #e15759; stroke-linejoin: miter"/>
     <use xlink:href="#m4b7eb6342d" x="524.121623" y="53.695718" style="fill: #e15759; stroke: #e15759; stroke-linejoin: miter"/>
    </g>
   </g>
   <g id="line2d_72">
    <path d="M 319.043154 53.695718 
L 348.340078 84.480027 
L 377.637002 111.909116 
L 406.933926 114.216238 
L 436.23085 112.112162 
L 465.527775 100.709005 
L 494.824699 51.042588 
L 524.121623 53.695718 
" clip-path="url(#p1a9929247a)" style="fill: none; stroke: #f28e2b; stroke-width: 2; stroke-linecap: square"/>
    <g clip-path="url(#p1a9929247a)">
     <use xlink:href="#me417c5f9a7" x="319.043154" y="53.695718" style="fill: #f28e2b; stroke: #f28e2b; stroke-linejoin: miter"/>
     <use xlink:href="#me417c5f9a7" x="348.340078" y="84.480027" style="fill: #f28e2b; stroke: #f28e2b; stroke-linejoin: miter"/>
     <use xlink:href="#me417c5f9a7" x="377.637002" y="111.909116" style="fill: #f28e2b; stroke: #f28e2b; stroke-linejoin: miter"/>
     <use xlink:href="#me417c5f9a7" x="406.933926" y="114.216238" style="fill: #f28e2b; stroke: #f28e2b; stroke-linejoin: miter"/>
     <use xlink:href="#me417c5f9a7" x="436.23085" y="112.112162" style="fill: #f28e2b; stroke: #f28e2b; stroke-linejoin: miter"/>
     <use xlink:href="#me417c5f9a7" x="465.527775" y="100.709005" style="fill: #f28e2b; stroke: #f28e2b; stroke-linejoin: miter"/>
     <use xlink:href="#me417c5f9a7" x="494.824699" y="51.042588" style="fill: #f28e2b; stroke: #f28e2b; stroke-linejoin: miter"/>
     <use xlink:href="#me417c5f9a7" x="524.121623" y="53.695718" style="fill: #f28e2b; stroke: #f28e2b; stroke-linejoin: miter"/>
    </g>
   </g>
   <g id="patch_7">
    <path d="M 314.648615 217.324998 
L 314.648615 16.29474 
" style="fill: none; stroke: #000000; stroke-width: 0.8; stroke-linejoin: miter; stroke-linecap: square"/>
   </g>
   <g id="patch_8">
    <path d="M 314.648615 217.324998 
L 528.516162 217.324998 
" style="fill: none; stroke: #000000; stroke-width: 0.8; stroke-linejoin: miter; stroke-linecap: square"/>
   </g>
   <g id="text_41">
    <text style="font-size: 7.2px; font-family: 'DejaVu Sans'; text-anchor: start; fill: #8b2c2b" x="333.8381" y="207.974753" transform="rotate(-0 333.8381 207.974753)">delta &lt; 0: FT higher than zero-shot</text>
   </g>
   <g id="text_42">
    <text style="font-weight: 700; font-size: 8.2px; font-family: 'DejaVu Sans'; text-anchor: start; fill: #e15759" x="438.574604" y="89.986512" transform="rotate(-0 438.574604 89.986512)">-10.8 pp</text>
   </g>
   <g id="text_43">
    <text style="font-weight: 700; font-size: 8.2px; font-family: 'DejaVu Sans'; text-anchor: start; fill: #f28e2b" x="438.574604" y="135.4129" transform="rotate(-0 438.574604 135.4129)">-12.5 pp</text>
   </g>
   <g id="text_44">
    <text style="font-size: 9.6px; font-family: 'DejaVu Sans'; text-anchor: middle" x="421.582388" y="10.29474" transform="rotate(-0 421.582388 10.29474)">B. Delta relative to matched zero-shot</text>
   </g>
   <g id="PathCollection_1">
    <defs>
     <path id="mda6ea363d3" d="M 0 3.464102 
C 0.91869 3.464102 1.799877 3.099102 2.44949 2.44949 
C 3.099102 1.799877 3.464102 0.91869 3.464102 0 
C 3.464102 -0.91869 3.099102 -1.799877 2.44949 -2.44949 
C 1.799877 -3.099102 0.91869 -3.464102 0 -3.464102 
C -0.91869 -3.464102 -1.799877 -3.099102 -2.44949 -2.44949 
C -3.099102 -1.799877 -3.464102 -0.91869 -3.464102 0 
C -3.464102 0.91869 -3.099102 1.799877 -2.44949 2.44949 
C -1.799877 3.099102 -0.91869 3.464102 0 3.464102 
z
" style="stroke: #ffffff"/>
    </defs>
    <g clip-path="url(#p1a9929247a)">
     <use xlink:href="#mda6ea363d3" x="436.23085" y="104.086752" style="fill: #e15759; stroke: #ffffff"/>
    </g>
   </g>
   <g id="PathCollection_2">
    <defs>
     <path id="m3ff8499646" d="M 0 3.464102 
C 0.91869 3.464102 1.799877 3.099102 2.44949 2.44949 
C 3.099102 1.799877 3.464102 0.91869 3.464102 0 
C 3.464102 -0.91869 3.099102 -1.799877 2.44949 -2.44949 
C 1.799877 -3.099102 0.91869 -3.464102 0 -3.464102 
C -0.91869 -3.464102 -1.799877 -3.099102 -2.44949 -2.44949 
C -3.099102 -1.799877 -3.464102 -0.91869 -3.464102 0 
C -3.464102 0.91869 -3.099102 1.799877 -2.44949 2.44949 
C -1.799877 3.099102 -0.91869 3.464102 0 3.464102 
z
" style="stroke: #ffffff"/>
    </defs>
    <g clip-path="url(#p1a9929247a)">
     <use xlink:href="#m3ff8499646" x="436.23085" y="112.112162" style="fill: #f28e2b; stroke: #ffffff"/>
    </g>
   </g>
   <g id="legend_2">
    <g id="line2d_73">
     <path d="M 431.968662 26.77349 
L 439.968662 26.77349 
L 447.968662 26.77349 
" style="fill: none; stroke: #e15759; stroke-width: 2; stroke-linecap: square"/>
     <g>
      <use xlink:href="#m4b7eb6342d" x="439.968662" y="26.77349" style="fill: #e15759; stroke: #e15759; stroke-linejoin: miter"/>
     </g>
    </g>
    <g id="text_45">
     <text style="font-size: 8px; font-family: 'DejaVu Sans'; text-anchor: start" x="454.368662" y="29.57349" transform="rotate(-0 454.368662 29.57349)">In-dataset FT</text>
    </g>
    <g id="line2d_74">
     <path d="M 431.968662 38.51599 
L 439.968662 38.51599 
L 447.968662 38.51599 
" style="fill: none; stroke: #f28e2b; stroke-width: 2; stroke-linecap: square"/>
     <g>
      <use xlink:href="#me417c5f9a7" x="439.968662" y="38.51599" style="fill: #f28e2b; stroke: #f28e2b; stroke-linejoin: miter"/>
     </g>
    </g>
    <g id="text_46">
     <text style="font-size: 8px; font-family: 'DejaVu Sans'; text-anchor: start" x="454.368662" y="41.31599" transform="rotate(-0 454.368662 41.31599)">Cross-dataset FT</text>
    </g>
   </g>
  </g>
 </g>
 <defs>
  <clipPath id="p7cd7592cf2">
   <rect x="45.001115" y="16.29474" width="213.867547" height="201.030258"/>
  </clipPath>
  <clipPath id="p1a9929247a">
   <rect x="314.648615" y="16.29474" width="213.867547" height="201.030258"/>
  </clipPath>
 </defs>
</svg>
