<?xml version="1.0" encoding="utf-8" standalone="no"?>
<!DOCTYPE svg PUBLIC "-//W3C//DTD SVG 1.1//EN"
  "http://www.w3.org/Graphics/SVG/1.1/DTD/svg11.dtd">
<svg xmlns:xlink="http://www.w3.org/1999/xlink" width="612.702094pt" height="389.988812pt" viewBox="0 0 612.702094 389.988812" xmlns="http://www.w3.org/2000/svg" version="1.1">
 <metadata>
  <rdf:RDF xmlns:dc="http://purl.org/dc/elements/1.1/" xmlns:cc="http://creativecommons.org/ns#" xmlns:rdf="http://www.w3.org/1999/02/22-rdf-syntax-ns#">
   <cc:Work>
    <dc:type rdf:resource="http://purl.org/dc/dcmitype/StillImage"/>
    <dc:date>2026-06-19T21:22:45.764912</dc:date>
    <dc:format>image/svg+xml</dc:format>
    <dc:creator>
     <cc:Agent>
      <dc:title>Matplotlib v3.10.9, https://matplotlib.org/</dc:title>
     </cc:Agent>
    </dc:creator>
   </cc:Work>
  </rdf:RDF>
 </metadata>
 <defs>
  <style type="text/css">*{stroke-linejoin: round; stroke-linecap: butt}</style>
 </defs>
 <g id="figure_1">
  <g id="patch_1">
   <path d="M 0 389.988812 
L 612.702094 389.988812 
L 612.702094 0 
L 0 0 
z
" style="fill: #ffffff"/>
  </g>
  <g id="axes_1">
   <g id="patch_2">
    <path d="M 49.710844 196.796 
L 217.854177 196.796 
L 217.854177 55.176 
L 49.710844 55.176 
z
" style="fill: #ffffff"/>
   </g>
   <g id="matplotlib.axis_1">
    <g id="xtick_1">
     <g id="line2d_1">
      <path d="M 49.710844 196.796 
L 49.710844 55.176 
" clip-path="url(#p5e854be64a)" style="fill: none; stroke: #b0b0b0; stroke-opacity: 0.18; stroke-width: 0.6; stroke-linecap: square"/>
     </g>
     <g id="line2d_2">
      <defs>
       <path id="m0f39b51935" d="M 0 0 
L 0 3.5 
" style="stroke: #000000; stroke-width: 0.8"/>
      </defs>
      <g>
       <use xlink:href="#m0f39b51935" x="49.710844" y="196.796" style="stroke: #000000; stroke-width: 0.8"/>
      </g>
     </g>
    </g>
    <g id="xtick_2">
     <g id="line2d_3">
      <path d="M 83.33951 196.796 
L 83.33951 55.176 
" clip-path="url(#p5e854be64a)" style="fill: none; stroke: #b0b0b0; stroke-opacity: 0.18; stroke-width: 0.6; stroke-linecap: square"/>
     </g>
     <g id="line2d_4">
      <g>
       <use xlink:href="#m0f39b51935" x="83.33951" y="196.796" style="stroke: #000000; stroke-width: 0.8"/>
      </g>
     </g>
    </g>
    <g id="xtick_3">
     <g id="line2d_5">
      <path d="M 116.968177 196.796 
L 116.968177 55.176 
" clip-path="url(#p5e854be64a)" style="fill: none; stroke: #b0b0b0; stroke-opacity: 0.18; stroke-width: 0.6; stroke-linecap: square"/>
     </g>
     <g id="line2d_6">
      <g>
       <use xlink:href="#m0f39b51935" x="116.968177" y="196.796" style="stroke: #000000; stroke-width: 0.8"/>
      </g>
     </g>
    </g>
    <g id="xtick_4">
     <g id="line2d_7">
      <path d="M 150.596844 196.796 
L 150.596844 55.176 
" clip-path="url(#p5e854be64a)" style="fill: none; stroke: #b0b0b0; stroke-opacity: 0.18; stroke-width: 0.6; stroke-linecap: square"/>
     </g>
     <g id="line2d_8">
      <g>
       <use xlink:href="#m0f39b51935" x="150.596844" y="196.796" style="stroke: #000000; stroke-width: 0.8"/>
      </g>
     </g>
    </g>
    <g id="xtick_5">
     <g id="line2d_9">
      <path d="M 184.22551 196.796 
L 184.22551 55.176 
" clip-path="url(#p5e854be64a)" style="fill: none; stroke: #b0b0b0; stroke-opacity: 0.18; stroke-width: 0.6; stroke-linecap: square"/>
     </g>
     <g id="line2d_10">
      <g>
       <use xlink:href="#m0f39b51935" x="184.22551" y="196.796" style="stroke: #000000; stroke-width: 0.8"/>
      </g>
     </g>
    </g>
    <g id="xtick_6">
     <g id="line2d_11">
      <path d="M 217.854177 196.796 
L 217.854177 55.176 
" clip-path="url(#p5e854be64a)" style="fill: none; stroke: #b0b0b0; stroke-opacity: 0.18; stroke-width: 0.6; stroke-linecap: square"/>
     </g>
     <g id="line2d_12">
      <g>
       <use xlink:href="#m0f39b51935" x="217.854177" y="196.796" style="stroke: #000000; stroke-width: 0.8"/>
      </g>
     </g>
    </g>
   </g>
   <g id="matplotlib.axis_2">
    <g id="ytick_1">
     <g id="line2d_13">
      <path d="M 49.710844 196.796 
L 217.854177 196.796 
" clip-path="url(#p5e854be64a)" style="fill: none; stroke: #b0b0b0; stroke-opacity: 0.18; stroke-width: 0.6; stroke-linecap: square"/>
     </g>
     <g id="line2d_14">
      <defs>
       <path id="m8d6d4490dd" d="M 0 0 
L -3.5 0 
" style="stroke: #000000; stroke-width: 0.8"/>
      </defs>
      <g>
       <use xlink:href="#m8d6d4490dd" x="49.710844" y="196.796" style="stroke: #000000; stroke-width: 0.8"/>
      </g>
     </g>
     <g id="text_1">
      <!-- 0.0 -->
      <g transform="translate(29.988344 199.835375) scale(0.08 -0.08)">
       <defs>
        <path id="DejaVuSans-30" d="M 2034 4250 
Q 1547 4250 1301 3770 
Q 1056 3291 1056 2328 
Q 1056 1369 1301 889 
Q 1547 409 2034 409 
Q 2525 409 2770 889 
Q 3016 1369 3016 2328 
Q 3016 3291 2770 3770 
Q 2525 4250 2034 4250 
z
M 2034 4750 
Q 2819 4750 3233 4129 
Q 3647 3509 3647 2328 
Q 3647 1150 3233 529 
Q 2819 -91 2034 -91 
Q 1250 -91 836 529 
Q 422 1150 422 2328 
Q 422 3509 836 4129 
Q 1250 4750 2034 4750 
z
" transform="scale(0.015625)"/>
        <path id="DejaVuSans-2e" d="M 684 794 
L 1344 794 
L 1344 0 
L 684 0 
L 684 794 
z
" transform="scale(0.015625)"/>
       </defs>
       <use xlink:href="#DejaVuSans-30"/>
       <use xlink:href="#DejaVuSans-2e" transform="translate(63.623047 0)"/>
       <use xlink:href="#DejaVuSans-30" transform="translate(95.410156 0)"/>
      </g>
     </g>
    </g>
    <g id="ytick_2">
     <g id="line2d_15">
      <path d="M 49.710844 168.472 
L 217.854177 168.472 
" clip-path="url(#p5e854be64a)" style="fill: none; stroke: #b0b0b0; stroke-opacity: 0.18; stroke-width: 0.6; stroke-linecap: square"/>
     </g>
     <g id="line2d_16">
      <g>
       <use xlink:href="#m8d6d4490dd" x="49.710844" y="168.472" style="stroke: #000000; stroke-width: 0.8"/>
      </g>
     </g>
     <g id="text_2">
      <!-- 0.2 -->
      <g transform="translate(29.988344 171.511375) scale(0.08 -0.08)">
       <defs>
        <path id="DejaVuSans-32" d="M 1228 531 
L 3431 531 
L 3431 0 
L 469 0 
L 469 531 
Q 828 903 1448 1529 
Q 2069 2156 2228 2338 
Q 2531 2678 2651 2914 
Q 2772 3150 2772 3378 
Q 2772 3750 2511 3984 
Q 2250 4219 1831 4219 
Q 1534 4219 1204 4116 
Q 875 4013 500 3803 
L 500 4441 
Q 881 4594 1212 4672 
Q 1544 4750 1819 4750 
Q 2544 4750 2975 4387 
Q 3406 4025 3406 3419 
Q 3406 3131 3298 2873 
Q 3191 2616 2906 2266 
Q 2828 2175 2409 1742 
Q 1991 1309 1228 531 
z
" transform="scale(0.015625)"/>
       </defs>
       <use xlink:href="#DejaVuSans-30"/>
       <use xlink:href="#DejaVuSans-2e" transform="translate(63.623047 0)"/>
       <use xlink:href="#DejaVuSans-32" transform="translate(95.410156 0)"/>
      </g>
     </g>
    </g>
    <g id="ytick_3">
     <g id="line2d_17">
      <path d="M 49.710844 140.148 
L 217.854177 140.148 
" clip-path="url(#p5e854be64a)" style="fill: none; stroke: #b0b0b0; stroke-opacity: 0.18; stroke-width: 0.6; stroke-linecap: square"/>
     </g>
     <g id="line2d_18">
      <g>
       <use xlink:href="#m8d6d4490dd" x="49.710844" y="140.148" style="stroke: #000000; stroke-width: 0.8"/>
      </g>
     </g>
     <g id="text_3">
      <!-- 0.4 -->
      <g transform="translate(29.988344 143.187375) scale(0.08 -0.08)">
       <defs>
        <path id="DejaVuSans-34" d="M 2419 4116 
L 825 1625 
L 2419 1625 
L 2419 4116 
z
M 2253 4666 
L 3047 4666 
L 3047 1625 
L 3713 1625 
L 3713 1100 
L 3047 1100 
L 3047 0 
L 2419 0 
L 2419 1100 
L 313 1100 
L 313 1709 
L 2253 4666 
z
" transform="scale(0.015625)"/>
       </defs>
       <use xlink:href="#DejaVuSans-30"/>
       <use xlink:href="#DejaVuSans-2e" transform="translate(63.623047 0)"/>
       <use xlink:href="#DejaVuSans-34" transform="translate(95.410156 0)"/>
      </g>
     </g>
    </g>
    <g id="ytick_4">
     <g id="line2d_19">
      <path d="M 49.710844 111.824 
L 217.854177 111.824 
" clip-path="url(#p5e854be64a)" style="fill: none; stroke: #b0b0b0; stroke-opacity: 0.18; stroke-width: 0.6; stroke-linecap: square"/>
     </g>
     <g id="line2d_20">
      <g>
       <use xlink:href="#m8d6d4490dd" x="49.710844" y="111.824" style="stroke: #000000; stroke-width: 0.8"/>
      </g>
     </g>
     <g id="text_4">
      <!-- 0.6 -->
      <g transform="translate(29.988344 114.863375) scale(0.08 -0.08)">
       <defs>
        <path id="DejaVuSans-36" d="M 2113 2584 
Q 1688 2584 1439 2293 
Q 1191 2003 1191 1497 
Q 1191 994 1439 701 
Q 1688 409 2113 409 
Q 2538 409 2786 701 
Q 3034 994 3034 1497 
Q 3034 2003 2786 2293 
Q 2538 2584 2113 2584 
z
M 3366 4563 
L 3366 3988 
Q 3128 4100 2886 4159 
Q 2644 4219 2406 4219 
Q 1781 4219 1451 3797 
Q 1122 3375 1075 2522 
Q 1259 2794 1537 2939 
Q 1816 3084 2150 3084 
Q 2853 3084 3261 2657 
Q 3669 2231 3669 1497 
Q 3669 778 3244 343 
Q 2819 -91 2113 -91 
Q 1303 -91 875 529 
Q 447 1150 447 2328 
Q 447 3434 972 4092 
Q 1497 4750 2381 4750 
Q 2619 4750 2861 4703 
Q 3103 4656 3366 4563 
z
" transform="scale(0.015625)"/>
       </defs>
       <use xlink:href="#DejaVuSans-30"/>
       <use xlink:href="#DejaVuSans-2e" transform="translate(63.623047 0)"/>
       <use xlink:href="#DejaVuSans-36" transform="translate(95.410156 0)"/>
      </g>
     </g>
    </g>
    <g id="ytick_5">
     <g id="line2d_21">
      <path d="M 49.710844 83.5 
L 217.854177 83.5 
" clip-path="url(#p5e854be64a)" style="fill: none; stroke: #b0b0b0; stroke-opacity: 0.18; stroke-width: 0.6; stroke-linecap: square"/>
     </g>
     <g id="line2d_22">
      <g>
       <use xlink:href="#m8d6d4490dd" x="49.710844" y="83.5" style="stroke: #000000; stroke-width: 0.8"/>
      </g>
     </g>
     <g id="text_5">
      <!-- 0.8 -->
      <g transform="translate(29.988344 86.539375) scale(0.08 -0.08)">
       <defs>
        <path id="DejaVuSans-38" d="M 2034 2216 
Q 1584 2216 1326 1975 
Q 1069 1734 1069 1313 
Q 1069 891 1326 650 
Q 1584 409 2034 409 
Q 2484 409 2743 651 
Q 3003 894 3003 1313 
Q 3003 1734 2745 1975 
Q 2488 2216 2034 2216 
z
M 1403 2484 
Q 997 2584 770 2862 
Q 544 3141 544 3541 
Q 544 4100 942 4425 
Q 1341 4750 2034 4750 
Q 2731 4750 3128 4425 
Q 3525 4100 3525 3541 
Q 3525 3141 3298 2862 
Q 3072 2584 2669 2484 
Q 3125 2378 3379 2068 
Q 3634 1759 3634 1313 
Q 3634 634 3220 271 
Q 2806 -91 2034 -91 
Q 1263 -91 848 271 
Q 434 634 434 1313 
Q 434 1759 690 2068 
Q 947 2378 1403 2484 
z
M 1172 3481 
Q 1172 3119 1398 2916 
Q 1625 2713 2034 2713 
Q 2441 2713 2670 2916 
Q 2900 3119 2900 3481 
Q 2900 3844 2670 4047 
Q 2441 4250 2034 4250 
Q 1625 4250 1398 4047 
Q 1172 3844 1172 3481 
z
" transform="scale(0.015625)"/>
       </defs>
       <use xlink:href="#DejaVuSans-30"/>
       <use xlink:href="#DejaVuSans-2e" transform="translate(63.623047 0)"/>
       <use xlink:href="#DejaVuSans-38" transform="translate(95.410156 0)"/>
      </g>
     </g>
    </g>
    <g id="ytick_6">
     <g id="line2d_23">
      <path d="M 49.710844 55.176 
L 217.854177 55.176 
" clip-path="url(#p5e854be64a)" style="fill: none; stroke: #b0b0b0; stroke-opacity: 0.18; stroke-width: 0.6; stroke-linecap: square"/>
     </g>
     <g id="line2d_24">
      <g>
       <use xlink:href="#m8d6d4490dd" x="49.710844" y="55.176" style="stroke: #000000; stroke-width: 0.8"/>
      </g>
     </g>
     <g id="text_6">
      <!-- 1.0 -->
      <g transform="translate(29.988344 58.215375) scale(0.08 -0.08)">
       <defs>
        <path id="DejaVuSans-31" d="M 794 531 
L 1825 531 
L 1825 4091 
L 703 3866 
L 703 4441 
L 1819 4666 
L 2450 4666 
L 2450 531 
L 3481 531 
L 3481 0 
L 794 0 
L 794 531 
z
" transform="scale(0.015625)"/>
       </defs>
       <use xlink:href="#DejaVuSans-31"/>
       <use xlink:href="#DejaVuSans-2e" transform="translate(63.623047 0)"/>
       <use xlink:href="#DejaVuSans-30" transform="translate(95.410156 0)"/>
      </g>
     </g>
    </g>
    <g id="text_7">
     <!-- Zero-shot -->
     <g transform="translate(14.038594 147.761078) rotate(-90) scale(0.09 -0.09)">
      <defs>
       <path id="DejaVuSans-5a" d="M 359 4666 
L 4025 4666 
L 4025 4184 
L 1075 531 
L 4097 531 
L 4097 0 
L 288 0 
L 288 481 
L 3238 4134 
L 359 4134 
L 359 4666 
z
" transform="scale(0.015625)"/>
       <path id="DejaVuSans-65" d="M 3597 1894 
L 3597 1613 
L 953 1613 
Q 991 1019 1311 708 
Q 1631 397 2203 397 
Q 2534 397 2845 478 
Q 3156 559 3463 722 
L 3463 178 
Q 3153 47 2828 -22 
Q 2503 -91 2169 -91 
Q 1331 -91 842 396 
Q 353 884 353 1716 
Q 353 2575 817 3079 
Q 1281 3584 2069 3584 
Q 2775 3584 3186 3129 
Q 3597 2675 3597 1894 
z
M 3022 2063 
Q 3016 2534 2758 2815 
Q 2500 3097 2075 3097 
Q 1594 3097 1305 2825 
Q 1016 2553 972 2059 
L 3022 2063 
z
" transform="scale(0.015625)"/>
       <path id="DejaVuSans-72" d="M 2631 2963 
Q 2534 3019 2420 3045 
Q 2306 3072 2169 3072 
Q 1681 3072 1420 2755 
Q 1159 2438 1159 1844 
L 1159 0 
L 581 0 
L 581 3500 
L 1159 3500 
L 1159 2956 
Q 1341 3275 1631 3429 
Q 1922 3584 2338 3584 
Q 2397 3584 2469 3576 
Q 2541 3569 2628 3553 
L 2631 2963 
z
" transform="scale(0.015625)"/>
       <path id="DejaVuSans-6f" d="M 1959 3097 
Q 1497 3097 1228 2736 
Q 959 2375 959 1747 
Q 959 1119 1226 758 
Q 1494 397 1959 397 
Q 2419 397 2687 759 
Q 2956 1122 2956 1747 
Q 2956 2369 2687 2733 
Q 2419 3097 1959 3097 
z
M 1959 3584 
Q 2709 3584 3137 3096 
Q 3566 2609 3566 1747 
Q 3566 888 3137 398 
Q 2709 -91 1959 -91 
Q 1206 -91 779 398 
Q 353 888 353 1747 
Q 353 2609 779 3096 
Q 1206 3584 1959 3584 
z
" transform="scale(0.015625)"/>
       <path id="DejaVuSans-2d" d="M 313 2009 
L 1997 2009 
L 1997 1497 
L 313 1497 
L 313 2009 
z
" transform="scale(0.015625)"/>
       <path id="DejaVuSans-73" d="M 2834 3397 
L 2834 2853 
Q 2591 2978 2328 3040 
Q 2066 3103 1784 3103 
Q 1356 3103 1142 2972 
Q 928 2841 928 2578 
Q 928 2378 1081 2264 
Q 1234 2150 1697 2047 
L 1894 2003 
Q 2506 1872 2764 1633 
Q 3022 1394 3022 966 
Q 3022 478 2636 193 
Q 2250 -91 1575 -91 
Q 1294 -91 989 -36 
Q 684 19 347 128 
L 347 722 
Q 666 556 975 473 
Q 1284 391 1588 391 
Q 1994 391 2212 530 
Q 2431 669 2431 922 
Q 2431 1156 2273 1281 
Q 2116 1406 1581 1522 
L 1381 1569 
Q 847 1681 609 1914 
Q 372 2147 372 2553 
Q 372 3047 722 3315 
Q 1072 3584 1716 3584 
Q 2034 3584 2315 3537 
Q 2597 3491 2834 3397 
z
" transform="scale(0.015625)"/>
       <path id="DejaVuSans-68" d="M 3513 2113 
L 3513 0 
L 2938 0 
L 2938 2094 
Q 2938 2591 2744 2837 
Q 2550 3084 2163 3084 
Q 1697 3084 1428 2787 
Q 1159 2491 1159 1978 
L 1159 0 
L 581 0 
L 581 4863 
L 1159 4863 
L 1159 2956 
Q 1366 3272 1645 3428 
Q 1925 3584 2291 3584 
Q 2894 3584 3203 3211 
Q 3513 2838 3513 2113 
z
" transform="scale(0.015625)"/>
       <path id="DejaVuSans-74" d="M 1172 4494 
L 1172 3500 
L 2356 3500 
L 2356 3053 
L 1172 3053 
L 1172 1153 
Q 1172 725 1289 603 
Q 1406 481 1766 481 
L 2356 481 
L 2356 0 
L 1766 0 
Q 1100 0 847 248 
Q 594 497 594 1153 
L 594 3053 
L 172 3053 
L 172 3500 
L 594 3500 
L 594 4494 
L 1172 4494 
z
" transform="scale(0.015625)"/>
      </defs>
      <use xlink:href="#DejaVuSans-5a"/>
      <use xlink:href="#DejaVuSans-65" transform="translate(68.505859 0)"/>
      <use xlink:href="#DejaVuSans-72" transform="translate(130.029297 0)"/>
      <use xlink:href="#DejaVuSans-6f" transform="translate(168.892578 0)"/>
      <use xlink:href="#DejaVuSans-2d" transform="translate(231.949219 0)"/>
      <use xlink:href="#DejaVuSans-73" transform="translate(268.033203 0)"/>
      <use xlink:href="#DejaVuSans-68" transform="translate(320.132812 0)"/>
      <use xlink:href="#DejaVuSans-6f" transform="translate(383.511719 0)"/>
      <use xlink:href="#DejaVuSans-74" transform="translate(444.693359 0)"/>
     </g>
     <!-- Accuracy -->
     <g transform="translate(24.116625 146.531312) rotate(-90) scale(0.09 -0.09)">
      <defs>
       <path id="DejaVuSans-41" d="M 2188 4044 
L 1331 1722 
L 3047 1722 
L 2188 4044 
z
M 1831 4666 
L 2547 4666 
L 4325 0 
L 3669 0 
L 3244 1197 
L 1141 1197 
L 716 0 
L 50 0 
L 1831 4666 
z
" transform="scale(0.015625)"/>
       <path id="DejaVuSans-63" d="M 3122 3366 
L 3122 2828 
Q 2878 2963 2633 3030 
Q 2388 3097 2138 3097 
Q 1578 3097 1268 2742 
Q 959 2388 959 1747 
Q 959 1106 1268 751 
Q 1578 397 2138 397 
Q 2388 397 2633 464 
Q 2878 531 3122 666 
L 3122 134 
Q 2881 22 2623 -34 
Q 2366 -91 2075 -91 
Q 1284 -91 818 406 
Q 353 903 353 1747 
Q 353 2603 823 3093 
Q 1294 3584 2113 3584 
Q 2378 3584 2631 3529 
Q 2884 3475 3122 3366 
z
" transform="scale(0.015625)"/>
       <path id="DejaVuSans-75" d="M 544 1381 
L 544 3500 
L 1119 3500 
L 1119 1403 
Q 1119 906 1312 657 
Q 1506 409 1894 409 
Q 2359 409 2629 706 
Q 2900 1003 2900 1516 
L 2900 3500 
L 3475 3500 
L 3475 0 
L 2900 0 
L 2900 538 
Q 2691 219 2414 64 
Q 2138 -91 1772 -91 
Q 1169 -91 856 284 
Q 544 659 544 1381 
z
M 1991 3584 
L 1991 3584 
z
" transform="scale(0.015625)"/>
       <path id="DejaVuSans-61" d="M 2194 1759 
Q 1497 1759 1228 1600 
Q 959 1441 959 1056 
Q 959 750 1161 570 
Q 1363 391 1709 391 
Q 2188 391 2477 730 
Q 2766 1069 2766 1631 
L 2766 1759 
L 2194 1759 
z
M 3341 1997 
L 3341 0 
L 2766 0 
L 2766 531 
Q 2569 213 2275 61 
Q 1981 -91 1556 -91 
Q 1019 -91 701 211 
Q 384 513 384 1019 
Q 384 1609 779 1909 
Q 1175 2209 1959 2209 
L 2766 2209 
L 2766 2266 
Q 2766 2663 2505 2880 
Q 2244 3097 1772 3097 
Q 1472 3097 1187 3025 
Q 903 2953 641 2809 
L 641 3341 
Q 956 3463 1253 3523 
Q 1550 3584 1831 3584 
Q 2591 3584 2966 3190 
Q 3341 2797 3341 1997 
z
" transform="scale(0.015625)"/>
       <path id="DejaVuSans-79" d="M 2059 -325 
Q 1816 -950 1584 -1140 
Q 1353 -1331 966 -1331 
L 506 -1331 
L 506 -850 
L 844 -850 
Q 1081 -850 1212 -737 
Q 1344 -625 1503 -206 
L 1606 56 
L 191 3500 
L 800 3500 
L 1894 763 
L 2988 3500 
L 3597 3500 
L 2059 -325 
z
" transform="scale(0.015625)"/>
      </defs>
      <use xlink:href="#DejaVuSans-41"/>
      <use xlink:href="#DejaVuSans-63" transform="translate(66.658203 0)"/>
      <use xlink:href="#DejaVuSans-63" transform="translate(121.638672 0)"/>
      <use xlink:href="#DejaVuSans-75" transform="translate(176.619141 0)"/>
      <use xlink:href="#DejaVuSans-72" transform="translate(239.998047 0)"/>
      <use xlink:href="#DejaVuSans-61" transform="translate(281.111328 0)"/>
      <use xlink:href="#DejaVuSans-63" transform="translate(342.390625 0)"/>
      <use xlink:href="#DejaVuSans-79" transform="translate(397.371094 0)"/>
     </g>
    </g>
   </g>
   <g id="line2d_25">
    <path d="M 49.710844 196.796 
L 217.854177 55.176 
" clip-path="url(#p5e854be64a)" style="fill: none; stroke-dasharray: 3.33,1.44; stroke-dashoffset: 0; stroke: #777777; stroke-width: 0.9"/>
   </g>
   <g id="line2d_26">
    <path d="M 142.242493 122.614095 
L 159.31957 114.184333 
L 175.349131 94.514889 
L 194.491886 98.277739 
L 209.213134 70.911556 
" clip-path="url(#p5e854be64a)" style="fill: none; stroke: #666666; stroke-opacity: 0.9; stroke-width: 1.8; stroke-linecap: square"/>
   </g>
   <g id="patch_3">
    <path d="M 49.710844 196.796 
L 49.710844 55.176 
" style="fill: none; stroke: #000000; stroke-width: 0.8; stroke-linejoin: miter; stroke-linecap: square"/>
   </g>
   <g id="patch_4">
    <path d="M 49.710844 196.796 
L 217.854177 196.796 
" style="fill: none; stroke: #000000; stroke-width: 0.8; stroke-linejoin: miter; stroke-linecap: square"/>
   </g>
   <g id="PathCollection_1">
    <path d="M 142.242493 126.85287 
C 143.366629 126.85287 144.444875 126.406246 145.239759 125.611362 
C 146.034643 124.816477 146.481268 123.738231 146.481268 122.614095 
C 146.481268 121.489959 146.034643 120.411713 145.239759 119.616829 
C 144.444875 118.821944 143.366629 118.37532 142.242493 118.37532 
C 141.118356 118.37532 140.04011 118.821944 139.245226 119.616829 
C 138.450342 120.411713 138.003718 121.489959 138.003718 122.614095 
C 138.003718 123.738231 138.450342 124.816477 139.245226 125.611362 
C 140.04011 126.406246 141.118356 126.85287 142.242493 126.85287 
z
" style="fill: #666666; fill-opacity: 0.9; stroke: #666666; stroke-opacity: 0.9; stroke-width: 0.25"/>
    <path d="M 159.31957 118.579748 
C 160.485248 118.579748 161.60334 118.11662 162.427598 117.292361 
C 163.251857 116.468102 163.714985 115.350011 163.714985 114.184333 
C 163.714985 113.018656 163.251857 111.900564 162.427598 111.076306 
C 161.60334 110.252047 160.485248 109.788918 159.31957 109.788918 
C 158.153893 109.788918 157.035801 110.252047 156.211543 111.076306 
C 155.387284 111.900564 154.924156 113.018656 154.924156 114.184333 
C 154.924156 115.350011 155.387284 116.468102 156.211543 117.292361 
C 157.035801 118.11662 158.153893 118.579748 159.31957 118.579748 
z
" style="fill: #666666; fill-opacity: 0.9; stroke: #666666; stroke-opacity: 0.9; stroke-width: 0.25"/>
    <path d="M 175.349131 98.591009 
C 176.430131 98.591009 177.467001 98.161523 178.231383 97.397141 
C 178.995765 96.632759 179.425251 95.595889 179.425251 94.514889 
C 179.425251 93.433889 178.995765 92.397019 178.231383 91.632637 
C 177.467001 90.868255 176.430131 90.438769 175.349131 90.438769 
C 174.268132 90.438769 173.231261 90.868255 172.466879 91.632637 
C 171.702497 92.397019 171.273011 93.433889 171.273011 94.514889 
C 171.273011 95.595889 171.702497 96.632759 172.466879 97.397141 
C 173.231261 98.161523 174.268132 98.591009 175.349131 98.591009 
z
" style="fill: #666666; fill-opacity: 0.9; stroke: #666666; stroke-opacity: 0.9; stroke-width: 0.25"/>
    <path d="M 194.491886 102.621568 
C 195.643882 102.621568 196.748852 102.163875 197.563437 101.34929 
C 198.378022 100.534705 198.835715 99.429736 198.835715 98.277739 
C 198.835715 97.125742 198.378022 96.020773 197.563437 95.206188 
C 196.748852 94.391603 195.643882 93.93391 194.491886 93.93391 
C 193.339889 93.93391 192.234919 94.391603 191.420334 95.206188 
C 190.60575 96.020773 190.148056 97.125742 190.148056 98.277739 
C 190.148056 99.429736 190.60575 100.534705 191.420334 101.34929 
C 192.234919 102.163875 193.339889 102.621568 194.491886 102.621568 
z
" style="fill: #666666; fill-opacity: 0.9; stroke: #666666; stroke-opacity: 0.9; stroke-width: 0.25"/>
    <path d="M 209.213134 75.884433 
C 210.531956 75.884433 211.796941 75.360459 212.729489 74.427911 
C 213.662037 73.495362 214.186011 72.230378 214.186011 70.911556 
C 214.186011 69.592733 213.662037 68.327749 212.729489 67.3952 
C 211.796941 66.462652 210.531956 65.938678 209.213134 65.938678 
C 207.894311 65.938678 206.629327 66.462652 205.696779 67.3952 
C 204.76423 68.327749 204.240257 69.592733 204.240257 70.911556 
C 204.240257 72.230378 204.76423 73.495362 205.696779 74.427911 
C 206.629327 75.360459 207.894311 75.884433 209.213134 75.884433 
z
" style="fill: #666666; fill-opacity: 0.9; stroke: #666666; stroke-opacity: 0.9; stroke-width: 0.25"/>
   </g>
   <g id="text_8">
    <!-- VQA-RAD -->
    <g transform="translate(110.77001 49.176) scale(0.1 -0.1)">
     <defs>
      <path id="DejaVuSans-56" d="M 1831 0 
L 50 4666 
L 709 4666 
L 2188 738 
L 3669 4666 
L 4325 4666 
L 2547 0 
L 1831 0 
z
" transform="scale(0.015625)"/>
      <path id="DejaVuSans-51" d="M 2522 4238 
Q 1834 4238 1429 3725 
Q 1025 3213 1025 2328 
Q 1025 1447 1429 934 
Q 1834 422 2522 422 
Q 3209 422 3611 934 
Q 4013 1447 4013 2328 
Q 4013 3213 3611 3725 
Q 3209 4238 2522 4238 
z
M 3406 84 
L 4238 -825 
L 3475 -825 
L 2784 -78 
Q 2681 -84 2626 -87 
Q 2572 -91 2522 -91 
Q 1538 -91 948 567 
Q 359 1225 359 2328 
Q 359 3434 948 4092 
Q 1538 4750 2522 4750 
Q 3503 4750 4090 4092 
Q 4678 3434 4678 2328 
Q 4678 1516 4351 937 
Q 4025 359 3406 84 
z
" transform="scale(0.015625)"/>
      <path id="DejaVuSans-52" d="M 2841 2188 
Q 3044 2119 3236 1894 
Q 3428 1669 3622 1275 
L 4263 0 
L 3584 0 
L 2988 1197 
Q 2756 1666 2539 1819 
Q 2322 1972 1947 1972 
L 1259 1972 
L 1259 0 
L 628 0 
L 628 4666 
L 2053 4666 
Q 2853 4666 3247 4331 
Q 3641 3997 3641 3322 
Q 3641 2881 3436 2590 
Q 3231 2300 2841 2188 
z
M 1259 4147 
L 1259 2491 
L 2053 2491 
Q 2509 2491 2742 2702 
Q 2975 2913 2975 3322 
Q 2975 3731 2742 3939 
Q 2509 4147 2053 4147 
L 1259 4147 
z
" transform="scale(0.015625)"/>
      <path id="DejaVuSans-44" d="M 1259 4147 
L 1259 519 
L 2022 519 
Q 2988 519 3436 956 
Q 3884 1394 3884 2338 
Q 3884 3275 3436 3711 
Q 2988 4147 2022 4147 
L 1259 4147 
z
M 628 4666 
L 1925 4666 
Q 3281 4666 3915 4102 
Q 4550 3538 4550 2338 
Q 4550 1131 3912 565 
Q 3275 0 1925 0 
L 628 0 
L 628 4666 
z
" transform="scale(0.015625)"/>
     </defs>
     <use xlink:href="#DejaVuSans-56"/>
     <use xlink:href="#DejaVuSans-51" transform="translate(68.408203 0)"/>
     <use xlink:href="#DejaVuSans-41" transform="translate(147.119141 0)"/>
     <use xlink:href="#DejaVuSans-2d" transform="translate(213.277344 0)"/>
     <use xlink:href="#DejaVuSans-52" transform="translate(249.361328 0)"/>
     <use xlink:href="#DejaVuSans-41" transform="translate(314.84375 0)"/>
     <use xlink:href="#DejaVuSans-44" transform="translate(383.251953 0)"/>
    </g>
   </g>
  </g>
  <g id="axes_2">
   <g id="patch_5">
    <path d="M 240.354177 196.796 
L 408.49751 196.796 
L 408.49751 55.176 
L 240.354177 55.176 
z
" style="fill: #ffffff"/>
   </g>
   <g id="matplotlib.axis_3">
    <g id="xtick_7">
     <g id="line2d_27">
      <path d="M 240.354177 196.796 
L 240.354177 55.176 
" clip-path="url(#p9ab064d344)" style="fill: none; stroke: #b0b0b0; stroke-opacity: 0.18; stroke-width: 0.6; stroke-linecap: square"/>
     </g>
     <g id="line2d_28">
      <g>
       <use xlink:href="#m0f39b51935" x="240.354177" y="196.796" style="stroke: #000000; stroke-width: 0.8"/>
      </g>
     </g>
    </g>
    <g id="xtick_8">
     <g id="line2d_29">
      <path d="M 273.982844 196.796 
L 273.982844 55.176 
" clip-path="url(#p9ab064d344)" style="fill: none; stroke: #b0b0b0; stroke-opacity: 0.18; stroke-width: 0.6; stroke-linecap: square"/>
     </g>
     <g id="line2d_30">
      <g>
       <use xlink:href="#m0f39b51935" x="273.982844" y="196.796" style="stroke: #000000; stroke-width: 0.8"/>
      </g>
     </g>
    </g>
    <g id="xtick_9">
     <g id="line2d_31">
      <path d="M 307.61151 196.796 
L 307.61151 55.176 
" clip-path="url(#p9ab064d344)" style="fill: none; stroke: #b0b0b0; stroke-opacity: 0.18; stroke-width: 0.6; stroke-linecap: square"/>
     </g>
     <g id="line2d_32">
      <g>
       <use xlink:href="#m0f39b51935" x="307.61151" y="196.796" style="stroke: #000000; stroke-width: 0.8"/>
      </g>
     </g>
    </g>
    <g id="xtick_10">
     <g id="line2d_33">
      <path d="M 341.240177 196.796 
L 341.240177 55.176 
" clip-path="url(#p9ab064d344)" style="fill: none; stroke: #b0b0b0; stroke-opacity: 0.18; stroke-width: 0.6; stroke-linecap: square"/>
     </g>
     <g id="line2d_34">
      <g>
       <use xlink:href="#m0f39b51935" x="341.240177" y="196.796" style="stroke: #000000; stroke-width: 0.8"/>
      </g>
     </g>
    </g>
    <g id="xtick_11">
     <g id="line2d_35">
      <path d="M 374.868844 196.796 
L 374.868844 55.176 
" clip-path="url(#p9ab064d344)" style="fill: none; stroke: #b0b0b0; stroke-opacity: 0.18; stroke-width: 0.6; stroke-linecap: square"/>
     </g>
     <g id="line2d_36">
      <g>
       <use xlink:href="#m0f39b51935" x="374.868844" y="196.796" style="stroke: #000000; stroke-width: 0.8"/>
      </g>
     </g>
    </g>
    <g id="xtick_12">
     <g id="line2d_37">
      <path d="M 408.49751 196.796 
L 408.49751 55.176 
" clip-path="url(#p9ab064d344)" style="fill: none; stroke: #b0b0b0; stroke-opacity: 0.18; stroke-width: 0.6; stroke-linecap: square"/>
     </g>
     <g id="line2d_38">
      <g>
       <use xlink:href="#m0f39b51935" x="408.49751" y="196.796" style="stroke: #000000; stroke-width: 0.8"/>
      </g>
     </g>
    </g>
   </g>
   <g id="matplotlib.axis_4">
    <g id="ytick_7">
     <g id="line2d_39">
      <path d="M 240.354177 196.796 
L 408.49751 196.796 
" clip-path="url(#p9ab064d344)" style="fill: none; stroke: #b0b0b0; stroke-opacity: 0.18; stroke-width: 0.6; stroke-linecap: square"/>
     </g>
     <g id="line2d_40">
      <g>
       <use xlink:href="#m8d6d4490dd" x="240.354177" y="196.796" style="stroke: #000000; stroke-width: 0.8"/>
      </g>
     </g>
    </g>
    <g id="ytick_8">
     <g id="line2d_41">
      <path d="M 240.354177 168.472 
L 408.49751 168.472 
" clip-path="url(#p9ab064d344)" style="fill: none; stroke: #b0b0b0; stroke-opacity: 0.18; stroke-width: 0.6; stroke-linecap: square"/>
     </g>
     <g id="line2d_42">
      <g>
       <use xlink:href="#m8d6d4490dd" x="240.354177" y="168.472" style="stroke: #000000; stroke-width: 0.8"/>
      </g>
     </g>
    </g>
    <g id="ytick_9">
     <g id="line2d_43">
      <path d="M 240.354177 140.148 
L 408.49751 140.148 
" clip-path="url(#p9ab064d344)" style="fill: none; stroke: #b0b0b0; stroke-opacity: 0.18; stroke-width: 0.6; stroke-linecap: square"/>
     </g>
     <g id="line2d_44">
      <g>
       <use xlink:href="#m8d6d4490dd" x="240.354177" y="140.148" style="stroke: #000000; stroke-width: 0.8"/>
      </g>
     </g>
    </g>
    <g id="ytick_10">
     <g id="line2d_45">
      <path d="M 240.354177 111.824 
L 408.49751 111.824 
" clip-path="url(#p9ab064d344)" style="fill: none; stroke: #b0b0b0; stroke-opacity: 0.18; stroke-width: 0.6; stroke-linecap: square"/>
     </g>
     <g id="line2d_46">
      <g>
       <use xlink:href="#m8d6d4490dd" x="240.354177" y="111.824" style="stroke: #000000; stroke-width: 0.8"/>
      </g>
     </g>
    </g>
    <g id="ytick_11">
     <g id="line2d_47">
      <path d="M 240.354177 83.5 
L 408.49751 83.5 
" clip-path="url(#p9ab064d344)" style="fill: none; stroke: #b0b0b0; stroke-opacity: 0.18; stroke-width: 0.6; stroke-linecap: square"/>
     </g>
     <g id="line2d_48">
      <g>
       <use xlink:href="#m8d6d4490dd" x="240.354177" y="83.5" style="stroke: #000000; stroke-width: 0.8"/>
      </g>
     </g>
    </g>
    <g id="ytick_12">
     <g id="line2d_49">
      <path d="M 240.354177 55.176 
L 408.49751 55.176 
" clip-path="url(#p9ab064d344)" style="fill: none; stroke: #b0b0b0; stroke-opacity: 0.18; stroke-width: 0.6; stroke-linecap: square"/>
     </g>
     <g id="line2d_50">
      <g>
       <use xlink:href="#m8d6d4490dd" x="240.354177" y="55.176" style="stroke: #000000; stroke-width: 0.8"/>
      </g>
     </g>
    </g>
   </g>
   <g id="line2d_51">
    <path d="M 240.354177 196.796 
L 408.49751 55.176 
" clip-path="url(#p9ab064d344)" style="fill: none; stroke-dasharray: 3.33,1.44; stroke-dashoffset: 0; stroke: #777777; stroke-width: 0.9"/>
   </g>
   <g id="line2d_52">
    <path d="M 333.074577 125.986 
L 350.225018 124.258927 
L 366.169435 124.412444 
L 384.358705 116.749913 
L 403.680587 110.460813 
" clip-path="url(#p9ab064d344)" style="fill: none; stroke: #666666; stroke-opacity: 0.9; stroke-width: 1.8; stroke-linecap: square"/>
   </g>
   <g id="patch_6">
    <path d="M 240.354177 196.796 
L 240.354177 55.176 
" style="fill: none; stroke: #000000; stroke-width: 0.8; stroke-linejoin: miter; stroke-linecap: square"/>
   </g>
   <g id="patch_7">
    <path d="M 240.354177 196.796 
L 408.49751 196.796 
" style="fill: none; stroke: #000000; stroke-width: 0.8; stroke-linejoin: miter; stroke-linecap: square"/>
   </g>
   <g id="PathCollection_2">
    <path d="M 333.074577 129.774712 
C 334.079355 129.774712 335.043115 129.37551 335.753601 128.665024 
C 336.464086 127.954539 336.863289 126.990778 336.863289 125.986 
C 336.863289 124.981222 336.464086 124.017461 335.753601 123.306976 
C 335.043115 122.59649 334.079355 122.197288 333.074577 122.197288 
C 332.069798 122.197288 331.106038 122.59649 330.395552 123.306976 
C 329.685067 124.017461 329.285864 124.981222 329.285864 125.986 
C 329.285864 126.990778 329.685067 127.954539 330.395552 128.665024 
C 331.106038 129.37551 332.069798 129.774712 333.074577 129.774712 
z
" style="fill: #666666; fill-opacity: 0.9; stroke: #666666; stroke-opacity: 0.9; stroke-width: 0.25"/>
    <path d="M 350.225018 128.108151 
C 351.245844 128.108151 352.224997 127.702572 352.94683 126.980739 
C 353.668663 126.258906 354.074242 125.279753 354.074242 124.258927 
C 354.074242 123.238101 353.668663 122.258947 352.94683 121.537114 
C 352.224997 120.815281 351.245844 120.409703 350.225018 120.409703 
C 349.204192 120.409703 348.225038 120.815281 347.503205 121.537114 
C 346.781372 122.258947 346.375794 123.238101 346.375794 124.258927 
C 346.375794 125.279753 346.781372 126.258906 347.503205 126.980739 
C 348.225038 127.702572 349.204192 128.108151 350.225018 128.108151 
z
" style="fill: #666666; fill-opacity: 0.9; stroke: #666666; stroke-opacity: 0.9; stroke-width: 0.25"/>
    <path d="M 366.169435 128.340901 
C 367.211274 128.340901 368.210582 127.926974 368.947274 127.190283 
C 369.683965 126.453592 370.097892 125.454283 370.097892 124.412444 
C 370.097892 123.370606 369.683965 122.371297 368.947274 121.634606 
C 368.210582 120.897915 367.211274 120.483988 366.169435 120.483988 
C 365.127596 120.483988 364.128288 120.897915 363.391597 121.634606 
C 362.654905 122.371297 362.240978 123.370606 362.240978 124.412444 
C 362.240978 125.454283 362.654905 126.453592 363.391597 127.190283 
C 364.128288 127.926974 365.127596 128.340901 366.169435 128.340901 
z
" style="fill: #666666; fill-opacity: 0.9; stroke: #666666; stroke-opacity: 0.9; stroke-width: 0.25"/>
    <path d="M 384.358705 120.69793 
C 385.405732 120.69793 386.410015 120.281942 387.150375 119.541582 
C 387.890734 118.801223 388.306722 117.796939 388.306722 116.749913 
C 388.306722 115.702887 387.890734 114.698603 387.150375 113.958244 
C 386.410015 113.217884 385.405732 112.801896 384.358705 112.801896 
C 383.311679 112.801896 382.307396 113.217884 381.567036 113.958244 
C 380.826677 114.698603 380.410689 115.702887 380.410689 116.749913 
C 380.410689 117.796939 380.826677 118.801223 381.567036 119.541582 
C 382.307396 120.281942 383.311679 120.69793 384.358705 120.69793 
z
" style="fill: #666666; fill-opacity: 0.9; stroke: #666666; stroke-opacity: 0.9; stroke-width: 0.25"/>
    <path d="M 403.680587 116.568965 
C 405.300488 116.568965 406.85426 115.925372 407.999703 114.779929 
C 409.145146 113.634486 409.788739 112.080714 409.788739 110.460813 
C 409.788739 108.840912 409.145146 107.28714 407.999703 106.141697 
C 406.85426 104.996254 405.300488 104.352661 403.680587 104.352661 
C 402.060686 104.352661 400.506914 104.996254 399.361471 106.141697 
C 398.216028 107.28714 397.572435 108.840912 397.572435 110.460813 
C 397.572435 112.080714 398.216028 113.634486 399.361471 114.779929 
C 400.506914 115.925372 402.060686 116.568965 403.680587 116.568965 
z
" style="fill: #666666; fill-opacity: 0.9; stroke: #666666; stroke-opacity: 0.9; stroke-width: 0.25"/>
   </g>
   <g id="text_9">
    <!-- SLAKE-en -->
    <g transform="translate(300.445375 49.176) scale(0.1 -0.1)">
     <defs>
      <path id="DejaVuSans-53" d="M 3425 4513 
L 3425 3897 
Q 3066 4069 2747 4153 
Q 2428 4238 2131 4238 
Q 1616 4238 1336 4038 
Q 1056 3838 1056 3469 
Q 1056 3159 1242 3001 
Q 1428 2844 1947 2747 
L 2328 2669 
Q 3034 2534 3370 2195 
Q 3706 1856 3706 1288 
Q 3706 609 3251 259 
Q 2797 -91 1919 -91 
Q 1588 -91 1214 -16 
Q 841 59 441 206 
L 441 856 
Q 825 641 1194 531 
Q 1563 422 1919 422 
Q 2459 422 2753 634 
Q 3047 847 3047 1241 
Q 3047 1584 2836 1778 
Q 2625 1972 2144 2069 
L 1759 2144 
Q 1053 2284 737 2584 
Q 422 2884 422 3419 
Q 422 4038 858 4394 
Q 1294 4750 2059 4750 
Q 2388 4750 2728 4690 
Q 3069 4631 3425 4513 
z
" transform="scale(0.015625)"/>
      <path id="DejaVuSans-4c" d="M 628 4666 
L 1259 4666 
L 1259 531 
L 3531 531 
L 3531 0 
L 628 0 
L 628 4666 
z
" transform="scale(0.015625)"/>
      <path id="DejaVuSans-4b" d="M 628 4666 
L 1259 4666 
L 1259 2694 
L 3353 4666 
L 4166 4666 
L 1850 2491 
L 4331 0 
L 3500 0 
L 1259 2247 
L 1259 0 
L 628 0 
L 628 4666 
z
" transform="scale(0.015625)"/>
      <path id="DejaVuSans-45" d="M 628 4666 
L 3578 4666 
L 3578 4134 
L 1259 4134 
L 1259 2753 
L 3481 2753 
L 3481 2222 
L 1259 2222 
L 1259 531 
L 3634 531 
L 3634 0 
L 628 0 
L 628 4666 
z
" transform="scale(0.015625)"/>
      <path id="DejaVuSans-6e" d="M 3513 2113 
L 3513 0 
L 2938 0 
L 2938 2094 
Q 2938 2591 2744 2837 
Q 2550 3084 2163 3084 
Q 1697 3084 1428 2787 
Q 1159 2491 1159 1978 
L 1159 0 
L 581 0 
L 581 3500 
L 1159 3500 
L 1159 2956 
Q 1366 3272 1645 3428 
Q 1925 3584 2291 3584 
Q 2894 3584 3203 3211 
Q 3513 2838 3513 2113 
z
" transform="scale(0.015625)"/>
     </defs>
     <use xlink:href="#DejaVuSans-53"/>
     <use xlink:href="#DejaVuSans-4c" transform="translate(63.476562 0)"/>
     <use xlink:href="#DejaVuSans-41" transform="translate(121.439453 0)"/>
     <use xlink:href="#DejaVuSans-4b" transform="translate(189.847656 0)"/>
     <use xlink:href="#DejaVuSans-45" transform="translate(255.423828 0)"/>
     <use xlink:href="#DejaVuSans-2d" transform="translate(318.607422 0)"/>
     <use xlink:href="#DejaVuSans-65" transform="translate(354.691406 0)"/>
     <use xlink:href="#DejaVuSans-6e" transform="translate(416.214844 0)"/>
    </g>
   </g>
  </g>
  <g id="axes_3">
   <g id="patch_8">
    <path d="M 430.99751 196.796 
L 599.140844 196.796 
L 599.140844 55.176 
L 430.99751 55.176 
z
" style="fill: #ffffff"/>
   </g>
   <g id="matplotlib.axis_5">
    <g id="xtick_13">
     <g id="line2d_53">
      <path d="M 430.99751 196.796 
L 430.99751 55.176 
" clip-path="url(#p3f55193686)" style="fill: none; stroke: #b0b0b0; stroke-opacity: 0.18; stroke-width: 0.6; stroke-linecap: square"/>
     </g>
     <g id="line2d_54">
      <g>
       <use xlink:href="#m0f39b51935" x="430.99751" y="196.796" style="stroke: #000000; stroke-width: 0.8"/>
      </g>
     </g>
    </g>
    <g id="xtick_14">
     <g id="line2d_55">
      <path d="M 464.626177 196.796 
L 464.626177 55.176 
" clip-path="url(#p3f55193686)" style="fill: none; stroke: #b0b0b0; stroke-opacity: 0.18; stroke-width: 0.6; stroke-linecap: square"/>
     </g>
     <g id="line2d_56">
      <g>
       <use xlink:href="#m0f39b51935" x="464.626177" y="196.796" style="stroke: #000000; stroke-width: 0.8"/>
      </g>
     </g>
    </g>
    <g id="xtick_15">
     <g id="line2d_57">
      <path d="M 498.254844 196.796 
L 498.254844 55.176 
" clip-path="url(#p3f55193686)" style="fill: none; stroke: #b0b0b0; stroke-opacity: 0.18; stroke-width: 0.6; stroke-linecap: square"/>
     </g>
     <g id="line2d_58">
      <g>
       <use xlink:href="#m0f39b51935" x="498.254844" y="196.796" style="stroke: #000000; stroke-width: 0.8"/>
      </g>
     </g>
    </g>
    <g id="xtick_16">
     <g id="line2d_59">
      <path d="M 531.88351 196.796 
L 531.88351 55.176 
" clip-path="url(#p3f55193686)" style="fill: none; stroke: #b0b0b0; stroke-opacity: 0.18; stroke-width: 0.6; stroke-linecap: square"/>
     </g>
     <g id="line2d_60">
      <g>
       <use xlink:href="#m0f39b51935" x="531.88351" y="196.796" style="stroke: #000000; stroke-width: 0.8"/>
      </g>
     </g>
    </g>
    <g id="xtick_17">
     <g id="line2d_61">
      <path d="M 565.512177 196.796 
L 565.512177 55.176 
" clip-path="url(#p3f55193686)" style="fill: none; stroke: #b0b0b0; stroke-opacity: 0.18; stroke-width: 0.6; stroke-linecap: square"/>
     </g>
     <g id="line2d_62">
      <g>
       <use xlink:href="#m0f39b51935" x="565.512177" y="196.796" style="stroke: #000000; stroke-width: 0.8"/>
      </g>
     </g>
    </g>
    <g id="xtick_18">
     <g id="line2d_63">
      <path d="M 599.140844 196.796 
L 599.140844 55.176 
" clip-path="url(#p3f55193686)" style="fill: none; stroke: #b0b0b0; stroke-opacity: 0.18; stroke-width: 0.6; stroke-linecap: square"/>
     </g>
     <g id="line2d_64">
      <g>
       <use xlink:href="#m0f39b51935" x="599.140844" y="196.796" style="stroke: #000000; stroke-width: 0.8"/>
      </g>
     </g>
    </g>
   </g>
   <g id="matplotlib.axis_6">
    <g id="ytick_13">
     <g id="line2d_65">
      <path d="M 430.99751 196.796 
L 599.140844 196.796 
" clip-path="url(#p3f55193686)" style="fill: none; stroke: #b0b0b0; stroke-opacity: 0.18; stroke-width: 0.6; stroke-linecap: square"/>
     </g>
     <g id="line2d_66">
      <g>
       <use xlink:href="#m8d6d4490dd" x="430.99751" y="196.796" style="stroke: #000000; stroke-width: 0.8"/>
      </g>
     </g>
    </g>
    <g id="ytick_14">
     <g id="line2d_67">
      <path d="M 430.99751 168.472 
L 599.140844 168.472 
" clip-path="url(#p3f55193686)" style="fill: none; stroke: #b0b0b0; stroke-opacity: 0.18; stroke-width: 0.6; stroke-linecap: square"/>
     </g>
     <g id="line2d_68">
      <g>
       <use xlink:href="#m8d6d4490dd" x="430.99751" y="168.472" style="stroke: #000000; stroke-width: 0.8"/>
      </g>
     </g>
    </g>
    <g id="ytick_15">
     <g id="line2d_69">
      <path d="M 430.99751 140.148 
L 599.140844 140.148 
" clip-path="url(#p3f55193686)" style="fill: none; stroke: #b0b0b0; stroke-opacity: 0.18; stroke-width: 0.6; stroke-linecap: square"/>
     </g>
     <g id="line2d_70">
      <g>
       <use xlink:href="#m8d6d4490dd" x="430.99751" y="140.148" style="stroke: #000000; stroke-width: 0.8"/>
      </g>
     </g>
    </g>
    <g id="ytick_16">
     <g id="line2d_71">
      <path d="M 430.99751 111.824 
L 599.140844 111.824 
" clip-path="url(#p3f55193686)" style="fill: none; stroke: #b0b0b0; stroke-opacity: 0.18; stroke-width: 0.6; stroke-linecap: square"/>
     </g>
     <g id="line2d_72">
      <g>
       <use xlink:href="#m8d6d4490dd" x="430.99751" y="111.824" style="stroke: #000000; stroke-width: 0.8"/>
      </g>
     </g>
    </g>
    <g id="ytick_17">
     <g id="line2d_73">
      <path d="M 430.99751 83.5 
L 599.140844 83.5 
" clip-path="url(#p3f55193686)" style="fill: none; stroke: #b0b0b0; stroke-opacity: 0.18; stroke-width: 0.6; stroke-linecap: square"/>
     </g>
     <g id="line2d_74">
      <g>
       <use xlink:href="#m8d6d4490dd" x="430.99751" y="83.5" style="stroke: #000000; stroke-width: 0.8"/>
      </g>
     </g>
    </g>
    <g id="ytick_18">
     <g id="line2d_75">
      <path d="M 430.99751 55.176 
L 599.140844 55.176 
" clip-path="url(#p3f55193686)" style="fill: none; stroke: #b0b0b0; stroke-opacity: 0.18; stroke-width: 0.6; stroke-linecap: square"/>
     </g>
     <g id="line2d_76">
      <g>
       <use xlink:href="#m8d6d4490dd" x="430.99751" y="55.176" style="stroke: #000000; stroke-width: 0.8"/>
      </g>
     </g>
    </g>
   </g>
   <g id="line2d_77">
    <path d="M 430.99751 196.796 
L 599.140844 55.176 
" clip-path="url(#p3f55193686)" style="fill: none; stroke-dasharray: 3.33,1.44; stroke-dashoffset: 0; stroke: #777777; stroke-width: 0.9"/>
   </g>
   <g id="line2d_78">
    <path d="M 523.580453 125.805822 
L 539.940659 122.998978 
L 557.145841 121.820706 
L 574.523748 116.398898 
L 591.187737 120.032947 
" clip-path="url(#p3f55193686)" style="fill: none; stroke: #666666; stroke-opacity: 0.9; stroke-width: 1.8; stroke-linecap: square"/>
   </g>
   <g id="patch_9">
    <path d="M 430.99751 196.796 
L 430.99751 55.176 
" style="fill: none; stroke: #000000; stroke-width: 0.8; stroke-linejoin: miter; stroke-linecap: square"/>
   </g>
   <g id="patch_10">
    <path d="M 430.99751 196.796 
L 599.140844 196.796 
" style="fill: none; stroke: #000000; stroke-width: 0.8; stroke-linejoin: miter; stroke-linecap: square"/>
   </g>
   <g id="PathCollection_3">
    <path d="M 523.580453 130.163885 
C 524.736225 130.163885 525.844815 129.704692 526.662069 128.887438 
C 527.479323 128.070184 527.938516 126.961594 527.938516 125.805822 
C 527.938516 124.65005 527.479323 123.54146 526.662069 122.724206 
C 525.844815 121.906951 524.736225 121.447758 523.580453 121.447758 
C 522.424681 121.447758 521.316091 121.906951 520.498836 122.724206 
C 519.681582 123.54146 519.222389 124.65005 519.222389 125.805822 
C 519.222389 126.961594 519.681582 128.070184 520.498836 128.887438 
C 521.316091 129.704692 522.424681 130.163885 523.580453 130.163885 
z
" style="fill: #666666; fill-opacity: 0.9; stroke: #666666; stroke-opacity: 0.9; stroke-width: 0.25"/>
    <path d="M 539.940659 127.387566 
C 541.104527 127.387566 542.220882 126.925157 543.04386 126.102178 
C 543.866839 125.2792 544.329248 124.162845 544.329248 122.998978 
C 544.329248 121.83511 543.866839 120.718755 543.04386 119.895777 
C 542.220882 119.072799 541.104527 118.610389 539.940659 118.610389 
C 538.776792 118.610389 537.660437 119.072799 536.837459 119.895777 
C 536.01448 120.718755 535.552071 121.83511 535.552071 122.998978 
C 535.552071 124.162845 536.01448 125.2792 536.837459 126.102178 
C 537.660437 126.925157 538.776792 127.387566 539.940659 127.387566 
z
" style="fill: #666666; fill-opacity: 0.9; stroke: #666666; stroke-opacity: 0.9; stroke-width: 0.25"/>
    <path d="M 557.145841 126.172639 
C 558.299987 126.172639 559.407018 125.714092 560.223122 124.897987 
C 561.039227 124.081883 561.497774 122.974852 561.497774 121.820706 
C 561.497774 120.66656 561.039227 119.559529 560.223122 118.743425 
C 559.407018 117.92732 558.299987 117.468773 557.145841 117.468773 
C 555.991695 117.468773 554.884664 117.92732 554.06856 118.743425 
C 553.252455 119.559529 552.793908 120.66656 552.793908 121.820706 
C 552.793908 122.974852 553.252455 124.081883 554.06856 124.897987 
C 554.884664 125.714092 555.991695 126.172639 557.145841 126.172639 
z
" style="fill: #666666; fill-opacity: 0.9; stroke: #666666; stroke-opacity: 0.9; stroke-width: 0.25"/>
    <path d="M 574.523748 120.841903 
C 575.702046 120.841903 576.832243 120.37376 577.665426 119.540577 
C 578.498609 118.707394 578.966752 117.577196 578.966752 116.398898 
C 578.966752 115.220599 578.498609 114.090402 577.665426 113.257219 
C 576.832243 112.424036 575.702046 111.955893 574.523748 111.955893 
C 573.345449 111.955893 572.215252 112.424036 571.382069 113.257219 
C 570.548886 114.090402 570.080743 115.220599 570.080743 116.398898 
C 570.080743 117.577196 570.548886 118.707394 571.382069 119.540577 
C 572.215252 120.37376 573.345449 120.841903 574.523748 120.841903 
z
" style="fill: #666666; fill-opacity: 0.9; stroke: #666666; stroke-opacity: 0.9; stroke-width: 0.25"/>
    <path d="M 591.187737 124.568138 
C 592.390484 124.568138 593.544132 124.090282 594.394602 123.239812 
C 595.245073 122.389341 595.722929 121.235694 595.722929 120.032947 
C 595.722929 118.8302 595.245073 117.676553 594.394602 116.826082 
C 593.544132 115.975612 592.390484 115.497755 591.187737 115.497755 
C 589.984991 115.497755 588.831343 115.975612 587.980873 116.826082 
C 587.130402 117.676553 586.652546 118.8302 586.652546 120.032947 
C 586.652546 121.235694 587.130402 122.389341 587.980873 123.239812 
C 588.831343 124.090282 589.984991 124.568138 591.187737 124.568138 
z
" style="fill: #666666; fill-opacity: 0.9; stroke: #666666; stroke-opacity: 0.9; stroke-width: 0.25"/>
   </g>
   <g id="text_10">
    <!-- PathVQA -->
    <g transform="translate(493.309802 49.176) scale(0.1 -0.1)">
     <defs>
      <path id="DejaVuSans-50" d="M 1259 4147 
L 1259 2394 
L 2053 2394 
Q 2494 2394 2734 2622 
Q 2975 2850 2975 3272 
Q 2975 3691 2734 3919 
Q 2494 4147 2053 4147 
L 1259 4147 
z
M 628 4666 
L 2053 4666 
Q 2838 4666 3239 4311 
Q 3641 3956 3641 3272 
Q 3641 2581 3239 2228 
Q 2838 1875 2053 1875 
L 1259 1875 
L 1259 0 
L 628 0 
L 628 4666 
z
" transform="scale(0.015625)"/>
     </defs>
     <use xlink:href="#DejaVuSans-50"/>
     <use xlink:href="#DejaVuSans-61" transform="translate(55.802734 0)"/>
     <use xlink:href="#DejaVuSans-74" transform="translate(117.082031 0)"/>
     <use xlink:href="#DejaVuSans-68" transform="translate(156.291016 0)"/>
     <use xlink:href="#DejaVuSans-56" transform="translate(219.669922 0)"/>
     <use xlink:href="#DejaVuSans-51" transform="translate(288.078125 0)"/>
     <use xlink:href="#DejaVuSans-41" transform="translate(366.789062 0)"/>
    </g>
   </g>
  </g>
  <g id="axes_4">
   <g id="patch_11">
    <path d="M 49.710844 355.336 
L 217.854177 355.336 
L 217.854177 213.716 
L 49.710844 213.716 
z
" style="fill: #ffffff"/>
   </g>
   <g id="matplotlib.axis_7">
    <g id="xtick_19">
     <g id="line2d_79">
      <path d="M 49.710844 355.336 
L 49.710844 213.716 
" clip-path="url(#p495c1d8c28)" style="fill: none; stroke: #b0b0b0; stroke-opacity: 0.18; stroke-width: 0.6; stroke-linecap: square"/>
     </g>
     <g id="line2d_80">
      <g>
       <use xlink:href="#m0f39b51935" x="49.710844" y="355.336" style="stroke: #000000; stroke-width: 0.8"/>
      </g>
     </g>
     <g id="text_11">
      <!-- 0.0 -->
      <g transform="translate(43.349594 368.41475) scale(0.08 -0.08)">
       <use xlink:href="#DejaVuSans-30"/>
       <use xlink:href="#DejaVuSans-2e" transform="translate(63.623047 0)"/>
       <use xlink:href="#DejaVuSans-30" transform="translate(95.410156 0)"/>
      </g>
     </g>
    </g>
    <g id="xtick_20">
     <g id="line2d_81">
      <path d="M 83.33951 355.336 
L 83.33951 213.716 
" clip-path="url(#p495c1d8c28)" style="fill: none; stroke: #b0b0b0; stroke-opacity: 0.18; stroke-width: 0.6; stroke-linecap: square"/>
     </g>
     <g id="line2d_82">
      <g>
       <use xlink:href="#m0f39b51935" x="83.33951" y="355.336" style="stroke: #000000; stroke-width: 0.8"/>
      </g>
     </g>
     <g id="text_12">
      <!-- 0.2 -->
      <g transform="translate(76.97826 368.41475) scale(0.08 -0.08)">
       <use xlink:href="#DejaVuSans-30"/>
       <use xlink:href="#DejaVuSans-2e" transform="translate(63.623047 0)"/>
       <use xlink:href="#DejaVuSans-32" transform="translate(95.410156 0)"/>
      </g>
     </g>
    </g>
    <g id="xtick_21">
     <g id="line2d_83">
      <path d="M 116.968177 355.336 
L 116.968177 213.716 
" clip-path="url(#p495c1d8c28)" style="fill: none; stroke: #b0b0b0; stroke-opacity: 0.18; stroke-width: 0.6; stroke-linecap: square"/>
     </g>
     <g id="line2d_84">
      <g>
       <use xlink:href="#m0f39b51935" x="116.968177" y="355.336" style="stroke: #000000; stroke-width: 0.8"/>
      </g>
     </g>
     <g id="text_13">
      <!-- 0.4 -->
      <g transform="translate(110.606927 368.41475) scale(0.08 -0.08)">
       <use xlink:href="#DejaVuSans-30"/>
       <use xlink:href="#DejaVuSans-2e" transform="translate(63.623047 0)"/>
       <use xlink:href="#DejaVuSans-34" transform="translate(95.410156 0)"/>
      </g>
     </g>
    </g>
    <g id="xtick_22">
     <g id="line2d_85">
      <path d="M 150.596844 355.336 
L 150.596844 213.716 
" clip-path="url(#p495c1d8c28)" style="fill: none; stroke: #b0b0b0; stroke-opacity: 0.18; stroke-width: 0.6; stroke-linecap: square"/>
     </g>
     <g id="line2d_86">
      <g>
       <use xlink:href="#m0f39b51935" x="150.596844" y="355.336" style="stroke: #000000; stroke-width: 0.8"/>
      </g>
     </g>
     <g id="text_14">
      <!-- 0.6 -->
      <g transform="translate(144.235594 368.41475) scale(0.08 -0.08)">
       <use xlink:href="#DejaVuSans-30"/>
       <use xlink:href="#DejaVuSans-2e" transform="translate(63.623047 0)"/>
       <use xlink:href="#DejaVuSans-36" transform="translate(95.410156 0)"/>
      </g>
     </g>
    </g>
    <g id="xtick_23">
     <g id="line2d_87">
      <path d="M 184.22551 355.336 
L 184.22551 213.716 
" clip-path="url(#p495c1d8c28)" style="fill: none; stroke: #b0b0b0; stroke-opacity: 0.18; stroke-width: 0.6; stroke-linecap: square"/>
     </g>
     <g id="line2d_88">
      <g>
       <use xlink:href="#m0f39b51935" x="184.22551" y="355.336" style="stroke: #000000; stroke-width: 0.8"/>
      </g>
     </g>
     <g id="text_15">
      <!-- 0.8 -->
      <g transform="translate(177.86426 368.41475) scale(0.08 -0.08)">
       <use xlink:href="#DejaVuSans-30"/>
       <use xlink:href="#DejaVuSans-2e" transform="translate(63.623047 0)"/>
       <use xlink:href="#DejaVuSans-38" transform="translate(95.410156 0)"/>
      </g>
     </g>
    </g>
    <g id="xtick_24">
     <g id="line2d_89">
      <path d="M 217.854177 355.336 
L 217.854177 213.716 
" clip-path="url(#p495c1d8c28)" style="fill: none; stroke: #b0b0b0; stroke-opacity: 0.18; stroke-width: 0.6; stroke-linecap: square"/>
     </g>
     <g id="line2d_90">
      <g>
       <use xlink:href="#m0f39b51935" x="217.854177" y="355.336" style="stroke: #000000; stroke-width: 0.8"/>
      </g>
     </g>
     <g id="text_16">
      <!-- 1.0 -->
      <g transform="translate(211.492927 368.41475) scale(0.08 -0.08)">
       <use xlink:href="#DejaVuSans-31"/>
       <use xlink:href="#DejaVuSans-2e" transform="translate(63.623047 0)"/>
       <use xlink:href="#DejaVuSans-30" transform="translate(95.410156 0)"/>
      </g>
     </g>
    </g>
    <g id="text_17">
     <!-- Confidence -->
     <g transform="translate(108.479854 380.917094) scale(0.09 -0.09)">
      <defs>
       <path id="DejaVuSans-43" d="M 4122 4306 
L 4122 3641 
Q 3803 3938 3442 4084 
Q 3081 4231 2675 4231 
Q 1875 4231 1450 3742 
Q 1025 3253 1025 2328 
Q 1025 1406 1450 917 
Q 1875 428 2675 428 
Q 3081 428 3442 575 
Q 3803 722 4122 1019 
L 4122 359 
Q 3791 134 3420 21 
Q 3050 -91 2638 -91 
Q 1578 -91 968 557 
Q 359 1206 359 2328 
Q 359 3453 968 4101 
Q 1578 4750 2638 4750 
Q 3056 4750 3426 4639 
Q 3797 4528 4122 4306 
z
" transform="scale(0.015625)"/>
       <path id="DejaVuSans-66" d="M 2375 4863 
L 2375 4384 
L 1825 4384 
Q 1516 4384 1395 4259 
Q 1275 4134 1275 3809 
L 1275 3500 
L 2222 3500 
L 2222 3053 
L 1275 3053 
L 1275 0 
L 697 0 
L 697 3053 
L 147 3053 
L 147 3500 
L 697 3500 
L 697 3744 
Q 697 4328 969 4595 
Q 1241 4863 1831 4863 
L 2375 4863 
z
" transform="scale(0.015625)"/>
       <path id="DejaVuSans-69" d="M 603 3500 
L 1178 3500 
L 1178 0 
L 603 0 
L 603 3500 
z
M 603 4863 
L 1178 4863 
L 1178 4134 
L 603 4134 
L 603 4863 
z
" transform="scale(0.015625)"/>
       <path id="DejaVuSans-64" d="M 2906 2969 
L 2906 4863 
L 3481 4863 
L 3481 0 
L 2906 0 
L 2906 525 
Q 2725 213 2448 61 
Q 2172 -91 1784 -91 
Q 1150 -91 751 415 
Q 353 922 353 1747 
Q 353 2572 751 3078 
Q 1150 3584 1784 3584 
Q 2172 3584 2448 3432 
Q 2725 3281 2906 2969 
z
M 947 1747 
Q 947 1113 1208 752 
Q 1469 391 1925 391 
Q 2381 391 2643 752 
Q 2906 1113 2906 1747 
Q 2906 2381 2643 2742 
Q 2381 3103 1925 3103 
Q 1469 3103 1208 2742 
Q 947 2381 947 1747 
z
" transform="scale(0.015625)"/>
      </defs>
      <use xlink:href="#DejaVuSans-43"/>
      <use xlink:href="#DejaVuSans-6f" transform="translate(69.824219 0)"/>
      <use xlink:href="#DejaVuSans-6e" transform="translate(131.005859 0)"/>
      <use xlink:href="#DejaVuSans-66" transform="translate(194.384766 0)"/>
      <use xlink:href="#DejaVuSans-69" transform="translate(229.589844 0)"/>
      <use xlink:href="#DejaVuSans-64" transform="translate(257.373047 0)"/>
      <use xlink:href="#DejaVuSans-65" transform="translate(320.849609 0)"/>
      <use xlink:href="#DejaVuSans-6e" transform="translate(382.373047 0)"/>
      <use xlink:href="#DejaVuSans-63" transform="translate(445.751953 0)"/>
      <use xlink:href="#DejaVuSans-65" transform="translate(500.732422 0)"/>
     </g>
    </g>
   </g>
   <g id="matplotlib.axis_8">
    <g id="ytick_19">
     <g id="line2d_91">
      <path d="M 49.710844 355.336 
L 217.854177 355.336 
" clip-path="url(#p495c1d8c28)" style="fill: none; stroke: #b0b0b0; stroke-opacity: 0.18; stroke-width: 0.6; stroke-linecap: square"/>
     </g>
     <g id="line2d_92">
      <g>
       <use xlink:href="#m8d6d4490dd" x="49.710844" y="355.336" style="stroke: #000000; stroke-width: 0.8"/>
      </g>
     </g>
     <g id="text_18">
      <!-- 0.0 -->
      <g transform="translate(29.988344 358.375375) scale(0.08 -0.08)">
       <use xlink:href="#DejaVuSans-30"/>
       <use xlink:href="#DejaVuSans-2e" transform="translate(63.623047 0)"/>
       <use xlink:href="#DejaVuSans-30" transform="translate(95.410156 0)"/>
      </g>
     </g>
    </g>
    <g id="ytick_20">
     <g id="line2d_93">
      <path d="M 49.710844 327.012 
L 217.854177 327.012 
" clip-path="url(#p495c1d8c28)" style="fill: none; stroke: #b0b0b0; stroke-opacity: 0.18; stroke-width: 0.6; stroke-linecap: square"/>
     </g>
     <g id="line2d_94">
      <g>
       <use xlink:href="#m8d6d4490dd" x="49.710844" y="327.012" style="stroke: #000000; stroke-width: 0.8"/>
      </g>
     </g>
     <g id="text_19">
      <!-- 0.2 -->
      <g transform="translate(29.988344 330.051375) scale(0.08 -0.08)">
       <use xlink:href="#DejaVuSans-30"/>
       <use xlink:href="#DejaVuSans-2e" transform="translate(63.623047 0)"/>
       <use xlink:href="#DejaVuSans-32" transform="translate(95.410156 0)"/>
      </g>
     </g>
    </g>
    <g id="ytick_21">
     <g id="line2d_95">
      <path d="M 49.710844 298.688 
L 217.854177 298.688 
" clip-path="url(#p495c1d8c28)" style="fill: none; stroke: #b0b0b0; stroke-opacity: 0.18; stroke-width: 0.6; stroke-linecap: square"/>
     </g>
     <g id="line2d_96">
      <g>
       <use xlink:href="#m8d6d4490dd" x="49.710844" y="298.688" style="stroke: #000000; stroke-width: 0.8"/>
      </g>
     </g>
     <g id="text_20">
      <!-- 0.4 -->
      <g transform="translate(29.988344 301.727375) scale(0.08 -0.08)">
       <use xlink:href="#DejaVuSans-30"/>
       <use xlink:href="#DejaVuSans-2e" transform="translate(63.623047 0)"/>
       <use xlink:href="#DejaVuSans-34" transform="translate(95.410156 0)"/>
      </g>
     </g>
    </g>
    <g id="ytick_22">
     <g id="line2d_97">
      <path d="M 49.710844 270.364 
L 217.854177 270.364 
" clip-path="url(#p495c1d8c28)" style="fill: none; stroke: #b0b0b0; stroke-opacity: 0.18; stroke-width: 0.6; stroke-linecap: square"/>
     </g>
     <g id="line2d_98">
      <g>
       <use xlink:href="#m8d6d4490dd" x="49.710844" y="270.364" style="stroke: #000000; stroke-width: 0.8"/>
      </g>
     </g>
     <g id="text_21">
      <!-- 0.6 -->
      <g transform="translate(29.988344 273.403375) scale(0.08 -0.08)">
       <use xlink:href="#DejaVuSans-30"/>
       <use xlink:href="#DejaVuSans-2e" transform="translate(63.623047 0)"/>
       <use xlink:href="#DejaVuSans-36" transform="translate(95.410156 0)"/>
      </g>
     </g>
    </g>
    <g id="ytick_23">
     <g id="line2d_99">
      <path d="M 49.710844 242.04 
L 217.854177 242.04 
" clip-path="url(#p495c1d8c28)" style="fill: none; stroke: #b0b0b0; stroke-opacity: 0.18; stroke-width: 0.6; stroke-linecap: square"/>
     </g>
     <g id="line2d_100">
      <g>
       <use xlink:href="#m8d6d4490dd" x="49.710844" y="242.04" style="stroke: #000000; stroke-width: 0.8"/>
      </g>
     </g>
     <g id="text_22">
      <!-- 0.8 -->
      <g transform="translate(29.988344 245.079375) scale(0.08 -0.08)">
       <use xlink:href="#DejaVuSans-30"/>
       <use xlink:href="#DejaVuSans-2e" transform="translate(63.623047 0)"/>
       <use xlink:href="#DejaVuSans-38" transform="translate(95.410156 0)"/>
      </g>
     </g>
    </g>
    <g id="ytick_24">
     <g id="line2d_101">
      <path d="M 49.710844 213.716 
L 217.854177 213.716 
" clip-path="url(#p495c1d8c28)" style="fill: none; stroke: #b0b0b0; stroke-opacity: 0.18; stroke-width: 0.6; stroke-linecap: square"/>
     </g>
     <g id="line2d_102">
      <g>
       <use xlink:href="#m8d6d4490dd" x="49.710844" y="213.716" style="stroke: #000000; stroke-width: 0.8"/>
      </g>
     </g>
     <g id="text_23">
      <!-- 1.0 -->
      <g transform="translate(29.988344 216.755375) scale(0.08 -0.08)">
       <use xlink:href="#DejaVuSans-31"/>
       <use xlink:href="#DejaVuSans-2e" transform="translate(63.623047 0)"/>
       <use xlink:href="#DejaVuSans-30" transform="translate(95.410156 0)"/>
      </g>
     </g>
    </g>
    <g id="text_24">
     <!-- Fine-tuned -->
     <g transform="translate(14.038594 308.376) rotate(-90) scale(0.09 -0.09)">
      <defs>
       <path id="DejaVuSans-46" d="M 628 4666 
L 3309 4666 
L 3309 4134 
L 1259 4134 
L 1259 2759 
L 3109 2759 
L 3109 2228 
L 1259 2228 
L 1259 0 
L 628 0 
L 628 4666 
z
" transform="scale(0.015625)"/>
      </defs>
      <use xlink:href="#DejaVuSans-46"/>
      <use xlink:href="#DejaVuSans-69" transform="translate(50.269531 0)"/>
      <use xlink:href="#DejaVuSans-6e" transform="translate(78.052734 0)"/>
      <use xlink:href="#DejaVuSans-65" transform="translate(141.431641 0)"/>
      <use xlink:href="#DejaVuSans-2d" transform="translate(202.955078 0)"/>
      <use xlink:href="#DejaVuSans-74" transform="translate(239.039062 0)"/>
      <use xlink:href="#DejaVuSans-75" transform="translate(278.248047 0)"/>
      <use xlink:href="#DejaVuSans-6e" transform="translate(341.626953 0)"/>
      <use xlink:href="#DejaVuSans-65" transform="translate(405.005859 0)"/>
      <use xlink:href="#DejaVuSans-64" transform="translate(466.529297 0)"/>
     </g>
     <!-- Accuracy -->
     <g transform="translate(24.116625 305.071312) rotate(-90) scale(0.09 -0.09)">
      <use xlink:href="#DejaVuSans-41"/>
      <use xlink:href="#DejaVuSans-63" transform="translate(66.658203 0)"/>
      <use xlink:href="#DejaVuSans-63" transform="translate(121.638672 0)"/>
      <use xlink:href="#DejaVuSans-75" transform="translate(176.619141 0)"/>
      <use xlink:href="#DejaVuSans-72" transform="translate(239.998047 0)"/>
      <use xlink:href="#DejaVuSans-61" transform="translate(281.111328 0)"/>
      <use xlink:href="#DejaVuSans-63" transform="translate(342.390625 0)"/>
      <use xlink:href="#DejaVuSans-79" transform="translate(397.371094 0)"/>
     </g>
    </g>
   </g>
   <g id="line2d_103">
    <path d="M 49.710844 355.336 
L 217.854177 213.716 
" clip-path="url(#p495c1d8c28)" style="fill: none; stroke-dasharray: 3.33,1.44; stroke-dashoffset: 0; stroke: #777777; stroke-width: 0.9"/>
   </g>
   <g id="line2d_104">
    <path d="M 140.742246 272.724333 
L 159.164801 270.364 
L 174.403443 227.878 
L 191.07681 263.283 
L 213.755835 225.0456 
" clip-path="url(#p495c1d8c28)" style="fill: none; stroke: #009e73; stroke-opacity: 0.9; stroke-width: 1.8; stroke-linecap: square"/>
   </g>
   <g id="patch_12">
    <path d="M 49.710844 355.336 
L 49.710844 213.716 
" style="fill: none; stroke: #000000; stroke-width: 0.8; stroke-linejoin: miter; stroke-linecap: square"/>
   </g>
   <g id="patch_13">
    <path d="M 49.710844 355.336 
L 217.854177 355.336 
" style="fill: none; stroke: #000000; stroke-width: 0.8; stroke-linejoin: miter; stroke-linecap: square"/>
   </g>
   <g id="PathCollection_4">
    <path d="M 140.742246 276.453923 
C 141.731345 276.453923 142.680065 276.06095 143.379464 275.361551 
C 144.078862 274.662153 144.471835 273.713432 144.471835 272.724333 
C 144.471835 271.735235 144.078862 270.786514 143.379464 270.087115 
C 142.680065 269.387717 141.731345 268.994744 140.742246 268.994744 
C 139.753147 268.994744 138.804426 269.387717 138.105028 270.087115 
C 137.40563 270.786514 137.012657 271.735235 137.012657 272.724333 
C 137.012657 273.713432 137.40563 274.662153 138.105028 275.361551 
C 138.804426 276.06095 139.753147 276.453923 140.742246 276.453923 
z
" style="fill: #009e73; fill-opacity: 0.9; stroke: #009e73; stroke-opacity: 0.9; stroke-width: 0.25"/>
    <path d="M 159.164801 273.643344 
C 160.034493 273.643344 160.868682 273.297812 161.483647 272.682847 
C 162.098613 272.067881 162.444145 271.233692 162.444145 270.364 
C 162.444145 269.494308 162.098613 268.660119 161.483647 268.045153 
C 160.868682 267.430188 160.034493 267.084656 159.164801 267.084656 
C 158.295109 267.084656 157.46092 267.430188 156.845954 268.045153 
C 156.230989 268.660119 155.885457 269.494308 155.885457 270.364 
C 155.885457 271.233692 156.230989 272.067881 156.845954 272.682847 
C 157.46092 273.297812 158.295109 273.643344 159.164801 273.643344 
z
" style="fill: #009e73; fill-opacity: 0.9; stroke: #009e73; stroke-opacity: 0.9; stroke-width: 0.25"/>
    <path d="M 174.403443 231.484688 
C 175.359948 231.484688 176.277406 231.104664 176.953757 230.428313 
C 177.630108 229.751962 178.010131 228.834505 178.010131 227.878 
C 178.010131 226.921495 177.630108 226.004038 176.953757 225.327687 
C 176.277406 224.651336 175.359948 224.271312 174.403443 224.271312 
C 173.446939 224.271312 172.529481 224.651336 171.85313 225.327687 
C 171.176779 226.004038 170.796756 226.921495 170.796756 227.878 
C 170.796756 228.834505 171.176779 229.751962 171.85313 230.428313 
C 172.529481 231.104664 173.446939 231.484688 174.403443 231.484688 
z
" style="fill: #009e73; fill-opacity: 0.9; stroke: #009e73; stroke-opacity: 0.9; stroke-width: 0.25"/>
    <path d="M 191.07681 267.468259 
C 192.186754 267.468259 193.251386 267.027274 194.036235 266.242425 
C 194.821084 265.457576 195.262069 264.392944 195.262069 263.283 
C 195.262069 262.173056 194.821084 261.108424 194.036235 260.323575 
C 193.251386 259.538726 192.186754 259.097741 191.07681 259.097741 
C 189.966866 259.097741 188.902234 259.538726 188.117385 260.323575 
C 187.332536 261.108424 186.891551 262.173056 186.891551 263.283 
C 186.891551 264.392944 187.332536 265.457576 188.117385 266.242425 
C 188.902234 267.027274 189.966866 267.468259 191.07681 267.468259 
z
" style="fill: #009e73; fill-opacity: 0.9; stroke: #009e73; stroke-opacity: 0.9; stroke-width: 0.25"/>
    <path d="M 213.755835 231.550327 
C 215.480909 231.550327 217.13556 230.864948 218.355371 229.645137 
C 219.575183 228.425325 220.260562 226.770674 220.260562 225.0456 
C 220.260562 223.320526 219.575183 221.665875 218.355371 220.446063 
C 217.13556 219.226252 215.480909 218.540873 213.755835 218.540873 
C 212.030761 218.540873 210.37611 219.226252 209.156298 220.446063 
C 207.936487 221.665875 207.251108 223.320526 207.251108 225.0456 
C 207.251108 226.770674 207.936487 228.425325 209.156298 229.645137 
C 210.37611 230.864948 212.030761 231.550327 213.755835 231.550327 
z
" style="fill: #009e73; fill-opacity: 0.9; stroke: #009e73; stroke-opacity: 0.9; stroke-width: 0.25"/>
   </g>
  </g>
  <g id="axes_5">
   <g id="patch_14">
    <path d="M 240.354177 355.336 
L 408.49751 355.336 
L 408.49751 213.716 
L 240.354177 213.716 
z
" style="fill: #ffffff"/>
   </g>
   <g id="matplotlib.axis_9">
    <g id="xtick_25">
     <g id="line2d_105">
      <path d="M 240.354177 355.336 
L 240.354177 213.716 
" clip-path="url(#p36c730aa0c)" style="fill: none; stroke: #b0b0b0; stroke-opacity: 0.18; stroke-width: 0.6; stroke-linecap: square"/>
     </g>
     <g id="line2d_106">
      <g>
       <use xlink:href="#m0f39b51935" x="240.354177" y="355.336" style="stroke: #000000; stroke-width: 0.8"/>
      </g>
     </g>
     <g id="text_25">
      <!-- 0.0 -->
      <g transform="translate(233.992927 368.41475) scale(0.08 -0.08)">
       <use xlink:href="#DejaVuSans-30"/>
       <use xlink:href="#DejaVuSans-2e" transform="translate(63.623047 0)"/>
       <use xlink:href="#DejaVuSans-30" transform="translate(95.410156 0)"/>
      </g>
     </g>
    </g>
    <g id="xtick_26">
     <g id="line2d_107">
      <path d="M 273.982844 355.336 
L 273.982844 213.716 
" clip-path="url(#p36c730aa0c)" style="fill: none; stroke: #b0b0b0; stroke-opacity: 0.18; stroke-width: 0.6; stroke-linecap: square"/>
     </g>
     <g id="line2d_108">
      <g>
       <use xlink:href="#m0f39b51935" x="273.982844" y="355.336" style="stroke: #000000; stroke-width: 0.8"/>
      </g>
     </g>
     <g id="text_26">
      <!-- 0.2 -->
      <g transform="translate(267.621594 368.41475) scale(0.08 -0.08)">
       <use xlink:href="#DejaVuSans-30"/>
       <use xlink:href="#DejaVuSans-2e" transform="translate(63.623047 0)"/>
       <use xlink:href="#DejaVuSans-32" transform="translate(95.410156 0)"/>
      </g>
     </g>
    </g>
    <g id="xtick_27">
     <g id="line2d_109">
      <path d="M 307.61151 355.336 
L 307.61151 213.716 
" clip-path="url(#p36c730aa0c)" style="fill: none; stroke: #b0b0b0; stroke-opacity: 0.18; stroke-width: 0.6; stroke-linecap: square"/>
     </g>
     <g id="line2d_110">
      <g>
       <use xlink:href="#m0f39b51935" x="307.61151" y="355.336" style="stroke: #000000; stroke-width: 0.8"/>
      </g>
     </g>
     <g id="text_27">
      <!-- 0.4 -->
      <g transform="translate(301.25026 368.41475) scale(0.08 -0.08)">
       <use xlink:href="#DejaVuSans-30"/>
       <use xlink:href="#DejaVuSans-2e" transform="translate(63.623047 0)"/>
       <use xlink:href="#DejaVuSans-34" transform="translate(95.410156 0)"/>
      </g>
     </g>
    </g>
    <g id="xtick_28">
     <g id="line2d_111">
      <path d="M 341.240177 355.336 
L 341.240177 213.716 
" clip-path="url(#p36c730aa0c)" style="fill: none; stroke: #b0b0b0; stroke-opacity: 0.18; stroke-width: 0.6; stroke-linecap: square"/>
     </g>
     <g id="line2d_112">
      <g>
       <use xlink:href="#m0f39b51935" x="341.240177" y="355.336" style="stroke: #000000; stroke-width: 0.8"/>
      </g>
     </g>
     <g id="text_28">
      <!-- 0.6 -->
      <g transform="translate(334.878927 368.41475) scale(0.08 -0.08)">
       <use xlink:href="#DejaVuSans-30"/>
       <use xlink:href="#DejaVuSans-2e" transform="translate(63.623047 0)"/>
       <use xlink:href="#DejaVuSans-36" transform="translate(95.410156 0)"/>
      </g>
     </g>
    </g>
    <g id="xtick_29">
     <g id="line2d_113">
      <path d="M 374.868844 355.336 
L 374.868844 213.716 
" clip-path="url(#p36c730aa0c)" style="fill: none; stroke: #b0b0b0; stroke-opacity: 0.18; stroke-width: 0.6; stroke-linecap: square"/>
     </g>
     <g id="line2d_114">
      <g>
       <use xlink:href="#m0f39b51935" x="374.868844" y="355.336" style="stroke: #000000; stroke-width: 0.8"/>
      </g>
     </g>
     <g id="text_29">
      <!-- 0.8 -->
      <g transform="translate(368.507594 368.41475) scale(0.08 -0.08)">
       <use xlink:href="#DejaVuSans-30"/>
       <use xlink:href="#DejaVuSans-2e" transform="translate(63.623047 0)"/>
       <use xlink:href="#DejaVuSans-38" transform="translate(95.410156 0)"/>
      </g>
     </g>
    </g>
    <g id="xtick_30">
     <g id="line2d_115">
      <path d="M 408.49751 355.336 
L 408.49751 213.716 
" clip-path="url(#p36c730aa0c)" style="fill: none; stroke: #b0b0b0; stroke-opacity: 0.18; stroke-width: 0.6; stroke-linecap: square"/>
     </g>
     <g id="line2d_116">
      <g>
       <use xlink:href="#m0f39b51935" x="408.49751" y="355.336" style="stroke: #000000; stroke-width: 0.8"/>
      </g>
     </g>
     <g id="text_30">
      <!-- 1.0 -->
      <g transform="translate(402.13626 368.41475) scale(0.08 -0.08)">
       <use xlink:href="#DejaVuSans-31"/>
       <use xlink:href="#DejaVuSans-2e" transform="translate(63.623047 0)"/>
       <use xlink:href="#DejaVuSans-30" transform="translate(95.410156 0)"/>
      </g>
     </g>
    </g>
    <g id="text_31">
     <!-- Confidence -->
     <g transform="translate(299.123187 380.917094) scale(0.09 -0.09)">
      <use xlink:href="#DejaVuSans-43"/>
      <use xlink:href="#DejaVuSans-6f" transform="translate(69.824219 0)"/>
      <use xlink:href="#DejaVuSans-6e" transform="translate(131.005859 0)"/>
      <use xlink:href="#DejaVuSans-66" transform="translate(194.384766 0)"/>
      <use xlink:href="#DejaVuSans-69" transform="translate(229.589844 0)"/>
      <use xlink:href="#DejaVuSans-64" transform="translate(257.373047 0)"/>
      <use xlink:href="#DejaVuSans-65" transform="translate(320.849609 0)"/>
      <use xlink:href="#DejaVuSans-6e" transform="translate(382.373047 0)"/>
      <use xlink:href="#DejaVuSans-63" transform="translate(445.751953 0)"/>
      <use xlink:href="#DejaVuSans-65" transform="translate(500.732422 0)"/>
     </g>
    </g>
   </g>
   <g id="matplotlib.axis_10">
    <g id="ytick_25">
     <g id="line2d_117">
      <path d="M 240.354177 355.336 
L 408.49751 355.336 
" clip-path="url(#p36c730aa0c)" style="fill: none; stroke: #b0b0b0; stroke-opacity: 0.18; stroke-width: 0.6; stroke-linecap: square"/>
     </g>
     <g id="line2d_118">
      <g>
       <use xlink:href="#m8d6d4490dd" x="240.354177" y="355.336" style="stroke: #000000; stroke-width: 0.8"/>
      </g>
     </g>
    </g>
    <g id="ytick_26">
     <g id="line2d_119">
      <path d="M 240.354177 327.012 
L 408.49751 327.012 
" clip-path="url(#p36c730aa0c)" style="fill: none; stroke: #b0b0b0; stroke-opacity: 0.18; stroke-width: 0.6; stroke-linecap: square"/>
     </g>
     <g id="line2d_120">
      <g>
       <use xlink:href="#m8d6d4490dd" x="240.354177" y="327.012" style="stroke: #000000; stroke-width: 0.8"/>
      </g>
     </g>
    </g>
    <g id="ytick_27">
     <g id="line2d_121">
      <path d="M 240.354177 298.688 
L 408.49751 298.688 
" clip-path="url(#p36c730aa0c)" style="fill: none; stroke: #b0b0b0; stroke-opacity: 0.18; stroke-width: 0.6; stroke-linecap: square"/>
     </g>
     <g id="line2d_122">
      <g>
       <use xlink:href="#m8d6d4490dd" x="240.354177" y="298.688" style="stroke: #000000; stroke-width: 0.8"/>
      </g>
     </g>
    </g>
    <g id="ytick_28">
     <g id="line2d_123">
      <path d="M 240.354177 270.364 
L 408.49751 270.364 
" clip-path="url(#p36c730aa0c)" style="fill: none; stroke: #b0b0b0; stroke-opacity: 0.18; stroke-width: 0.6; stroke-linecap: square"/>
     </g>
     <g id="line2d_124">
      <g>
       <use xlink:href="#m8d6d4490dd" x="240.354177" y="270.364" style="stroke: #000000; stroke-width: 0.8"/>
      </g>
     </g>
    </g>
    <g id="ytick_29">
     <g id="line2d_125">
      <path d="M 240.354177 242.04 
L 408.49751 242.04 
" clip-path="url(#p36c730aa0c)" style="fill: none; stroke: #b0b0b0; stroke-opacity: 0.18; stroke-width: 0.6; stroke-linecap: square"/>
     </g>
     <g id="line2d_126">
      <g>
       <use xlink:href="#m8d6d4490dd" x="240.354177" y="242.04" style="stroke: #000000; stroke-width: 0.8"/>
      </g>
     </g>
    </g>
    <g id="ytick_30">
     <g id="line2d_127">
      <path d="M 240.354177 213.716 
L 408.49751 213.716 
" clip-path="url(#p36c730aa0c)" style="fill: none; stroke: #b0b0b0; stroke-opacity: 0.18; stroke-width: 0.6; stroke-linecap: square"/>
     </g>
     <g id="line2d_128">
      <g>
       <use xlink:href="#m8d6d4490dd" x="240.354177" y="213.716" style="stroke: #000000; stroke-width: 0.8"/>
      </g>
     </g>
    </g>
   </g>
   <g id="line2d_129">
    <path d="M 240.354177 355.336 
L 408.49751 213.716 
" clip-path="url(#p36c730aa0c)" style="fill: none; stroke-dasharray: 3.33,1.44; stroke-dashoffset: 0; stroke: #777777; stroke-width: 0.9"/>
   </g>
   <g id="line2d_130">
    <path d="M 332.338838 286.810194 
L 348.749165 303.408667 
L 367.514268 260.922667 
L 385.070822 246.55542 
L 403.542495 251.991676 
" clip-path="url(#p36c730aa0c)" style="fill: none; stroke: #009e73; stroke-opacity: 0.9; stroke-width: 1.8; stroke-linecap: square"/>
   </g>
   <g id="patch_15">
    <path d="M 240.354177 355.336 
L 240.354177 213.716 
" style="fill: none; stroke: #000000; stroke-width: 0.8; stroke-linejoin: miter; stroke-linecap: square"/>
   </g>
   <g id="patch_16">
    <path d="M 240.354177 355.336 
L 408.49751 355.336 
" style="fill: none; stroke: #000000; stroke-width: 0.8; stroke-linejoin: miter; stroke-linecap: square"/>
   </g>
   <g id="PathCollection_5">
    <path d="M 332.338838 290.453806 
C 333.305136 290.453806 334.231986 290.069892 334.915261 289.386616 
C 335.598537 288.703341 335.982451 287.776491 335.982451 286.810194 
C 335.982451 285.843896 335.598537 284.917046 334.915261 284.233771 
C 334.231986 283.550495 333.305136 283.166581 332.338838 283.166581 
C 331.372541 283.166581 330.445691 283.550495 329.762415 284.233771 
C 329.07914 284.917046 328.695226 285.843896 328.695226 286.810194 
C 328.695226 287.776491 329.07914 288.703341 329.762415 289.386616 
C 330.445691 290.069892 331.372541 290.453806 332.338838 290.453806 
z
" style="fill: #009e73; fill-opacity: 0.9; stroke: #009e73; stroke-opacity: 0.9; stroke-width: 0.25"/>
    <path d="M 348.749165 307.031076 
C 349.709839 307.031076 350.631296 306.649396 351.310595 305.970097 
C 351.989895 305.290798 352.371575 304.369341 352.371575 303.408667 
C 352.371575 302.447993 351.989895 301.526536 351.310595 300.847237 
C 350.631296 300.167937 349.709839 299.786257 348.749165 299.786257 
C 347.788491 299.786257 346.867034 300.167937 346.187735 300.847237 
C 345.508436 301.526536 345.126756 302.447993 345.126756 303.408667 
C 345.126756 304.369341 345.508436 305.290798 346.187735 305.970097 
C 346.867034 306.649396 347.788491 307.031076 348.749165 307.031076 
z
" style="fill: #009e73; fill-opacity: 0.9; stroke: #009e73; stroke-opacity: 0.9; stroke-width: 0.25"/>
    <path d="M 367.514268 264.791851 
C 368.540387 264.791851 369.524618 264.384169 370.250194 263.658593 
C 370.97577 262.933017 371.383452 261.948786 371.383452 260.922667 
C 371.383452 259.896547 370.97577 258.912316 370.250194 258.18674 
C 369.524618 257.461164 368.540387 257.053482 367.514268 257.053482 
C 366.488148 257.053482 365.503917 257.461164 364.778341 258.18674 
C 364.052765 258.912316 363.645083 259.896547 363.645083 260.922667 
C 363.645083 261.948786 364.052765 262.933017 364.778341 263.658593 
C 365.503917 264.384169 366.488148 264.791851 367.514268 264.791851 
z
" style="fill: #009e73; fill-opacity: 0.9; stroke: #009e73; stroke-opacity: 0.9; stroke-width: 0.25"/>
    <path d="M 385.070822 250.929235 
C 386.230771 250.929235 387.343368 250.468382 388.163576 249.648174 
C 388.983784 248.827966 389.444636 247.715369 389.444636 246.55542 
C 389.444636 245.395471 388.983784 244.282874 388.163576 243.462666 
C 387.343368 242.642459 386.230771 242.181606 385.070822 242.181606 
C 383.910873 242.181606 382.798276 242.642459 381.978068 243.462666 
C 381.15786 244.282874 380.697008 245.395471 380.697008 246.55542 
C 380.697008 247.715369 381.15786 248.827966 381.978068 249.648174 
C 382.798276 250.468382 383.910873 250.929235 385.070822 250.929235 
z
" style="fill: #009e73; fill-opacity: 0.9; stroke: #009e73; stroke-opacity: 0.9; stroke-width: 0.25"/>
    <path d="M 403.542495 258.074553 
C 405.155693 258.074553 406.703036 257.433623 407.843739 256.29292 
C 408.984443 255.152216 409.625373 253.604874 409.625373 251.991676 
C 409.625373 250.378478 408.984443 248.831135 407.843739 247.690432 
C 406.703036 246.549728 405.155693 245.908798 403.542495 245.908798 
C 401.929297 245.908798 400.381954 246.549728 399.241251 247.690432 
C 398.100548 248.831135 397.459618 250.378478 397.459618 251.991676 
C 397.459618 253.604874 398.100548 255.152216 399.241251 256.29292 
C 400.381954 257.433623 401.929297 258.074553 403.542495 258.074553 
z
" style="fill: #009e73; fill-opacity: 0.9; stroke: #009e73; stroke-opacity: 0.9; stroke-width: 0.25"/>
   </g>
  </g>
  <g id="axes_6">
   <g id="patch_17">
    <path d="M 430.99751 355.336 
L 599.140844 355.336 
L 599.140844 213.716 
L 430.99751 213.716 
z
" style="fill: #ffffff"/>
   </g>
   <g id="matplotlib.axis_11">
    <g id="xtick_31">
     <g id="line2d_131">
      <path d="M 430.99751 355.336 
L 430.99751 213.716 
" clip-path="url(#p1709ad8769)" style="fill: none; stroke: #b0b0b0; stroke-opacity: 0.18; stroke-width: 0.6; stroke-linecap: square"/>
     </g>
     <g id="line2d_132">
      <g>
       <use xlink:href="#m0f39b51935" x="430.99751" y="355.336" style="stroke: #000000; stroke-width: 0.8"/>
      </g>
     </g>
     <g id="text_32">
      <!-- 0.0 -->
      <g transform="translate(424.63626 368.41475) scale(0.08 -0.08)">
       <use xlink:href="#DejaVuSans-30"/>
       <use xlink:href="#DejaVuSans-2e" transform="translate(63.623047 0)"/>
       <use xlink:href="#DejaVuSans-30" transform="translate(95.410156 0)"/>
      </g>
     </g>
    </g>
    <g id="xtick_32">
     <g id="line2d_133">
      <path d="M 464.626177 355.336 
L 464.626177 213.716 
" clip-path="url(#p1709ad8769)" style="fill: none; stroke: #b0b0b0; stroke-opacity: 0.18; stroke-width: 0.6; stroke-linecap: square"/>
     </g>
     <g id="line2d_134">
      <g>
       <use xlink:href="#m0f39b51935" x="464.626177" y="355.336" style="stroke: #000000; stroke-width: 0.8"/>
      </g>
     </g>
     <g id="text_33">
      <!-- 0.2 -->
      <g transform="translate(458.264927 368.41475) scale(0.08 -0.08)">
       <use xlink:href="#DejaVuSans-30"/>
       <use xlink:href="#DejaVuSans-2e" transform="translate(63.623047 0)"/>
       <use xlink:href="#DejaVuSans-32" transform="translate(95.410156 0)"/>
      </g>
     </g>
    </g>
    <g id="xtick_33">
     <g id="line2d_135">
      <path d="M 498.254844 355.336 
L 498.254844 213.716 
" clip-path="url(#p1709ad8769)" style="fill: none; stroke: #b0b0b0; stroke-opacity: 0.18; stroke-width: 0.6; stroke-linecap: square"/>
     </g>
     <g id="line2d_136">
      <g>
       <use xlink:href="#m0f39b51935" x="498.254844" y="355.336" style="stroke: #000000; stroke-width: 0.8"/>
      </g>
     </g>
     <g id="text_34">
      <!-- 0.4 -->
      <g transform="translate(491.893594 368.41475) scale(0.08 -0.08)">
       <use xlink:href="#DejaVuSans-30"/>
       <use xlink:href="#DejaVuSans-2e" transform="translate(63.623047 0)"/>
       <use xlink:href="#DejaVuSans-34" transform="translate(95.410156 0)"/>
      </g>
     </g>
    </g>
    <g id="xtick_34">
     <g id="line2d_137">
      <path d="M 531.88351 355.336 
L 531.88351 213.716 
" clip-path="url(#p1709ad8769)" style="fill: none; stroke: #b0b0b0; stroke-opacity: 0.18; stroke-width: 0.6; stroke-linecap: square"/>
     </g>
     <g id="line2d_138">
      <g>
       <use xlink:href="#m0f39b51935" x="531.88351" y="355.336" style="stroke: #000000; stroke-width: 0.8"/>
      </g>
     </g>
     <g id="text_35">
      <!-- 0.6 -->
      <g transform="translate(525.52226 368.41475) scale(0.08 -0.08)">
       <use xlink:href="#DejaVuSans-30"/>
       <use xlink:href="#DejaVuSans-2e" transform="translate(63.623047 0)"/>
       <use xlink:href="#DejaVuSans-36" transform="translate(95.410156 0)"/>
      </g>
     </g>
    </g>
    <g id="xtick_35">
     <g id="line2d_139">
      <path d="M 565.512177 355.336 
L 565.512177 213.716 
" clip-path="url(#p1709ad8769)" style="fill: none; stroke: #b0b0b0; stroke-opacity: 0.18; stroke-width: 0.6; stroke-linecap: square"/>
     </g>
     <g id="line2d_140">
      <g>
       <use xlink:href="#m0f39b51935" x="565.512177" y="355.336" style="stroke: #000000; stroke-width: 0.8"/>
      </g>
     </g>
     <g id="text_36">
      <!-- 0.8 -->
      <g transform="translate(559.150927 368.41475) scale(0.08 -0.08)">
       <use xlink:href="#DejaVuSans-30"/>
       <use xlink:href="#DejaVuSans-2e" transform="translate(63.623047 0)"/>
       <use xlink:href="#DejaVuSans-38" transform="translate(95.410156 0)"/>
      </g>
     </g>
    </g>
    <g id="xtick_36">
     <g id="line2d_141">
      <path d="M 599.140844 355.336 
L 599.140844 213.716 
" clip-path="url(#p1709ad8769)" style="fill: none; stroke: #b0b0b0; stroke-opacity: 0.18; stroke-width: 0.6; stroke-linecap: square"/>
     </g>
     <g id="line2d_142">
      <g>
       <use xlink:href="#m0f39b51935" x="599.140844" y="355.336" style="stroke: #000000; stroke-width: 0.8"/>
      </g>
     </g>
     <g id="text_37">
      <!-- 1.0 -->
      <g transform="translate(592.779594 368.41475) scale(0.08 -0.08)">
       <use xlink:href="#DejaVuSans-31"/>
       <use xlink:href="#DejaVuSans-2e" transform="translate(63.623047 0)"/>
       <use xlink:href="#DejaVuSans-30" transform="translate(95.410156 0)"/>
      </g>
     </g>
    </g>
    <g id="text_38">
     <!-- Confidence -->
     <g transform="translate(489.766521 380.917094) scale(0.09 -0.09)">
      <use xlink:href="#DejaVuSans-43"/>
      <use xlink:href="#DejaVuSans-6f" transform="translate(69.824219 0)"/>
      <use xlink:href="#DejaVuSans-6e" transform="translate(131.005859 0)"/>
      <use xlink:href="#DejaVuSans-66" transform="translate(194.384766 0)"/>
      <use xlink:href="#DejaVuSans-69" transform="translate(229.589844 0)"/>
      <use xlink:href="#DejaVuSans-64" transform="translate(257.373047 0)"/>
      <use xlink:href="#DejaVuSans-65" transform="translate(320.849609 0)"/>
      <use xlink:href="#DejaVuSans-6e" transform="translate(382.373047 0)"/>
      <use xlink:href="#DejaVuSans-63" transform="translate(445.751953 0)"/>
      <use xlink:href="#DejaVuSans-65" transform="translate(500.732422 0)"/>
     </g>
    </g>
   </g>
   <g id="matplotlib.axis_12">
    <g id="ytick_31">
     <g id="line2d_143">
      <path d="M 430.99751 355.336 
L 599.140844 355.336 
" clip-path="url(#p1709ad8769)" style="fill: none; stroke: #b0b0b0; stroke-opacity: 0.18; stroke-width: 0.6; stroke-linecap: square"/>
     </g>
     <g id="line2d_144">
      <g>
       <use xlink:href="#m8d6d4490dd" x="430.99751" y="355.336" style="stroke: #000000; stroke-width: 0.8"/>
      </g>
     </g>
    </g>
    <g id="ytick_32">
     <g id="line2d_145">
      <path d="M 430.99751 327.012 
L 599.140844 327.012 
" clip-path="url(#p1709ad8769)" style="fill: none; stroke: #b0b0b0; stroke-opacity: 0.18; stroke-width: 0.6; stroke-linecap: square"/>
     </g>
     <g id="line2d_146">
      <g>
       <use xlink:href="#m8d6d4490dd" x="430.99751" y="327.012" style="stroke: #000000; stroke-width: 0.8"/>
      </g>
     </g>
    </g>
    <g id="ytick_33">
     <g id="line2d_147">
      <path d="M 430.99751 298.688 
L 599.140844 298.688 
" clip-path="url(#p1709ad8769)" style="fill: none; stroke: #b0b0b0; stroke-opacity: 0.18; stroke-width: 0.6; stroke-linecap: square"/>
     </g>
     <g id="line2d_148">
      <g>
       <use xlink:href="#m8d6d4490dd" x="430.99751" y="298.688" style="stroke: #000000; stroke-width: 0.8"/>
      </g>
     </g>
    </g>
    <g id="ytick_34">
     <g id="line2d_149">
      <path d="M 430.99751 270.364 
L 599.140844 270.364 
" clip-path="url(#p1709ad8769)" style="fill: none; stroke: #b0b0b0; stroke-opacity: 0.18; stroke-width: 0.6; stroke-linecap: square"/>
     </g>
     <g id="line2d_150">
      <g>
       <use xlink:href="#m8d6d4490dd" x="430.99751" y="270.364" style="stroke: #000000; stroke-width: 0.8"/>
      </g>
     </g>
    </g>
    <g id="ytick_35">
     <g id="line2d_151">
      <path d="M 430.99751 242.04 
L 599.140844 242.04 
" clip-path="url(#p1709ad8769)" style="fill: none; stroke: #b0b0b0; stroke-opacity: 0.18; stroke-width: 0.6; stroke-linecap: square"/>
     </g>
     <g id="line2d_152">
      <g>
       <use xlink:href="#m8d6d4490dd" x="430.99751" y="242.04" style="stroke: #000000; stroke-width: 0.8"/>
      </g>
     </g>
    </g>
    <g id="ytick_36">
     <g id="line2d_153">
      <path d="M 430.99751 213.716 
L 599.140844 213.716 
" clip-path="url(#p1709ad8769)" style="fill: none; stroke: #b0b0b0; stroke-opacity: 0.18; stroke-width: 0.6; stroke-linecap: square"/>
     </g>
     <g id="line2d_154">
      <g>
       <use xlink:href="#m8d6d4490dd" x="430.99751" y="213.716" style="stroke: #000000; stroke-width: 0.8"/>
      </g>
     </g>
    </g>
   </g>
   <g id="line2d_155">
    <path d="M 430.99751 355.336 
L 599.140844 213.716 
" clip-path="url(#p1709ad8769)" style="fill: none; stroke-dasharray: 3.33,1.44; stroke-dashoffset: 0; stroke: #777777; stroke-width: 0.9"/>
   </g>
   <g id="line2d_156">
    <path d="M 524.463075 284.526 
L 540.867494 292.151692 
L 557.267368 282.82656 
L 575.365004 268.113086 
L 596.987611 234.13441 
" clip-path="url(#p1709ad8769)" style="fill: none; stroke: #009e73; stroke-opacity: 0.9; stroke-width: 1.8; stroke-linecap: square"/>
   </g>
   <g id="patch_18">
    <path d="M 430.99751 355.336 
L 430.99751 213.716 
" style="fill: none; stroke: #000000; stroke-width: 0.8; stroke-linejoin: miter; stroke-linecap: square"/>
   </g>
   <g id="patch_19">
    <path d="M 430.99751 355.336 
L 599.140844 355.336 
" style="fill: none; stroke: #000000; stroke-width: 0.8; stroke-linejoin: miter; stroke-linecap: square"/>
   </g>
   <g id="PathCollection_6">
    <path d="M 524.463075 287.852125 
C 525.345174 287.852125 526.191263 287.501663 526.815 286.877925 
C 527.438738 286.254188 527.7892 285.408099 527.7892 284.526 
C 527.7892 283.643901 527.438738 282.797812 526.815 282.174075 
C 526.191263 281.550337 525.345174 281.199875 524.463075 281.199875 
C 523.580976 281.199875 522.734887 281.550337 522.11115 282.174075 
C 521.487412 282.797812 521.13695 283.643901 521.13695 284.526 
C 521.13695 285.408099 521.487412 286.254188 522.11115 286.877925 
C 522.734887 287.501663 523.580976 287.852125 524.463075 287.852125 
z
" style="fill: #009e73; fill-opacity: 0.9; stroke: #009e73; stroke-opacity: 0.9; stroke-width: 0.25"/>
    <path d="M 540.867494 295.350979 
C 541.715954 295.350979 542.529779 295.013882 543.129731 294.41393 
C 543.729683 293.813977 544.066781 293.000153 544.066781 292.151692 
C 544.066781 291.303231 543.729683 290.489407 543.129731 289.889455 
C 542.529779 289.289502 541.715954 288.952405 540.867494 288.952405 
C 540.019033 288.952405 539.205209 289.289502 538.605256 289.889455 
C 538.005304 290.489407 537.668207 291.303231 537.668207 292.151692 
C 537.668207 293.000153 538.005304 293.813977 538.605256 294.41393 
C 539.205209 295.013882 540.019033 295.350979 540.867494 295.350979 
z
" style="fill: #009e73; fill-opacity: 0.9; stroke: #009e73; stroke-opacity: 0.9; stroke-width: 0.25"/>
    <path d="M 557.267368 286.267109 
C 558.179812 286.267109 559.055008 285.904591 559.700203 285.259396 
C 560.345399 284.6142 560.707917 283.739004 560.707917 282.82656 
C 560.707917 281.914116 560.345399 281.03892 559.700203 280.393724 
C 559.055008 279.748529 558.179812 279.386011 557.267368 279.386011 
C 556.354923 279.386011 555.479728 279.748529 554.834532 280.393724 
C 554.189336 281.03892 553.826819 281.914116 553.826819 282.82656 
C 553.826819 283.739004 554.189336 284.6142 554.834532 285.259396 
C 555.479728 285.904591 556.354923 286.267109 557.267368 286.267109 
z
" style="fill: #009e73; fill-opacity: 0.9; stroke: #009e73; stroke-opacity: 0.9; stroke-width: 0.25"/>
    <path d="M 575.365004 271.65308 
C 576.303821 271.65308 577.204313 271.280083 577.868158 270.616239 
C 578.532002 269.952395 578.904998 269.051903 578.904998 268.113086 
C 578.904998 267.174269 578.532002 266.273777 577.868158 265.609933 
C 577.204313 264.946089 576.303821 264.573093 575.365004 264.573093 
C 574.426187 264.573093 573.525695 264.946089 572.861851 265.609933 
C 572.198007 266.273777 571.825011 267.174269 571.825011 268.113086 
C 571.825011 269.051903 572.198007 269.952395 572.861851 270.616239 
C 573.525695 271.280083 574.426187 271.65308 575.365004 271.65308 
z
" style="fill: #009e73; fill-opacity: 0.9; stroke: #009e73; stroke-opacity: 0.9; stroke-width: 0.25"/>
    <path d="M 596.987611 241.333891 
C 598.896936 241.333891 600.728316 240.575308 602.078413 239.225212 
C 603.428509 237.875116 604.187092 236.043735 604.187092 234.13441 
C 604.187092 232.225086 603.428509 230.393705 602.078413 229.043609 
C 600.728316 227.693512 598.896936 226.93493 596.987611 226.93493 
C 595.078286 226.93493 593.246906 227.693512 591.896809 229.043609 
C 590.546713 230.393705 589.78813 232.225086 589.78813 234.13441 
C 589.78813 236.043735 590.546713 237.875116 591.896809 239.225212 
C 593.246906 240.575308 595.078286 241.333891 596.987611 241.333891 
z
" style="fill: #009e73; fill-opacity: 0.9; stroke: #009e73; stroke-opacity: 0.9; stroke-width: 0.25"/>
   </g>
  </g>
  <g id="text_39">
   <!-- Reliability diagrams: SmolVLM -->
   <g transform="translate(214.809906 16.318125) scale(0.12 -0.12)">
    <defs>
     <path id="DejaVuSans-6c" d="M 603 4863 
L 1178 4863 
L 1178 0 
L 603 0 
L 603 4863 
z
" transform="scale(0.015625)"/>
     <path id="DejaVuSans-62" d="M 3116 1747 
Q 3116 2381 2855 2742 
Q 2594 3103 2138 3103 
Q 1681 3103 1420 2742 
Q 1159 2381 1159 1747 
Q 1159 1113 1420 752 
Q 1681 391 2138 391 
Q 2594 391 2855 752 
Q 3116 1113 3116 1747 
z
M 1159 2969 
Q 1341 3281 1617 3432 
Q 1894 3584 2278 3584 
Q 2916 3584 3314 3078 
Q 3713 2572 3713 1747 
Q 3713 922 3314 415 
Q 2916 -91 2278 -91 
Q 1894 -91 1617 61 
Q 1341 213 1159 525 
L 1159 0 
L 581 0 
L 581 4863 
L 1159 4863 
L 1159 2969 
z
" transform="scale(0.015625)"/>
     <path id="DejaVuSans-20" transform="scale(0.015625)"/>
     <path id="DejaVuSans-67" d="M 2906 1791 
Q 2906 2416 2648 2759 
Q 2391 3103 1925 3103 
Q 1463 3103 1205 2759 
Q 947 2416 947 1791 
Q 947 1169 1205 825 
Q 1463 481 1925 481 
Q 2391 481 2648 825 
Q 2906 1169 2906 1791 
z
M 3481 434 
Q 3481 -459 3084 -895 
Q 2688 -1331 1869 -1331 
Q 1566 -1331 1297 -1286 
Q 1028 -1241 775 -1147 
L 775 -588 
Q 1028 -725 1275 -790 
Q 1522 -856 1778 -856 
Q 2344 -856 2625 -561 
Q 2906 -266 2906 331 
L 2906 616 
Q 2728 306 2450 153 
Q 2172 0 1784 0 
Q 1141 0 747 490 
Q 353 981 353 1791 
Q 353 2603 747 3093 
Q 1141 3584 1784 3584 
Q 2172 3584 2450 3431 
Q 2728 3278 2906 2969 
L 2906 3500 
L 3481 3500 
L 3481 434 
z
" transform="scale(0.015625)"/>
     <path id="DejaVuSans-6d" d="M 3328 2828 
Q 3544 3216 3844 3400 
Q 4144 3584 4550 3584 
Q 5097 3584 5394 3201 
Q 5691 2819 5691 2113 
L 5691 0 
L 5113 0 
L 5113 2094 
Q 5113 2597 4934 2840 
Q 4756 3084 4391 3084 
Q 3944 3084 3684 2787 
Q 3425 2491 3425 1978 
L 3425 0 
L 2847 0 
L 2847 2094 
Q 2847 2600 2669 2842 
Q 2491 3084 2119 3084 
Q 1678 3084 1418 2786 
Q 1159 2488 1159 1978 
L 1159 0 
L 581 0 
L 581 3500 
L 1159 3500 
L 1159 2956 
Q 1356 3278 1631 3431 
Q 1906 3584 2284 3584 
Q 2666 3584 2933 3390 
Q 3200 3197 3328 2828 
z
" transform="scale(0.015625)"/>
     <path id="DejaVuSans-3a" d="M 750 794 
L 1409 794 
L 1409 0 
L 750 0 
L 750 794 
z
M 750 3309 
L 1409 3309 
L 1409 2516 
L 750 2516 
L 750 3309 
z
" transform="scale(0.015625)"/>
     <path id="DejaVuSans-4d" d="M 628 4666 
L 1569 4666 
L 2759 1491 
L 3956 4666 
L 4897 4666 
L 4897 0 
L 4281 0 
L 4281 4097 
L 3078 897 
L 2444 897 
L 1241 4097 
L 1241 0 
L 628 0 
L 628 4666 
z
" transform="scale(0.015625)"/>
    </defs>
    <use xlink:href="#DejaVuSans-52"/>
    <use xlink:href="#DejaVuSans-65" transform="translate(64.982422 0)"/>
    <use xlink:href="#DejaVuSans-6c" transform="translate(126.505859 0)"/>
    <use xlink:href="#DejaVuSans-69" transform="translate(154.289062 0)"/>
    <use xlink:href="#DejaVuSans-61" transform="translate(182.072266 0)"/>
    <use xlink:href="#DejaVuSans-62" transform="translate(243.351562 0)"/>
    <use xlink:href="#DejaVuSans-69" transform="translate(306.828125 0)"/>
    <use xlink:href="#DejaVuSans-6c" transform="translate(334.611328 0)"/>
    <use xlink:href="#DejaVuSans-69" transform="translate(362.394531 0)"/>
    <use xlink:href="#DejaVuSans-74" transform="translate(390.177734 0)"/>
    <use xlink:href="#DejaVuSans-79" transform="translate(429.386719 0)"/>
    <use xlink:href="#DejaVuSans-20" transform="translate(488.566406 0)"/>
    <use xlink:href="#DejaVuSans-64" transform="translate(520.353516 0)"/>
    <use xlink:href="#DejaVuSans-69" transform="translate(583.830078 0)"/>
    <use xlink:href="#DejaVuSans-61" transform="translate(611.613281 0)"/>
    <use xlink:href="#DejaVuSans-67" transform="translate(672.892578 0)"/>
    <use xlink:href="#DejaVuSans-72" transform="translate(736.369141 0)"/>
    <use xlink:href="#DejaVuSans-61" transform="translate(777.482422 0)"/>
    <use xlink:href="#DejaVuSans-6d" transform="translate(838.761719 0)"/>
    <use xlink:href="#DejaVuSans-73" transform="translate(936.173828 0)"/>
    <use xlink:href="#DejaVuSans-3a" transform="translate(988.273438 0)"/>
    <use xlink:href="#DejaVuSans-20" transform="translate(1021.964844 0)"/>
    <use xlink:href="#DejaVuSans-53" transform="translate(1053.751953 0)"/>
    <use xlink:href="#DejaVuSans-6d" transform="translate(1117.228516 0)"/>
    <use xlink:href="#DejaVuSans-6f" transform="translate(1214.640625 0)"/>
    <use xlink:href="#DejaVuSans-6c" transform="translate(1275.822266 0)"/>
    <use xlink:href="#DejaVuSans-56" transform="translate(1303.605469 0)"/>
    <use xlink:href="#DejaVuSans-4c" transform="translate(1372.013672 0)"/>
    <use xlink:href="#DejaVuSans-4d" transform="translate(1427.726562 0)"/>
   </g>
  </g>
 </g>
 <defs>
  <clipPath id="p5e854be64a">
   <rect x="49.710844" y="55.176" width="168.143333" height="141.62"/>
  </clipPath>
  <clipPath id="p9ab064d344">
   <rect x="240.354177" y="55.176" width="168.143333" height="141.62"/>
  </clipPath>
  <clipPath id="p3f55193686">
   <rect x="430.99751" y="55.176" width="168.143333" height="141.62"/>
  </clipPath>
  <clipPath id="p495c1d8c28">
   <rect x="49.710844" y="213.716" width="168.143333" height="141.62"/>
  </clipPath>
  <clipPath id="p36c730aa0c">
   <rect x="240.354177" y="213.716" width="168.143333" height="141.62"/>
  </clipPath>
  <clipPath id="p1709ad8769">
   <rect x="430.99751" y="213.716" width="168.143333" height="141.62"/>
  </clipPath>
 </defs>
</svg>
