<?xml version="1.0" encoding="utf-8" standalone="no"?>
<!DOCTYPE svg PUBLIC "-//W3C//DTD SVG 1.1//EN"
  "http://www.w3.org/Graphics/SVG/1.1/DTD/svg11.dtd">
<svg xmlns:xlink="http://www.w3.org/1999/xlink" width="612.702094pt" height="389.988812pt" viewBox="0 0 612.702094 389.988812" xmlns="http://www.w3.org/2000/svg" version="1.1">
 <metadata>
  <rdf:RDF xmlns:dc="http://purl.org/dc/elements/1.1/" xmlns:cc="http://creativecommons.org/ns#" xmlns:rdf="http://www.w3.org/1999/02/22-rdf-syntax-ns#">
   <cc:Work>
    <dc:type rdf:resource="http://purl.org/dc/dcmitype/StillImage"/>
    <dc:date>2026-06-19T21:22:46.643094</dc:date>
    <dc:format>image/svg+xml</dc:format>
    <dc:creator>
     <cc:Agent>
      <dc:title>Matplotlib v3.10.9, https://matplotlib.org/</dc:title>
     </cc:Agent>
    </dc:creator>
   </cc:Work>
  </rdf:RDF>
 </metadata>
 <defs>
  <style type="text/css">*{stroke-linejoin: round; stroke-linecap: butt}</style>
 </defs>
 <g id="figure_1">
  <g id="patch_1">
   <path d="M 0 389.988812 
L 612.702094 389.988812 
L 612.702094 0 
L 0 0 
z
" style="fill: #ffffff"/>
  </g>
  <g id="axes_1">
   <g id="patch_2">
    <path d="M 49.710844 196.796 
L 217.854177 196.796 
L 217.854177 55.176 
L 49.710844 55.176 
z
" style="fill: #ffffff"/>
   </g>
   <g id="matplotlib.axis_1">
    <g id="xtick_1">
     <g id="line2d_1">
      <path d="M 49.710844 196.796 
L 49.710844 55.176 
" clip-path="url(#pcaefbb6571)" style="fill: none; stroke: #b0b0b0; stroke-opacity: 0.18; stroke-width: 0.6; stroke-linecap: square"/>
     </g>
     <g id="line2d_2">
      <defs>
       <path id="m8e8697d2de" d="M 0 0 
L 0 3.5 
" style="stroke: #000000; stroke-width: 0.8"/>
      </defs>
      <g>
       <use xlink:href="#m8e8697d2de" x="49.710844" y="196.796" style="stroke: #000000; stroke-width: 0.8"/>
      </g>
     </g>
    </g>
    <g id="xtick_2">
     <g id="line2d_3">
      <path d="M 83.33951 196.796 
L 83.33951 55.176 
" clip-path="url(#pcaefbb6571)" style="fill: none; stroke: #b0b0b0; stroke-opacity: 0.18; stroke-width: 0.6; stroke-linecap: square"/>
     </g>
     <g id="line2d_4">
      <g>
       <use xlink:href="#m8e8697d2de" x="83.33951" y="196.796" style="stroke: #000000; stroke-width: 0.8"/>
      </g>
     </g>
    </g>
    <g id="xtick_3">
     <g id="line2d_5">
      <path d="M 116.968177 196.796 
L 116.968177 55.176 
" clip-path="url(#pcaefbb6571)" style="fill: none; stroke: #b0b0b0; stroke-opacity: 0.18; stroke-width: 0.6; stroke-linecap: square"/>
     </g>
     <g id="line2d_6">
      <g>
       <use xlink:href="#m8e8697d2de" x="116.968177" y="196.796" style="stroke: #000000; stroke-width: 0.8"/>
      </g>
     </g>
    </g>
    <g id="xtick_4">
     <g id="line2d_7">
      <path d="M 150.596844 196.796 
L 150.596844 55.176 
" clip-path="url(#pcaefbb6571)" style="fill: none; stroke: #b0b0b0; stroke-opacity: 0.18; stroke-width: 0.6; stroke-linecap: square"/>
     </g>
     <g id="line2d_8">
      <g>
       <use xlink:href="#m8e8697d2de" x="150.596844" y="196.796" style="stroke: #000000; stroke-width: 0.8"/>
      </g>
     </g>
    </g>
    <g id="xtick_5">
     <g id="line2d_9">
      <path d="M 184.22551 196.796 
L 184.22551 55.176 
" clip-path="url(#pcaefbb6571)" style="fill: none; stroke: #b0b0b0; stroke-opacity: 0.18; stroke-width: 0.6; stroke-linecap: square"/>
     </g>
     <g id="line2d_10">
      <g>
       <use xlink:href="#m8e8697d2de" x="184.22551" y="196.796" style="stroke: #000000; stroke-width: 0.8"/>
      </g>
     </g>
    </g>
    <g id="xtick_6">
     <g id="line2d_11">
      <path d="M 217.854177 196.796 
L 217.854177 55.176 
" clip-path="url(#pcaefbb6571)" style="fill: none; stroke: #b0b0b0; stroke-opacity: 0.18; stroke-width: 0.6; stroke-linecap: square"/>
     </g>
     <g id="line2d_12">
      <g>
       <use xlink:href="#m8e8697d2de" x="217.854177" y="196.796" style="stroke: #000000; stroke-width: 0.8"/>
      </g>
     </g>
    </g>
   </g>
   <g id="matplotlib.axis_2">
    <g id="ytick_1">
     <g id="line2d_13">
      <path d="M 49.710844 196.796 
L 217.854177 196.796 
" clip-path="url(#pcaefbb6571)" style="fill: none; stroke: #b0b0b0; stroke-opacity: 0.18; stroke-width: 0.6; stroke-linecap: square"/>
     </g>
     <g id="line2d_14">
      <defs>
       <path id="m0337e021d6" d="M 0 0 
L -3.5 0 
" style="stroke: #000000; stroke-width: 0.8"/>
      </defs>
      <g>
       <use xlink:href="#m0337e021d6" x="49.710844" y="196.796" style="stroke: #000000; stroke-width: 0.8"/>
      </g>
     </g>
     <g id="text_1">
      <!-- 0.0 -->
      <g transform="translate(29.988344 199.835375) scale(0.08 -0.08)">
       <defs>
        <path id="DejaVuSans-30" d="M 2034 4250 
Q 1547 4250 1301 3770 
Q 1056 3291 1056 2328 
Q 1056 1369 1301 889 
Q 1547 409 2034 409 
Q 2525 409 2770 889 
Q 3016 1369 3016 2328 
Q 3016 3291 2770 3770 
Q 2525 4250 2034 4250 
z
M 2034 4750 
Q 2819 4750 3233 4129 
Q 3647 3509 3647 2328 
Q 3647 1150 3233 529 
Q 2819 -91 2034 -91 
Q 1250 -91 836 529 
Q 422 1150 422 2328 
Q 422 3509 836 4129 
Q 1250 4750 2034 4750 
z
" transform="scale(0.015625)"/>
        <path id="DejaVuSans-2e" d="M 684 794 
L 1344 794 
L 1344 0 
L 684 0 
L 684 794 
z
" transform="scale(0.015625)"/>
       </defs>
       <use xlink:href="#DejaVuSans-30"/>
       <use xlink:href="#DejaVuSans-2e" transform="translate(63.623047 0)"/>
       <use xlink:href="#DejaVuSans-30" transform="translate(95.410156 0)"/>
      </g>
     </g>
    </g>
    <g id="ytick_2">
     <g id="line2d_15">
      <path d="M 49.710844 168.472 
L 217.854177 168.472 
" clip-path="url(#pcaefbb6571)" style="fill: none; stroke: #b0b0b0; stroke-opacity: 0.18; stroke-width: 0.6; stroke-linecap: square"/>
     </g>
     <g id="line2d_16">
      <g>
       <use xlink:href="#m0337e021d6" x="49.710844" y="168.472" style="stroke: #000000; stroke-width: 0.8"/>
      </g>
     </g>
     <g id="text_2">
      <!-- 0.2 -->
      <g transform="translate(29.988344 171.511375) scale(0.08 -0.08)">
       <defs>
        <path id="DejaVuSans-32" d="M 1228 531 
L 3431 531 
L 3431 0 
L 469 0 
L 469 531 
Q 828 903 1448 1529 
Q 2069 2156 2228 2338 
Q 2531 2678 2651 2914 
Q 2772 3150 2772 3378 
Q 2772 3750 2511 3984 
Q 2250 4219 1831 4219 
Q 1534 4219 1204 4116 
Q 875 4013 500 3803 
L 500 4441 
Q 881 4594 1212 4672 
Q 1544 4750 1819 4750 
Q 2544 4750 2975 4387 
Q 3406 4025 3406 3419 
Q 3406 3131 3298 2873 
Q 3191 2616 2906 2266 
Q 2828 2175 2409 1742 
Q 1991 1309 1228 531 
z
" transform="scale(0.015625)"/>
       </defs>
       <use xlink:href="#DejaVuSans-30"/>
       <use xlink:href="#DejaVuSans-2e" transform="translate(63.623047 0)"/>
       <use xlink:href="#DejaVuSans-32" transform="translate(95.410156 0)"/>
      </g>
     </g>
    </g>
    <g id="ytick_3">
     <g id="line2d_17">
      <path d="M 49.710844 140.148 
L 217.854177 140.148 
" clip-path="url(#pcaefbb6571)" style="fill: none; stroke: #b0b0b0; stroke-opacity: 0.18; stroke-width: 0.6; stroke-linecap: square"/>
     </g>
     <g id="line2d_18">
      <g>
       <use xlink:href="#m0337e021d6" x="49.710844" y="140.148" style="stroke: #000000; stroke-width: 0.8"/>
      </g>
     </g>
     <g id="text_3">
      <!-- 0.4 -->
      <g transform="translate(29.988344 143.187375) scale(0.08 -0.08)">
       <defs>
        <path id="DejaVuSans-34" d="M 2419 4116 
L 825 1625 
L 2419 1625 
L 2419 4116 
z
M 2253 4666 
L 3047 4666 
L 3047 1625 
L 3713 1625 
L 3713 1100 
L 3047 1100 
L 3047 0 
L 2419 0 
L 2419 1100 
L 313 1100 
L 313 1709 
L 2253 4666 
z
" transform="scale(0.015625)"/>
       </defs>
       <use xlink:href="#DejaVuSans-30"/>
       <use xlink:href="#DejaVuSans-2e" transform="translate(63.623047 0)"/>
       <use xlink:href="#DejaVuSans-34" transform="translate(95.410156 0)"/>
      </g>
     </g>
    </g>
    <g id="ytick_4">
     <g id="line2d_19">
      <path d="M 49.710844 111.824 
L 217.854177 111.824 
" clip-path="url(#pcaefbb6571)" style="fill: none; stroke: #b0b0b0; stroke-opacity: 0.18; stroke-width: 0.6; stroke-linecap: square"/>
     </g>
     <g id="line2d_20">
      <g>
       <use xlink:href="#m0337e021d6" x="49.710844" y="111.824" style="stroke: #000000; stroke-width: 0.8"/>
      </g>
     </g>
     <g id="text_4">
      <!-- 0.6 -->
      <g transform="translate(29.988344 114.863375) scale(0.08 -0.08)">
       <defs>
        <path id="DejaVuSans-36" d="M 2113 2584 
Q 1688 2584 1439 2293 
Q 1191 2003 1191 1497 
Q 1191 994 1439 701 
Q 1688 409 2113 409 
Q 2538 409 2786 701 
Q 3034 994 3034 1497 
Q 3034 2003 2786 2293 
Q 2538 2584 2113 2584 
z
M 3366 4563 
L 3366 3988 
Q 3128 4100 2886 4159 
Q 2644 4219 2406 4219 
Q 1781 4219 1451 3797 
Q 1122 3375 1075 2522 
Q 1259 2794 1537 2939 
Q 1816 3084 2150 3084 
Q 2853 3084 3261 2657 
Q 3669 2231 3669 1497 
Q 3669 778 3244 343 
Q 2819 -91 2113 -91 
Q 1303 -91 875 529 
Q 447 1150 447 2328 
Q 447 3434 972 4092 
Q 1497 4750 2381 4750 
Q 2619 4750 2861 4703 
Q 3103 4656 3366 4563 
z
" transform="scale(0.015625)"/>
       </defs>
       <use xlink:href="#DejaVuSans-30"/>
       <use xlink:href="#DejaVuSans-2e" transform="translate(63.623047 0)"/>
       <use xlink:href="#DejaVuSans-36" transform="translate(95.410156 0)"/>
      </g>
     </g>
    </g>
    <g id="ytick_5">
     <g id="line2d_21">
      <path d="M 49.710844 83.5 
L 217.854177 83.5 
" clip-path="url(#pcaefbb6571)" style="fill: none; stroke: #b0b0b0; stroke-opacity: 0.18; stroke-width: 0.6; stroke-linecap: square"/>
     </g>
     <g id="line2d_22">
      <g>
       <use xlink:href="#m0337e021d6" x="49.710844" y="83.5" style="stroke: #000000; stroke-width: 0.8"/>
      </g>
     </g>
     <g id="text_5">
      <!-- 0.8 -->
      <g transform="translate(29.988344 86.539375) scale(0.08 -0.08)">
       <defs>
        <path id="DejaVuSans-38" d="M 2034 2216 
Q 1584 2216 1326 1975 
Q 1069 1734 1069 1313 
Q 1069 891 1326 650 
Q 1584 409 2034 409 
Q 2484 409 2743 651 
Q 3003 894 3003 1313 
Q 3003 1734 2745 1975 
Q 2488 2216 2034 2216 
z
M 1403 2484 
Q 997 2584 770 2862 
Q 544 3141 544 3541 
Q 544 4100 942 4425 
Q 1341 4750 2034 4750 
Q 2731 4750 3128 4425 
Q 3525 4100 3525 3541 
Q 3525 3141 3298 2862 
Q 3072 2584 2669 2484 
Q 3125 2378 3379 2068 
Q 3634 1759 3634 1313 
Q 3634 634 3220 271 
Q 2806 -91 2034 -91 
Q 1263 -91 848 271 
Q 434 634 434 1313 
Q 434 1759 690 2068 
Q 947 2378 1403 2484 
z
M 1172 3481 
Q 1172 3119 1398 2916 
Q 1625 2713 2034 2713 
Q 2441 2713 2670 2916 
Q 2900 3119 2900 3481 
Q 2900 3844 2670 4047 
Q 2441 4250 2034 4250 
Q 1625 4250 1398 4047 
Q 1172 3844 1172 3481 
z
" transform="scale(0.015625)"/>
       </defs>
       <use xlink:href="#DejaVuSans-30"/>
       <use xlink:href="#DejaVuSans-2e" transform="translate(63.623047 0)"/>
       <use xlink:href="#DejaVuSans-38" transform="translate(95.410156 0)"/>
      </g>
     </g>
    </g>
    <g id="ytick_6">
     <g id="line2d_23">
      <path d="M 49.710844 55.176 
L 217.854177 55.176 
" clip-path="url(#pcaefbb6571)" style="fill: none; stroke: #b0b0b0; stroke-opacity: 0.18; stroke-width: 0.6; stroke-linecap: square"/>
     </g>
     <g id="line2d_24">
      <g>
       <use xlink:href="#m0337e021d6" x="49.710844" y="55.176" style="stroke: #000000; stroke-width: 0.8"/>
      </g>
     </g>
     <g id="text_6">
      <!-- 1.0 -->
      <g transform="translate(29.988344 58.215375) scale(0.08 -0.08)">
       <defs>
        <path id="DejaVuSans-31" d="M 794 531 
L 1825 531 
L 1825 4091 
L 703 3866 
L 703 4441 
L 1819 4666 
L 2450 4666 
L 2450 531 
L 3481 531 
L 3481 0 
L 794 0 
L 794 531 
z
" transform="scale(0.015625)"/>
       </defs>
       <use xlink:href="#DejaVuSans-31"/>
       <use xlink:href="#DejaVuSans-2e" transform="translate(63.623047 0)"/>
       <use xlink:href="#DejaVuSans-30" transform="translate(95.410156 0)"/>
      </g>
     </g>
    </g>
    <g id="text_7">
     <!-- Zero-shot -->
     <g transform="translate(14.038594 147.761078) rotate(-90) scale(0.09 -0.09)">
      <defs>
       <path id="DejaVuSans-5a" d="M 359 4666 
L 4025 4666 
L 4025 4184 
L 1075 531 
L 4097 531 
L 4097 0 
L 288 0 
L 288 481 
L 3238 4134 
L 359 4134 
L 359 4666 
z
" transform="scale(0.015625)"/>
       <path id="DejaVuSans-65" d="M 3597 1894 
L 3597 1613 
L 953 1613 
Q 991 1019 1311 708 
Q 1631 397 2203 397 
Q 2534 397 2845 478 
Q 3156 559 3463 722 
L 3463 178 
Q 3153 47 2828 -22 
Q 2503 -91 2169 -91 
Q 1331 -91 842 396 
Q 353 884 353 1716 
Q 353 2575 817 3079 
Q 1281 3584 2069 3584 
Q 2775 3584 3186 3129 
Q 3597 2675 3597 1894 
z
M 3022 2063 
Q 3016 2534 2758 2815 
Q 2500 3097 2075 3097 
Q 1594 3097 1305 2825 
Q 1016 2553 972 2059 
L 3022 2063 
z
" transform="scale(0.015625)"/>
       <path id="DejaVuSans-72" d="M 2631 2963 
Q 2534 3019 2420 3045 
Q 2306 3072 2169 3072 
Q 1681 3072 1420 2755 
Q 1159 2438 1159 1844 
L 1159 0 
L 581 0 
L 581 3500 
L 1159 3500 
L 1159 2956 
Q 1341 3275 1631 3429 
Q 1922 3584 2338 3584 
Q 2397 3584 2469 3576 
Q 2541 3569 2628 3553 
L 2631 2963 
z
" transform="scale(0.015625)"/>
       <path id="DejaVuSans-6f" d="M 1959 3097 
Q 1497 3097 1228 2736 
Q 959 2375 959 1747 
Q 959 1119 1226 758 
Q 1494 397 1959 397 
Q 2419 397 2687 759 
Q 2956 1122 2956 1747 
Q 2956 2369 2687 2733 
Q 2419 3097 1959 3097 
z
M 1959 3584 
Q 2709 3584 3137 3096 
Q 3566 2609 3566 1747 
Q 3566 888 3137 398 
Q 2709 -91 1959 -91 
Q 1206 -91 779 398 
Q 353 888 353 1747 
Q 353 2609 779 3096 
Q 1206 3584 1959 3584 
z
" transform="scale(0.015625)"/>
       <path id="DejaVuSans-2d" d="M 313 2009 
L 1997 2009 
L 1997 1497 
L 313 1497 
L 313 2009 
z
" transform="scale(0.015625)"/>
       <path id="DejaVuSans-73" d="M 2834 3397 
L 2834 2853 
Q 2591 2978 2328 3040 
Q 2066 3103 1784 3103 
Q 1356 3103 1142 2972 
Q 928 2841 928 2578 
Q 928 2378 1081 2264 
Q 1234 2150 1697 2047 
L 1894 2003 
Q 2506 1872 2764 1633 
Q 3022 1394 3022 966 
Q 3022 478 2636 193 
Q 2250 -91 1575 -91 
Q 1294 -91 989 -36 
Q 684 19 347 128 
L 347 722 
Q 666 556 975 473 
Q 1284 391 1588 391 
Q 1994 391 2212 530 
Q 2431 669 2431 922 
Q 2431 1156 2273 1281 
Q 2116 1406 1581 1522 
L 1381 1569 
Q 847 1681 609 1914 
Q 372 2147 372 2553 
Q 372 3047 722 3315 
Q 1072 3584 1716 3584 
Q 2034 3584 2315 3537 
Q 2597 3491 2834 3397 
z
" transform="scale(0.015625)"/>
       <path id="DejaVuSans-68" d="M 3513 2113 
L 3513 0 
L 2938 0 
L 2938 2094 
Q 2938 2591 2744 2837 
Q 2550 3084 2163 3084 
Q 1697 3084 1428 2787 
Q 1159 2491 1159 1978 
L 1159 0 
L 581 0 
L 581 4863 
L 1159 4863 
L 1159 2956 
Q 1366 3272 1645 3428 
Q 1925 3584 2291 3584 
Q 2894 3584 3203 3211 
Q 3513 2838 3513 2113 
z
" transform="scale(0.015625)"/>
       <path id="DejaVuSans-74" d="M 1172 4494 
L 1172 3500 
L 2356 3500 
L 2356 3053 
L 1172 3053 
L 1172 1153 
Q 1172 725 1289 603 
Q 1406 481 1766 481 
L 2356 481 
L 2356 0 
L 1766 0 
Q 1100 0 847 248 
Q 594 497 594 1153 
L 594 3053 
L 172 3053 
L 172 3500 
L 594 3500 
L 594 4494 
L 1172 4494 
z
" transform="scale(0.015625)"/>
      </defs>
      <use xlink:href="#DejaVuSans-5a"/>
      <use xlink:href="#DejaVuSans-65" transform="translate(68.505859 0)"/>
      <use xlink:href="#DejaVuSans-72" transform="translate(130.029297 0)"/>
      <use xlink:href="#DejaVuSans-6f" transform="translate(168.892578 0)"/>
      <use xlink:href="#DejaVuSans-2d" transform="translate(231.949219 0)"/>
      <use xlink:href="#DejaVuSans-73" transform="translate(268.033203 0)"/>
      <use xlink:href="#DejaVuSans-68" transform="translate(320.132812 0)"/>
      <use xlink:href="#DejaVuSans-6f" transform="translate(383.511719 0)"/>
      <use xlink:href="#DejaVuSans-74" transform="translate(444.693359 0)"/>
     </g>
     <!-- Accuracy -->
     <g transform="translate(24.116625 146.531312) rotate(-90) scale(0.09 -0.09)">
      <defs>
       <path id="DejaVuSans-41" d="M 2188 4044 
L 1331 1722 
L 3047 1722 
L 2188 4044 
z
M 1831 4666 
L 2547 4666 
L 4325 0 
L 3669 0 
L 3244 1197 
L 1141 1197 
L 716 0 
L 50 0 
L 1831 4666 
z
" transform="scale(0.015625)"/>
       <path id="DejaVuSans-63" d="M 3122 3366 
L 3122 2828 
Q 2878 2963 2633 3030 
Q 2388 3097 2138 3097 
Q 1578 3097 1268 2742 
Q 959 2388 959 1747 
Q 959 1106 1268 751 
Q 1578 397 2138 397 
Q 2388 397 2633 464 
Q 2878 531 3122 666 
L 3122 134 
Q 2881 22 2623 -34 
Q 2366 -91 2075 -91 
Q 1284 -91 818 406 
Q 353 903 353 1747 
Q 353 2603 823 3093 
Q 1294 3584 2113 3584 
Q 2378 3584 2631 3529 
Q 2884 3475 3122 3366 
z
" transform="scale(0.015625)"/>
       <path id="DejaVuSans-75" d="M 544 1381 
L 544 3500 
L 1119 3500 
L 1119 1403 
Q 1119 906 1312 657 
Q 1506 409 1894 409 
Q 2359 409 2629 706 
Q 2900 1003 2900 1516 
L 2900 3500 
L 3475 3500 
L 3475 0 
L 2900 0 
L 2900 538 
Q 2691 219 2414 64 
Q 2138 -91 1772 -91 
Q 1169 -91 856 284 
Q 544 659 544 1381 
z
M 1991 3584 
L 1991 3584 
z
" transform="scale(0.015625)"/>
       <path id="DejaVuSans-61" d="M 2194 1759 
Q 1497 1759 1228 1600 
Q 959 1441 959 1056 
Q 959 750 1161 570 
Q 1363 391 1709 391 
Q 2188 391 2477 730 
Q 2766 1069 2766 1631 
L 2766 1759 
L 2194 1759 
z
M 3341 1997 
L 3341 0 
L 2766 0 
L 2766 531 
Q 2569 213 2275 61 
Q 1981 -91 1556 -91 
Q 1019 -91 701 211 
Q 384 513 384 1019 
Q 384 1609 779 1909 
Q 1175 2209 1959 2209 
L 2766 2209 
L 2766 2266 
Q 2766 2663 2505 2880 
Q 2244 3097 1772 3097 
Q 1472 3097 1187 3025 
Q 903 2953 641 2809 
L 641 3341 
Q 956 3463 1253 3523 
Q 1550 3584 1831 3584 
Q 2591 3584 2966 3190 
Q 3341 2797 3341 1997 
z
" transform="scale(0.015625)"/>
       <path id="DejaVuSans-79" d="M 2059 -325 
Q 1816 -950 1584 -1140 
Q 1353 -1331 966 -1331 
L 506 -1331 
L 506 -850 
L 844 -850 
Q 1081 -850 1212 -737 
Q 1344 -625 1503 -206 
L 1606 56 
L 191 3500 
L 800 3500 
L 1894 763 
L 2988 3500 
L 3597 3500 
L 2059 -325 
z
" transform="scale(0.015625)"/>
      </defs>
      <use xlink:href="#DejaVuSans-41"/>
      <use xlink:href="#DejaVuSans-63" transform="translate(66.658203 0)"/>
      <use xlink:href="#DejaVuSans-63" transform="translate(121.638672 0)"/>
      <use xlink:href="#DejaVuSans-75" transform="translate(176.619141 0)"/>
      <use xlink:href="#DejaVuSans-72" transform="translate(239.998047 0)"/>
      <use xlink:href="#DejaVuSans-61" transform="translate(281.111328 0)"/>
      <use xlink:href="#DejaVuSans-63" transform="translate(342.390625 0)"/>
      <use xlink:href="#DejaVuSans-79" transform="translate(397.371094 0)"/>
     </g>
    </g>
   </g>
   <g id="line2d_25">
    <path d="M 49.710844 196.796 
L 217.854177 55.176 
" clip-path="url(#pcaefbb6571)" style="fill: none; stroke-dasharray: 3.33,1.44; stroke-dashoffset: 0; stroke: #777777; stroke-width: 0.9"/>
   </g>
   <g id="line2d_26">
    <path d="M 143.224678 118.660828 
L 158.351607 114.184333 
L 175.76301 91.892296 
L 194.924104 67.490783 
L 210.739174 55.176 
" clip-path="url(#pcaefbb6571)" style="fill: none; stroke: #666666; stroke-opacity: 0.9; stroke-width: 1.8; stroke-linecap: square"/>
   </g>
   <g id="patch_3">
    <path d="M 49.710844 196.796 
L 49.710844 55.176 
" style="fill: none; stroke: #000000; stroke-width: 0.8; stroke-linejoin: miter; stroke-linecap: square"/>
   </g>
   <g id="patch_4">
    <path d="M 49.710844 196.796 
L 217.854177 196.796 
" style="fill: none; stroke: #000000; stroke-width: 0.8; stroke-linejoin: miter; stroke-linecap: square"/>
   </g>
   <g id="PathCollection_1">
    <path d="M 143.224678 123.305585 
C 144.456482 123.305585 145.638 122.816184 146.509017 121.945167 
C 147.380034 121.07415 147.869435 119.892632 147.869435 118.660828 
C 147.869435 117.429024 147.380034 116.247505 146.509017 115.376488 
C 145.638 114.505471 144.456482 114.01607 143.224678 114.01607 
C 141.992874 114.01607 140.811355 114.505471 139.940338 115.376488 
C 139.069321 116.247505 138.57992 117.429024 138.57992 118.660828 
C 138.57992 119.892632 139.069321 121.07415 139.940338 121.945167 
C 140.811355 122.816184 141.992874 123.305585 143.224678 123.305585 
z
" style="fill: #666666; fill-opacity: 0.9; stroke: #666666; stroke-opacity: 0.9; stroke-width: 0.25"/>
    <path d="M 158.351607 118.579748 
C 159.517284 118.579748 160.635376 118.11662 161.459634 117.292361 
C 162.283893 116.468102 162.747021 115.350011 162.747021 114.184333 
C 162.747021 113.018656 162.283893 111.900564 161.459634 111.076306 
C 160.635376 110.252047 159.517284 109.788918 158.351607 109.788918 
C 157.185929 109.788918 156.067837 110.252047 155.243579 111.076306 
C 154.41932 111.900564 153.956192 113.018656 153.956192 114.184333 
C 153.956192 115.350011 154.41932 116.468102 155.243579 117.292361 
C 156.067837 118.11662 157.185929 118.579748 158.351607 118.579748 
z
" style="fill: #666666; fill-opacity: 0.9; stroke: #666666; stroke-opacity: 0.9; stroke-width: 0.25"/>
    <path d="M 175.76301 96.438958 
C 176.968799 96.438958 178.125364 95.959893 178.977985 95.107272 
C 179.830607 94.25465 180.309672 93.098085 180.309672 91.892296 
C 180.309672 90.686508 179.830607 89.529942 178.977985 88.677321 
C 178.125364 87.8247 176.968799 87.345635 175.76301 87.345635 
C 174.557221 87.345635 173.400656 87.8247 172.548035 88.677321 
C 171.695413 89.529942 171.216349 90.686508 171.216349 91.892296 
C 171.216349 93.098085 171.695413 94.25465 172.548035 95.107272 
C 173.400656 95.959893 174.557221 96.438958 175.76301 96.438958 
z
" style="fill: #666666; fill-opacity: 0.9; stroke: #666666; stroke-opacity: 0.9; stroke-width: 0.25"/>
    <path d="M 194.924104 71.834612 
C 196.076101 71.834612 197.18107 71.376919 197.995655 70.562334 
C 198.81024 69.747749 199.267933 68.64278 199.267933 67.490783 
C 199.267933 66.338786 198.81024 65.233816 197.995655 64.419231 
C 197.18107 63.604647 196.076101 63.146953 194.924104 63.146953 
C 193.772107 63.146953 192.667137 63.604647 191.852553 64.419231 
C 191.037968 65.233816 190.580274 66.338786 190.580274 67.490783 
C 190.580274 68.64278 191.037968 69.747749 191.852553 70.562334 
C 192.667137 71.376919 193.772107 71.834612 194.924104 71.834612 
z
" style="fill: #666666; fill-opacity: 0.9; stroke: #666666; stroke-opacity: 0.9; stroke-width: 0.25"/>
    <path d="M 210.739174 59.30705 
C 211.834742 59.30705 212.885585 58.871776 213.660268 58.097093 
C 214.434951 57.32241 214.870224 56.271567 214.870224 55.176 
C 214.870224 54.080433 214.434951 53.02959 213.660268 52.254907 
C 212.885585 51.480224 211.834742 51.04495 210.739174 51.04495 
C 209.643607 51.04495 208.592764 51.480224 207.818081 52.254907 
C 207.043398 53.02959 206.608125 54.080433 206.608125 55.176 
C 206.608125 56.271567 207.043398 57.32241 207.818081 58.097093 
C 208.592764 58.871776 209.643607 59.30705 210.739174 59.30705 
z
" style="fill: #666666; fill-opacity: 0.9; stroke: #666666; stroke-opacity: 0.9; stroke-width: 0.25"/>
   </g>
   <g id="text_8">
    <!-- VQA-RAD -->
    <g transform="translate(110.77001 49.176) scale(0.1 -0.1)">
     <defs>
      <path id="DejaVuSans-56" d="M 1831 0 
L 50 4666 
L 709 4666 
L 2188 738 
L 3669 4666 
L 4325 4666 
L 2547 0 
L 1831 0 
z
" transform="scale(0.015625)"/>
      <path id="DejaVuSans-51" d="M 2522 4238 
Q 1834 4238 1429 3725 
Q 1025 3213 1025 2328 
Q 1025 1447 1429 934 
Q 1834 422 2522 422 
Q 3209 422 3611 934 
Q 4013 1447 4013 2328 
Q 4013 3213 3611 3725 
Q 3209 4238 2522 4238 
z
M 3406 84 
L 4238 -825 
L 3475 -825 
L 2784 -78 
Q 2681 -84 2626 -87 
Q 2572 -91 2522 -91 
Q 1538 -91 948 567 
Q 359 1225 359 2328 
Q 359 3434 948 4092 
Q 1538 4750 2522 4750 
Q 3503 4750 4090 4092 
Q 4678 3434 4678 2328 
Q 4678 1516 4351 937 
Q 4025 359 3406 84 
z
" transform="scale(0.015625)"/>
      <path id="DejaVuSans-52" d="M 2841 2188 
Q 3044 2119 3236 1894 
Q 3428 1669 3622 1275 
L 4263 0 
L 3584 0 
L 2988 1197 
Q 2756 1666 2539 1819 
Q 2322 1972 1947 1972 
L 1259 1972 
L 1259 0 
L 628 0 
L 628 4666 
L 2053 4666 
Q 2853 4666 3247 4331 
Q 3641 3997 3641 3322 
Q 3641 2881 3436 2590 
Q 3231 2300 2841 2188 
z
M 1259 4147 
L 1259 2491 
L 2053 2491 
Q 2509 2491 2742 2702 
Q 2975 2913 2975 3322 
Q 2975 3731 2742 3939 
Q 2509 4147 2053 4147 
L 1259 4147 
z
" transform="scale(0.015625)"/>
      <path id="DejaVuSans-44" d="M 1259 4147 
L 1259 519 
L 2022 519 
Q 2988 519 3436 956 
Q 3884 1394 3884 2338 
Q 3884 3275 3436 3711 
Q 2988 4147 2022 4147 
L 1259 4147 
z
M 628 4666 
L 1925 4666 
Q 3281 4666 3915 4102 
Q 4550 3538 4550 2338 
Q 4550 1131 3912 565 
Q 3275 0 1925 0 
L 628 0 
L 628 4666 
z
" transform="scale(0.015625)"/>
     </defs>
     <use xlink:href="#DejaVuSans-56"/>
     <use xlink:href="#DejaVuSans-51" transform="translate(68.408203 0)"/>
     <use xlink:href="#DejaVuSans-41" transform="translate(147.119141 0)"/>
     <use xlink:href="#DejaVuSans-2d" transform="translate(213.277344 0)"/>
     <use xlink:href="#DejaVuSans-52" transform="translate(249.361328 0)"/>
     <use xlink:href="#DejaVuSans-41" transform="translate(314.84375 0)"/>
     <use xlink:href="#DejaVuSans-44" transform="translate(383.251953 0)"/>
    </g>
   </g>
  </g>
  <g id="axes_2">
   <g id="patch_5">
    <path d="M 240.354177 196.796 
L 408.49751 196.796 
L 408.49751 55.176 
L 240.354177 55.176 
z
" style="fill: #ffffff"/>
   </g>
   <g id="matplotlib.axis_3">
    <g id="xtick_7">
     <g id="line2d_27">
      <path d="M 240.354177 196.796 
L 240.354177 55.176 
" clip-path="url(#p9551b8a864)" style="fill: none; stroke: #b0b0b0; stroke-opacity: 0.18; stroke-width: 0.6; stroke-linecap: square"/>
     </g>
     <g id="line2d_28">
      <g>
       <use xlink:href="#m8e8697d2de" x="240.354177" y="196.796" style="stroke: #000000; stroke-width: 0.8"/>
      </g>
     </g>
    </g>
    <g id="xtick_8">
     <g id="line2d_29">
      <path d="M 273.982844 196.796 
L 273.982844 55.176 
" clip-path="url(#p9551b8a864)" style="fill: none; stroke: #b0b0b0; stroke-opacity: 0.18; stroke-width: 0.6; stroke-linecap: square"/>
     </g>
     <g id="line2d_30">
      <g>
       <use xlink:href="#m8e8697d2de" x="273.982844" y="196.796" style="stroke: #000000; stroke-width: 0.8"/>
      </g>
     </g>
    </g>
    <g id="xtick_9">
     <g id="line2d_31">
      <path d="M 307.61151 196.796 
L 307.61151 55.176 
" clip-path="url(#p9551b8a864)" style="fill: none; stroke: #b0b0b0; stroke-opacity: 0.18; stroke-width: 0.6; stroke-linecap: square"/>
     </g>
     <g id="line2d_32">
      <g>
       <use xlink:href="#m8e8697d2de" x="307.61151" y="196.796" style="stroke: #000000; stroke-width: 0.8"/>
      </g>
     </g>
    </g>
    <g id="xtick_10">
     <g id="line2d_33">
      <path d="M 341.240177 196.796 
L 341.240177 55.176 
" clip-path="url(#p9551b8a864)" style="fill: none; stroke: #b0b0b0; stroke-opacity: 0.18; stroke-width: 0.6; stroke-linecap: square"/>
     </g>
     <g id="line2d_34">
      <g>
       <use xlink:href="#m8e8697d2de" x="341.240177" y="196.796" style="stroke: #000000; stroke-width: 0.8"/>
      </g>
     </g>
    </g>
    <g id="xtick_11">
     <g id="line2d_35">
      <path d="M 374.868844 196.796 
L 374.868844 55.176 
" clip-path="url(#p9551b8a864)" style="fill: none; stroke: #b0b0b0; stroke-opacity: 0.18; stroke-width: 0.6; stroke-linecap: square"/>
     </g>
     <g id="line2d_36">
      <g>
       <use xlink:href="#m8e8697d2de" x="374.868844" y="196.796" style="stroke: #000000; stroke-width: 0.8"/>
      </g>
     </g>
    </g>
    <g id="xtick_12">
     <g id="line2d_37">
      <path d="M 408.49751 196.796 
L 408.49751 55.176 
" clip-path="url(#p9551b8a864)" style="fill: none; stroke: #b0b0b0; stroke-opacity: 0.18; stroke-width: 0.6; stroke-linecap: square"/>
     </g>
     <g id="line2d_38">
      <g>
       <use xlink:href="#m8e8697d2de" x="408.49751" y="196.796" style="stroke: #000000; stroke-width: 0.8"/>
      </g>
     </g>
    </g>
   </g>
   <g id="matplotlib.axis_4">
    <g id="ytick_7">
     <g id="line2d_39">
      <path d="M 240.354177 196.796 
L 408.49751 196.796 
" clip-path="url(#p9551b8a864)" style="fill: none; stroke: #b0b0b0; stroke-opacity: 0.18; stroke-width: 0.6; stroke-linecap: square"/>
     </g>
     <g id="line2d_40">
      <g>
       <use xlink:href="#m0337e021d6" x="240.354177" y="196.796" style="stroke: #000000; stroke-width: 0.8"/>
      </g>
     </g>
    </g>
    <g id="ytick_8">
     <g id="line2d_41">
      <path d="M 240.354177 168.472 
L 408.49751 168.472 
" clip-path="url(#p9551b8a864)" style="fill: none; stroke: #b0b0b0; stroke-opacity: 0.18; stroke-width: 0.6; stroke-linecap: square"/>
     </g>
     <g id="line2d_42">
      <g>
       <use xlink:href="#m0337e021d6" x="240.354177" y="168.472" style="stroke: #000000; stroke-width: 0.8"/>
      </g>
     </g>
    </g>
    <g id="ytick_9">
     <g id="line2d_43">
      <path d="M 240.354177 140.148 
L 408.49751 140.148 
" clip-path="url(#p9551b8a864)" style="fill: none; stroke: #b0b0b0; stroke-opacity: 0.18; stroke-width: 0.6; stroke-linecap: square"/>
     </g>
     <g id="line2d_44">
      <g>
       <use xlink:href="#m0337e021d6" x="240.354177" y="140.148" style="stroke: #000000; stroke-width: 0.8"/>
      </g>
     </g>
    </g>
    <g id="ytick_10">
     <g id="line2d_45">
      <path d="M 240.354177 111.824 
L 408.49751 111.824 
" clip-path="url(#p9551b8a864)" style="fill: none; stroke: #b0b0b0; stroke-opacity: 0.18; stroke-width: 0.6; stroke-linecap: square"/>
     </g>
     <g id="line2d_46">
      <g>
       <use xlink:href="#m0337e021d6" x="240.354177" y="111.824" style="stroke: #000000; stroke-width: 0.8"/>
      </g>
     </g>
    </g>
    <g id="ytick_11">
     <g id="line2d_47">
      <path d="M 240.354177 83.5 
L 408.49751 83.5 
" clip-path="url(#p9551b8a864)" style="fill: none; stroke: #b0b0b0; stroke-opacity: 0.18; stroke-width: 0.6; stroke-linecap: square"/>
     </g>
     <g id="line2d_48">
      <g>
       <use xlink:href="#m0337e021d6" x="240.354177" y="83.5" style="stroke: #000000; stroke-width: 0.8"/>
      </g>
     </g>
    </g>
    <g id="ytick_12">
     <g id="line2d_49">
      <path d="M 240.354177 55.176 
L 408.49751 55.176 
" clip-path="url(#p9551b8a864)" style="fill: none; stroke: #b0b0b0; stroke-opacity: 0.18; stroke-width: 0.6; stroke-linecap: square"/>
     </g>
     <g id="line2d_50">
      <g>
       <use xlink:href="#m0337e021d6" x="240.354177" y="55.176" style="stroke: #000000; stroke-width: 0.8"/>
      </g>
     </g>
    </g>
   </g>
   <g id="line2d_51">
    <path d="M 240.354177 196.796 
L 408.49751 55.176 
" clip-path="url(#p9551b8a864)" style="fill: none; stroke-dasharray: 3.33,1.44; stroke-dashoffset: 0; stroke: #777777; stroke-width: 0.9"/>
   </g>
   <g id="line2d_52">
    <path d="M 332.511094 132.72981 
L 350.485059 122.767364 
L 365.969913 94.69786 
L 383.845712 86.3324 
L 403.180044 71.08836 
" clip-path="url(#p9551b8a864)" style="fill: none; stroke: #666666; stroke-opacity: 0.9; stroke-width: 1.8; stroke-linecap: square"/>
   </g>
   <g id="patch_6">
    <path d="M 240.354177 196.796 
L 240.354177 55.176 
" style="fill: none; stroke: #000000; stroke-width: 0.8; stroke-linejoin: miter; stroke-linecap: square"/>
   </g>
   <g id="patch_7">
    <path d="M 240.354177 196.796 
L 408.49751 196.796 
" style="fill: none; stroke: #000000; stroke-width: 0.8; stroke-linejoin: miter; stroke-linecap: square"/>
   </g>
   <g id="PathCollection_2">
    <path d="M 332.511094 136.598994 
C 333.537214 136.598994 334.521445 136.191312 335.247021 135.465736 
C 335.972597 134.74016 336.380279 133.755929 336.380279 132.72981 
C 336.380279 131.70369 335.972597 130.719459 335.247021 129.993883 
C 334.521445 129.268307 333.537214 128.860625 332.511094 128.860625 
C 331.484975 128.860625 330.500744 129.268307 329.775168 129.993883 
C 329.049592 130.719459 328.64191 131.70369 328.64191 132.72981 
C 328.64191 133.755929 329.049592 134.74016 329.775168 135.465736 
C 330.500744 136.191312 331.484975 136.598994 332.511094 136.598994 
z
" style="fill: #666666; fill-opacity: 0.9; stroke: #666666; stroke-opacity: 0.9; stroke-width: 0.25"/>
    <path d="M 350.485059 126.676163 
C 351.521685 126.676163 352.515992 126.264307 353.248997 125.531302 
C 353.982002 124.798297 354.393858 123.803989 354.393858 122.767364 
C 354.393858 121.730738 353.982002 120.73643 353.248997 120.003425 
C 352.515992 119.27042 351.521685 118.858564 350.485059 118.858564 
C 349.448433 118.858564 348.454125 119.27042 347.72112 120.003425 
C 346.988115 120.73643 346.57626 121.730738 346.57626 122.767364 
C 346.57626 123.803989 346.988115 124.798297 347.72112 125.531302 
C 348.454125 126.264307 349.448433 126.676163 350.485059 126.676163 
z
" style="fill: #666666; fill-opacity: 0.9; stroke: #666666; stroke-opacity: 0.9; stroke-width: 0.25"/>
    <path d="M 365.969913 98.586903 
C 367.001299 98.586903 367.990581 98.177129 368.719882 97.447829 
C 369.449182 96.718529 369.858956 95.729247 369.858956 94.69786 
C 369.858956 93.666474 369.449182 92.677192 368.719882 91.947892 
C 367.990581 91.218592 367.001299 90.808818 365.969913 90.808818 
C 364.938527 90.808818 363.949245 91.218592 363.219945 91.947892 
C 362.490645 92.677192 362.080871 93.666474 362.080871 94.69786 
C 362.080871 95.729247 362.490645 96.718529 363.219945 97.447829 
C 363.949245 98.177129 364.938527 98.586903 365.969913 98.586903 
z
" style="fill: #666666; fill-opacity: 0.9; stroke: #666666; stroke-opacity: 0.9; stroke-width: 0.25"/>
    <path d="M 383.845712 90.357705 
C 384.913235 90.357705 385.937179 89.933574 386.692032 89.178721 
C 387.446885 88.423868 387.871017 87.399923 387.871017 86.3324 
C 387.871017 85.264877 387.446885 84.240932 386.692032 83.486079 
C 385.937179 82.731226 384.913235 82.307095 383.845712 82.307095 
C 382.778188 82.307095 381.754244 82.731226 380.999391 83.486079 
C 380.244538 84.240932 379.820407 85.264877 379.820407 86.3324 
C 379.820407 87.399923 380.244538 88.423868 380.999391 89.178721 
C 381.754244 89.933574 382.778188 90.357705 383.845712 90.357705 
z
" style="fill: #666666; fill-opacity: 0.9; stroke: #666666; stroke-opacity: 0.9; stroke-width: 0.25"/>
    <path d="M 403.180044 77.081937 
C 404.769559 77.081937 406.294186 76.450416 407.418143 75.326459 
C 408.5421 74.202502 409.173621 72.677875 409.173621 71.08836 
C 409.173621 69.498844 408.5421 67.974217 407.418143 66.85026 
C 406.294186 65.726303 404.769559 65.094782 403.180044 65.094782 
C 401.590529 65.094782 400.065902 65.726303 398.941945 66.85026 
C 397.817988 67.974217 397.186466 69.498844 397.186466 71.08836 
C 397.186466 72.677875 397.817988 74.202502 398.941945 75.326459 
C 400.065902 76.450416 401.590529 77.081937 403.180044 77.081937 
z
" style="fill: #666666; fill-opacity: 0.9; stroke: #666666; stroke-opacity: 0.9; stroke-width: 0.25"/>
   </g>
   <g id="text_9">
    <!-- SLAKE-en -->
    <g transform="translate(300.445375 49.176) scale(0.1 -0.1)">
     <defs>
      <path id="DejaVuSans-53" d="M 3425 4513 
L 3425 3897 
Q 3066 4069 2747 4153 
Q 2428 4238 2131 4238 
Q 1616 4238 1336 4038 
Q 1056 3838 1056 3469 
Q 1056 3159 1242 3001 
Q 1428 2844 1947 2747 
L 2328 2669 
Q 3034 2534 3370 2195 
Q 3706 1856 3706 1288 
Q 3706 609 3251 259 
Q 2797 -91 1919 -91 
Q 1588 -91 1214 -16 
Q 841 59 441 206 
L 441 856 
Q 825 641 1194 531 
Q 1563 422 1919 422 
Q 2459 422 2753 634 
Q 3047 847 3047 1241 
Q 3047 1584 2836 1778 
Q 2625 1972 2144 2069 
L 1759 2144 
Q 1053 2284 737 2584 
Q 422 2884 422 3419 
Q 422 4038 858 4394 
Q 1294 4750 2059 4750 
Q 2388 4750 2728 4690 
Q 3069 4631 3425 4513 
z
" transform="scale(0.015625)"/>
      <path id="DejaVuSans-4c" d="M 628 4666 
L 1259 4666 
L 1259 531 
L 3531 531 
L 3531 0 
L 628 0 
L 628 4666 
z
" transform="scale(0.015625)"/>
      <path id="DejaVuSans-4b" d="M 628 4666 
L 1259 4666 
L 1259 2694 
L 3353 4666 
L 4166 4666 
L 1850 2491 
L 4331 0 
L 3500 0 
L 1259 2247 
L 1259 0 
L 628 0 
L 628 4666 
z
" transform="scale(0.015625)"/>
      <path id="DejaVuSans-45" d="M 628 4666 
L 3578 4666 
L 3578 4134 
L 1259 4134 
L 1259 2753 
L 3481 2753 
L 3481 2222 
L 1259 2222 
L 1259 531 
L 3634 531 
L 3634 0 
L 628 0 
L 628 4666 
z
" transform="scale(0.015625)"/>
      <path id="DejaVuSans-6e" d="M 3513 2113 
L 3513 0 
L 2938 0 
L 2938 2094 
Q 2938 2591 2744 2837 
Q 2550 3084 2163 3084 
Q 1697 3084 1428 2787 
Q 1159 2491 1159 1978 
L 1159 0 
L 581 0 
L 581 3500 
L 1159 3500 
L 1159 2956 
Q 1366 3272 1645 3428 
Q 1925 3584 2291 3584 
Q 2894 3584 3203 3211 
Q 3513 2838 3513 2113 
z
" transform="scale(0.015625)"/>
     </defs>
     <use xlink:href="#DejaVuSans-53"/>
     <use xlink:href="#DejaVuSans-4c" transform="translate(63.476562 0)"/>
     <use xlink:href="#DejaVuSans-41" transform="translate(121.439453 0)"/>
     <use xlink:href="#DejaVuSans-4b" transform="translate(189.847656 0)"/>
     <use xlink:href="#DejaVuSans-45" transform="translate(255.423828 0)"/>
     <use xlink:href="#DejaVuSans-2d" transform="translate(318.607422 0)"/>
     <use xlink:href="#DejaVuSans-65" transform="translate(354.691406 0)"/>
     <use xlink:href="#DejaVuSans-6e" transform="translate(416.214844 0)"/>
    </g>
   </g>
  </g>
  <g id="axes_3">
   <g id="patch_8">
    <path d="M 430.99751 196.796 
L 599.140844 196.796 
L 599.140844 55.176 
L 430.99751 55.176 
z
" style="fill: #ffffff"/>
   </g>
   <g id="matplotlib.axis_5">
    <g id="xtick_13">
     <g id="line2d_53">
      <path d="M 430.99751 196.796 
L 430.99751 55.176 
" clip-path="url(#p5ed98ee1cb)" style="fill: none; stroke: #b0b0b0; stroke-opacity: 0.18; stroke-width: 0.6; stroke-linecap: square"/>
     </g>
     <g id="line2d_54">
      <g>
       <use xlink:href="#m8e8697d2de" x="430.99751" y="196.796" style="stroke: #000000; stroke-width: 0.8"/>
      </g>
     </g>
    </g>
    <g id="xtick_14">
     <g id="line2d_55">
      <path d="M 464.626177 196.796 
L 464.626177 55.176 
" clip-path="url(#p5ed98ee1cb)" style="fill: none; stroke: #b0b0b0; stroke-opacity: 0.18; stroke-width: 0.6; stroke-linecap: square"/>
     </g>
     <g id="line2d_56">
      <g>
       <use xlink:href="#m8e8697d2de" x="464.626177" y="196.796" style="stroke: #000000; stroke-width: 0.8"/>
      </g>
     </g>
    </g>
    <g id="xtick_15">
     <g id="line2d_57">
      <path d="M 498.254844 196.796 
L 498.254844 55.176 
" clip-path="url(#p5ed98ee1cb)" style="fill: none; stroke: #b0b0b0; stroke-opacity: 0.18; stroke-width: 0.6; stroke-linecap: square"/>
     </g>
     <g id="line2d_58">
      <g>
       <use xlink:href="#m8e8697d2de" x="498.254844" y="196.796" style="stroke: #000000; stroke-width: 0.8"/>
      </g>
     </g>
    </g>
    <g id="xtick_16">
     <g id="line2d_59">
      <path d="M 531.88351 196.796 
L 531.88351 55.176 
" clip-path="url(#p5ed98ee1cb)" style="fill: none; stroke: #b0b0b0; stroke-opacity: 0.18; stroke-width: 0.6; stroke-linecap: square"/>
     </g>
     <g id="line2d_60">
      <g>
       <use xlink:href="#m8e8697d2de" x="531.88351" y="196.796" style="stroke: #000000; stroke-width: 0.8"/>
      </g>
     </g>
    </g>
    <g id="xtick_17">
     <g id="line2d_61">
      <path d="M 565.512177 196.796 
L 565.512177 55.176 
" clip-path="url(#p5ed98ee1cb)" style="fill: none; stroke: #b0b0b0; stroke-opacity: 0.18; stroke-width: 0.6; stroke-linecap: square"/>
     </g>
     <g id="line2d_62">
      <g>
       <use xlink:href="#m8e8697d2de" x="565.512177" y="196.796" style="stroke: #000000; stroke-width: 0.8"/>
      </g>
     </g>
    </g>
    <g id="xtick_18">
     <g id="line2d_63">
      <path d="M 599.140844 196.796 
L 599.140844 55.176 
" clip-path="url(#p5ed98ee1cb)" style="fill: none; stroke: #b0b0b0; stroke-opacity: 0.18; stroke-width: 0.6; stroke-linecap: square"/>
     </g>
     <g id="line2d_64">
      <g>
       <use xlink:href="#m8e8697d2de" x="599.140844" y="196.796" style="stroke: #000000; stroke-width: 0.8"/>
      </g>
     </g>
    </g>
   </g>
   <g id="matplotlib.axis_6">
    <g id="ytick_13">
     <g id="line2d_65">
      <path d="M 430.99751 196.796 
L 599.140844 196.796 
" clip-path="url(#p5ed98ee1cb)" style="fill: none; stroke: #b0b0b0; stroke-opacity: 0.18; stroke-width: 0.6; stroke-linecap: square"/>
     </g>
     <g id="line2d_66">
      <g>
       <use xlink:href="#m0337e021d6" x="430.99751" y="196.796" style="stroke: #000000; stroke-width: 0.8"/>
      </g>
     </g>
    </g>
    <g id="ytick_14">
     <g id="line2d_67">
      <path d="M 430.99751 168.472 
L 599.140844 168.472 
" clip-path="url(#p5ed98ee1cb)" style="fill: none; stroke: #b0b0b0; stroke-opacity: 0.18; stroke-width: 0.6; stroke-linecap: square"/>
     </g>
     <g id="line2d_68">
      <g>
       <use xlink:href="#m0337e021d6" x="430.99751" y="168.472" style="stroke: #000000; stroke-width: 0.8"/>
      </g>
     </g>
    </g>
    <g id="ytick_15">
     <g id="line2d_69">
      <path d="M 430.99751 140.148 
L 599.140844 140.148 
" clip-path="url(#p5ed98ee1cb)" style="fill: none; stroke: #b0b0b0; stroke-opacity: 0.18; stroke-width: 0.6; stroke-linecap: square"/>
     </g>
     <g id="line2d_70">
      <g>
       <use xlink:href="#m0337e021d6" x="430.99751" y="140.148" style="stroke: #000000; stroke-width: 0.8"/>
      </g>
     </g>
    </g>
    <g id="ytick_16">
     <g id="line2d_71">
      <path d="M 430.99751 111.824 
L 599.140844 111.824 
" clip-path="url(#p5ed98ee1cb)" style="fill: none; stroke: #b0b0b0; stroke-opacity: 0.18; stroke-width: 0.6; stroke-linecap: square"/>
     </g>
     <g id="line2d_72">
      <g>
       <use xlink:href="#m0337e021d6" x="430.99751" y="111.824" style="stroke: #000000; stroke-width: 0.8"/>
      </g>
     </g>
    </g>
    <g id="ytick_17">
     <g id="line2d_73">
      <path d="M 430.99751 83.5 
L 599.140844 83.5 
" clip-path="url(#p5ed98ee1cb)" style="fill: none; stroke: #b0b0b0; stroke-opacity: 0.18; stroke-width: 0.6; stroke-linecap: square"/>
     </g>
     <g id="line2d_74">
      <g>
       <use xlink:href="#m0337e021d6" x="430.99751" y="83.5" style="stroke: #000000; stroke-width: 0.8"/>
      </g>
     </g>
    </g>
    <g id="ytick_18">
     <g id="line2d_75">
      <path d="M 430.99751 55.176 
L 599.140844 55.176 
" clip-path="url(#p5ed98ee1cb)" style="fill: none; stroke: #b0b0b0; stroke-opacity: 0.18; stroke-width: 0.6; stroke-linecap: square"/>
     </g>
     <g id="line2d_76">
      <g>
       <use xlink:href="#m0337e021d6" x="430.99751" y="55.176" style="stroke: #000000; stroke-width: 0.8"/>
      </g>
     </g>
    </g>
   </g>
   <g id="line2d_77">
    <path d="M 430.99751 196.796 
L 599.140844 55.176 
" clip-path="url(#p5ed98ee1cb)" style="fill: none; stroke-dasharray: 3.33,1.44; stroke-dashoffset: 0; stroke: #777777; stroke-width: 0.9"/>
   </g>
   <g id="line2d_78">
    <path d="M 523.369263 125.458878 
L 540.495968 119.61492 
L 557.49183 99.753724 
L 574.031773 86.304356 
L 590.260085 77.8352 
" clip-path="url(#p5ed98ee1cb)" style="fill: none; stroke: #666666; stroke-opacity: 0.9; stroke-width: 1.8; stroke-linecap: square"/>
   </g>
   <g id="patch_9">
    <path d="M 430.99751 196.796 
L 430.99751 55.176 
" style="fill: none; stroke: #000000; stroke-width: 0.8; stroke-linejoin: miter; stroke-linecap: square"/>
   </g>
   <g id="patch_10">
    <path d="M 430.99751 196.796 
L 599.140844 196.796 
" style="fill: none; stroke: #000000; stroke-width: 0.8; stroke-linejoin: miter; stroke-linecap: square"/>
   </g>
   <g id="PathCollection_3">
    <path d="M 523.369263 129.847467 
C 524.53313 129.847467 525.649485 129.385058 526.472464 128.562079 
C 527.295442 127.739101 527.757851 126.622746 527.757851 125.458878 
C 527.757851 124.295011 527.295442 123.178656 526.472464 122.355678 
C 525.649485 121.532699 524.53313 121.07029 523.369263 121.07029 
C 522.205396 121.07029 521.089041 121.532699 520.266062 122.355678 
C 519.443084 123.178656 518.980674 124.295011 518.980674 125.458878 
C 518.980674 126.622746 519.443084 127.739101 520.266062 128.562079 
C 521.089041 129.385058 522.205396 129.847467 523.369263 129.847467 
z
" style="fill: #666666; fill-opacity: 0.9; stroke: #666666; stroke-opacity: 0.9; stroke-width: 0.25"/>
    <path d="M 540.495968 123.960714 
C 541.648486 123.960714 542.753955 123.502814 543.568908 122.68786 
C 544.383862 121.872907 544.841762 120.767438 544.841762 119.61492 
C 544.841762 118.462402 544.383862 117.356933 543.568908 116.54198 
C 542.753955 115.727027 541.648486 115.269127 540.495968 115.269127 
C 539.34345 115.269127 538.237981 115.727027 537.423028 116.54198 
C 536.608075 117.356933 536.150174 118.462402 536.150174 119.61492 
C 536.150174 120.767438 536.608075 121.872907 537.423028 122.68786 
C 538.237981 123.502814 539.34345 123.960714 540.495968 123.960714 
z
" style="fill: #666666; fill-opacity: 0.9; stroke: #666666; stroke-opacity: 0.9; stroke-width: 0.25"/>
    <path d="M 557.49183 104.172626 
C 558.663736 104.172626 559.787802 103.707023 560.616466 102.87836 
C 561.445129 102.049697 561.910732 100.925631 561.910732 99.753724 
C 561.910732 98.581817 561.445129 97.457751 560.616466 96.629088 
C 559.787802 95.800425 558.663736 95.334822 557.49183 95.334822 
C 556.319923 95.334822 555.195857 95.800425 554.367194 96.629088 
C 553.538531 97.457751 553.072927 98.581817 553.072927 99.753724 
C 553.072927 100.925631 553.538531 102.049697 554.367194 102.87836 
C 555.195857 103.707023 556.319923 104.172626 557.49183 104.172626 
z
" style="fill: #666666; fill-opacity: 0.9; stroke: #666666; stroke-opacity: 0.9; stroke-width: 0.25"/>
    <path d="M 574.031773 90.992961 
C 575.275205 90.992961 576.467877 90.49894 577.347117 89.6197 
C 578.226356 88.740461 578.720377 87.547789 578.720377 86.304356 
C 578.720377 85.060924 578.226356 83.868252 577.347117 82.989013 
C 576.467877 82.109773 575.275205 81.615752 574.031773 81.615752 
C 572.78834 81.615752 571.595668 82.109773 570.716429 82.989013 
C 569.83719 83.868252 569.343169 85.060924 569.343169 86.304356 
C 569.343169 87.547789 569.83719 88.740461 570.716429 89.6197 
C 571.595668 90.49894 572.78834 90.992961 574.031773 90.992961 
z
" style="fill: #666666; fill-opacity: 0.9; stroke: #666666; stroke-opacity: 0.9; stroke-width: 0.25"/>
    <path d="M 590.260085 82.059494 
C 591.380381 82.059494 592.454943 81.614396 593.247112 80.822227 
C 594.039281 80.030058 594.484379 78.955496 594.484379 77.8352 
C 594.484379 76.714904 594.039281 75.640342 593.247112 74.848173 
C 592.454943 74.056004 591.380381 73.610906 590.260085 73.610906 
C 589.139789 73.610906 588.065227 74.056004 587.273058 74.848173 
C 586.48089 75.640342 586.035791 76.714904 586.035791 77.8352 
C 586.035791 78.955496 586.48089 80.030058 587.273058 80.822227 
C 588.065227 81.614396 589.139789 82.059494 590.260085 82.059494 
z
" style="fill: #666666; fill-opacity: 0.9; stroke: #666666; stroke-opacity: 0.9; stroke-width: 0.25"/>
   </g>
   <g id="text_10">
    <!-- PathVQA -->
    <g transform="translate(493.309802 49.176) scale(0.1 -0.1)">
     <defs>
      <path id="DejaVuSans-50" d="M 1259 4147 
L 1259 2394 
L 2053 2394 
Q 2494 2394 2734 2622 
Q 2975 2850 2975 3272 
Q 2975 3691 2734 3919 
Q 2494 4147 2053 4147 
L 1259 4147 
z
M 628 4666 
L 2053 4666 
Q 2838 4666 3239 4311 
Q 3641 3956 3641 3272 
Q 3641 2581 3239 2228 
Q 2838 1875 2053 1875 
L 1259 1875 
L 1259 0 
L 628 0 
L 628 4666 
z
" transform="scale(0.015625)"/>
     </defs>
     <use xlink:href="#DejaVuSans-50"/>
     <use xlink:href="#DejaVuSans-61" transform="translate(55.802734 0)"/>
     <use xlink:href="#DejaVuSans-74" transform="translate(117.082031 0)"/>
     <use xlink:href="#DejaVuSans-68" transform="translate(156.291016 0)"/>
     <use xlink:href="#DejaVuSans-56" transform="translate(219.669922 0)"/>
     <use xlink:href="#DejaVuSans-51" transform="translate(288.078125 0)"/>
     <use xlink:href="#DejaVuSans-41" transform="translate(366.789062 0)"/>
    </g>
   </g>
  </g>
  <g id="axes_4">
   <g id="patch_11">
    <path d="M 49.710844 355.336 
L 217.854177 355.336 
L 217.854177 213.716 
L 49.710844 213.716 
z
" style="fill: #ffffff"/>
   </g>
   <g id="matplotlib.axis_7">
    <g id="xtick_19">
     <g id="line2d_79">
      <path d="M 49.710844 355.336 
L 49.710844 213.716 
" clip-path="url(#p66cd39272e)" style="fill: none; stroke: #b0b0b0; stroke-opacity: 0.18; stroke-width: 0.6; stroke-linecap: square"/>
     </g>
     <g id="line2d_80">
      <g>
       <use xlink:href="#m8e8697d2de" x="49.710844" y="355.336" style="stroke: #000000; stroke-width: 0.8"/>
      </g>
     </g>
     <g id="text_11">
      <!-- 0.0 -->
      <g transform="translate(43.349594 368.41475) scale(0.08 -0.08)">
       <use xlink:href="#DejaVuSans-30"/>
       <use xlink:href="#DejaVuSans-2e" transform="translate(63.623047 0)"/>
       <use xlink:href="#DejaVuSans-30" transform="translate(95.410156 0)"/>
      </g>
     </g>
    </g>
    <g id="xtick_20">
     <g id="line2d_81">
      <path d="M 83.33951 355.336 
L 83.33951 213.716 
" clip-path="url(#p66cd39272e)" style="fill: none; stroke: #b0b0b0; stroke-opacity: 0.18; stroke-width: 0.6; stroke-linecap: square"/>
     </g>
     <g id="line2d_82">
      <g>
       <use xlink:href="#m8e8697d2de" x="83.33951" y="355.336" style="stroke: #000000; stroke-width: 0.8"/>
      </g>
     </g>
     <g id="text_12">
      <!-- 0.2 -->
      <g transform="translate(76.97826 368.41475) scale(0.08 -0.08)">
       <use xlink:href="#DejaVuSans-30"/>
       <use xlink:href="#DejaVuSans-2e" transform="translate(63.623047 0)"/>
       <use xlink:href="#DejaVuSans-32" transform="translate(95.410156 0)"/>
      </g>
     </g>
    </g>
    <g id="xtick_21">
     <g id="line2d_83">
      <path d="M 116.968177 355.336 
L 116.968177 213.716 
" clip-path="url(#p66cd39272e)" style="fill: none; stroke: #b0b0b0; stroke-opacity: 0.18; stroke-width: 0.6; stroke-linecap: square"/>
     </g>
     <g id="line2d_84">
      <g>
       <use xlink:href="#m8e8697d2de" x="116.968177" y="355.336" style="stroke: #000000; stroke-width: 0.8"/>
      </g>
     </g>
     <g id="text_13">
      <!-- 0.4 -->
      <g transform="translate(110.606927 368.41475) scale(0.08 -0.08)">
       <use xlink:href="#DejaVuSans-30"/>
       <use xlink:href="#DejaVuSans-2e" transform="translate(63.623047 0)"/>
       <use xlink:href="#DejaVuSans-34" transform="translate(95.410156 0)"/>
      </g>
     </g>
    </g>
    <g id="xtick_22">
     <g id="line2d_85">
      <path d="M 150.596844 355.336 
L 150.596844 213.716 
" clip-path="url(#p66cd39272e)" style="fill: none; stroke: #b0b0b0; stroke-opacity: 0.18; stroke-width: 0.6; stroke-linecap: square"/>
     </g>
     <g id="line2d_86">
      <g>
       <use xlink:href="#m8e8697d2de" x="150.596844" y="355.336" style="stroke: #000000; stroke-width: 0.8"/>
      </g>
     </g>
     <g id="text_14">
      <!-- 0.6 -->
      <g transform="translate(144.235594 368.41475) scale(0.08 -0.08)">
       <use xlink:href="#DejaVuSans-30"/>
       <use xlink:href="#DejaVuSans-2e" transform="translate(63.623047 0)"/>
       <use xlink:href="#DejaVuSans-36" transform="translate(95.410156 0)"/>
      </g>
     </g>
    </g>
    <g id="xtick_23">
     <g id="line2d_87">
      <path d="M 184.22551 355.336 
L 184.22551 213.716 
" clip-path="url(#p66cd39272e)" style="fill: none; stroke: #b0b0b0; stroke-opacity: 0.18; stroke-width: 0.6; stroke-linecap: square"/>
     </g>
     <g id="line2d_88">
      <g>
       <use xlink:href="#m8e8697d2de" x="184.22551" y="355.336" style="stroke: #000000; stroke-width: 0.8"/>
      </g>
     </g>
     <g id="text_15">
      <!-- 0.8 -->
      <g transform="translate(177.86426 368.41475) scale(0.08 -0.08)">
       <use xlink:href="#DejaVuSans-30"/>
       <use xlink:href="#DejaVuSans-2e" transform="translate(63.623047 0)"/>
       <use xlink:href="#DejaVuSans-38" transform="translate(95.410156 0)"/>
      </g>
     </g>
    </g>
    <g id="xtick_24">
     <g id="line2d_89">
      <path d="M 217.854177 355.336 
L 217.854177 213.716 
" clip-path="url(#p66cd39272e)" style="fill: none; stroke: #b0b0b0; stroke-opacity: 0.18; stroke-width: 0.6; stroke-linecap: square"/>
     </g>
     <g id="line2d_90">
      <g>
       <use xlink:href="#m8e8697d2de" x="217.854177" y="355.336" style="stroke: #000000; stroke-width: 0.8"/>
      </g>
     </g>
     <g id="text_16">
      <!-- 1.0 -->
      <g transform="translate(211.492927 368.41475) scale(0.08 -0.08)">
       <use xlink:href="#DejaVuSans-31"/>
       <use xlink:href="#DejaVuSans-2e" transform="translate(63.623047 0)"/>
       <use xlink:href="#DejaVuSans-30" transform="translate(95.410156 0)"/>
      </g>
     </g>
    </g>
    <g id="text_17">
     <!-- Confidence -->
     <g transform="translate(108.479854 380.917094) scale(0.09 -0.09)">
      <defs>
       <path id="DejaVuSans-43" d="M 4122 4306 
L 4122 3641 
Q 3803 3938 3442 4084 
Q 3081 4231 2675 4231 
Q 1875 4231 1450 3742 
Q 1025 3253 1025 2328 
Q 1025 1406 1450 917 
Q 1875 428 2675 428 
Q 3081 428 3442 575 
Q 3803 722 4122 1019 
L 4122 359 
Q 3791 134 3420 21 
Q 3050 -91 2638 -91 
Q 1578 -91 968 557 
Q 359 1206 359 2328 
Q 359 3453 968 4101 
Q 1578 4750 2638 4750 
Q 3056 4750 3426 4639 
Q 3797 4528 4122 4306 
z
" transform="scale(0.015625)"/>
       <path id="DejaVuSans-66" d="M 2375 4863 
L 2375 4384 
L 1825 4384 
Q 1516 4384 1395 4259 
Q 1275 4134 1275 3809 
L 1275 3500 
L 2222 3500 
L 2222 3053 
L 1275 3053 
L 1275 0 
L 697 0 
L 697 3053 
L 147 3053 
L 147 3500 
L 697 3500 
L 697 3744 
Q 697 4328 969 4595 
Q 1241 4863 1831 4863 
L 2375 4863 
z
" transform="scale(0.015625)"/>
       <path id="DejaVuSans-69" d="M 603 3500 
L 1178 3500 
L 1178 0 
L 603 0 
L 603 3500 
z
M 603 4863 
L 1178 4863 
L 1178 4134 
L 603 4134 
L 603 4863 
z
" transform="scale(0.015625)"/>
       <path id="DejaVuSans-64" d="M 2906 2969 
L 2906 4863 
L 3481 4863 
L 3481 0 
L 2906 0 
L 2906 525 
Q 2725 213 2448 61 
Q 2172 -91 1784 -91 
Q 1150 -91 751 415 
Q 353 922 353 1747 
Q 353 2572 751 3078 
Q 1150 3584 1784 3584 
Q 2172 3584 2448 3432 
Q 2725 3281 2906 2969 
z
M 947 1747 
Q 947 1113 1208 752 
Q 1469 391 1925 391 
Q 2381 391 2643 752 
Q 2906 1113 2906 1747 
Q 2906 2381 2643 2742 
Q 2381 3103 1925 3103 
Q 1469 3103 1208 2742 
Q 947 2381 947 1747 
z
" transform="scale(0.015625)"/>
      </defs>
      <use xlink:href="#DejaVuSans-43"/>
      <use xlink:href="#DejaVuSans-6f" transform="translate(69.824219 0)"/>
      <use xlink:href="#DejaVuSans-6e" transform="translate(131.005859 0)"/>
      <use xlink:href="#DejaVuSans-66" transform="translate(194.384766 0)"/>
      <use xlink:href="#DejaVuSans-69" transform="translate(229.589844 0)"/>
      <use xlink:href="#DejaVuSans-64" transform="translate(257.373047 0)"/>
      <use xlink:href="#DejaVuSans-65" transform="translate(320.849609 0)"/>
      <use xlink:href="#DejaVuSans-6e" transform="translate(382.373047 0)"/>
      <use xlink:href="#DejaVuSans-63" transform="translate(445.751953 0)"/>
      <use xlink:href="#DejaVuSans-65" transform="translate(500.732422 0)"/>
     </g>
    </g>
   </g>
   <g id="matplotlib.axis_8">
    <g id="ytick_19">
     <g id="line2d_91">
      <path d="M 49.710844 355.336 
L 217.854177 355.336 
" clip-path="url(#p66cd39272e)" style="fill: none; stroke: #b0b0b0; stroke-opacity: 0.18; stroke-width: 0.6; stroke-linecap: square"/>
     </g>
     <g id="line2d_92">
      <g>
       <use xlink:href="#m0337e021d6" x="49.710844" y="355.336" style="stroke: #000000; stroke-width: 0.8"/>
      </g>
     </g>
     <g id="text_18">
      <!-- 0.0 -->
      <g transform="translate(29.988344 358.375375) scale(0.08 -0.08)">
       <use xlink:href="#DejaVuSans-30"/>
       <use xlink:href="#DejaVuSans-2e" transform="translate(63.623047 0)"/>
       <use xlink:href="#DejaVuSans-30" transform="translate(95.410156 0)"/>
      </g>
     </g>
    </g>
    <g id="ytick_20">
     <g id="line2d_93">
      <path d="M 49.710844 327.012 
L 217.854177 327.012 
" clip-path="url(#p66cd39272e)" style="fill: none; stroke: #b0b0b0; stroke-opacity: 0.18; stroke-width: 0.6; stroke-linecap: square"/>
     </g>
     <g id="line2d_94">
      <g>
       <use xlink:href="#m0337e021d6" x="49.710844" y="327.012" style="stroke: #000000; stroke-width: 0.8"/>
      </g>
     </g>
     <g id="text_19">
      <!-- 0.2 -->
      <g transform="translate(29.988344 330.051375) scale(0.08 -0.08)">
       <use xlink:href="#DejaVuSans-30"/>
       <use xlink:href="#DejaVuSans-2e" transform="translate(63.623047 0)"/>
       <use xlink:href="#DejaVuSans-32" transform="translate(95.410156 0)"/>
      </g>
     </g>
    </g>
    <g id="ytick_21">
     <g id="line2d_95">
      <path d="M 49.710844 298.688 
L 217.854177 298.688 
" clip-path="url(#p66cd39272e)" style="fill: none; stroke: #b0b0b0; stroke-opacity: 0.18; stroke-width: 0.6; stroke-linecap: square"/>
     </g>
     <g id="line2d_96">
      <g>
       <use xlink:href="#m0337e021d6" x="49.710844" y="298.688" style="stroke: #000000; stroke-width: 0.8"/>
      </g>
     </g>
     <g id="text_20">
      <!-- 0.4 -->
      <g transform="translate(29.988344 301.727375) scale(0.08 -0.08)">
       <use xlink:href="#DejaVuSans-30"/>
       <use xlink:href="#DejaVuSans-2e" transform="translate(63.623047 0)"/>
       <use xlink:href="#DejaVuSans-34" transform="translate(95.410156 0)"/>
      </g>
     </g>
    </g>
    <g id="ytick_22">
     <g id="line2d_97">
      <path d="M 49.710844 270.364 
L 217.854177 270.364 
" clip-path="url(#p66cd39272e)" style="fill: none; stroke: #b0b0b0; stroke-opacity: 0.18; stroke-width: 0.6; stroke-linecap: square"/>
     </g>
     <g id="line2d_98">
      <g>
       <use xlink:href="#m0337e021d6" x="49.710844" y="270.364" style="stroke: #000000; stroke-width: 0.8"/>
      </g>
     </g>
     <g id="text_21">
      <!-- 0.6 -->
      <g transform="translate(29.988344 273.403375) scale(0.08 -0.08)">
       <use xlink:href="#DejaVuSans-30"/>
       <use xlink:href="#DejaVuSans-2e" transform="translate(63.623047 0)"/>
       <use xlink:href="#DejaVuSans-36" transform="translate(95.410156 0)"/>
      </g>
     </g>
    </g>
    <g id="ytick_23">
     <g id="line2d_99">
      <path d="M 49.710844 242.04 
L 217.854177 242.04 
" clip-path="url(#p66cd39272e)" style="fill: none; stroke: #b0b0b0; stroke-opacity: 0.18; stroke-width: 0.6; stroke-linecap: square"/>
     </g>
     <g id="line2d_100">
      <g>
       <use xlink:href="#m0337e021d6" x="49.710844" y="242.04" style="stroke: #000000; stroke-width: 0.8"/>
      </g>
     </g>
     <g id="text_22">
      <!-- 0.8 -->
      <g transform="translate(29.988344 245.079375) scale(0.08 -0.08)">
       <use xlink:href="#DejaVuSans-30"/>
       <use xlink:href="#DejaVuSans-2e" transform="translate(63.623047 0)"/>
       <use xlink:href="#DejaVuSans-38" transform="translate(95.410156 0)"/>
      </g>
     </g>
    </g>
    <g id="ytick_24">
     <g id="line2d_101">
      <path d="M 49.710844 213.716 
L 217.854177 213.716 
" clip-path="url(#p66cd39272e)" style="fill: none; stroke: #b0b0b0; stroke-opacity: 0.18; stroke-width: 0.6; stroke-linecap: square"/>
     </g>
     <g id="line2d_102">
      <g>
       <use xlink:href="#m0337e021d6" x="49.710844" y="213.716" style="stroke: #000000; stroke-width: 0.8"/>
      </g>
     </g>
     <g id="text_23">
      <!-- 1.0 -->
      <g transform="translate(29.988344 216.755375) scale(0.08 -0.08)">
       <use xlink:href="#DejaVuSans-31"/>
       <use xlink:href="#DejaVuSans-2e" transform="translate(63.623047 0)"/>
       <use xlink:href="#DejaVuSans-30" transform="translate(95.410156 0)"/>
      </g>
     </g>
    </g>
    <g id="text_24">
     <!-- Fine-tuned -->
     <g transform="translate(14.038594 308.376) rotate(-90) scale(0.09 -0.09)">
      <defs>
       <path id="DejaVuSans-46" d="M 628 4666 
L 3309 4666 
L 3309 4134 
L 1259 4134 
L 1259 2759 
L 3109 2759 
L 3109 2228 
L 1259 2228 
L 1259 0 
L 628 0 
L 628 4666 
z
" transform="scale(0.015625)"/>
      </defs>
      <use xlink:href="#DejaVuSans-46"/>
      <use xlink:href="#DejaVuSans-69" transform="translate(50.269531 0)"/>
      <use xlink:href="#DejaVuSans-6e" transform="translate(78.052734 0)"/>
      <use xlink:href="#DejaVuSans-65" transform="translate(141.431641 0)"/>
      <use xlink:href="#DejaVuSans-2d" transform="translate(202.955078 0)"/>
      <use xlink:href="#DejaVuSans-74" transform="translate(239.039062 0)"/>
      <use xlink:href="#DejaVuSans-75" transform="translate(278.248047 0)"/>
      <use xlink:href="#DejaVuSans-6e" transform="translate(341.626953 0)"/>
      <use xlink:href="#DejaVuSans-65" transform="translate(405.005859 0)"/>
      <use xlink:href="#DejaVuSans-64" transform="translate(466.529297 0)"/>
     </g>
     <!-- Accuracy -->
     <g transform="translate(24.116625 305.071312) rotate(-90) scale(0.09 -0.09)">
      <use xlink:href="#DejaVuSans-41"/>
      <use xlink:href="#DejaVuSans-63" transform="translate(66.658203 0)"/>
      <use xlink:href="#DejaVuSans-63" transform="translate(121.638672 0)"/>
      <use xlink:href="#DejaVuSans-75" transform="translate(176.619141 0)"/>
      <use xlink:href="#DejaVuSans-72" transform="translate(239.998047 0)"/>
      <use xlink:href="#DejaVuSans-61" transform="translate(281.111328 0)"/>
      <use xlink:href="#DejaVuSans-63" transform="translate(342.390625 0)"/>
      <use xlink:href="#DejaVuSans-79" transform="translate(397.371094 0)"/>
     </g>
    </g>
   </g>
   <g id="line2d_103">
    <path d="M 49.710844 355.336 
L 217.854177 213.716 
" clip-path="url(#p66cd39272e)" style="fill: none; stroke-dasharray: 3.33,1.44; stroke-dashoffset: 0; stroke: #777777; stroke-width: 0.9"/>
   </g>
   <g id="line2d_104">
    <path d="M 142.920228 266.8235 
L 157.319249 270.364 
L 177.403003 239.465091 
L 193.553744 225.517667 
L 213.664975 236.770419 
" clip-path="url(#p66cd39272e)" style="fill: none; stroke: #e69f00; stroke-opacity: 0.9; stroke-width: 1.8; stroke-linecap: square"/>
   </g>
   <g id="patch_12">
    <path d="M 49.710844 355.336 
L 49.710844 213.716 
" style="fill: none; stroke: #000000; stroke-width: 0.8; stroke-linejoin: miter; stroke-linecap: square"/>
   </g>
   <g id="patch_13">
    <path d="M 49.710844 355.336 
L 217.854177 355.336 
" style="fill: none; stroke: #000000; stroke-width: 0.8; stroke-linejoin: miter; stroke-linecap: square"/>
   </g>
   <g id="PathCollection_4">
    <path d="M 142.920228 270.302948 
C 143.842988 270.302948 144.728079 269.936331 145.380569 269.283841 
C 146.033059 268.631351 146.399676 267.74626 146.399676 266.8235 
C 146.399676 265.90074 146.033059 265.015649 145.380569 264.363159 
C 144.728079 263.710669 143.842988 263.344052 142.920228 263.344052 
C 141.997468 263.344052 141.112377 263.710669 140.459887 264.363159 
C 139.807397 265.015649 139.44078 265.90074 139.44078 266.8235 
C 139.44078 267.74626 139.807397 268.631351 140.459887 269.283841 
C 141.112377 269.936331 141.997468 270.302948 142.920228 270.302948 
z
" style="fill: #e69f00; fill-opacity: 0.9; stroke: #e69f00; stroke-opacity: 0.9; stroke-width: 0.25"/>
    <path d="M 157.319249 273.643344 
C 158.188941 273.643344 159.02313 273.297812 159.638095 272.682847 
C 160.25306 272.067881 160.598593 271.233692 160.598593 270.364 
C 160.598593 269.494308 160.25306 268.660119 159.638095 268.045153 
C 159.02313 267.430188 158.188941 267.084656 157.319249 267.084656 
C 156.449556 267.084656 155.615367 267.430188 155.000402 268.045153 
C 154.385437 268.660119 154.039904 269.494308 154.039904 270.364 
C 154.039904 271.233692 154.385437 272.067881 155.000402 272.682847 
C 155.615367 273.297812 156.449556 273.643344 157.319249 273.643344 
z
" style="fill: #e69f00; fill-opacity: 0.9; stroke: #e69f00; stroke-opacity: 0.9; stroke-width: 0.25"/>
    <path d="M 177.403003 243.133744 
C 178.375941 243.133744 179.309161 242.747192 179.997132 242.05922 
C 180.685103 241.371249 181.071656 240.438029 181.071656 239.465091 
C 181.071656 238.492153 180.685103 237.558933 179.997132 236.870961 
C 179.309161 236.18299 178.375941 235.796438 177.403003 235.796438 
C 176.430064 235.796438 175.496844 236.18299 174.808873 236.870961 
C 174.120902 237.558933 173.734349 238.492153 173.734349 239.465091 
C 173.734349 240.438029 174.120902 241.371249 174.808873 242.05922 
C 175.496844 242.747192 176.430064 243.133744 177.403003 243.133744 
z
" style="fill: #e69f00; fill-opacity: 0.9; stroke: #e69f00; stroke-opacity: 0.9; stroke-width: 0.25"/>
    <path d="M 193.553744 229.247256 
C 194.542842 229.247256 195.491563 228.854283 196.190962 228.154885 
C 196.89036 227.455486 197.283333 226.506765 197.283333 225.517667 
C 197.283333 224.528568 196.89036 223.579847 196.190962 222.880449 
C 195.491563 222.18105 194.542842 221.788077 193.553744 221.788077 
C 192.564645 221.788077 191.615924 222.18105 190.916526 222.880449 
C 190.217127 223.579847 189.824154 224.528568 189.824154 225.517667 
C 189.824154 226.506765 190.217127 227.455486 190.916526 228.154885 
C 191.615924 228.854283 192.564645 229.247256 193.553744 229.247256 
z
" style="fill: #e69f00; fill-opacity: 0.9; stroke: #e69f00; stroke-opacity: 0.9; stroke-width: 0.25"/>
    <path d="M 213.664975 243.645773 
C 215.48834 243.645773 217.237271 242.921342 218.526584 241.632028 
C 219.815898 240.342714 220.540329 238.593784 220.540329 236.770419 
C 220.540329 234.947053 219.815898 233.198123 218.526584 231.908809 
C 217.237271 230.619495 215.48834 229.895065 213.664975 229.895065 
C 211.84161 229.895065 210.09268 230.619495 208.803366 231.908809 
C 207.514052 233.198123 206.789621 234.947053 206.789621 236.770419 
C 206.789621 238.593784 207.514052 240.342714 208.803366 241.632028 
C 210.09268 242.921342 211.84161 243.645773 213.664975 243.645773 
z
" style="fill: #e69f00; fill-opacity: 0.9; stroke: #e69f00; stroke-opacity: 0.9; stroke-width: 0.25"/>
   </g>
  </g>
  <g id="axes_5">
   <g id="patch_14">
    <path d="M 240.354177 355.336 
L 408.49751 355.336 
L 408.49751 213.716 
L 240.354177 213.716 
z
" style="fill: #ffffff"/>
   </g>
   <g id="matplotlib.axis_9">
    <g id="xtick_25">
     <g id="line2d_105">
      <path d="M 240.354177 355.336 
L 240.354177 213.716 
" clip-path="url(#p1593193c11)" style="fill: none; stroke: #b0b0b0; stroke-opacity: 0.18; stroke-width: 0.6; stroke-linecap: square"/>
     </g>
     <g id="line2d_106">
      <g>
       <use xlink:href="#m8e8697d2de" x="240.354177" y="355.336" style="stroke: #000000; stroke-width: 0.8"/>
      </g>
     </g>
     <g id="text_25">
      <!-- 0.0 -->
      <g transform="translate(233.992927 368.41475) scale(0.08 -0.08)">
       <use xlink:href="#DejaVuSans-30"/>
       <use xlink:href="#DejaVuSans-2e" transform="translate(63.623047 0)"/>
       <use xlink:href="#DejaVuSans-30" transform="translate(95.410156 0)"/>
      </g>
     </g>
    </g>
    <g id="xtick_26">
     <g id="line2d_107">
      <path d="M 273.982844 355.336 
L 273.982844 213.716 
" clip-path="url(#p1593193c11)" style="fill: none; stroke: #b0b0b0; stroke-opacity: 0.18; stroke-width: 0.6; stroke-linecap: square"/>
     </g>
     <g id="line2d_108">
      <g>
       <use xlink:href="#m8e8697d2de" x="273.982844" y="355.336" style="stroke: #000000; stroke-width: 0.8"/>
      </g>
     </g>
     <g id="text_26">
      <!-- 0.2 -->
      <g transform="translate(267.621594 368.41475) scale(0.08 -0.08)">
       <use xlink:href="#DejaVuSans-30"/>
       <use xlink:href="#DejaVuSans-2e" transform="translate(63.623047 0)"/>
       <use xlink:href="#DejaVuSans-32" transform="translate(95.410156 0)"/>
      </g>
     </g>
    </g>
    <g id="xtick_27">
     <g id="line2d_109">
      <path d="M 307.61151 355.336 
L 307.61151 213.716 
" clip-path="url(#p1593193c11)" style="fill: none; stroke: #b0b0b0; stroke-opacity: 0.18; stroke-width: 0.6; stroke-linecap: square"/>
     </g>
     <g id="line2d_110">
      <g>
       <use xlink:href="#m8e8697d2de" x="307.61151" y="355.336" style="stroke: #000000; stroke-width: 0.8"/>
      </g>
     </g>
     <g id="text_27">
      <!-- 0.4 -->
      <g transform="translate(301.25026 368.41475) scale(0.08 -0.08)">
       <use xlink:href="#DejaVuSans-30"/>
       <use xlink:href="#DejaVuSans-2e" transform="translate(63.623047 0)"/>
       <use xlink:href="#DejaVuSans-34" transform="translate(95.410156 0)"/>
      </g>
     </g>
    </g>
    <g id="xtick_28">
     <g id="line2d_111">
      <path d="M 341.240177 355.336 
L 341.240177 213.716 
" clip-path="url(#p1593193c11)" style="fill: none; stroke: #b0b0b0; stroke-opacity: 0.18; stroke-width: 0.6; stroke-linecap: square"/>
     </g>
     <g id="line2d_112">
      <g>
       <use xlink:href="#m8e8697d2de" x="341.240177" y="355.336" style="stroke: #000000; stroke-width: 0.8"/>
      </g>
     </g>
     <g id="text_28">
      <!-- 0.6 -->
      <g transform="translate(334.878927 368.41475) scale(0.08 -0.08)">
       <use xlink:href="#DejaVuSans-30"/>
       <use xlink:href="#DejaVuSans-2e" transform="translate(63.623047 0)"/>
       <use xlink:href="#DejaVuSans-36" transform="translate(95.410156 0)"/>
      </g>
     </g>
    </g>
    <g id="xtick_29">
     <g id="line2d_113">
      <path d="M 374.868844 355.336 
L 374.868844 213.716 
" clip-path="url(#p1593193c11)" style="fill: none; stroke: #b0b0b0; stroke-opacity: 0.18; stroke-width: 0.6; stroke-linecap: square"/>
     </g>
     <g id="line2d_114">
      <g>
       <use xlink:href="#m8e8697d2de" x="374.868844" y="355.336" style="stroke: #000000; stroke-width: 0.8"/>
      </g>
     </g>
     <g id="text_29">
      <!-- 0.8 -->
      <g transform="translate(368.507594 368.41475) scale(0.08 -0.08)">
       <use xlink:href="#DejaVuSans-30"/>
       <use xlink:href="#DejaVuSans-2e" transform="translate(63.623047 0)"/>
       <use xlink:href="#DejaVuSans-38" transform="translate(95.410156 0)"/>
      </g>
     </g>
    </g>
    <g id="xtick_30">
     <g id="line2d_115">
      <path d="M 408.49751 355.336 
L 408.49751 213.716 
" clip-path="url(#p1593193c11)" style="fill: none; stroke: #b0b0b0; stroke-opacity: 0.18; stroke-width: 0.6; stroke-linecap: square"/>
     </g>
     <g id="line2d_116">
      <g>
       <use xlink:href="#m8e8697d2de" x="408.49751" y="355.336" style="stroke: #000000; stroke-width: 0.8"/>
      </g>
     </g>
     <g id="text_30">
      <!-- 1.0 -->
      <g transform="translate(402.13626 368.41475) scale(0.08 -0.08)">
       <use xlink:href="#DejaVuSans-31"/>
       <use xlink:href="#DejaVuSans-2e" transform="translate(63.623047 0)"/>
       <use xlink:href="#DejaVuSans-30" transform="translate(95.410156 0)"/>
      </g>
     </g>
    </g>
    <g id="text_31">
     <!-- Confidence -->
     <g transform="translate(299.123187 380.917094) scale(0.09 -0.09)">
      <use xlink:href="#DejaVuSans-43"/>
      <use xlink:href="#DejaVuSans-6f" transform="translate(69.824219 0)"/>
      <use xlink:href="#DejaVuSans-6e" transform="translate(131.005859 0)"/>
      <use xlink:href="#DejaVuSans-66" transform="translate(194.384766 0)"/>
      <use xlink:href="#DejaVuSans-69" transform="translate(229.589844 0)"/>
      <use xlink:href="#DejaVuSans-64" transform="translate(257.373047 0)"/>
      <use xlink:href="#DejaVuSans-65" transform="translate(320.849609 0)"/>
      <use xlink:href="#DejaVuSans-6e" transform="translate(382.373047 0)"/>
      <use xlink:href="#DejaVuSans-63" transform="translate(445.751953 0)"/>
      <use xlink:href="#DejaVuSans-65" transform="translate(500.732422 0)"/>
     </g>
    </g>
   </g>
   <g id="matplotlib.axis_10">
    <g id="ytick_25">
     <g id="line2d_117">
      <path d="M 240.354177 355.336 
L 408.49751 355.336 
" clip-path="url(#p1593193c11)" style="fill: none; stroke: #b0b0b0; stroke-opacity: 0.18; stroke-width: 0.6; stroke-linecap: square"/>
     </g>
     <g id="line2d_118">
      <g>
       <use xlink:href="#m0337e021d6" x="240.354177" y="355.336" style="stroke: #000000; stroke-width: 0.8"/>
      </g>
     </g>
    </g>
    <g id="ytick_26">
     <g id="line2d_119">
      <path d="M 240.354177 327.012 
L 408.49751 327.012 
" clip-path="url(#p1593193c11)" style="fill: none; stroke: #b0b0b0; stroke-opacity: 0.18; stroke-width: 0.6; stroke-linecap: square"/>
     </g>
     <g id="line2d_120">
      <g>
       <use xlink:href="#m0337e021d6" x="240.354177" y="327.012" style="stroke: #000000; stroke-width: 0.8"/>
      </g>
     </g>
    </g>
    <g id="ytick_27">
     <g id="line2d_121">
      <path d="M 240.354177 298.688 
L 408.49751 298.688 
" clip-path="url(#p1593193c11)" style="fill: none; stroke: #b0b0b0; stroke-opacity: 0.18; stroke-width: 0.6; stroke-linecap: square"/>
     </g>
     <g id="line2d_122">
      <g>
       <use xlink:href="#m0337e021d6" x="240.354177" y="298.688" style="stroke: #000000; stroke-width: 0.8"/>
      </g>
     </g>
    </g>
    <g id="ytick_28">
     <g id="line2d_123">
      <path d="M 240.354177 270.364 
L 408.49751 270.364 
" clip-path="url(#p1593193c11)" style="fill: none; stroke: #b0b0b0; stroke-opacity: 0.18; stroke-width: 0.6; stroke-linecap: square"/>
     </g>
     <g id="line2d_124">
      <g>
       <use xlink:href="#m0337e021d6" x="240.354177" y="270.364" style="stroke: #000000; stroke-width: 0.8"/>
      </g>
     </g>
    </g>
    <g id="ytick_29">
     <g id="line2d_125">
      <path d="M 240.354177 242.04 
L 408.49751 242.04 
" clip-path="url(#p1593193c11)" style="fill: none; stroke: #b0b0b0; stroke-opacity: 0.18; stroke-width: 0.6; stroke-linecap: square"/>
     </g>
     <g id="line2d_126">
      <g>
       <use xlink:href="#m0337e021d6" x="240.354177" y="242.04" style="stroke: #000000; stroke-width: 0.8"/>
      </g>
     </g>
    </g>
    <g id="ytick_30">
     <g id="line2d_127">
      <path d="M 240.354177 213.716 
L 408.49751 213.716 
" clip-path="url(#p1593193c11)" style="fill: none; stroke: #b0b0b0; stroke-opacity: 0.18; stroke-width: 0.6; stroke-linecap: square"/>
     </g>
     <g id="line2d_128">
      <g>
       <use xlink:href="#m0337e021d6" x="240.354177" y="213.716" style="stroke: #000000; stroke-width: 0.8"/>
      </g>
     </g>
    </g>
   </g>
   <g id="line2d_129">
    <path d="M 240.354177 355.336 
L 408.49751 213.716 
" clip-path="url(#p1593193c11)" style="fill: none; stroke-dasharray: 3.33,1.44; stroke-dashoffset: 0; stroke: #777777; stroke-width: 0.9"/>
   </g>
   <g id="line2d_130">
    <path d="M 334.102098 284.526 
L 349.863037 268.185231 
L 366.430756 263.283 
L 384.654162 268.185231 
L 405.911561 225.517667 
" clip-path="url(#p1593193c11)" style="fill: none; stroke: #e69f00; stroke-opacity: 0.9; stroke-width: 1.8; stroke-linecap: square"/>
   </g>
   <g id="patch_15">
    <path d="M 240.354177 355.336 
L 240.354177 213.716 
" style="fill: none; stroke: #000000; stroke-width: 0.8; stroke-linejoin: miter; stroke-linecap: square"/>
   </g>
   <g id="patch_16">
    <path d="M 240.354177 355.336 
L 408.49751 355.336 
" style="fill: none; stroke: #000000; stroke-width: 0.8; stroke-linejoin: miter; stroke-linecap: square"/>
   </g>
   <g id="PathCollection_5">
    <path d="M 334.102098 287.790485 
C 334.967849 287.790485 335.798258 287.446518 336.410437 286.83434 
C 337.022616 286.222161 337.366583 285.391752 337.366583 284.526 
C 337.366583 283.660248 337.022616 282.829839 336.410437 282.21766 
C 335.798258 281.605482 334.967849 281.261515 334.102098 281.261515 
C 333.236346 281.261515 332.405937 281.605482 331.793758 282.21766 
C 331.181579 282.829839 330.837613 283.660248 330.837613 284.526 
C 330.837613 285.391752 331.181579 286.222161 331.793758 286.83434 
C 332.405937 287.446518 333.236346 287.790485 334.102098 287.790485 
z
" style="fill: #e69f00; fill-opacity: 0.9; stroke: #e69f00; stroke-opacity: 0.9; stroke-width: 0.25"/>
    <path d="M 349.863037 271.426033 
C 350.722507 271.426033 351.546892 271.084562 352.15463 270.476824 
C 352.762368 269.869087 353.103839 269.044702 353.103839 268.185231 
C 353.103839 267.32576 352.762368 266.501375 352.15463 265.893637 
C 351.546892 265.2859 350.722507 264.944428 349.863037 264.944428 
C 349.003566 264.944428 348.179181 265.2859 347.571443 265.893637 
C 346.963705 266.501375 346.622234 267.32576 346.622234 268.185231 
C 346.622234 269.044702 346.963705 269.869087 347.571443 270.476824 
C 348.179181 271.084562 349.003566 271.426033 349.863037 271.426033 
z
" style="fill: #e69f00; fill-opacity: 0.9; stroke: #e69f00; stroke-opacity: 0.9; stroke-width: 0.25"/>
    <path d="M 366.430756 267.11216 
C 367.446261 267.11216 368.42031 266.708695 369.138381 265.990625 
C 369.856451 265.272554 370.259915 264.298505 370.259915 263.283 
C 370.259915 262.267495 369.856451 261.293446 369.138381 260.575375 
C 368.42031 259.857305 367.446261 259.45384 366.430756 259.45384 
C 365.415251 259.45384 364.441201 259.857305 363.723131 260.575375 
C 363.00506 261.293446 362.601596 262.267495 362.601596 263.283 
C 362.601596 264.298505 363.00506 265.272554 363.723131 265.990625 
C 364.441201 266.708695 365.415251 267.11216 366.430756 267.11216 
z
" style="fill: #e69f00; fill-opacity: 0.9; stroke: #e69f00; stroke-opacity: 0.9; stroke-width: 0.25"/>
    <path d="M 384.654162 271.721557 
C 385.592006 271.721557 386.491566 271.348947 387.154722 270.685791 
C 387.817878 270.022635 388.190488 269.123075 388.190488 268.185231 
C 388.190488 267.247386 387.817878 266.347827 387.154722 265.684671 
C 386.491566 265.021514 385.592006 264.648905 384.654162 264.648905 
C 383.716317 264.648905 382.816758 265.021514 382.153602 265.684671 
C 381.490445 266.347827 381.117836 267.247386 381.117836 268.185231 
C 381.117836 269.123075 381.490445 270.022635 382.153602 270.685791 
C 382.816758 271.348947 383.716317 271.721557 384.654162 271.721557 
z
" style="fill: #e69f00; fill-opacity: 0.9; stroke: #e69f00; stroke-opacity: 0.9; stroke-width: 0.25"/>
    <path d="M 405.911561 232.529961 
C 407.771243 232.529961 409.555008 231.791101 410.870002 230.476107 
C 412.184995 229.161114 412.923855 227.377349 412.923855 225.517667 
C 412.923855 223.657985 412.184995 221.87422 410.870002 220.559226 
C 409.555008 219.244232 407.771243 218.505373 405.911561 218.505373 
C 404.051879 218.505373 402.268114 219.244232 400.95312 220.559226 
C 399.638126 221.87422 398.899267 223.657985 398.899267 225.517667 
C 398.899267 227.377349 399.638126 229.161114 400.95312 230.476107 
C 402.268114 231.791101 404.051879 232.529961 405.911561 232.529961 
z
" style="fill: #e69f00; fill-opacity: 0.9; stroke: #e69f00; stroke-opacity: 0.9; stroke-width: 0.25"/>
   </g>
  </g>
  <g id="axes_6">
   <g id="patch_17">
    <path d="M 430.99751 355.336 
L 599.140844 355.336 
L 599.140844 213.716 
L 430.99751 213.716 
z
" style="fill: #ffffff"/>
   </g>
   <g id="matplotlib.axis_11">
    <g id="xtick_31">
     <g id="line2d_131">
      <path d="M 430.99751 355.336 
L 430.99751 213.716 
" clip-path="url(#p35259330e5)" style="fill: none; stroke: #b0b0b0; stroke-opacity: 0.18; stroke-width: 0.6; stroke-linecap: square"/>
     </g>
     <g id="line2d_132">
      <g>
       <use xlink:href="#m8e8697d2de" x="430.99751" y="355.336" style="stroke: #000000; stroke-width: 0.8"/>
      </g>
     </g>
     <g id="text_32">
      <!-- 0.0 -->
      <g transform="translate(424.63626 368.41475) scale(0.08 -0.08)">
       <use xlink:href="#DejaVuSans-30"/>
       <use xlink:href="#DejaVuSans-2e" transform="translate(63.623047 0)"/>
       <use xlink:href="#DejaVuSans-30" transform="translate(95.410156 0)"/>
      </g>
     </g>
    </g>
    <g id="xtick_32">
     <g id="line2d_133">
      <path d="M 464.626177 355.336 
L 464.626177 213.716 
" clip-path="url(#p35259330e5)" style="fill: none; stroke: #b0b0b0; stroke-opacity: 0.18; stroke-width: 0.6; stroke-linecap: square"/>
     </g>
     <g id="line2d_134">
      <g>
       <use xlink:href="#m8e8697d2de" x="464.626177" y="355.336" style="stroke: #000000; stroke-width: 0.8"/>
      </g>
     </g>
     <g id="text_33">
      <!-- 0.2 -->
      <g transform="translate(458.264927 368.41475) scale(0.08 -0.08)">
       <use xlink:href="#DejaVuSans-30"/>
       <use xlink:href="#DejaVuSans-2e" transform="translate(63.623047 0)"/>
       <use xlink:href="#DejaVuSans-32" transform="translate(95.410156 0)"/>
      </g>
     </g>
    </g>
    <g id="xtick_33">
     <g id="line2d_135">
      <path d="M 498.254844 355.336 
L 498.254844 213.716 
" clip-path="url(#p35259330e5)" style="fill: none; stroke: #b0b0b0; stroke-opacity: 0.18; stroke-width: 0.6; stroke-linecap: square"/>
     </g>
     <g id="line2d_136">
      <g>
       <use xlink:href="#m8e8697d2de" x="498.254844" y="355.336" style="stroke: #000000; stroke-width: 0.8"/>
      </g>
     </g>
     <g id="text_34">
      <!-- 0.4 -->
      <g transform="translate(491.893594 368.41475) scale(0.08 -0.08)">
       <use xlink:href="#DejaVuSans-30"/>
       <use xlink:href="#DejaVuSans-2e" transform="translate(63.623047 0)"/>
       <use xlink:href="#DejaVuSans-34" transform="translate(95.410156 0)"/>
      </g>
     </g>
    </g>
    <g id="xtick_34">
     <g id="line2d_137">
      <path d="M 531.88351 355.336 
L 531.88351 213.716 
" clip-path="url(#p35259330e5)" style="fill: none; stroke: #b0b0b0; stroke-opacity: 0.18; stroke-width: 0.6; stroke-linecap: square"/>
     </g>
     <g id="line2d_138">
      <g>
       <use xlink:href="#m8e8697d2de" x="531.88351" y="355.336" style="stroke: #000000; stroke-width: 0.8"/>
      </g>
     </g>
     <g id="text_35">
      <!-- 0.6 -->
      <g transform="translate(525.52226 368.41475) scale(0.08 -0.08)">
       <use xlink:href="#DejaVuSans-30"/>
       <use xlink:href="#DejaVuSans-2e" transform="translate(63.623047 0)"/>
       <use xlink:href="#DejaVuSans-36" transform="translate(95.410156 0)"/>
      </g>
     </g>
    </g>
    <g id="xtick_35">
     <g id="line2d_139">
      <path d="M 565.512177 355.336 
L 565.512177 213.716 
" clip-path="url(#p35259330e5)" style="fill: none; stroke: #b0b0b0; stroke-opacity: 0.18; stroke-width: 0.6; stroke-linecap: square"/>
     </g>
     <g id="line2d_140">
      <g>
       <use xlink:href="#m8e8697d2de" x="565.512177" y="355.336" style="stroke: #000000; stroke-width: 0.8"/>
      </g>
     </g>
     <g id="text_36">
      <!-- 0.8 -->
      <g transform="translate(559.150927 368.41475) scale(0.08 -0.08)">
       <use xlink:href="#DejaVuSans-30"/>
       <use xlink:href="#DejaVuSans-2e" transform="translate(63.623047 0)"/>
       <use xlink:href="#DejaVuSans-38" transform="translate(95.410156 0)"/>
      </g>
     </g>
    </g>
    <g id="xtick_36">
     <g id="line2d_141">
      <path d="M 599.140844 355.336 
L 599.140844 213.716 
" clip-path="url(#p35259330e5)" style="fill: none; stroke: #b0b0b0; stroke-opacity: 0.18; stroke-width: 0.6; stroke-linecap: square"/>
     </g>
     <g id="line2d_142">
      <g>
       <use xlink:href="#m8e8697d2de" x="599.140844" y="355.336" style="stroke: #000000; stroke-width: 0.8"/>
      </g>
     </g>
     <g id="text_37">
      <!-- 1.0 -->
      <g transform="translate(592.779594 368.41475) scale(0.08 -0.08)">
       <use xlink:href="#DejaVuSans-31"/>
       <use xlink:href="#DejaVuSans-2e" transform="translate(63.623047 0)"/>
       <use xlink:href="#DejaVuSans-30" transform="translate(95.410156 0)"/>
      </g>
     </g>
    </g>
    <g id="text_38">
     <!-- Confidence -->
     <g transform="translate(489.766521 380.917094) scale(0.09 -0.09)">
      <use xlink:href="#DejaVuSans-43"/>
      <use xlink:href="#DejaVuSans-6f" transform="translate(69.824219 0)"/>
      <use xlink:href="#DejaVuSans-6e" transform="translate(131.005859 0)"/>
      <use xlink:href="#DejaVuSans-66" transform="translate(194.384766 0)"/>
      <use xlink:href="#DejaVuSans-69" transform="translate(229.589844 0)"/>
      <use xlink:href="#DejaVuSans-64" transform="translate(257.373047 0)"/>
      <use xlink:href="#DejaVuSans-65" transform="translate(320.849609 0)"/>
      <use xlink:href="#DejaVuSans-6e" transform="translate(382.373047 0)"/>
      <use xlink:href="#DejaVuSans-63" transform="translate(445.751953 0)"/>
      <use xlink:href="#DejaVuSans-65" transform="translate(500.732422 0)"/>
     </g>
    </g>
   </g>
   <g id="matplotlib.axis_12">
    <g id="ytick_31">
     <g id="line2d_143">
      <path d="M 430.99751 355.336 
L 599.140844 355.336 
" clip-path="url(#p35259330e5)" style="fill: none; stroke: #b0b0b0; stroke-opacity: 0.18; stroke-width: 0.6; stroke-linecap: square"/>
     </g>
     <g id="line2d_144">
      <g>
       <use xlink:href="#m0337e021d6" x="430.99751" y="355.336" style="stroke: #000000; stroke-width: 0.8"/>
      </g>
     </g>
    </g>
    <g id="ytick_32">
     <g id="line2d_145">
      <path d="M 430.99751 327.012 
L 599.140844 327.012 
" clip-path="url(#p35259330e5)" style="fill: none; stroke: #b0b0b0; stroke-opacity: 0.18; stroke-width: 0.6; stroke-linecap: square"/>
     </g>
     <g id="line2d_146">
      <g>
       <use xlink:href="#m0337e021d6" x="430.99751" y="327.012" style="stroke: #000000; stroke-width: 0.8"/>
      </g>
     </g>
    </g>
    <g id="ytick_33">
     <g id="line2d_147">
      <path d="M 430.99751 298.688 
L 599.140844 298.688 
" clip-path="url(#p35259330e5)" style="fill: none; stroke: #b0b0b0; stroke-opacity: 0.18; stroke-width: 0.6; stroke-linecap: square"/>
     </g>
     <g id="line2d_148">
      <g>
       <use xlink:href="#m0337e021d6" x="430.99751" y="298.688" style="stroke: #000000; stroke-width: 0.8"/>
      </g>
     </g>
    </g>
    <g id="ytick_34">
     <g id="line2d_149">
      <path d="M 430.99751 270.364 
L 599.140844 270.364 
" clip-path="url(#p35259330e5)" style="fill: none; stroke: #b0b0b0; stroke-opacity: 0.18; stroke-width: 0.6; stroke-linecap: square"/>
     </g>
     <g id="line2d_150">
      <g>
       <use xlink:href="#m0337e021d6" x="430.99751" y="270.364" style="stroke: #000000; stroke-width: 0.8"/>
      </g>
     </g>
    </g>
    <g id="ytick_35">
     <g id="line2d_151">
      <path d="M 430.99751 242.04 
L 599.140844 242.04 
" clip-path="url(#p35259330e5)" style="fill: none; stroke: #b0b0b0; stroke-opacity: 0.18; stroke-width: 0.6; stroke-linecap: square"/>
     </g>
     <g id="line2d_152">
      <g>
       <use xlink:href="#m0337e021d6" x="430.99751" y="242.04" style="stroke: #000000; stroke-width: 0.8"/>
      </g>
     </g>
    </g>
    <g id="ytick_36">
     <g id="line2d_153">
      <path d="M 430.99751 213.716 
L 599.140844 213.716 
" clip-path="url(#p35259330e5)" style="fill: none; stroke: #b0b0b0; stroke-opacity: 0.18; stroke-width: 0.6; stroke-linecap: square"/>
     </g>
     <g id="line2d_154">
      <g>
       <use xlink:href="#m0337e021d6" x="430.99751" y="213.716" style="stroke: #000000; stroke-width: 0.8"/>
      </g>
     </g>
    </g>
   </g>
   <g id="line2d_155">
    <path d="M 430.99751 355.336 
L 599.140844 213.716 
" clip-path="url(#p35259330e5)" style="fill: none; stroke-dasharray: 3.33,1.44; stroke-dashoffset: 0; stroke: #777777; stroke-width: 0.9"/>
   </g>
   <g id="line2d_156">
    <path d="M 524.519158 291.164437 
L 540.947019 255.953544 
L 559.255969 270.123966 
L 575.976149 252.339636 
L 594.329993 226.453839 
" clip-path="url(#p35259330e5)" style="fill: none; stroke: #e69f00; stroke-opacity: 0.9; stroke-width: 1.8; stroke-linecap: square"/>
   </g>
   <g id="patch_18">
    <path d="M 430.99751 355.336 
L 430.99751 213.716 
" style="fill: none; stroke: #000000; stroke-width: 0.8; stroke-linejoin: miter; stroke-linecap: square"/>
   </g>
   <g id="patch_19">
    <path d="M 430.99751 355.336 
L 599.140844 355.336 
" style="fill: none; stroke: #000000; stroke-width: 0.8; stroke-linejoin: miter; stroke-linecap: square"/>
   </g>
   <g id="PathCollection_6">
    <path d="M 524.519158 294.359549 
C 525.366511 294.359549 526.179273 294.022892 526.778443 293.423723 
C 527.377612 292.824553 527.714269 292.011791 527.714269 291.164437 
C 527.714269 290.317084 527.377612 289.504322 526.778443 288.905152 
C 526.179273 288.305983 525.366511 287.969326 524.519158 287.969326 
C 523.671804 287.969326 522.859042 288.305983 522.259873 288.905152 
C 521.660703 289.504322 521.324046 290.317084 521.324046 291.164437 
C 521.324046 292.011791 521.660703 292.824553 522.259873 293.423723 
C 522.859042 294.022892 523.671804 294.359549 524.519158 294.359549 
z
" style="fill: #e69f00; fill-opacity: 0.9; stroke: #e69f00; stroke-opacity: 0.9; stroke-width: 0.25"/>
    <path d="M 540.947019 259.119274 
C 541.786581 259.119274 542.591869 258.785712 543.185528 258.192053 
C 543.779188 257.598393 544.112749 256.793105 544.112749 255.953544 
C 544.112749 255.113983 543.779188 254.308694 543.185528 253.715035 
C 542.591869 253.121375 541.786581 252.787814 540.947019 252.787814 
C 540.107458 252.787814 539.30217 253.121375 538.708511 253.715035 
C 538.114851 254.308694 537.78129 255.113983 537.78129 255.953544 
C 537.78129 256.793105 538.114851 257.598393 538.708511 258.192053 
C 539.30217 258.785712 540.107458 259.119274 540.947019 259.119274 
z
" style="fill: #e69f00; fill-opacity: 0.9; stroke: #e69f00; stroke-opacity: 0.9; stroke-width: 0.25"/>
    <path d="M 559.255969 273.537247 
C 560.161181 273.537247 561.029441 273.177602 561.669523 272.53752 
C 562.309605 271.897438 562.66925 271.029179 562.66925 270.123966 
C 562.66925 269.218753 562.309605 268.350494 561.669523 267.710412 
C 561.029441 267.07033 560.161181 266.710685 559.255969 266.710685 
C 558.350756 266.710685 557.482497 267.07033 556.842415 267.710412 
C 556.202333 268.350494 555.842688 269.218753 555.842688 270.123966 
C 555.842688 271.029179 556.202333 271.897438 556.842415 272.53752 
C 557.482497 273.177602 558.350756 273.537247 559.255969 273.537247 
z
" style="fill: #e69f00; fill-opacity: 0.9; stroke: #e69f00; stroke-opacity: 0.9; stroke-width: 0.25"/>
    <path d="M 575.976149 256.130914 
C 576.981607 256.130914 577.94602 255.731441 578.656987 255.020475 
C 579.367953 254.309508 579.767426 253.345095 579.767426 252.339636 
C 579.767426 251.334178 579.367953 250.369765 578.656987 249.658798 
C 577.94602 248.947832 576.981607 248.548359 575.976149 248.548359 
C 574.97069 248.548359 574.006277 248.947832 573.29531 249.658798 
C 572.584344 250.369765 572.184871 251.334178 572.184871 252.339636 
C 572.184871 253.345095 572.584344 254.309508 573.29531 255.020475 
C 574.006277 255.731441 574.97069 256.130914 575.976149 256.130914 
z
" style="fill: #e69f00; fill-opacity: 0.9; stroke: #e69f00; stroke-opacity: 0.9; stroke-width: 0.25"/>
    <path d="M 594.329993 233.61241 
C 596.228468 233.61241 598.049443 232.858138 599.391868 231.515713 
C 600.734292 230.173288 601.488565 228.352314 601.488565 226.453839 
C 601.488565 224.555364 600.734292 222.734389 599.391868 221.391964 
C 598.049443 220.04954 596.228468 219.295267 594.329993 219.295267 
C 592.431518 219.295267 590.610543 220.04954 589.268119 221.391964 
C 587.925694 222.734389 587.171422 224.555364 587.171422 226.453839 
C 587.171422 228.352314 587.925694 230.173288 589.268119 231.515713 
C 590.610543 232.858138 592.431518 233.61241 594.329993 233.61241 
z
" style="fill: #e69f00; fill-opacity: 0.9; stroke: #e69f00; stroke-opacity: 0.9; stroke-width: 0.25"/>
   </g>
  </g>
  <g id="text_39">
   <!-- Reliability diagrams: HuatuoGPT -->
   <g transform="translate(208.676781 16.318125) scale(0.12 -0.12)">
    <defs>
     <path id="DejaVuSans-6c" d="M 603 4863 
L 1178 4863 
L 1178 0 
L 603 0 
L 603 4863 
z
" transform="scale(0.015625)"/>
     <path id="DejaVuSans-62" d="M 3116 1747 
Q 3116 2381 2855 2742 
Q 2594 3103 2138 3103 
Q 1681 3103 1420 2742 
Q 1159 2381 1159 1747 
Q 1159 1113 1420 752 
Q 1681 391 2138 391 
Q 2594 391 2855 752 
Q 3116 1113 3116 1747 
z
M 1159 2969 
Q 1341 3281 1617 3432 
Q 1894 3584 2278 3584 
Q 2916 3584 3314 3078 
Q 3713 2572 3713 1747 
Q 3713 922 3314 415 
Q 2916 -91 2278 -91 
Q 1894 -91 1617 61 
Q 1341 213 1159 525 
L 1159 0 
L 581 0 
L 581 4863 
L 1159 4863 
L 1159 2969 
z
" transform="scale(0.015625)"/>
     <path id="DejaVuSans-20" transform="scale(0.015625)"/>
     <path id="DejaVuSans-67" d="M 2906 1791 
Q 2906 2416 2648 2759 
Q 2391 3103 1925 3103 
Q 1463 3103 1205 2759 
Q 947 2416 947 1791 
Q 947 1169 1205 825 
Q 1463 481 1925 481 
Q 2391 481 2648 825 
Q 2906 1169 2906 1791 
z
M 3481 434 
Q 3481 -459 3084 -895 
Q 2688 -1331 1869 -1331 
Q 1566 -1331 1297 -1286 
Q 1028 -1241 775 -1147 
L 775 -588 
Q 1028 -725 1275 -790 
Q 1522 -856 1778 -856 
Q 2344 -856 2625 -561 
Q 2906 -266 2906 331 
L 2906 616 
Q 2728 306 2450 153 
Q 2172 0 1784 0 
Q 1141 0 747 490 
Q 353 981 353 1791 
Q 353 2603 747 3093 
Q 1141 3584 1784 3584 
Q 2172 3584 2450 3431 
Q 2728 3278 2906 2969 
L 2906 3500 
L 3481 3500 
L 3481 434 
z
" transform="scale(0.015625)"/>
     <path id="DejaVuSans-6d" d="M 3328 2828 
Q 3544 3216 3844 3400 
Q 4144 3584 4550 3584 
Q 5097 3584 5394 3201 
Q 5691 2819 5691 2113 
L 5691 0 
L 5113 0 
L 5113 2094 
Q 5113 2597 4934 2840 
Q 4756 3084 4391 3084 
Q 3944 3084 3684 2787 
Q 3425 2491 3425 1978 
L 3425 0 
L 2847 0 
L 2847 2094 
Q 2847 2600 2669 2842 
Q 2491 3084 2119 3084 
Q 1678 3084 1418 2786 
Q 1159 2488 1159 1978 
L 1159 0 
L 581 0 
L 581 3500 
L 1159 3500 
L 1159 2956 
Q 1356 3278 1631 3431 
Q 1906 3584 2284 3584 
Q 2666 3584 2933 3390 
Q 3200 3197 3328 2828 
z
" transform="scale(0.015625)"/>
     <path id="DejaVuSans-3a" d="M 750 794 
L 1409 794 
L 1409 0 
L 750 0 
L 750 794 
z
M 750 3309 
L 1409 3309 
L 1409 2516 
L 750 2516 
L 750 3309 
z
" transform="scale(0.015625)"/>
     <path id="DejaVuSans-48" d="M 628 4666 
L 1259 4666 
L 1259 2753 
L 3553 2753 
L 3553 4666 
L 4184 4666 
L 4184 0 
L 3553 0 
L 3553 2222 
L 1259 2222 
L 1259 0 
L 628 0 
L 628 4666 
z
" transform="scale(0.015625)"/>
     <path id="DejaVuSans-47" d="M 3809 666 
L 3809 1919 
L 2778 1919 
L 2778 2438 
L 4434 2438 
L 4434 434 
Q 4069 175 3628 42 
Q 3188 -91 2688 -91 
Q 1594 -91 976 548 
Q 359 1188 359 2328 
Q 359 3472 976 4111 
Q 1594 4750 2688 4750 
Q 3144 4750 3555 4637 
Q 3966 4525 4313 4306 
L 4313 3634 
Q 3963 3931 3569 4081 
Q 3175 4231 2741 4231 
Q 1884 4231 1454 3753 
Q 1025 3275 1025 2328 
Q 1025 1384 1454 906 
Q 1884 428 2741 428 
Q 3075 428 3337 486 
Q 3600 544 3809 666 
z
" transform="scale(0.015625)"/>
     <path id="DejaVuSans-54" d="M -19 4666 
L 3928 4666 
L 3928 4134 
L 2272 4134 
L 2272 0 
L 1638 0 
L 1638 4134 
L -19 4134 
L -19 4666 
z
" transform="scale(0.015625)"/>
    </defs>
    <use xlink:href="#DejaVuSans-52"/>
    <use xlink:href="#DejaVuSans-65" transform="translate(64.982422 0)"/>
    <use xlink:href="#DejaVuSans-6c" transform="translate(126.505859 0)"/>
    <use xlink:href="#DejaVuSans-69" transform="translate(154.289062 0)"/>
    <use xlink:href="#DejaVuSans-61" transform="translate(182.072266 0)"/>
    <use xlink:href="#DejaVuSans-62" transform="translate(243.351562 0)"/>
    <use xlink:href="#DejaVuSans-69" transform="translate(306.828125 0)"/>
    <use xlink:href="#DejaVuSans-6c" transform="translate(334.611328 0)"/>
    <use xlink:href="#DejaVuSans-69" transform="translate(362.394531 0)"/>
    <use xlink:href="#DejaVuSans-74" transform="translate(390.177734 0)"/>
    <use xlink:href="#DejaVuSans-79" transform="translate(429.386719 0)"/>
    <use xlink:href="#DejaVuSans-20" transform="translate(488.566406 0)"/>
    <use xlink:href="#DejaVuSans-64" transform="translate(520.353516 0)"/>
    <use xlink:href="#DejaVuSans-69" transform="translate(583.830078 0)"/>
    <use xlink:href="#DejaVuSans-61" transform="translate(611.613281 0)"/>
    <use xlink:href="#DejaVuSans-67" transform="translate(672.892578 0)"/>
    <use xlink:href="#DejaVuSans-72" transform="translate(736.369141 0)"/>
    <use xlink:href="#DejaVuSans-61" transform="translate(777.482422 0)"/>
    <use xlink:href="#DejaVuSans-6d" transform="translate(838.761719 0)"/>
    <use xlink:href="#DejaVuSans-73" transform="translate(936.173828 0)"/>
    <use xlink:href="#DejaVuSans-3a" transform="translate(988.273438 0)"/>
    <use xlink:href="#DejaVuSans-20" transform="translate(1021.964844 0)"/>
    <use xlink:href="#DejaVuSans-48" transform="translate(1053.751953 0)"/>
    <use xlink:href="#DejaVuSans-75" transform="translate(1128.947266 0)"/>
    <use xlink:href="#DejaVuSans-61" transform="translate(1192.326172 0)"/>
    <use xlink:href="#DejaVuSans-74" transform="translate(1253.605469 0)"/>
    <use xlink:href="#DejaVuSans-75" transform="translate(1292.814453 0)"/>
    <use xlink:href="#DejaVuSans-6f" transform="translate(1356.193359 0)"/>
    <use xlink:href="#DejaVuSans-47" transform="translate(1417.375 0)"/>
    <use xlink:href="#DejaVuSans-50" transform="translate(1494.865234 0)"/>
    <use xlink:href="#DejaVuSans-54" transform="translate(1555.167969 0)"/>
   </g>
  </g>
 </g>
 <defs>
  <clipPath id="pcaefbb6571">
   <rect x="49.710844" y="55.176" width="168.143333" height="141.62"/>
  </clipPath>
  <clipPath id="p9551b8a864">
   <rect x="240.354177" y="55.176" width="168.143333" height="141.62"/>
  </clipPath>
  <clipPath id="p5ed98ee1cb">
   <rect x="430.99751" y="55.176" width="168.143333" height="141.62"/>
  </clipPath>
  <clipPath id="p66cd39272e">
   <rect x="49.710844" y="213.716" width="168.143333" height="141.62"/>
  </clipPath>
  <clipPath id="p1593193c11">
   <rect x="240.354177" y="213.716" width="168.143333" height="141.62"/>
  </clipPath>
  <clipPath id="p35259330e5">
   <rect x="430.99751" y="213.716" width="168.143333" height="141.62"/>
  </clipPath>
 </defs>
</svg>
