<?xml version="1.0" encoding="utf-8" standalone="no"?>
<!DOCTYPE svg PUBLIC "-//W3C//DTD SVG 1.1//EN"
  "http://www.w3.org/Graphics/SVG/1.1/DTD/svg11.dtd">
<svg xmlns:xlink="http://www.w3.org/1999/xlink" width="612.702094pt" height="389.988812pt" viewBox="0 0 612.702094 389.988812" xmlns="http://www.w3.org/2000/svg" version="1.1">
 <metadata>
  <rdf:RDF xmlns:dc="http://purl.org/dc/elements/1.1/" xmlns:cc="http://creativecommons.org/ns#" xmlns:rdf="http://www.w3.org/1999/02/22-rdf-syntax-ns#">
   <cc:Work>
    <dc:type rdf:resource="http://purl.org/dc/dcmitype/StillImage"/>
    <dc:date>2026-06-19T21:22:45.282060</dc:date>
    <dc:format>image/svg+xml</dc:format>
    <dc:creator>
     <cc:Agent>
      <dc:title>Matplotlib v3.10.9, https://matplotlib.org/</dc:title>
     </cc:Agent>
    </dc:creator>
   </cc:Work>
  </rdf:RDF>
 </metadata>
 <defs>
  <style type="text/css">*{stroke-linejoin: round; stroke-linecap: butt}</style>
 </defs>
 <g id="figure_1">
  <g id="patch_1">
   <path d="M 0 389.988812 
L 612.702094 389.988812 
L 612.702094 0 
L 0 0 
z
" style="fill: #ffffff"/>
  </g>
  <g id="axes_1">
   <g id="patch_2">
    <path d="M 49.710844 196.796 
L 217.854177 196.796 
L 217.854177 55.176 
L 49.710844 55.176 
z
" style="fill: #ffffff"/>
   </g>
   <g id="matplotlib.axis_1">
    <g id="xtick_1">
     <g id="line2d_1">
      <path d="M 49.710844 196.796 
L 49.710844 55.176 
" clip-path="url(#pa1579e20be)" style="fill: none; stroke: #b0b0b0; stroke-opacity: 0.18; stroke-width: 0.6; stroke-linecap: square"/>
     </g>
     <g id="line2d_2">
      <defs>
       <path id="me113979e50" d="M 0 0 
L 0 3.5 
" style="stroke: #000000; stroke-width: 0.8"/>
      </defs>
      <g>
       <use xlink:href="#me113979e50" x="49.710844" y="196.796" style="stroke: #000000; stroke-width: 0.8"/>
      </g>
     </g>
    </g>
    <g id="xtick_2">
     <g id="line2d_3">
      <path d="M 83.33951 196.796 
L 83.33951 55.176 
" clip-path="url(#pa1579e20be)" style="fill: none; stroke: #b0b0b0; stroke-opacity: 0.18; stroke-width: 0.6; stroke-linecap: square"/>
     </g>
     <g id="line2d_4">
      <g>
       <use xlink:href="#me113979e50" x="83.33951" y="196.796" style="stroke: #000000; stroke-width: 0.8"/>
      </g>
     </g>
    </g>
    <g id="xtick_3">
     <g id="line2d_5">
      <path d="M 116.968177 196.796 
L 116.968177 55.176 
" clip-path="url(#pa1579e20be)" style="fill: none; stroke: #b0b0b0; stroke-opacity: 0.18; stroke-width: 0.6; stroke-linecap: square"/>
     </g>
     <g id="line2d_6">
      <g>
       <use xlink:href="#me113979e50" x="116.968177" y="196.796" style="stroke: #000000; stroke-width: 0.8"/>
      </g>
     </g>
    </g>
    <g id="xtick_4">
     <g id="line2d_7">
      <path d="M 150.596844 196.796 
L 150.596844 55.176 
" clip-path="url(#pa1579e20be)" style="fill: none; stroke: #b0b0b0; stroke-opacity: 0.18; stroke-width: 0.6; stroke-linecap: square"/>
     </g>
     <g id="line2d_8">
      <g>
       <use xlink:href="#me113979e50" x="150.596844" y="196.796" style="stroke: #000000; stroke-width: 0.8"/>
      </g>
     </g>
    </g>
    <g id="xtick_5">
     <g id="line2d_9">
      <path d="M 184.22551 196.796 
L 184.22551 55.176 
" clip-path="url(#pa1579e20be)" style="fill: none; stroke: #b0b0b0; stroke-opacity: 0.18; stroke-width: 0.6; stroke-linecap: square"/>
     </g>
     <g id="line2d_10">
      <g>
       <use xlink:href="#me113979e50" x="184.22551" y="196.796" style="stroke: #000000; stroke-width: 0.8"/>
      </g>
     </g>
    </g>
    <g id="xtick_6">
     <g id="line2d_11">
      <path d="M 217.854177 196.796 
L 217.854177 55.176 
" clip-path="url(#pa1579e20be)" style="fill: none; stroke: #b0b0b0; stroke-opacity: 0.18; stroke-width: 0.6; stroke-linecap: square"/>
     </g>
     <g id="line2d_12">
      <g>
       <use xlink:href="#me113979e50" x="217.854177" y="196.796" style="stroke: #000000; stroke-width: 0.8"/>
      </g>
     </g>
    </g>
   </g>
   <g id="matplotlib.axis_2">
    <g id="ytick_1">
     <g id="line2d_13">
      <path d="M 49.710844 196.796 
L 217.854177 196.796 
" clip-path="url(#pa1579e20be)" style="fill: none; stroke: #b0b0b0; stroke-opacity: 0.18; stroke-width: 0.6; stroke-linecap: square"/>
     </g>
     <g id="line2d_14">
      <defs>
       <path id="m4c063db5f0" d="M 0 0 
L -3.5 0 
" style="stroke: #000000; stroke-width: 0.8"/>
      </defs>
      <g>
       <use xlink:href="#m4c063db5f0" x="49.710844" y="196.796" style="stroke: #000000; stroke-width: 0.8"/>
      </g>
     </g>
     <g id="text_1">
      <!-- 0.0 -->
      <g transform="translate(29.988344 199.835375) scale(0.08 -0.08)">
       <defs>
        <path id="DejaVuSans-30" d="M 2034 4250 
Q 1547 4250 1301 3770 
Q 1056 3291 1056 2328 
Q 1056 1369 1301 889 
Q 1547 409 2034 409 
Q 2525 409 2770 889 
Q 3016 1369 3016 2328 
Q 3016 3291 2770 3770 
Q 2525 4250 2034 4250 
z
M 2034 4750 
Q 2819 4750 3233 4129 
Q 3647 3509 3647 2328 
Q 3647 1150 3233 529 
Q 2819 -91 2034 -91 
Q 1250 -91 836 529 
Q 422 1150 422 2328 
Q 422 3509 836 4129 
Q 1250 4750 2034 4750 
z
" transform="scale(0.015625)"/>
        <path id="DejaVuSans-2e" d="M 684 794 
L 1344 794 
L 1344 0 
L 684 0 
L 684 794 
z
" transform="scale(0.015625)"/>
       </defs>
       <use xlink:href="#DejaVuSans-30"/>
       <use xlink:href="#DejaVuSans-2e" transform="translate(63.623047 0)"/>
       <use xlink:href="#DejaVuSans-30" transform="translate(95.410156 0)"/>
      </g>
     </g>
    </g>
    <g id="ytick_2">
     <g id="line2d_15">
      <path d="M 49.710844 168.472 
L 217.854177 168.472 
" clip-path="url(#pa1579e20be)" style="fill: none; stroke: #b0b0b0; stroke-opacity: 0.18; stroke-width: 0.6; stroke-linecap: square"/>
     </g>
     <g id="line2d_16">
      <g>
       <use xlink:href="#m4c063db5f0" x="49.710844" y="168.472" style="stroke: #000000; stroke-width: 0.8"/>
      </g>
     </g>
     <g id="text_2">
      <!-- 0.2 -->
      <g transform="translate(29.988344 171.511375) scale(0.08 -0.08)">
       <defs>
        <path id="DejaVuSans-32" d="M 1228 531 
L 3431 531 
L 3431 0 
L 469 0 
L 469 531 
Q 828 903 1448 1529 
Q 2069 2156 2228 2338 
Q 2531 2678 2651 2914 
Q 2772 3150 2772 3378 
Q 2772 3750 2511 3984 
Q 2250 4219 1831 4219 
Q 1534 4219 1204 4116 
Q 875 4013 500 3803 
L 500 4441 
Q 881 4594 1212 4672 
Q 1544 4750 1819 4750 
Q 2544 4750 2975 4387 
Q 3406 4025 3406 3419 
Q 3406 3131 3298 2873 
Q 3191 2616 2906 2266 
Q 2828 2175 2409 1742 
Q 1991 1309 1228 531 
z
" transform="scale(0.015625)"/>
       </defs>
       <use xlink:href="#DejaVuSans-30"/>
       <use xlink:href="#DejaVuSans-2e" transform="translate(63.623047 0)"/>
       <use xlink:href="#DejaVuSans-32" transform="translate(95.410156 0)"/>
      </g>
     </g>
    </g>
    <g id="ytick_3">
     <g id="line2d_17">
      <path d="M 49.710844 140.148 
L 217.854177 140.148 
" clip-path="url(#pa1579e20be)" style="fill: none; stroke: #b0b0b0; stroke-opacity: 0.18; stroke-width: 0.6; stroke-linecap: square"/>
     </g>
     <g id="line2d_18">
      <g>
       <use xlink:href="#m4c063db5f0" x="49.710844" y="140.148" style="stroke: #000000; stroke-width: 0.8"/>
      </g>
     </g>
     <g id="text_3">
      <!-- 0.4 -->
      <g transform="translate(29.988344 143.187375) scale(0.08 -0.08)">
       <defs>
        <path id="DejaVuSans-34" d="M 2419 4116 
L 825 1625 
L 2419 1625 
L 2419 4116 
z
M 2253 4666 
L 3047 4666 
L 3047 1625 
L 3713 1625 
L 3713 1100 
L 3047 1100 
L 3047 0 
L 2419 0 
L 2419 1100 
L 313 1100 
L 313 1709 
L 2253 4666 
z
" transform="scale(0.015625)"/>
       </defs>
       <use xlink:href="#DejaVuSans-30"/>
       <use xlink:href="#DejaVuSans-2e" transform="translate(63.623047 0)"/>
       <use xlink:href="#DejaVuSans-34" transform="translate(95.410156 0)"/>
      </g>
     </g>
    </g>
    <g id="ytick_4">
     <g id="line2d_19">
      <path d="M 49.710844 111.824 
L 217.854177 111.824 
" clip-path="url(#pa1579e20be)" style="fill: none; stroke: #b0b0b0; stroke-opacity: 0.18; stroke-width: 0.6; stroke-linecap: square"/>
     </g>
     <g id="line2d_20">
      <g>
       <use xlink:href="#m4c063db5f0" x="49.710844" y="111.824" style="stroke: #000000; stroke-width: 0.8"/>
      </g>
     </g>
     <g id="text_4">
      <!-- 0.6 -->
      <g transform="translate(29.988344 114.863375) scale(0.08 -0.08)">
       <defs>
        <path id="DejaVuSans-36" d="M 2113 2584 
Q 1688 2584 1439 2293 
Q 1191 2003 1191 1497 
Q 1191 994 1439 701 
Q 1688 409 2113 409 
Q 2538 409 2786 701 
Q 3034 994 3034 1497 
Q 3034 2003 2786 2293 
Q 2538 2584 2113 2584 
z
M 3366 4563 
L 3366 3988 
Q 3128 4100 2886 4159 
Q 2644 4219 2406 4219 
Q 1781 4219 1451 3797 
Q 1122 3375 1075 2522 
Q 1259 2794 1537 2939 
Q 1816 3084 2150 3084 
Q 2853 3084 3261 2657 
Q 3669 2231 3669 1497 
Q 3669 778 3244 343 
Q 2819 -91 2113 -91 
Q 1303 -91 875 529 
Q 447 1150 447 2328 
Q 447 3434 972 4092 
Q 1497 4750 2381 4750 
Q 2619 4750 2861 4703 
Q 3103 4656 3366 4563 
z
" transform="scale(0.015625)"/>
       </defs>
       <use xlink:href="#DejaVuSans-30"/>
       <use xlink:href="#DejaVuSans-2e" transform="translate(63.623047 0)"/>
       <use xlink:href="#DejaVuSans-36" transform="translate(95.410156 0)"/>
      </g>
     </g>
    </g>
    <g id="ytick_5">
     <g id="line2d_21">
      <path d="M 49.710844 83.5 
L 217.854177 83.5 
" clip-path="url(#pa1579e20be)" style="fill: none; stroke: #b0b0b0; stroke-opacity: 0.18; stroke-width: 0.6; stroke-linecap: square"/>
     </g>
     <g id="line2d_22">
      <g>
       <use xlink:href="#m4c063db5f0" x="49.710844" y="83.5" style="stroke: #000000; stroke-width: 0.8"/>
      </g>
     </g>
     <g id="text_5">
      <!-- 0.8 -->
      <g transform="translate(29.988344 86.539375) scale(0.08 -0.08)">
       <defs>
        <path id="DejaVuSans-38" d="M 2034 2216 
Q 1584 2216 1326 1975 
Q 1069 1734 1069 1313 
Q 1069 891 1326 650 
Q 1584 409 2034 409 
Q 2484 409 2743 651 
Q 3003 894 3003 1313 
Q 3003 1734 2745 1975 
Q 2488 2216 2034 2216 
z
M 1403 2484 
Q 997 2584 770 2862 
Q 544 3141 544 3541 
Q 544 4100 942 4425 
Q 1341 4750 2034 4750 
Q 2731 4750 3128 4425 
Q 3525 4100 3525 3541 
Q 3525 3141 3298 2862 
Q 3072 2584 2669 2484 
Q 3125 2378 3379 2068 
Q 3634 1759 3634 1313 
Q 3634 634 3220 271 
Q 2806 -91 2034 -91 
Q 1263 -91 848 271 
Q 434 634 434 1313 
Q 434 1759 690 2068 
Q 947 2378 1403 2484 
z
M 1172 3481 
Q 1172 3119 1398 2916 
Q 1625 2713 2034 2713 
Q 2441 2713 2670 2916 
Q 2900 3119 2900 3481 
Q 2900 3844 2670 4047 
Q 2441 4250 2034 4250 
Q 1625 4250 1398 4047 
Q 1172 3844 1172 3481 
z
" transform="scale(0.015625)"/>
       </defs>
       <use xlink:href="#DejaVuSans-30"/>
       <use xlink:href="#DejaVuSans-2e" transform="translate(63.623047 0)"/>
       <use xlink:href="#DejaVuSans-38" transform="translate(95.410156 0)"/>
      </g>
     </g>
    </g>
    <g id="ytick_6">
     <g id="line2d_23">
      <path d="M 49.710844 55.176 
L 217.854177 55.176 
" clip-path="url(#pa1579e20be)" style="fill: none; stroke: #b0b0b0; stroke-opacity: 0.18; stroke-width: 0.6; stroke-linecap: square"/>
     </g>
     <g id="line2d_24">
      <g>
       <use xlink:href="#m4c063db5f0" x="49.710844" y="55.176" style="stroke: #000000; stroke-width: 0.8"/>
      </g>
     </g>
     <g id="text_6">
      <!-- 1.0 -->
      <g transform="translate(29.988344 58.215375) scale(0.08 -0.08)">
       <defs>
        <path id="DejaVuSans-31" d="M 794 531 
L 1825 531 
L 1825 4091 
L 703 3866 
L 703 4441 
L 1819 4666 
L 2450 4666 
L 2450 531 
L 3481 531 
L 3481 0 
L 794 0 
L 794 531 
z
" transform="scale(0.015625)"/>
       </defs>
       <use xlink:href="#DejaVuSans-31"/>
       <use xlink:href="#DejaVuSans-2e" transform="translate(63.623047 0)"/>
       <use xlink:href="#DejaVuSans-30" transform="translate(95.410156 0)"/>
      </g>
     </g>
    </g>
    <g id="text_7">
     <!-- Zero-shot -->
     <g transform="translate(14.038594 147.761078) rotate(-90) scale(0.09 -0.09)">
      <defs>
       <path id="DejaVuSans-5a" d="M 359 4666 
L 4025 4666 
L 4025 4184 
L 1075 531 
L 4097 531 
L 4097 0 
L 288 0 
L 288 481 
L 3238 4134 
L 359 4134 
L 359 4666 
z
" transform="scale(0.015625)"/>
       <path id="DejaVuSans-65" d="M 3597 1894 
L 3597 1613 
L 953 1613 
Q 991 1019 1311 708 
Q 1631 397 2203 397 
Q 2534 397 2845 478 
Q 3156 559 3463 722 
L 3463 178 
Q 3153 47 2828 -22 
Q 2503 -91 2169 -91 
Q 1331 -91 842 396 
Q 353 884 353 1716 
Q 353 2575 817 3079 
Q 1281 3584 2069 3584 
Q 2775 3584 3186 3129 
Q 3597 2675 3597 1894 
z
M 3022 2063 
Q 3016 2534 2758 2815 
Q 2500 3097 2075 3097 
Q 1594 3097 1305 2825 
Q 1016 2553 972 2059 
L 3022 2063 
z
" transform="scale(0.015625)"/>
       <path id="DejaVuSans-72" d="M 2631 2963 
Q 2534 3019 2420 3045 
Q 2306 3072 2169 3072 
Q 1681 3072 1420 2755 
Q 1159 2438 1159 1844 
L 1159 0 
L 581 0 
L 581 3500 
L 1159 3500 
L 1159 2956 
Q 1341 3275 1631 3429 
Q 1922 3584 2338 3584 
Q 2397 3584 2469 3576 
Q 2541 3569 2628 3553 
L 2631 2963 
z
" transform="scale(0.015625)"/>
       <path id="DejaVuSans-6f" d="M 1959 3097 
Q 1497 3097 1228 2736 
Q 959 2375 959 1747 
Q 959 1119 1226 758 
Q 1494 397 1959 397 
Q 2419 397 2687 759 
Q 2956 1122 2956 1747 
Q 2956 2369 2687 2733 
Q 2419 3097 1959 3097 
z
M 1959 3584 
Q 2709 3584 3137 3096 
Q 3566 2609 3566 1747 
Q 3566 888 3137 398 
Q 2709 -91 1959 -91 
Q 1206 -91 779 398 
Q 353 888 353 1747 
Q 353 2609 779 3096 
Q 1206 3584 1959 3584 
z
" transform="scale(0.015625)"/>
       <path id="DejaVuSans-2d" d="M 313 2009 
L 1997 2009 
L 1997 1497 
L 313 1497 
L 313 2009 
z
" transform="scale(0.015625)"/>
       <path id="DejaVuSans-73" d="M 2834 3397 
L 2834 2853 
Q 2591 2978 2328 3040 
Q 2066 3103 1784 3103 
Q 1356 3103 1142 2972 
Q 928 2841 928 2578 
Q 928 2378 1081 2264 
Q 1234 2150 1697 2047 
L 1894 2003 
Q 2506 1872 2764 1633 
Q 3022 1394 3022 966 
Q 3022 478 2636 193 
Q 2250 -91 1575 -91 
Q 1294 -91 989 -36 
Q 684 19 347 128 
L 347 722 
Q 666 556 975 473 
Q 1284 391 1588 391 
Q 1994 391 2212 530 
Q 2431 669 2431 922 
Q 2431 1156 2273 1281 
Q 2116 1406 1581 1522 
L 1381 1569 
Q 847 1681 609 1914 
Q 372 2147 372 2553 
Q 372 3047 722 3315 
Q 1072 3584 1716 3584 
Q 2034 3584 2315 3537 
Q 2597 3491 2834 3397 
z
" transform="scale(0.015625)"/>
       <path id="DejaVuSans-68" d="M 3513 2113 
L 3513 0 
L 2938 0 
L 2938 2094 
Q 2938 2591 2744 2837 
Q 2550 3084 2163 3084 
Q 1697 3084 1428 2787 
Q 1159 2491 1159 1978 
L 1159 0 
L 581 0 
L 581 4863 
L 1159 4863 
L 1159 2956 
Q 1366 3272 1645 3428 
Q 1925 3584 2291 3584 
Q 2894 3584 3203 3211 
Q 3513 2838 3513 2113 
z
" transform="scale(0.015625)"/>
       <path id="DejaVuSans-74" d="M 1172 4494 
L 1172 3500 
L 2356 3500 
L 2356 3053 
L 1172 3053 
L 1172 1153 
Q 1172 725 1289 603 
Q 1406 481 1766 481 
L 2356 481 
L 2356 0 
L 1766 0 
Q 1100 0 847 248 
Q 594 497 594 1153 
L 594 3053 
L 172 3053 
L 172 3500 
L 594 3500 
L 594 4494 
L 1172 4494 
z
" transform="scale(0.015625)"/>
      </defs>
      <use xlink:href="#DejaVuSans-5a"/>
      <use xlink:href="#DejaVuSans-65" transform="translate(68.505859 0)"/>
      <use xlink:href="#DejaVuSans-72" transform="translate(130.029297 0)"/>
      <use xlink:href="#DejaVuSans-6f" transform="translate(168.892578 0)"/>
      <use xlink:href="#DejaVuSans-2d" transform="translate(231.949219 0)"/>
      <use xlink:href="#DejaVuSans-73" transform="translate(268.033203 0)"/>
      <use xlink:href="#DejaVuSans-68" transform="translate(320.132812 0)"/>
      <use xlink:href="#DejaVuSans-6f" transform="translate(383.511719 0)"/>
      <use xlink:href="#DejaVuSans-74" transform="translate(444.693359 0)"/>
     </g>
     <!-- Accuracy -->
     <g transform="translate(24.116625 146.531312) rotate(-90) scale(0.09 -0.09)">
      <defs>
       <path id="DejaVuSans-41" d="M 2188 4044 
L 1331 1722 
L 3047 1722 
L 2188 4044 
z
M 1831 4666 
L 2547 4666 
L 4325 0 
L 3669 0 
L 3244 1197 
L 1141 1197 
L 716 0 
L 50 0 
L 1831 4666 
z
" transform="scale(0.015625)"/>
       <path id="DejaVuSans-63" d="M 3122 3366 
L 3122 2828 
Q 2878 2963 2633 3030 
Q 2388 3097 2138 3097 
Q 1578 3097 1268 2742 
Q 959 2388 959 1747 
Q 959 1106 1268 751 
Q 1578 397 2138 397 
Q 2388 397 2633 464 
Q 2878 531 3122 666 
L 3122 134 
Q 2881 22 2623 -34 
Q 2366 -91 2075 -91 
Q 1284 -91 818 406 
Q 353 903 353 1747 
Q 353 2603 823 3093 
Q 1294 3584 2113 3584 
Q 2378 3584 2631 3529 
Q 2884 3475 3122 3366 
z
" transform="scale(0.015625)"/>
       <path id="DejaVuSans-75" d="M 544 1381 
L 544 3500 
L 1119 3500 
L 1119 1403 
Q 1119 906 1312 657 
Q 1506 409 1894 409 
Q 2359 409 2629 706 
Q 2900 1003 2900 1516 
L 2900 3500 
L 3475 3500 
L 3475 0 
L 2900 0 
L 2900 538 
Q 2691 219 2414 64 
Q 2138 -91 1772 -91 
Q 1169 -91 856 284 
Q 544 659 544 1381 
z
M 1991 3584 
L 1991 3584 
z
" transform="scale(0.015625)"/>
       <path id="DejaVuSans-61" d="M 2194 1759 
Q 1497 1759 1228 1600 
Q 959 1441 959 1056 
Q 959 750 1161 570 
Q 1363 391 1709 391 
Q 2188 391 2477 730 
Q 2766 1069 2766 1631 
L 2766 1759 
L 2194 1759 
z
M 3341 1997 
L 3341 0 
L 2766 0 
L 2766 531 
Q 2569 213 2275 61 
Q 1981 -91 1556 -91 
Q 1019 -91 701 211 
Q 384 513 384 1019 
Q 384 1609 779 1909 
Q 1175 2209 1959 2209 
L 2766 2209 
L 2766 2266 
Q 2766 2663 2505 2880 
Q 2244 3097 1772 3097 
Q 1472 3097 1187 3025 
Q 903 2953 641 2809 
L 641 3341 
Q 956 3463 1253 3523 
Q 1550 3584 1831 3584 
Q 2591 3584 2966 3190 
Q 3341 2797 3341 1997 
z
" transform="scale(0.015625)"/>
       <path id="DejaVuSans-79" d="M 2059 -325 
Q 1816 -950 1584 -1140 
Q 1353 -1331 966 -1331 
L 506 -1331 
L 506 -850 
L 844 -850 
Q 1081 -850 1212 -737 
Q 1344 -625 1503 -206 
L 1606 56 
L 191 3500 
L 800 3500 
L 1894 763 
L 2988 3500 
L 3597 3500 
L 2059 -325 
z
" transform="scale(0.015625)"/>
      </defs>
      <use xlink:href="#DejaVuSans-41"/>
      <use xlink:href="#DejaVuSans-63" transform="translate(66.658203 0)"/>
      <use xlink:href="#DejaVuSans-63" transform="translate(121.638672 0)"/>
      <use xlink:href="#DejaVuSans-75" transform="translate(176.619141 0)"/>
      <use xlink:href="#DejaVuSans-72" transform="translate(239.998047 0)"/>
      <use xlink:href="#DejaVuSans-61" transform="translate(281.111328 0)"/>
      <use xlink:href="#DejaVuSans-63" transform="translate(342.390625 0)"/>
      <use xlink:href="#DejaVuSans-79" transform="translate(397.371094 0)"/>
     </g>
    </g>
   </g>
   <g id="line2d_25">
    <path d="M 49.710844 196.796 
L 217.854177 55.176 
" clip-path="url(#pa1579e20be)" style="fill: none; stroke-dasharray: 3.33,1.44; stroke-dashoffset: 0; stroke: #777777; stroke-width: 0.9"/>
   </g>
   <g id="line2d_26">
    <path d="M 143.145846 125.986 
L 159.155688 145.297818 
L 177.412323 143.6885 
L 193.219063 140.148 
L 211.914898 108.573705 
" clip-path="url(#pa1579e20be)" style="fill: none; stroke: #666666; stroke-opacity: 0.9; stroke-width: 1.8; stroke-linecap: square"/>
   </g>
   <g id="patch_3">
    <path d="M 49.710844 196.796 
L 49.710844 55.176 
" style="fill: none; stroke: #000000; stroke-width: 0.8; stroke-linejoin: miter; stroke-linecap: square"/>
   </g>
   <g id="patch_4">
    <path d="M 49.710844 196.796 
L 217.854177 196.796 
" style="fill: none; stroke: #000000; stroke-width: 0.8; stroke-linejoin: miter; stroke-linecap: square"/>
   </g>
   <g id="PathCollection_1">
    <path d="M 143.145846 129.333375 
C 144.03358 129.333375 144.885074 128.980674 145.512797 128.352951 
C 146.14052 127.725229 146.49322 126.873734 146.49322 125.986 
C 146.49322 125.098266 146.14052 124.246771 145.512797 123.619049 
C 144.885074 122.991326 144.03358 122.638625 143.145846 122.638625 
C 142.258111 122.638625 141.406617 122.991326 140.778894 123.619049 
C 140.151171 124.246771 139.798471 125.098266 139.798471 125.986 
C 139.798471 126.873734 140.151171 127.725229 140.778894 128.352951 
C 141.406617 128.980674 142.258111 129.333375 143.145846 129.333375 
z
" style="fill: #666666; fill-opacity: 0.9; stroke: #666666; stroke-opacity: 0.9; stroke-width: 0.25"/>
    <path d="M 159.155688 148.966471 
C 160.128627 148.966471 161.061847 148.579919 161.749818 147.891948 
C 162.437789 147.203977 162.824342 146.270756 162.824342 145.297818 
C 162.824342 144.32488 162.437789 143.39166 161.749818 142.703689 
C 161.061847 142.015717 160.128627 141.629165 159.155688 141.629165 
C 158.18275 141.629165 157.24953 142.015717 156.561559 142.703689 
C 155.873588 143.39166 155.487035 144.32488 155.487035 145.297818 
C 155.487035 146.270756 155.873588 147.203977 156.561559 147.891948 
C 157.24953 148.579919 158.18275 148.966471 159.155688 148.966471 
z
" style="fill: #666666; fill-opacity: 0.9; stroke: #666666; stroke-opacity: 0.9; stroke-width: 0.25"/>
    <path d="M 177.412323 148.083915 
C 178.578001 148.083915 179.696092 147.620786 180.520351 146.796528 
C 181.344609 145.972269 181.807738 144.854178 181.807738 143.6885 
C 181.807738 142.522822 181.344609 141.404731 180.520351 140.580472 
C 179.696092 139.756214 178.578001 139.293085 177.412323 139.293085 
C 176.246645 139.293085 175.128554 139.756214 174.304295 140.580472 
C 173.480037 141.404731 173.016908 142.522822 173.016908 143.6885 
C 173.016908 144.854178 173.480037 145.972269 174.304295 146.796528 
C 175.128554 147.620786 176.246645 148.083915 177.412323 148.083915 
z
" style="fill: #666666; fill-opacity: 0.9; stroke: #666666; stroke-opacity: 0.9; stroke-width: 0.25"/>
    <path d="M 193.219063 144.333259 
C 194.329006 144.333259 195.393639 143.892274 196.178488 143.107425 
C 196.963336 142.322576 197.404322 141.257944 197.404322 140.148 
C 197.404322 139.038056 196.963336 137.973424 196.178488 137.188575 
C 195.393639 136.403726 194.329006 135.962741 193.219063 135.962741 
C 192.109119 135.962741 191.044486 136.403726 190.259638 137.188575 
C 189.474789 137.973424 189.033804 139.038056 189.033804 140.148 
C 189.033804 141.257944 189.474789 142.322576 190.259638 143.107425 
C 191.044486 143.892274 192.109119 144.333259 193.219063 144.333259 
z
" style="fill: #666666; fill-opacity: 0.9; stroke: #666666; stroke-opacity: 0.9; stroke-width: 0.25"/>
    <path d="M 211.914898 114.573705 
C 213.506116 114.573705 215.032377 113.941507 216.157538 112.816346 
C 217.2827 111.691184 217.914898 110.164924 217.914898 108.573705 
C 217.914898 106.982486 217.2827 105.456226 216.157538 104.331064 
C 215.032377 103.205903 213.506116 102.573705 211.914898 102.573705 
C 210.323679 102.573705 208.797419 103.205903 207.672257 104.331064 
C 206.547096 105.456226 205.914898 106.982486 205.914898 108.573705 
C 205.914898 110.164924 206.547096 111.691184 207.672257 112.816346 
C 208.797419 113.941507 210.323679 114.573705 211.914898 114.573705 
z
" style="fill: #666666; fill-opacity: 0.9; stroke: #666666; stroke-opacity: 0.9; stroke-width: 0.25"/>
   </g>
   <g id="text_8">
    <!-- VQA-RAD -->
    <g transform="translate(110.77001 49.176) scale(0.1 -0.1)">
     <defs>
      <path id="DejaVuSans-56" d="M 1831 0 
L 50 4666 
L 709 4666 
L 2188 738 
L 3669 4666 
L 4325 4666 
L 2547 0 
L 1831 0 
z
" transform="scale(0.015625)"/>
      <path id="DejaVuSans-51" d="M 2522 4238 
Q 1834 4238 1429 3725 
Q 1025 3213 1025 2328 
Q 1025 1447 1429 934 
Q 1834 422 2522 422 
Q 3209 422 3611 934 
Q 4013 1447 4013 2328 
Q 4013 3213 3611 3725 
Q 3209 4238 2522 4238 
z
M 3406 84 
L 4238 -825 
L 3475 -825 
L 2784 -78 
Q 2681 -84 2626 -87 
Q 2572 -91 2522 -91 
Q 1538 -91 948 567 
Q 359 1225 359 2328 
Q 359 3434 948 4092 
Q 1538 4750 2522 4750 
Q 3503 4750 4090 4092 
Q 4678 3434 4678 2328 
Q 4678 1516 4351 937 
Q 4025 359 3406 84 
z
" transform="scale(0.015625)"/>
      <path id="DejaVuSans-52" d="M 2841 2188 
Q 3044 2119 3236 1894 
Q 3428 1669 3622 1275 
L 4263 0 
L 3584 0 
L 2988 1197 
Q 2756 1666 2539 1819 
Q 2322 1972 1947 1972 
L 1259 1972 
L 1259 0 
L 628 0 
L 628 4666 
L 2053 4666 
Q 2853 4666 3247 4331 
Q 3641 3997 3641 3322 
Q 3641 2881 3436 2590 
Q 3231 2300 2841 2188 
z
M 1259 4147 
L 1259 2491 
L 2053 2491 
Q 2509 2491 2742 2702 
Q 2975 2913 2975 3322 
Q 2975 3731 2742 3939 
Q 2509 4147 2053 4147 
L 1259 4147 
z
" transform="scale(0.015625)"/>
      <path id="DejaVuSans-44" d="M 1259 4147 
L 1259 519 
L 2022 519 
Q 2988 519 3436 956 
Q 3884 1394 3884 2338 
Q 3884 3275 3436 3711 
Q 2988 4147 2022 4147 
L 1259 4147 
z
M 628 4666 
L 1925 4666 
Q 3281 4666 3915 4102 
Q 4550 3538 4550 2338 
Q 4550 1131 3912 565 
Q 3275 0 1925 0 
L 628 0 
L 628 4666 
z
" transform="scale(0.015625)"/>
     </defs>
     <use xlink:href="#DejaVuSans-56"/>
     <use xlink:href="#DejaVuSans-51" transform="translate(68.408203 0)"/>
     <use xlink:href="#DejaVuSans-41" transform="translate(147.119141 0)"/>
     <use xlink:href="#DejaVuSans-2d" transform="translate(213.277344 0)"/>
     <use xlink:href="#DejaVuSans-52" transform="translate(249.361328 0)"/>
     <use xlink:href="#DejaVuSans-41" transform="translate(314.84375 0)"/>
     <use xlink:href="#DejaVuSans-44" transform="translate(383.251953 0)"/>
    </g>
   </g>
  </g>
  <g id="axes_2">
   <g id="patch_5">
    <path d="M 240.354177 196.796 
L 408.49751 196.796 
L 408.49751 55.176 
L 240.354177 55.176 
z
" style="fill: #ffffff"/>
   </g>
   <g id="matplotlib.axis_3">
    <g id="xtick_7">
     <g id="line2d_27">
      <path d="M 240.354177 196.796 
L 240.354177 55.176 
" clip-path="url(#p702bf6bf93)" style="fill: none; stroke: #b0b0b0; stroke-opacity: 0.18; stroke-width: 0.6; stroke-linecap: square"/>
     </g>
     <g id="line2d_28">
      <g>
       <use xlink:href="#me113979e50" x="240.354177" y="196.796" style="stroke: #000000; stroke-width: 0.8"/>
      </g>
     </g>
    </g>
    <g id="xtick_8">
     <g id="line2d_29">
      <path d="M 273.982844 196.796 
L 273.982844 55.176 
" clip-path="url(#p702bf6bf93)" style="fill: none; stroke: #b0b0b0; stroke-opacity: 0.18; stroke-width: 0.6; stroke-linecap: square"/>
     </g>
     <g id="line2d_30">
      <g>
       <use xlink:href="#me113979e50" x="273.982844" y="196.796" style="stroke: #000000; stroke-width: 0.8"/>
      </g>
     </g>
    </g>
    <g id="xtick_9">
     <g id="line2d_31">
      <path d="M 307.61151 196.796 
L 307.61151 55.176 
" clip-path="url(#p702bf6bf93)" style="fill: none; stroke: #b0b0b0; stroke-opacity: 0.18; stroke-width: 0.6; stroke-linecap: square"/>
     </g>
     <g id="line2d_32">
      <g>
       <use xlink:href="#me113979e50" x="307.61151" y="196.796" style="stroke: #000000; stroke-width: 0.8"/>
      </g>
     </g>
    </g>
    <g id="xtick_10">
     <g id="line2d_33">
      <path d="M 341.240177 196.796 
L 341.240177 55.176 
" clip-path="url(#p702bf6bf93)" style="fill: none; stroke: #b0b0b0; stroke-opacity: 0.18; stroke-width: 0.6; stroke-linecap: square"/>
     </g>
     <g id="line2d_34">
      <g>
       <use xlink:href="#me113979e50" x="341.240177" y="196.796" style="stroke: #000000; stroke-width: 0.8"/>
      </g>
     </g>
    </g>
    <g id="xtick_11">
     <g id="line2d_35">
      <path d="M 374.868844 196.796 
L 374.868844 55.176 
" clip-path="url(#p702bf6bf93)" style="fill: none; stroke: #b0b0b0; stroke-opacity: 0.18; stroke-width: 0.6; stroke-linecap: square"/>
     </g>
     <g id="line2d_36">
      <g>
       <use xlink:href="#me113979e50" x="374.868844" y="196.796" style="stroke: #000000; stroke-width: 0.8"/>
      </g>
     </g>
    </g>
    <g id="xtick_12">
     <g id="line2d_37">
      <path d="M 408.49751 196.796 
L 408.49751 55.176 
" clip-path="url(#p702bf6bf93)" style="fill: none; stroke: #b0b0b0; stroke-opacity: 0.18; stroke-width: 0.6; stroke-linecap: square"/>
     </g>
     <g id="line2d_38">
      <g>
       <use xlink:href="#me113979e50" x="408.49751" y="196.796" style="stroke: #000000; stroke-width: 0.8"/>
      </g>
     </g>
    </g>
   </g>
   <g id="matplotlib.axis_4">
    <g id="ytick_7">
     <g id="line2d_39">
      <path d="M 240.354177 196.796 
L 408.49751 196.796 
" clip-path="url(#p702bf6bf93)" style="fill: none; stroke: #b0b0b0; stroke-opacity: 0.18; stroke-width: 0.6; stroke-linecap: square"/>
     </g>
     <g id="line2d_40">
      <g>
       <use xlink:href="#m4c063db5f0" x="240.354177" y="196.796" style="stroke: #000000; stroke-width: 0.8"/>
      </g>
     </g>
    </g>
    <g id="ytick_8">
     <g id="line2d_41">
      <path d="M 240.354177 168.472 
L 408.49751 168.472 
" clip-path="url(#p702bf6bf93)" style="fill: none; stroke: #b0b0b0; stroke-opacity: 0.18; stroke-width: 0.6; stroke-linecap: square"/>
     </g>
     <g id="line2d_42">
      <g>
       <use xlink:href="#m4c063db5f0" x="240.354177" y="168.472" style="stroke: #000000; stroke-width: 0.8"/>
      </g>
     </g>
    </g>
    <g id="ytick_9">
     <g id="line2d_43">
      <path d="M 240.354177 140.148 
L 408.49751 140.148 
" clip-path="url(#p702bf6bf93)" style="fill: none; stroke: #b0b0b0; stroke-opacity: 0.18; stroke-width: 0.6; stroke-linecap: square"/>
     </g>
     <g id="line2d_44">
      <g>
       <use xlink:href="#m4c063db5f0" x="240.354177" y="140.148" style="stroke: #000000; stroke-width: 0.8"/>
      </g>
     </g>
    </g>
    <g id="ytick_10">
     <g id="line2d_45">
      <path d="M 240.354177 111.824 
L 408.49751 111.824 
" clip-path="url(#p702bf6bf93)" style="fill: none; stroke: #b0b0b0; stroke-opacity: 0.18; stroke-width: 0.6; stroke-linecap: square"/>
     </g>
     <g id="line2d_46">
      <g>
       <use xlink:href="#m4c063db5f0" x="240.354177" y="111.824" style="stroke: #000000; stroke-width: 0.8"/>
      </g>
     </g>
    </g>
    <g id="ytick_11">
     <g id="line2d_47">
      <path d="M 240.354177 83.5 
L 408.49751 83.5 
" clip-path="url(#p702bf6bf93)" style="fill: none; stroke: #b0b0b0; stroke-opacity: 0.18; stroke-width: 0.6; stroke-linecap: square"/>
     </g>
     <g id="line2d_48">
      <g>
       <use xlink:href="#m4c063db5f0" x="240.354177" y="83.5" style="stroke: #000000; stroke-width: 0.8"/>
      </g>
     </g>
    </g>
    <g id="ytick_12">
     <g id="line2d_49">
      <path d="M 240.354177 55.176 
L 408.49751 55.176 
" clip-path="url(#p702bf6bf93)" style="fill: none; stroke: #b0b0b0; stroke-opacity: 0.18; stroke-width: 0.6; stroke-linecap: square"/>
     </g>
     <g id="line2d_50">
      <g>
       <use xlink:href="#m4c063db5f0" x="240.354177" y="55.176" style="stroke: #000000; stroke-width: 0.8"/>
      </g>
     </g>
    </g>
   </g>
   <g id="line2d_51">
    <path d="M 240.354177 196.796 
L 408.49751 55.176 
" clip-path="url(#p702bf6bf93)" style="fill: none; stroke-dasharray: 3.33,1.44; stroke-dashoffset: 0; stroke: #777777; stroke-width: 0.9"/>
   </g>
   <g id="line2d_52">
    <path d="M 333.315835 168.472 
L 350.132939 125.986 
L 362.571862 161.391 
L 385.497867 169.561385 
L 406.172683 116.444227 
" clip-path="url(#p702bf6bf93)" style="fill: none; stroke: #666666; stroke-opacity: 0.9; stroke-width: 1.8; stroke-linecap: square"/>
   </g>
   <g id="patch_6">
    <path d="M 240.354177 196.796 
L 240.354177 55.176 
" style="fill: none; stroke: #000000; stroke-width: 0.8; stroke-linejoin: miter; stroke-linecap: square"/>
   </g>
   <g id="patch_7">
    <path d="M 240.354177 196.796 
L 408.49751 196.796 
" style="fill: none; stroke: #000000; stroke-width: 0.8; stroke-linejoin: miter; stroke-linecap: square"/>
   </g>
   <g id="PathCollection_2">
    <path d="M 333.315835 171.516718 
C 334.123304 171.516718 334.89781 171.195907 335.468776 170.624941 
C 336.039743 170.053974 336.360554 169.279469 336.360554 168.472 
C 336.360554 167.664531 336.039743 166.890026 335.468776 166.319059 
C 334.89781 165.748093 334.123304 165.427282 333.315835 165.427282 
C 332.508367 165.427282 331.733861 165.748093 331.162895 166.319059 
C 330.591928 166.890026 330.271117 167.664531 330.271117 168.472 
C 330.271117 169.279469 330.591928 170.053974 331.162895 170.624941 
C 331.733861 171.195907 332.508367 171.516718 333.315835 171.516718 
z
" style="fill: #666666; fill-opacity: 0.9; stroke: #666666; stroke-opacity: 0.9; stroke-width: 0.25"/>
    <path d="M 350.132939 129.250485 
C 350.998691 129.250485 351.8291 128.906518 352.441279 128.29434 
C 353.053458 127.682161 353.397424 126.851752 353.397424 125.986 
C 353.397424 125.120248 353.053458 124.289839 352.441279 123.67766 
C 351.8291 123.065482 350.998691 122.721515 350.132939 122.721515 
C 349.267188 122.721515 348.436779 123.065482 347.8246 123.67766 
C 347.212421 124.289839 346.868454 125.120248 346.868454 125.986 
C 346.868454 126.851752 347.212421 127.682161 347.8246 128.29434 
C 348.436779 128.906518 349.267188 129.250485 350.132939 129.250485 
z
" style="fill: #666666; fill-opacity: 0.9; stroke: #666666; stroke-opacity: 0.9; stroke-width: 0.25"/>
    <path d="M 362.571862 164.410312 
C 363.372593 164.410312 364.140636 164.092178 364.706838 163.525976 
C 365.273041 162.959774 365.591174 162.191731 365.591174 161.391 
C 365.591174 160.590269 365.273041 159.822226 364.706838 159.256024 
C 364.140636 158.689822 363.372593 158.371688 362.571862 158.371688 
C 361.771131 158.371688 361.003088 158.689822 360.436886 159.256024 
C 359.870684 159.822226 359.55255 160.590269 359.55255 161.391 
C 359.55255 162.191731 359.870684 162.959774 360.436886 163.525976 
C 361.003088 164.092178 361.771131 164.410312 362.571862 164.410312 
z
" style="fill: #666666; fill-opacity: 0.9; stroke: #666666; stroke-opacity: 0.9; stroke-width: 0.25"/>
    <path d="M 385.497867 173.624783 
C 386.575493 173.624783 387.609127 173.196637 388.371123 172.434641 
C 389.13312 171.672644 389.561265 170.63901 389.561265 169.561385 
C 389.561265 168.483759 389.13312 167.450125 388.371123 166.688128 
C 387.609127 165.926132 386.575493 165.497986 385.497867 165.497986 
C 384.420241 165.497986 383.386607 165.926132 382.62461 166.688128 
C 381.862614 167.450125 381.434469 168.483759 381.434469 169.561385 
C 381.434469 170.63901 381.862614 171.672644 382.62461 172.434641 
C 383.386607 173.196637 384.420241 173.624783 385.497867 173.624783 
z
" style="fill: #666666; fill-opacity: 0.9; stroke: #666666; stroke-opacity: 0.9; stroke-width: 0.25"/>
    <path d="M 406.172683 123.651541 
C 408.084086 123.651541 409.917459 122.892133 411.269024 121.540568 
C 412.62059 120.189002 413.379998 118.355629 413.379998 116.444227 
C 413.379998 114.532825 412.62059 112.699452 411.269024 111.347886 
C 409.917459 109.996321 408.084086 109.236913 406.172683 109.236913 
C 404.261281 109.236913 402.427908 109.996321 401.076343 111.347886 
C 399.724777 112.699452 398.965369 114.532825 398.965369 116.444227 
C 398.965369 118.355629 399.724777 120.189002 401.076343 121.540568 
C 402.427908 122.892133 404.261281 123.651541 406.172683 123.651541 
z
" style="fill: #666666; fill-opacity: 0.9; stroke: #666666; stroke-opacity: 0.9; stroke-width: 0.25"/>
   </g>
   <g id="text_9">
    <!-- SLAKE-en -->
    <g transform="translate(300.445375 49.176) scale(0.1 -0.1)">
     <defs>
      <path id="DejaVuSans-53" d="M 3425 4513 
L 3425 3897 
Q 3066 4069 2747 4153 
Q 2428 4238 2131 4238 
Q 1616 4238 1336 4038 
Q 1056 3838 1056 3469 
Q 1056 3159 1242 3001 
Q 1428 2844 1947 2747 
L 2328 2669 
Q 3034 2534 3370 2195 
Q 3706 1856 3706 1288 
Q 3706 609 3251 259 
Q 2797 -91 1919 -91 
Q 1588 -91 1214 -16 
Q 841 59 441 206 
L 441 856 
Q 825 641 1194 531 
Q 1563 422 1919 422 
Q 2459 422 2753 634 
Q 3047 847 3047 1241 
Q 3047 1584 2836 1778 
Q 2625 1972 2144 2069 
L 1759 2144 
Q 1053 2284 737 2584 
Q 422 2884 422 3419 
Q 422 4038 858 4394 
Q 1294 4750 2059 4750 
Q 2388 4750 2728 4690 
Q 3069 4631 3425 4513 
z
" transform="scale(0.015625)"/>
      <path id="DejaVuSans-4c" d="M 628 4666 
L 1259 4666 
L 1259 531 
L 3531 531 
L 3531 0 
L 628 0 
L 628 4666 
z
" transform="scale(0.015625)"/>
      <path id="DejaVuSans-4b" d="M 628 4666 
L 1259 4666 
L 1259 2694 
L 3353 4666 
L 4166 4666 
L 1850 2491 
L 4331 0 
L 3500 0 
L 1259 2247 
L 1259 0 
L 628 0 
L 628 4666 
z
" transform="scale(0.015625)"/>
      <path id="DejaVuSans-45" d="M 628 4666 
L 3578 4666 
L 3578 4134 
L 1259 4134 
L 1259 2753 
L 3481 2753 
L 3481 2222 
L 1259 2222 
L 1259 531 
L 3634 531 
L 3634 0 
L 628 0 
L 628 4666 
z
" transform="scale(0.015625)"/>
      <path id="DejaVuSans-6e" d="M 3513 2113 
L 3513 0 
L 2938 0 
L 2938 2094 
Q 2938 2591 2744 2837 
Q 2550 3084 2163 3084 
Q 1697 3084 1428 2787 
Q 1159 2491 1159 1978 
L 1159 0 
L 581 0 
L 581 3500 
L 1159 3500 
L 1159 2956 
Q 1366 3272 1645 3428 
Q 1925 3584 2291 3584 
Q 2894 3584 3203 3211 
Q 3513 2838 3513 2113 
z
" transform="scale(0.015625)"/>
     </defs>
     <use xlink:href="#DejaVuSans-53"/>
     <use xlink:href="#DejaVuSans-4c" transform="translate(63.476562 0)"/>
     <use xlink:href="#DejaVuSans-41" transform="translate(121.439453 0)"/>
     <use xlink:href="#DejaVuSans-4b" transform="translate(189.847656 0)"/>
     <use xlink:href="#DejaVuSans-45" transform="translate(255.423828 0)"/>
     <use xlink:href="#DejaVuSans-2d" transform="translate(318.607422 0)"/>
     <use xlink:href="#DejaVuSans-65" transform="translate(354.691406 0)"/>
     <use xlink:href="#DejaVuSans-6e" transform="translate(416.214844 0)"/>
    </g>
   </g>
  </g>
  <g id="axes_3">
   <g id="patch_8">
    <path d="M 430.99751 196.796 
L 599.140844 196.796 
L 599.140844 55.176 
L 430.99751 55.176 
z
" style="fill: #ffffff"/>
   </g>
   <g id="matplotlib.axis_5">
    <g id="xtick_13">
     <g id="line2d_53">
      <path d="M 430.99751 196.796 
L 430.99751 55.176 
" clip-path="url(#pecff3272ca)" style="fill: none; stroke: #b0b0b0; stroke-opacity: 0.18; stroke-width: 0.6; stroke-linecap: square"/>
     </g>
     <g id="line2d_54">
      <g>
       <use xlink:href="#me113979e50" x="430.99751" y="196.796" style="stroke: #000000; stroke-width: 0.8"/>
      </g>
     </g>
    </g>
    <g id="xtick_14">
     <g id="line2d_55">
      <path d="M 464.626177 196.796 
L 464.626177 55.176 
" clip-path="url(#pecff3272ca)" style="fill: none; stroke: #b0b0b0; stroke-opacity: 0.18; stroke-width: 0.6; stroke-linecap: square"/>
     </g>
     <g id="line2d_56">
      <g>
       <use xlink:href="#me113979e50" x="464.626177" y="196.796" style="stroke: #000000; stroke-width: 0.8"/>
      </g>
     </g>
    </g>
    <g id="xtick_15">
     <g id="line2d_57">
      <path d="M 498.254844 196.796 
L 498.254844 55.176 
" clip-path="url(#pecff3272ca)" style="fill: none; stroke: #b0b0b0; stroke-opacity: 0.18; stroke-width: 0.6; stroke-linecap: square"/>
     </g>
     <g id="line2d_58">
      <g>
       <use xlink:href="#me113979e50" x="498.254844" y="196.796" style="stroke: #000000; stroke-width: 0.8"/>
      </g>
     </g>
    </g>
    <g id="xtick_16">
     <g id="line2d_59">
      <path d="M 531.88351 196.796 
L 531.88351 55.176 
" clip-path="url(#pecff3272ca)" style="fill: none; stroke: #b0b0b0; stroke-opacity: 0.18; stroke-width: 0.6; stroke-linecap: square"/>
     </g>
     <g id="line2d_60">
      <g>
       <use xlink:href="#me113979e50" x="531.88351" y="196.796" style="stroke: #000000; stroke-width: 0.8"/>
      </g>
     </g>
    </g>
    <g id="xtick_17">
     <g id="line2d_61">
      <path d="M 565.512177 196.796 
L 565.512177 55.176 
" clip-path="url(#pecff3272ca)" style="fill: none; stroke: #b0b0b0; stroke-opacity: 0.18; stroke-width: 0.6; stroke-linecap: square"/>
     </g>
     <g id="line2d_62">
      <g>
       <use xlink:href="#me113979e50" x="565.512177" y="196.796" style="stroke: #000000; stroke-width: 0.8"/>
      </g>
     </g>
    </g>
    <g id="xtick_18">
     <g id="line2d_63">
      <path d="M 599.140844 196.796 
L 599.140844 55.176 
" clip-path="url(#pecff3272ca)" style="fill: none; stroke: #b0b0b0; stroke-opacity: 0.18; stroke-width: 0.6; stroke-linecap: square"/>
     </g>
     <g id="line2d_64">
      <g>
       <use xlink:href="#me113979e50" x="599.140844" y="196.796" style="stroke: #000000; stroke-width: 0.8"/>
      </g>
     </g>
    </g>
   </g>
   <g id="matplotlib.axis_6">
    <g id="ytick_13">
     <g id="line2d_65">
      <path d="M 430.99751 196.796 
L 599.140844 196.796 
" clip-path="url(#pecff3272ca)" style="fill: none; stroke: #b0b0b0; stroke-opacity: 0.18; stroke-width: 0.6; stroke-linecap: square"/>
     </g>
     <g id="line2d_66">
      <g>
       <use xlink:href="#m4c063db5f0" x="430.99751" y="196.796" style="stroke: #000000; stroke-width: 0.8"/>
      </g>
     </g>
    </g>
    <g id="ytick_14">
     <g id="line2d_67">
      <path d="M 430.99751 168.472 
L 599.140844 168.472 
" clip-path="url(#pecff3272ca)" style="fill: none; stroke: #b0b0b0; stroke-opacity: 0.18; stroke-width: 0.6; stroke-linecap: square"/>
     </g>
     <g id="line2d_68">
      <g>
       <use xlink:href="#m4c063db5f0" x="430.99751" y="168.472" style="stroke: #000000; stroke-width: 0.8"/>
      </g>
     </g>
    </g>
    <g id="ytick_15">
     <g id="line2d_69">
      <path d="M 430.99751 140.148 
L 599.140844 140.148 
" clip-path="url(#pecff3272ca)" style="fill: none; stroke: #b0b0b0; stroke-opacity: 0.18; stroke-width: 0.6; stroke-linecap: square"/>
     </g>
     <g id="line2d_70">
      <g>
       <use xlink:href="#m4c063db5f0" x="430.99751" y="140.148" style="stroke: #000000; stroke-width: 0.8"/>
      </g>
     </g>
    </g>
    <g id="ytick_16">
     <g id="line2d_71">
      <path d="M 430.99751 111.824 
L 599.140844 111.824 
" clip-path="url(#pecff3272ca)" style="fill: none; stroke: #b0b0b0; stroke-opacity: 0.18; stroke-width: 0.6; stroke-linecap: square"/>
     </g>
     <g id="line2d_72">
      <g>
       <use xlink:href="#m4c063db5f0" x="430.99751" y="111.824" style="stroke: #000000; stroke-width: 0.8"/>
      </g>
     </g>
    </g>
    <g id="ytick_17">
     <g id="line2d_73">
      <path d="M 430.99751 83.5 
L 599.140844 83.5 
" clip-path="url(#pecff3272ca)" style="fill: none; stroke: #b0b0b0; stroke-opacity: 0.18; stroke-width: 0.6; stroke-linecap: square"/>
     </g>
     <g id="line2d_74">
      <g>
       <use xlink:href="#m4c063db5f0" x="430.99751" y="83.5" style="stroke: #000000; stroke-width: 0.8"/>
      </g>
     </g>
    </g>
    <g id="ytick_18">
     <g id="line2d_75">
      <path d="M 430.99751 55.176 
L 599.140844 55.176 
" clip-path="url(#pecff3272ca)" style="fill: none; stroke: #b0b0b0; stroke-opacity: 0.18; stroke-width: 0.6; stroke-linecap: square"/>
     </g>
     <g id="line2d_76">
      <g>
       <use xlink:href="#m4c063db5f0" x="430.99751" y="55.176" style="stroke: #000000; stroke-width: 0.8"/>
      </g>
     </g>
    </g>
   </g>
   <g id="line2d_77">
    <path d="M 430.99751 196.796 
L 599.140844 55.176 
" clip-path="url(#pecff3272ca)" style="fill: none; stroke-dasharray: 3.33,1.44; stroke-dashoffset: 0; stroke: #777777; stroke-width: 0.9"/>
   </g>
   <g id="line2d_78">
    <path d="M 523.812339 118.905 
L 541.561501 132.838581 
L 557.752285 111.691023 
L 574.533777 103.472051 
L 593.535266 101.923234 
" clip-path="url(#pecff3272ca)" style="fill: none; stroke: #666666; stroke-opacity: 0.9; stroke-width: 1.8; stroke-linecap: square"/>
   </g>
   <g id="patch_9">
    <path d="M 430.99751 196.796 
L 430.99751 55.176 
" style="fill: none; stroke: #000000; stroke-width: 0.8; stroke-linejoin: miter; stroke-linecap: square"/>
   </g>
   <g id="patch_10">
    <path d="M 430.99751 196.796 
L 599.140844 196.796 
" style="fill: none; stroke: #000000; stroke-width: 0.8; stroke-linejoin: miter; stroke-linecap: square"/>
   </g>
   <g id="PathCollection_3">
    <path d="M 523.812339 122.24714 
C 524.698685 122.24714 525.548848 121.894991 526.17559 121.26825 
C 526.802331 120.641509 527.15448 119.791346 527.15448 118.905 
C 527.15448 118.018654 526.802331 117.168491 526.17559 116.54175 
C 525.548848 115.915009 524.698685 115.56286 523.812339 115.56286 
C 522.925993 115.56286 522.075831 115.915009 521.449089 116.54175 
C 520.822348 117.168491 520.470199 118.018654 520.470199 118.905 
C 520.470199 119.791346 520.822348 120.641509 521.449089 121.26825 
C 522.075831 121.894991 522.925993 122.24714 523.812339 122.24714 
z
" style="fill: #666666; fill-opacity: 0.9; stroke: #666666; stroke-opacity: 0.9; stroke-width: 0.25"/>
    <path d="M 541.561501 136.275248 
C 542.472916 136.275248 543.347124 135.913139 543.991592 135.268671 
C 544.636059 134.624204 544.998168 133.749995 544.998168 132.838581 
C 544.998168 131.927166 544.636059 131.052958 543.991592 130.40849 
C 543.347124 129.764023 542.472916 129.401914 541.561501 129.401914 
C 540.650086 129.401914 539.775878 129.764023 539.131411 130.40849 
C 538.486943 131.052958 538.124834 131.927166 538.124834 132.838581 
C 538.124834 133.749995 538.486943 134.624204 539.131411 135.268671 
C 539.775878 135.913139 540.650086 136.275248 541.561501 136.275248 
z
" style="fill: #666666; fill-opacity: 0.9; stroke: #666666; stroke-opacity: 0.9; stroke-width: 0.25"/>
    <path d="M 557.752285 115.457573 
C 558.751186 115.457573 559.709308 115.060705 560.415638 114.354376 
C 561.121967 113.648047 561.518834 112.689924 561.518834 111.691023 
C 561.518834 110.692123 561.121967 109.734 560.415638 109.027671 
C 559.709308 108.321342 558.751186 107.924474 557.752285 107.924474 
C 556.753385 107.924474 555.795262 108.321342 555.088933 109.027671 
C 554.382603 109.734 553.985736 110.692123 553.985736 111.691023 
C 553.985736 112.689924 554.382603 113.648047 555.088933 114.354376 
C 555.795262 115.060705 556.753385 115.457573 557.752285 115.457573 
z
" style="fill: #666666; fill-opacity: 0.9; stroke: #666666; stroke-opacity: 0.9; stroke-width: 0.25"/>
    <path d="M 574.533777 107.820916 
C 575.687109 107.820916 576.793359 107.362692 577.608888 106.547163 
C 578.424417 105.731634 578.882641 104.625384 578.882641 103.472051 
C 578.882641 102.318719 578.424417 101.212469 577.608888 100.39694 
C 576.793359 99.581411 575.687109 99.123187 574.533777 99.123187 
C 573.380444 99.123187 572.274194 99.581411 571.458665 100.39694 
C 570.643136 101.212469 570.184912 102.318719 570.184912 103.472051 
C 570.184912 104.625384 570.643136 105.731634 571.458665 106.547163 
C 572.274194 107.362692 573.380444 107.820916 574.533777 107.820916 
z
" style="fill: #666666; fill-opacity: 0.9; stroke: #666666; stroke-opacity: 0.9; stroke-width: 0.25"/>
    <path d="M 593.535266 108.359064 
C 595.242068 108.359064 596.879193 107.680944 598.086084 106.474053 
C 599.292976 105.267162 599.971095 103.630036 599.971095 101.923234 
C 599.971095 100.216432 599.292976 98.579307 598.086084 97.372416 
C 596.879193 96.165524 595.242068 95.487405 593.535266 95.487405 
C 591.828464 95.487405 590.191338 96.165524 588.984447 97.372416 
C 587.777556 98.579307 587.099436 100.216432 587.099436 101.923234 
C 587.099436 103.630036 587.777556 105.267162 588.984447 106.474053 
C 590.191338 107.680944 591.828464 108.359064 593.535266 108.359064 
z
" style="fill: #666666; fill-opacity: 0.9; stroke: #666666; stroke-opacity: 0.9; stroke-width: 0.25"/>
   </g>
   <g id="text_10">
    <!-- PathVQA -->
    <g transform="translate(493.309802 49.176) scale(0.1 -0.1)">
     <defs>
      <path id="DejaVuSans-50" d="M 1259 4147 
L 1259 2394 
L 2053 2394 
Q 2494 2394 2734 2622 
Q 2975 2850 2975 3272 
Q 2975 3691 2734 3919 
Q 2494 4147 2053 4147 
L 1259 4147 
z
M 628 4666 
L 2053 4666 
Q 2838 4666 3239 4311 
Q 3641 3956 3641 3272 
Q 3641 2581 3239 2228 
Q 2838 1875 2053 1875 
L 1259 1875 
L 1259 0 
L 628 0 
L 628 4666 
z
" transform="scale(0.015625)"/>
     </defs>
     <use xlink:href="#DejaVuSans-50"/>
     <use xlink:href="#DejaVuSans-61" transform="translate(55.802734 0)"/>
     <use xlink:href="#DejaVuSans-74" transform="translate(117.082031 0)"/>
     <use xlink:href="#DejaVuSans-68" transform="translate(156.291016 0)"/>
     <use xlink:href="#DejaVuSans-56" transform="translate(219.669922 0)"/>
     <use xlink:href="#DejaVuSans-51" transform="translate(288.078125 0)"/>
     <use xlink:href="#DejaVuSans-41" transform="translate(366.789062 0)"/>
    </g>
   </g>
  </g>
  <g id="axes_4">
   <g id="patch_11">
    <path d="M 49.710844 355.336 
L 217.854177 355.336 
L 217.854177 213.716 
L 49.710844 213.716 
z
" style="fill: #ffffff"/>
   </g>
   <g id="matplotlib.axis_7">
    <g id="xtick_19">
     <g id="line2d_79">
      <path d="M 49.710844 355.336 
L 49.710844 213.716 
" clip-path="url(#p0d77a36374)" style="fill: none; stroke: #b0b0b0; stroke-opacity: 0.18; stroke-width: 0.6; stroke-linecap: square"/>
     </g>
     <g id="line2d_80">
      <g>
       <use xlink:href="#me113979e50" x="49.710844" y="355.336" style="stroke: #000000; stroke-width: 0.8"/>
      </g>
     </g>
     <g id="text_11">
      <!-- 0.0 -->
      <g transform="translate(43.349594 368.41475) scale(0.08 -0.08)">
       <use xlink:href="#DejaVuSans-30"/>
       <use xlink:href="#DejaVuSans-2e" transform="translate(63.623047 0)"/>
       <use xlink:href="#DejaVuSans-30" transform="translate(95.410156 0)"/>
      </g>
     </g>
    </g>
    <g id="xtick_20">
     <g id="line2d_81">
      <path d="M 83.33951 355.336 
L 83.33951 213.716 
" clip-path="url(#p0d77a36374)" style="fill: none; stroke: #b0b0b0; stroke-opacity: 0.18; stroke-width: 0.6; stroke-linecap: square"/>
     </g>
     <g id="line2d_82">
      <g>
       <use xlink:href="#me113979e50" x="83.33951" y="355.336" style="stroke: #000000; stroke-width: 0.8"/>
      </g>
     </g>
     <g id="text_12">
      <!-- 0.2 -->
      <g transform="translate(76.97826 368.41475) scale(0.08 -0.08)">
       <use xlink:href="#DejaVuSans-30"/>
       <use xlink:href="#DejaVuSans-2e" transform="translate(63.623047 0)"/>
       <use xlink:href="#DejaVuSans-32" transform="translate(95.410156 0)"/>
      </g>
     </g>
    </g>
    <g id="xtick_21">
     <g id="line2d_83">
      <path d="M 116.968177 355.336 
L 116.968177 213.716 
" clip-path="url(#p0d77a36374)" style="fill: none; stroke: #b0b0b0; stroke-opacity: 0.18; stroke-width: 0.6; stroke-linecap: square"/>
     </g>
     <g id="line2d_84">
      <g>
       <use xlink:href="#me113979e50" x="116.968177" y="355.336" style="stroke: #000000; stroke-width: 0.8"/>
      </g>
     </g>
     <g id="text_13">
      <!-- 0.4 -->
      <g transform="translate(110.606927 368.41475) scale(0.08 -0.08)">
       <use xlink:href="#DejaVuSans-30"/>
       <use xlink:href="#DejaVuSans-2e" transform="translate(63.623047 0)"/>
       <use xlink:href="#DejaVuSans-34" transform="translate(95.410156 0)"/>
      </g>
     </g>
    </g>
    <g id="xtick_22">
     <g id="line2d_85">
      <path d="M 150.596844 355.336 
L 150.596844 213.716 
" clip-path="url(#p0d77a36374)" style="fill: none; stroke: #b0b0b0; stroke-opacity: 0.18; stroke-width: 0.6; stroke-linecap: square"/>
     </g>
     <g id="line2d_86">
      <g>
       <use xlink:href="#me113979e50" x="150.596844" y="355.336" style="stroke: #000000; stroke-width: 0.8"/>
      </g>
     </g>
     <g id="text_14">
      <!-- 0.6 -->
      <g transform="translate(144.235594 368.41475) scale(0.08 -0.08)">
       <use xlink:href="#DejaVuSans-30"/>
       <use xlink:href="#DejaVuSans-2e" transform="translate(63.623047 0)"/>
       <use xlink:href="#DejaVuSans-36" transform="translate(95.410156 0)"/>
      </g>
     </g>
    </g>
    <g id="xtick_23">
     <g id="line2d_87">
      <path d="M 184.22551 355.336 
L 184.22551 213.716 
" clip-path="url(#p0d77a36374)" style="fill: none; stroke: #b0b0b0; stroke-opacity: 0.18; stroke-width: 0.6; stroke-linecap: square"/>
     </g>
     <g id="line2d_88">
      <g>
       <use xlink:href="#me113979e50" x="184.22551" y="355.336" style="stroke: #000000; stroke-width: 0.8"/>
      </g>
     </g>
     <g id="text_15">
      <!-- 0.8 -->
      <g transform="translate(177.86426 368.41475) scale(0.08 -0.08)">
       <use xlink:href="#DejaVuSans-30"/>
       <use xlink:href="#DejaVuSans-2e" transform="translate(63.623047 0)"/>
       <use xlink:href="#DejaVuSans-38" transform="translate(95.410156 0)"/>
      </g>
     </g>
    </g>
    <g id="xtick_24">
     <g id="line2d_89">
      <path d="M 217.854177 355.336 
L 217.854177 213.716 
" clip-path="url(#p0d77a36374)" style="fill: none; stroke: #b0b0b0; stroke-opacity: 0.18; stroke-width: 0.6; stroke-linecap: square"/>
     </g>
     <g id="line2d_90">
      <g>
       <use xlink:href="#me113979e50" x="217.854177" y="355.336" style="stroke: #000000; stroke-width: 0.8"/>
      </g>
     </g>
     <g id="text_16">
      <!-- 1.0 -->
      <g transform="translate(211.492927 368.41475) scale(0.08 -0.08)">
       <use xlink:href="#DejaVuSans-31"/>
       <use xlink:href="#DejaVuSans-2e" transform="translate(63.623047 0)"/>
       <use xlink:href="#DejaVuSans-30" transform="translate(95.410156 0)"/>
      </g>
     </g>
    </g>
    <g id="text_17">
     <!-- Confidence -->
     <g transform="translate(108.479854 380.917094) scale(0.09 -0.09)">
      <defs>
       <path id="DejaVuSans-43" d="M 4122 4306 
L 4122 3641 
Q 3803 3938 3442 4084 
Q 3081 4231 2675 4231 
Q 1875 4231 1450 3742 
Q 1025 3253 1025 2328 
Q 1025 1406 1450 917 
Q 1875 428 2675 428 
Q 3081 428 3442 575 
Q 3803 722 4122 1019 
L 4122 359 
Q 3791 134 3420 21 
Q 3050 -91 2638 -91 
Q 1578 -91 968 557 
Q 359 1206 359 2328 
Q 359 3453 968 4101 
Q 1578 4750 2638 4750 
Q 3056 4750 3426 4639 
Q 3797 4528 4122 4306 
z
" transform="scale(0.015625)"/>
       <path id="DejaVuSans-66" d="M 2375 4863 
L 2375 4384 
L 1825 4384 
Q 1516 4384 1395 4259 
Q 1275 4134 1275 3809 
L 1275 3500 
L 2222 3500 
L 2222 3053 
L 1275 3053 
L 1275 0 
L 697 0 
L 697 3053 
L 147 3053 
L 147 3500 
L 697 3500 
L 697 3744 
Q 697 4328 969 4595 
Q 1241 4863 1831 4863 
L 2375 4863 
z
" transform="scale(0.015625)"/>
       <path id="DejaVuSans-69" d="M 603 3500 
L 1178 3500 
L 1178 0 
L 603 0 
L 603 3500 
z
M 603 4863 
L 1178 4863 
L 1178 4134 
L 603 4134 
L 603 4863 
z
" transform="scale(0.015625)"/>
       <path id="DejaVuSans-64" d="M 2906 2969 
L 2906 4863 
L 3481 4863 
L 3481 0 
L 2906 0 
L 2906 525 
Q 2725 213 2448 61 
Q 2172 -91 1784 -91 
Q 1150 -91 751 415 
Q 353 922 353 1747 
Q 353 2572 751 3078 
Q 1150 3584 1784 3584 
Q 2172 3584 2448 3432 
Q 2725 3281 2906 2969 
z
M 947 1747 
Q 947 1113 1208 752 
Q 1469 391 1925 391 
Q 2381 391 2643 752 
Q 2906 1113 2906 1747 
Q 2906 2381 2643 2742 
Q 2381 3103 1925 3103 
Q 1469 3103 1208 2742 
Q 947 2381 947 1747 
z
" transform="scale(0.015625)"/>
      </defs>
      <use xlink:href="#DejaVuSans-43"/>
      <use xlink:href="#DejaVuSans-6f" transform="translate(69.824219 0)"/>
      <use xlink:href="#DejaVuSans-6e" transform="translate(131.005859 0)"/>
      <use xlink:href="#DejaVuSans-66" transform="translate(194.384766 0)"/>
      <use xlink:href="#DejaVuSans-69" transform="translate(229.589844 0)"/>
      <use xlink:href="#DejaVuSans-64" transform="translate(257.373047 0)"/>
      <use xlink:href="#DejaVuSans-65" transform="translate(320.849609 0)"/>
      <use xlink:href="#DejaVuSans-6e" transform="translate(382.373047 0)"/>
      <use xlink:href="#DejaVuSans-63" transform="translate(445.751953 0)"/>
      <use xlink:href="#DejaVuSans-65" transform="translate(500.732422 0)"/>
     </g>
    </g>
   </g>
   <g id="matplotlib.axis_8">
    <g id="ytick_19">
     <g id="line2d_91">
      <path d="M 49.710844 355.336 
L 217.854177 355.336 
" clip-path="url(#p0d77a36374)" style="fill: none; stroke: #b0b0b0; stroke-opacity: 0.18; stroke-width: 0.6; stroke-linecap: square"/>
     </g>
     <g id="line2d_92">
      <g>
       <use xlink:href="#m4c063db5f0" x="49.710844" y="355.336" style="stroke: #000000; stroke-width: 0.8"/>
      </g>
     </g>
     <g id="text_18">
      <!-- 0.0 -->
      <g transform="translate(29.988344 358.375375) scale(0.08 -0.08)">
       <use xlink:href="#DejaVuSans-30"/>
       <use xlink:href="#DejaVuSans-2e" transform="translate(63.623047 0)"/>
       <use xlink:href="#DejaVuSans-30" transform="translate(95.410156 0)"/>
      </g>
     </g>
    </g>
    <g id="ytick_20">
     <g id="line2d_93">
      <path d="M 49.710844 327.012 
L 217.854177 327.012 
" clip-path="url(#p0d77a36374)" style="fill: none; stroke: #b0b0b0; stroke-opacity: 0.18; stroke-width: 0.6; stroke-linecap: square"/>
     </g>
     <g id="line2d_94">
      <g>
       <use xlink:href="#m4c063db5f0" x="49.710844" y="327.012" style="stroke: #000000; stroke-width: 0.8"/>
      </g>
     </g>
     <g id="text_19">
      <!-- 0.2 -->
      <g transform="translate(29.988344 330.051375) scale(0.08 -0.08)">
       <use xlink:href="#DejaVuSans-30"/>
       <use xlink:href="#DejaVuSans-2e" transform="translate(63.623047 0)"/>
       <use xlink:href="#DejaVuSans-32" transform="translate(95.410156 0)"/>
      </g>
     </g>
    </g>
    <g id="ytick_21">
     <g id="line2d_95">
      <path d="M 49.710844 298.688 
L 217.854177 298.688 
" clip-path="url(#p0d77a36374)" style="fill: none; stroke: #b0b0b0; stroke-opacity: 0.18; stroke-width: 0.6; stroke-linecap: square"/>
     </g>
     <g id="line2d_96">
      <g>
       <use xlink:href="#m4c063db5f0" x="49.710844" y="298.688" style="stroke: #000000; stroke-width: 0.8"/>
      </g>
     </g>
     <g id="text_20">
      <!-- 0.4 -->
      <g transform="translate(29.988344 301.727375) scale(0.08 -0.08)">
       <use xlink:href="#DejaVuSans-30"/>
       <use xlink:href="#DejaVuSans-2e" transform="translate(63.623047 0)"/>
       <use xlink:href="#DejaVuSans-34" transform="translate(95.410156 0)"/>
      </g>
     </g>
    </g>
    <g id="ytick_22">
     <g id="line2d_97">
      <path d="M 49.710844 270.364 
L 217.854177 270.364 
" clip-path="url(#p0d77a36374)" style="fill: none; stroke: #b0b0b0; stroke-opacity: 0.18; stroke-width: 0.6; stroke-linecap: square"/>
     </g>
     <g id="line2d_98">
      <g>
       <use xlink:href="#m4c063db5f0" x="49.710844" y="270.364" style="stroke: #000000; stroke-width: 0.8"/>
      </g>
     </g>
     <g id="text_21">
      <!-- 0.6 -->
      <g transform="translate(29.988344 273.403375) scale(0.08 -0.08)">
       <use xlink:href="#DejaVuSans-30"/>
       <use xlink:href="#DejaVuSans-2e" transform="translate(63.623047 0)"/>
       <use xlink:href="#DejaVuSans-36" transform="translate(95.410156 0)"/>
      </g>
     </g>
    </g>
    <g id="ytick_23">
     <g id="line2d_99">
      <path d="M 49.710844 242.04 
L 217.854177 242.04 
" clip-path="url(#p0d77a36374)" style="fill: none; stroke: #b0b0b0; stroke-opacity: 0.18; stroke-width: 0.6; stroke-linecap: square"/>
     </g>
     <g id="line2d_100">
      <g>
       <use xlink:href="#m4c063db5f0" x="49.710844" y="242.04" style="stroke: #000000; stroke-width: 0.8"/>
      </g>
     </g>
     <g id="text_22">
      <!-- 0.8 -->
      <g transform="translate(29.988344 245.079375) scale(0.08 -0.08)">
       <use xlink:href="#DejaVuSans-30"/>
       <use xlink:href="#DejaVuSans-2e" transform="translate(63.623047 0)"/>
       <use xlink:href="#DejaVuSans-38" transform="translate(95.410156 0)"/>
      </g>
     </g>
    </g>
    <g id="ytick_24">
     <g id="line2d_101">
      <path d="M 49.710844 213.716 
L 217.854177 213.716 
" clip-path="url(#p0d77a36374)" style="fill: none; stroke: #b0b0b0; stroke-opacity: 0.18; stroke-width: 0.6; stroke-linecap: square"/>
     </g>
     <g id="line2d_102">
      <g>
       <use xlink:href="#m4c063db5f0" x="49.710844" y="213.716" style="stroke: #000000; stroke-width: 0.8"/>
      </g>
     </g>
     <g id="text_23">
      <!-- 1.0 -->
      <g transform="translate(29.988344 216.755375) scale(0.08 -0.08)">
       <use xlink:href="#DejaVuSans-31"/>
       <use xlink:href="#DejaVuSans-2e" transform="translate(63.623047 0)"/>
       <use xlink:href="#DejaVuSans-30" transform="translate(95.410156 0)"/>
      </g>
     </g>
    </g>
    <g id="text_24">
     <!-- Fine-tuned -->
     <g transform="translate(14.038594 308.376) rotate(-90) scale(0.09 -0.09)">
      <defs>
       <path id="DejaVuSans-46" d="M 628 4666 
L 3309 4666 
L 3309 4134 
L 1259 4134 
L 1259 2759 
L 3109 2759 
L 3109 2228 
L 1259 2228 
L 1259 0 
L 628 0 
L 628 4666 
z
" transform="scale(0.015625)"/>
      </defs>
      <use xlink:href="#DejaVuSans-46"/>
      <use xlink:href="#DejaVuSans-69" transform="translate(50.269531 0)"/>
      <use xlink:href="#DejaVuSans-6e" transform="translate(78.052734 0)"/>
      <use xlink:href="#DejaVuSans-65" transform="translate(141.431641 0)"/>
      <use xlink:href="#DejaVuSans-2d" transform="translate(202.955078 0)"/>
      <use xlink:href="#DejaVuSans-74" transform="translate(239.039062 0)"/>
      <use xlink:href="#DejaVuSans-75" transform="translate(278.248047 0)"/>
      <use xlink:href="#DejaVuSans-6e" transform="translate(341.626953 0)"/>
      <use xlink:href="#DejaVuSans-65" transform="translate(405.005859 0)"/>
      <use xlink:href="#DejaVuSans-64" transform="translate(466.529297 0)"/>
     </g>
     <!-- Accuracy -->
     <g transform="translate(24.116625 305.071312) rotate(-90) scale(0.09 -0.09)">
      <use xlink:href="#DejaVuSans-41"/>
      <use xlink:href="#DejaVuSans-63" transform="translate(66.658203 0)"/>
      <use xlink:href="#DejaVuSans-63" transform="translate(121.638672 0)"/>
      <use xlink:href="#DejaVuSans-75" transform="translate(176.619141 0)"/>
      <use xlink:href="#DejaVuSans-72" transform="translate(239.998047 0)"/>
      <use xlink:href="#DejaVuSans-61" transform="translate(281.111328 0)"/>
      <use xlink:href="#DejaVuSans-63" transform="translate(342.390625 0)"/>
      <use xlink:href="#DejaVuSans-79" transform="translate(397.371094 0)"/>
     </g>
    </g>
   </g>
   <g id="line2d_103">
    <path d="M 49.710844 355.336 
L 217.854177 213.716 
" clip-path="url(#p0d77a36374)" style="fill: none; stroke-dasharray: 3.33,1.44; stroke-dashoffset: 0; stroke: #777777; stroke-width: 0.9"/>
   </g>
   <g id="line2d_104">
    <path d="M 142.482679 289.246667 
L 163.167224 331.732667 
L 176.449825 284.526 
L 194.503432 268.790444 
L 214.70623 243.635718 
" clip-path="url(#p0d77a36374)" style="fill: none; stroke: #d55e00; stroke-opacity: 0.9; stroke-width: 1.8; stroke-linecap: square"/>
   </g>
   <g id="patch_12">
    <path d="M 49.710844 355.336 
L 49.710844 213.716 
" style="fill: none; stroke: #000000; stroke-width: 0.8; stroke-linejoin: miter; stroke-linecap: square"/>
   </g>
   <g id="patch_13">
    <path d="M 49.710844 355.336 
L 217.854177 355.336 
" style="fill: none; stroke: #000000; stroke-width: 0.8; stroke-linejoin: miter; stroke-linecap: square"/>
   </g>
   <g id="PathCollection_4">
    <path d="M 142.482679 293.153365 
C 143.518747 293.153365 144.512521 292.741731 145.245132 292.00912 
C 145.977743 291.276509 146.389377 290.282735 146.389377 289.246667 
C 146.389377 288.210598 145.977743 287.216825 145.245132 286.484213 
C 144.512521 285.751602 143.518747 285.339968 142.482679 285.339968 
C 141.44661 285.339968 140.452837 285.751602 139.720225 286.484213 
C 138.987614 287.216825 138.57598 288.210598 138.57598 289.246667 
C 138.57598 290.282735 138.987614 291.276509 139.720225 292.00912 
C 140.452837 292.741731 141.44661 293.153365 142.482679 293.153365 
z
" style="fill: #d55e00; fill-opacity: 0.9; stroke: #d55e00; stroke-opacity: 0.9; stroke-width: 0.25"/>
    <path d="M 163.167224 335.080041 
C 164.054958 335.080041 164.906452 334.727341 165.534175 334.099618 
C 166.161898 333.471895 166.514599 332.620401 166.514599 331.732667 
C 166.514599 330.844932 166.161898 329.993438 165.534175 329.365715 
C 164.906452 328.737992 164.054958 328.385292 163.167224 328.385292 
C 162.27949 328.385292 161.427995 328.737992 160.800272 329.365715 
C 160.17255 329.993438 159.819849 330.844932 159.819849 331.732667 
C 159.819849 332.620401 160.17255 333.471895 160.800272 334.099618 
C 161.427995 334.727341 162.27949 335.080041 163.167224 335.080041 
z
" style="fill: #d55e00; fill-opacity: 0.9; stroke: #d55e00; stroke-opacity: 0.9; stroke-width: 0.25"/>
    <path d="M 176.449825 288.255589 
C 177.438923 288.255589 178.387644 287.862616 179.087043 287.163218 
C 179.786441 286.46382 180.179414 285.515099 180.179414 284.526 
C 180.179414 283.536901 179.786441 282.58818 179.087043 281.888782 
C 178.387644 281.189384 177.438923 280.796411 176.449825 280.796411 
C 175.460726 280.796411 174.512005 281.189384 173.812607 281.888782 
C 173.113209 282.58818 172.720236 283.536901 172.720236 284.526 
C 172.720236 285.515099 173.113209 286.46382 173.812607 287.163218 
C 174.512005 287.862616 175.460726 288.255589 176.449825 288.255589 
z
" style="fill: #d55e00; fill-opacity: 0.9; stroke: #d55e00; stroke-opacity: 0.9; stroke-width: 0.25"/>
    <path d="M 194.503432 272.866564 
C 195.584432 272.866564 196.621302 272.437079 197.385684 271.672697 
C 198.150066 270.908314 198.579552 269.871444 198.579552 268.790444 
C 198.579552 267.709445 198.150066 266.672575 197.385684 265.908192 
C 196.621302 265.14381 195.584432 264.714324 194.503432 264.714324 
C 193.422432 264.714324 192.385562 265.14381 191.62118 265.908192 
C 190.856798 266.672575 190.427312 267.709445 190.427312 268.790444 
C 190.427312 269.871444 190.856798 270.908314 191.62118 271.672697 
C 192.385562 272.437079 193.422432 272.866564 194.503432 272.866564 
z
" style="fill: #d55e00; fill-opacity: 0.9; stroke: #d55e00; stroke-opacity: 0.9; stroke-width: 0.25"/>
    <path d="M 214.70623 250.000323 
C 216.394143 250.000323 218.013151 249.329708 219.206685 248.136174 
C 220.40022 246.942639 221.070835 245.323631 221.070835 243.635718 
C 221.070835 241.947805 220.40022 240.328798 219.206685 239.135263 
C 218.013151 237.941728 216.394143 237.271113 214.70623 237.271113 
C 213.018317 237.271113 211.399309 237.941728 210.205775 239.135263 
C 209.01224 240.328798 208.341625 241.947805 208.341625 243.635718 
C 208.341625 245.323631 209.01224 246.942639 210.205775 248.136174 
C 211.399309 249.329708 213.018317 250.000323 214.70623 250.000323 
z
" style="fill: #d55e00; fill-opacity: 0.9; stroke: #d55e00; stroke-opacity: 0.9; stroke-width: 0.25"/>
   </g>
  </g>
  <g id="axes_5">
   <g id="patch_14">
    <path d="M 240.354177 355.336 
L 408.49751 355.336 
L 408.49751 213.716 
L 240.354177 213.716 
z
" style="fill: #ffffff"/>
   </g>
   <g id="matplotlib.axis_9">
    <g id="xtick_25">
     <g id="line2d_105">
      <path d="M 240.354177 355.336 
L 240.354177 213.716 
" clip-path="url(#pac2f3d999b)" style="fill: none; stroke: #b0b0b0; stroke-opacity: 0.18; stroke-width: 0.6; stroke-linecap: square"/>
     </g>
     <g id="line2d_106">
      <g>
       <use xlink:href="#me113979e50" x="240.354177" y="355.336" style="stroke: #000000; stroke-width: 0.8"/>
      </g>
     </g>
     <g id="text_25">
      <!-- 0.0 -->
      <g transform="translate(233.992927 368.41475) scale(0.08 -0.08)">
       <use xlink:href="#DejaVuSans-30"/>
       <use xlink:href="#DejaVuSans-2e" transform="translate(63.623047 0)"/>
       <use xlink:href="#DejaVuSans-30" transform="translate(95.410156 0)"/>
      </g>
     </g>
    </g>
    <g id="xtick_26">
     <g id="line2d_107">
      <path d="M 273.982844 355.336 
L 273.982844 213.716 
" clip-path="url(#pac2f3d999b)" style="fill: none; stroke: #b0b0b0; stroke-opacity: 0.18; stroke-width: 0.6; stroke-linecap: square"/>
     </g>
     <g id="line2d_108">
      <g>
       <use xlink:href="#me113979e50" x="273.982844" y="355.336" style="stroke: #000000; stroke-width: 0.8"/>
      </g>
     </g>
     <g id="text_26">
      <!-- 0.2 -->
      <g transform="translate(267.621594 368.41475) scale(0.08 -0.08)">
       <use xlink:href="#DejaVuSans-30"/>
       <use xlink:href="#DejaVuSans-2e" transform="translate(63.623047 0)"/>
       <use xlink:href="#DejaVuSans-32" transform="translate(95.410156 0)"/>
      </g>
     </g>
    </g>
    <g id="xtick_27">
     <g id="line2d_109">
      <path d="M 307.61151 355.336 
L 307.61151 213.716 
" clip-path="url(#pac2f3d999b)" style="fill: none; stroke: #b0b0b0; stroke-opacity: 0.18; stroke-width: 0.6; stroke-linecap: square"/>
     </g>
     <g id="line2d_110">
      <g>
       <use xlink:href="#me113979e50" x="307.61151" y="355.336" style="stroke: #000000; stroke-width: 0.8"/>
      </g>
     </g>
     <g id="text_27">
      <!-- 0.4 -->
      <g transform="translate(301.25026 368.41475) scale(0.08 -0.08)">
       <use xlink:href="#DejaVuSans-30"/>
       <use xlink:href="#DejaVuSans-2e" transform="translate(63.623047 0)"/>
       <use xlink:href="#DejaVuSans-34" transform="translate(95.410156 0)"/>
      </g>
     </g>
    </g>
    <g id="xtick_28">
     <g id="line2d_111">
      <path d="M 341.240177 355.336 
L 341.240177 213.716 
" clip-path="url(#pac2f3d999b)" style="fill: none; stroke: #b0b0b0; stroke-opacity: 0.18; stroke-width: 0.6; stroke-linecap: square"/>
     </g>
     <g id="line2d_112">
      <g>
       <use xlink:href="#me113979e50" x="341.240177" y="355.336" style="stroke: #000000; stroke-width: 0.8"/>
      </g>
     </g>
     <g id="text_28">
      <!-- 0.6 -->
      <g transform="translate(334.878927 368.41475) scale(0.08 -0.08)">
       <use xlink:href="#DejaVuSans-30"/>
       <use xlink:href="#DejaVuSans-2e" transform="translate(63.623047 0)"/>
       <use xlink:href="#DejaVuSans-36" transform="translate(95.410156 0)"/>
      </g>
     </g>
    </g>
    <g id="xtick_29">
     <g id="line2d_113">
      <path d="M 374.868844 355.336 
L 374.868844 213.716 
" clip-path="url(#pac2f3d999b)" style="fill: none; stroke: #b0b0b0; stroke-opacity: 0.18; stroke-width: 0.6; stroke-linecap: square"/>
     </g>
     <g id="line2d_114">
      <g>
       <use xlink:href="#me113979e50" x="374.868844" y="355.336" style="stroke: #000000; stroke-width: 0.8"/>
      </g>
     </g>
     <g id="text_29">
      <!-- 0.8 -->
      <g transform="translate(368.507594 368.41475) scale(0.08 -0.08)">
       <use xlink:href="#DejaVuSans-30"/>
       <use xlink:href="#DejaVuSans-2e" transform="translate(63.623047 0)"/>
       <use xlink:href="#DejaVuSans-38" transform="translate(95.410156 0)"/>
      </g>
     </g>
    </g>
    <g id="xtick_30">
     <g id="line2d_115">
      <path d="M 408.49751 355.336 
L 408.49751 213.716 
" clip-path="url(#pac2f3d999b)" style="fill: none; stroke: #b0b0b0; stroke-opacity: 0.18; stroke-width: 0.6; stroke-linecap: square"/>
     </g>
     <g id="line2d_116">
      <g>
       <use xlink:href="#me113979e50" x="408.49751" y="355.336" style="stroke: #000000; stroke-width: 0.8"/>
      </g>
     </g>
     <g id="text_30">
      <!-- 1.0 -->
      <g transform="translate(402.13626 368.41475) scale(0.08 -0.08)">
       <use xlink:href="#DejaVuSans-31"/>
       <use xlink:href="#DejaVuSans-2e" transform="translate(63.623047 0)"/>
       <use xlink:href="#DejaVuSans-30" transform="translate(95.410156 0)"/>
      </g>
     </g>
    </g>
    <g id="text_31">
     <!-- Confidence -->
     <g transform="translate(299.123187 380.917094) scale(0.09 -0.09)">
      <use xlink:href="#DejaVuSans-43"/>
      <use xlink:href="#DejaVuSans-6f" transform="translate(69.824219 0)"/>
      <use xlink:href="#DejaVuSans-6e" transform="translate(131.005859 0)"/>
      <use xlink:href="#DejaVuSans-66" transform="translate(194.384766 0)"/>
      <use xlink:href="#DejaVuSans-69" transform="translate(229.589844 0)"/>
      <use xlink:href="#DejaVuSans-64" transform="translate(257.373047 0)"/>
      <use xlink:href="#DejaVuSans-65" transform="translate(320.849609 0)"/>
      <use xlink:href="#DejaVuSans-6e" transform="translate(382.373047 0)"/>
      <use xlink:href="#DejaVuSans-63" transform="translate(445.751953 0)"/>
      <use xlink:href="#DejaVuSans-65" transform="translate(500.732422 0)"/>
     </g>
    </g>
   </g>
   <g id="matplotlib.axis_10">
    <g id="ytick_25">
     <g id="line2d_117">
      <path d="M 240.354177 355.336 
L 408.49751 355.336 
" clip-path="url(#pac2f3d999b)" style="fill: none; stroke: #b0b0b0; stroke-opacity: 0.18; stroke-width: 0.6; stroke-linecap: square"/>
     </g>
     <g id="line2d_118">
      <g>
       <use xlink:href="#m4c063db5f0" x="240.354177" y="355.336" style="stroke: #000000; stroke-width: 0.8"/>
      </g>
     </g>
    </g>
    <g id="ytick_26">
     <g id="line2d_119">
      <path d="M 240.354177 327.012 
L 408.49751 327.012 
" clip-path="url(#pac2f3d999b)" style="fill: none; stroke: #b0b0b0; stroke-opacity: 0.18; stroke-width: 0.6; stroke-linecap: square"/>
     </g>
     <g id="line2d_120">
      <g>
       <use xlink:href="#m4c063db5f0" x="240.354177" y="327.012" style="stroke: #000000; stroke-width: 0.8"/>
      </g>
     </g>
    </g>
    <g id="ytick_27">
     <g id="line2d_121">
      <path d="M 240.354177 298.688 
L 408.49751 298.688 
" clip-path="url(#pac2f3d999b)" style="fill: none; stroke: #b0b0b0; stroke-opacity: 0.18; stroke-width: 0.6; stroke-linecap: square"/>
     </g>
     <g id="line2d_122">
      <g>
       <use xlink:href="#m4c063db5f0" x="240.354177" y="298.688" style="stroke: #000000; stroke-width: 0.8"/>
      </g>
     </g>
    </g>
    <g id="ytick_28">
     <g id="line2d_123">
      <path d="M 240.354177 270.364 
L 408.49751 270.364 
" clip-path="url(#pac2f3d999b)" style="fill: none; stroke: #b0b0b0; stroke-opacity: 0.18; stroke-width: 0.6; stroke-linecap: square"/>
     </g>
     <g id="line2d_124">
      <g>
       <use xlink:href="#m4c063db5f0" x="240.354177" y="270.364" style="stroke: #000000; stroke-width: 0.8"/>
      </g>
     </g>
    </g>
    <g id="ytick_29">
     <g id="line2d_125">
      <path d="M 240.354177 242.04 
L 408.49751 242.04 
" clip-path="url(#pac2f3d999b)" style="fill: none; stroke: #b0b0b0; stroke-opacity: 0.18; stroke-width: 0.6; stroke-linecap: square"/>
     </g>
     <g id="line2d_126">
      <g>
       <use xlink:href="#m4c063db5f0" x="240.354177" y="242.04" style="stroke: #000000; stroke-width: 0.8"/>
      </g>
     </g>
    </g>
    <g id="ytick_30">
     <g id="line2d_127">
      <path d="M 240.354177 213.716 
L 408.49751 213.716 
" clip-path="url(#pac2f3d999b)" style="fill: none; stroke: #b0b0b0; stroke-opacity: 0.18; stroke-width: 0.6; stroke-linecap: square"/>
     </g>
     <g id="line2d_128">
      <g>
       <use xlink:href="#m4c063db5f0" x="240.354177" y="213.716" style="stroke: #000000; stroke-width: 0.8"/>
      </g>
     </g>
    </g>
   </g>
   <g id="line2d_129">
    <path d="M 240.354177 355.336 
L 408.49751 213.716 
" clip-path="url(#pac2f3d999b)" style="fill: none; stroke-dasharray: 3.33,1.44; stroke-dashoffset: 0; stroke: #777777; stroke-width: 0.9"/>
   </g>
   <g id="line2d_130">
    <path d="M 331.39343 276.658222 
L 350.519116 247.435048 
L 366.714734 264.294571 
L 383.892194 227.878 
L 406.84655 250.755077 
" clip-path="url(#pac2f3d999b)" style="fill: none; stroke: #d55e00; stroke-opacity: 0.9; stroke-width: 1.8; stroke-linecap: square"/>
   </g>
   <g id="patch_15">
    <path d="M 240.354177 355.336 
L 240.354177 213.716 
" style="fill: none; stroke: #000000; stroke-width: 0.8; stroke-linejoin: miter; stroke-linecap: square"/>
   </g>
   <g id="patch_16">
    <path d="M 240.354177 355.336 
L 408.49751 355.336 
" style="fill: none; stroke: #000000; stroke-width: 0.8; stroke-linejoin: miter; stroke-linecap: square"/>
   </g>
   <g id="PathCollection_5">
    <path d="M 331.39343 280.015767 
C 332.283861 280.015767 333.137943 279.661995 333.767573 279.032365 
C 334.397203 278.402735 334.750975 277.548654 334.750975 276.658222 
C 334.750975 275.767791 334.397203 274.913709 333.767573 274.284079 
C 333.137943 273.654449 332.283861 273.300677 331.39343 273.300677 
C 330.502998 273.300677 329.648917 273.654449 329.019287 274.284079 
C 328.389657 274.913709 328.035885 275.767791 328.035885 276.658222 
C 328.035885 277.548654 328.389657 278.402735 329.019287 279.032365 
C 329.648917 279.661995 330.502998 280.015767 331.39343 280.015767 
z
" style="fill: #d55e00; fill-opacity: 0.9; stroke: #d55e00; stroke-opacity: 0.9; stroke-width: 0.25"/>
    <path d="M 350.519116 250.860729 
C 351.427617 250.860729 352.299031 250.499778 352.941439 249.85737 
C 353.583846 249.214963 353.944798 248.343549 353.944798 247.435048 
C 353.944798 246.526546 353.583846 245.655132 352.941439 245.012725 
C 352.299031 244.370317 351.427617 244.009366 350.519116 244.009366 
C 349.610615 244.009366 348.739201 244.370317 348.096793 245.012725 
C 347.454386 245.655132 347.093434 246.526546 347.093434 247.435048 
C 347.093434 248.343549 347.454386 249.214963 348.096793 249.85737 
C 348.739201 250.499778 349.610615 250.860729 350.519116 250.860729 
z
" style="fill: #d55e00; fill-opacity: 0.9; stroke: #d55e00; stroke-opacity: 0.9; stroke-width: 0.25"/>
    <path d="M 366.714734 267.874198 
C 367.664062 267.874198 368.574636 267.497026 369.245913 266.82575 
C 369.917189 266.154473 370.294361 265.243899 370.294361 264.294571 
C 370.294361 263.345243 369.917189 262.43467 369.245913 261.763393 
C 368.574636 261.092117 367.664062 260.714945 366.714734 260.714945 
C 365.765406 260.714945 364.854833 261.092117 364.183556 261.763393 
C 363.51228 262.43467 363.135108 263.345243 363.135108 264.294571 
C 363.135108 265.243899 363.51228 266.154473 364.183556 266.82575 
C 364.854833 267.497026 365.765406 267.874198 366.714734 267.874198 
z
" style="fill: #d55e00; fill-opacity: 0.9; stroke: #d55e00; stroke-opacity: 0.9; stroke-width: 0.25"/>
    <path d="M 383.892194 231.500409 
C 384.852868 231.500409 385.774324 231.118729 386.453624 230.43943 
C 387.132923 229.760131 387.514603 228.838674 387.514603 227.878 
C 387.514603 226.917326 387.132923 225.995869 386.453624 225.31657 
C 385.774324 224.637271 384.852868 224.255591 383.892194 224.255591 
C 382.931519 224.255591 382.010063 224.637271 381.330763 225.31657 
C 380.651464 225.995869 380.269784 226.917326 380.269784 227.878 
C 380.269784 228.838674 380.651464 229.760131 381.330763 230.43943 
C 382.010063 231.118729 382.931519 231.500409 383.892194 231.500409 
z
" style="fill: #d55e00; fill-opacity: 0.9; stroke: #d55e00; stroke-opacity: 0.9; stroke-width: 0.25"/>
    <path d="M 406.84655 257.723292 
C 408.694542 257.723292 410.467094 256.989077 411.773822 255.682349 
C 413.08055 254.375621 413.814765 252.603069 413.814765 250.755077 
C 413.814765 248.907085 413.08055 247.134533 411.773822 245.827805 
C 410.467094 244.521077 408.694542 243.786862 406.84655 243.786862 
C 404.998558 243.786862 403.226006 244.521077 401.919278 245.827805 
C 400.61255 247.134533 399.878335 248.907085 399.878335 250.755077 
C 399.878335 252.603069 400.61255 254.375621 401.919278 255.682349 
C 403.226006 256.989077 404.998558 257.723292 406.84655 257.723292 
z
" style="fill: #d55e00; fill-opacity: 0.9; stroke: #d55e00; stroke-opacity: 0.9; stroke-width: 0.25"/>
   </g>
  </g>
  <g id="axes_6">
   <g id="patch_17">
    <path d="M 430.99751 355.336 
L 599.140844 355.336 
L 599.140844 213.716 
L 430.99751 213.716 
z
" style="fill: #ffffff"/>
   </g>
   <g id="matplotlib.axis_11">
    <g id="xtick_31">
     <g id="line2d_131">
      <path d="M 430.99751 355.336 
L 430.99751 213.716 
" clip-path="url(#pbfcc4db165)" style="fill: none; stroke: #b0b0b0; stroke-opacity: 0.18; stroke-width: 0.6; stroke-linecap: square"/>
     </g>
     <g id="line2d_132">
      <g>
       <use xlink:href="#me113979e50" x="430.99751" y="355.336" style="stroke: #000000; stroke-width: 0.8"/>
      </g>
     </g>
     <g id="text_32">
      <!-- 0.0 -->
      <g transform="translate(424.63626 368.41475) scale(0.08 -0.08)">
       <use xlink:href="#DejaVuSans-30"/>
       <use xlink:href="#DejaVuSans-2e" transform="translate(63.623047 0)"/>
       <use xlink:href="#DejaVuSans-30" transform="translate(95.410156 0)"/>
      </g>
     </g>
    </g>
    <g id="xtick_32">
     <g id="line2d_133">
      <path d="M 464.626177 355.336 
L 464.626177 213.716 
" clip-path="url(#pbfcc4db165)" style="fill: none; stroke: #b0b0b0; stroke-opacity: 0.18; stroke-width: 0.6; stroke-linecap: square"/>
     </g>
     <g id="line2d_134">
      <g>
       <use xlink:href="#me113979e50" x="464.626177" y="355.336" style="stroke: #000000; stroke-width: 0.8"/>
      </g>
     </g>
     <g id="text_33">
      <!-- 0.2 -->
      <g transform="translate(458.264927 368.41475) scale(0.08 -0.08)">
       <use xlink:href="#DejaVuSans-30"/>
       <use xlink:href="#DejaVuSans-2e" transform="translate(63.623047 0)"/>
       <use xlink:href="#DejaVuSans-32" transform="translate(95.410156 0)"/>
      </g>
     </g>
    </g>
    <g id="xtick_33">
     <g id="line2d_135">
      <path d="M 498.254844 355.336 
L 498.254844 213.716 
" clip-path="url(#pbfcc4db165)" style="fill: none; stroke: #b0b0b0; stroke-opacity: 0.18; stroke-width: 0.6; stroke-linecap: square"/>
     </g>
     <g id="line2d_136">
      <g>
       <use xlink:href="#me113979e50" x="498.254844" y="355.336" style="stroke: #000000; stroke-width: 0.8"/>
      </g>
     </g>
     <g id="text_34">
      <!-- 0.4 -->
      <g transform="translate(491.893594 368.41475) scale(0.08 -0.08)">
       <use xlink:href="#DejaVuSans-30"/>
       <use xlink:href="#DejaVuSans-2e" transform="translate(63.623047 0)"/>
       <use xlink:href="#DejaVuSans-34" transform="translate(95.410156 0)"/>
      </g>
     </g>
    </g>
    <g id="xtick_34">
     <g id="line2d_137">
      <path d="M 531.88351 355.336 
L 531.88351 213.716 
" clip-path="url(#pbfcc4db165)" style="fill: none; stroke: #b0b0b0; stroke-opacity: 0.18; stroke-width: 0.6; stroke-linecap: square"/>
     </g>
     <g id="line2d_138">
      <g>
       <use xlink:href="#me113979e50" x="531.88351" y="355.336" style="stroke: #000000; stroke-width: 0.8"/>
      </g>
     </g>
     <g id="text_35">
      <!-- 0.6 -->
      <g transform="translate(525.52226 368.41475) scale(0.08 -0.08)">
       <use xlink:href="#DejaVuSans-30"/>
       <use xlink:href="#DejaVuSans-2e" transform="translate(63.623047 0)"/>
       <use xlink:href="#DejaVuSans-36" transform="translate(95.410156 0)"/>
      </g>
     </g>
    </g>
    <g id="xtick_35">
     <g id="line2d_139">
      <path d="M 565.512177 355.336 
L 565.512177 213.716 
" clip-path="url(#pbfcc4db165)" style="fill: none; stroke: #b0b0b0; stroke-opacity: 0.18; stroke-width: 0.6; stroke-linecap: square"/>
     </g>
     <g id="line2d_140">
      <g>
       <use xlink:href="#me113979e50" x="565.512177" y="355.336" style="stroke: #000000; stroke-width: 0.8"/>
      </g>
     </g>
     <g id="text_36">
      <!-- 0.8 -->
      <g transform="translate(559.150927 368.41475) scale(0.08 -0.08)">
       <use xlink:href="#DejaVuSans-30"/>
       <use xlink:href="#DejaVuSans-2e" transform="translate(63.623047 0)"/>
       <use xlink:href="#DejaVuSans-38" transform="translate(95.410156 0)"/>
      </g>
     </g>
    </g>
    <g id="xtick_36">
     <g id="line2d_141">
      <path d="M 599.140844 355.336 
L 599.140844 213.716 
" clip-path="url(#pbfcc4db165)" style="fill: none; stroke: #b0b0b0; stroke-opacity: 0.18; stroke-width: 0.6; stroke-linecap: square"/>
     </g>
     <g id="line2d_142">
      <g>
       <use xlink:href="#me113979e50" x="599.140844" y="355.336" style="stroke: #000000; stroke-width: 0.8"/>
      </g>
     </g>
     <g id="text_37">
      <!-- 1.0 -->
      <g transform="translate(592.779594 368.41475) scale(0.08 -0.08)">
       <use xlink:href="#DejaVuSans-31"/>
       <use xlink:href="#DejaVuSans-2e" transform="translate(63.623047 0)"/>
       <use xlink:href="#DejaVuSans-30" transform="translate(95.410156 0)"/>
      </g>
     </g>
    </g>
    <g id="text_38">
     <!-- Confidence -->
     <g transform="translate(489.766521 380.917094) scale(0.09 -0.09)">
      <use xlink:href="#DejaVuSans-43"/>
      <use xlink:href="#DejaVuSans-6f" transform="translate(69.824219 0)"/>
      <use xlink:href="#DejaVuSans-6e" transform="translate(131.005859 0)"/>
      <use xlink:href="#DejaVuSans-66" transform="translate(194.384766 0)"/>
      <use xlink:href="#DejaVuSans-69" transform="translate(229.589844 0)"/>
      <use xlink:href="#DejaVuSans-64" transform="translate(257.373047 0)"/>
      <use xlink:href="#DejaVuSans-65" transform="translate(320.849609 0)"/>
      <use xlink:href="#DejaVuSans-6e" transform="translate(382.373047 0)"/>
      <use xlink:href="#DejaVuSans-63" transform="translate(445.751953 0)"/>
      <use xlink:href="#DejaVuSans-65" transform="translate(500.732422 0)"/>
     </g>
    </g>
   </g>
   <g id="matplotlib.axis_12">
    <g id="ytick_31">
     <g id="line2d_143">
      <path d="M 430.99751 355.336 
L 599.140844 355.336 
" clip-path="url(#pbfcc4db165)" style="fill: none; stroke: #b0b0b0; stroke-opacity: 0.18; stroke-width: 0.6; stroke-linecap: square"/>
     </g>
     <g id="line2d_144">
      <g>
       <use xlink:href="#m4c063db5f0" x="430.99751" y="355.336" style="stroke: #000000; stroke-width: 0.8"/>
      </g>
     </g>
    </g>
    <g id="ytick_32">
     <g id="line2d_145">
      <path d="M 430.99751 327.012 
L 599.140844 327.012 
" clip-path="url(#pbfcc4db165)" style="fill: none; stroke: #b0b0b0; stroke-opacity: 0.18; stroke-width: 0.6; stroke-linecap: square"/>
     </g>
     <g id="line2d_146">
      <g>
       <use xlink:href="#m4c063db5f0" x="430.99751" y="327.012" style="stroke: #000000; stroke-width: 0.8"/>
      </g>
     </g>
    </g>
    <g id="ytick_33">
     <g id="line2d_147">
      <path d="M 430.99751 298.688 
L 599.140844 298.688 
" clip-path="url(#pbfcc4db165)" style="fill: none; stroke: #b0b0b0; stroke-opacity: 0.18; stroke-width: 0.6; stroke-linecap: square"/>
     </g>
     <g id="line2d_148">
      <g>
       <use xlink:href="#m4c063db5f0" x="430.99751" y="298.688" style="stroke: #000000; stroke-width: 0.8"/>
      </g>
     </g>
    </g>
    <g id="ytick_34">
     <g id="line2d_149">
      <path d="M 430.99751 270.364 
L 599.140844 270.364 
" clip-path="url(#pbfcc4db165)" style="fill: none; stroke: #b0b0b0; stroke-opacity: 0.18; stroke-width: 0.6; stroke-linecap: square"/>
     </g>
     <g id="line2d_150">
      <g>
       <use xlink:href="#m4c063db5f0" x="430.99751" y="270.364" style="stroke: #000000; stroke-width: 0.8"/>
      </g>
     </g>
    </g>
    <g id="ytick_35">
     <g id="line2d_151">
      <path d="M 430.99751 242.04 
L 599.140844 242.04 
" clip-path="url(#pbfcc4db165)" style="fill: none; stroke: #b0b0b0; stroke-opacity: 0.18; stroke-width: 0.6; stroke-linecap: square"/>
     </g>
     <g id="line2d_152">
      <g>
       <use xlink:href="#m4c063db5f0" x="430.99751" y="242.04" style="stroke: #000000; stroke-width: 0.8"/>
      </g>
     </g>
    </g>
    <g id="ytick_36">
     <g id="line2d_153">
      <path d="M 430.99751 213.716 
L 599.140844 213.716 
" clip-path="url(#pbfcc4db165)" style="fill: none; stroke: #b0b0b0; stroke-opacity: 0.18; stroke-width: 0.6; stroke-linecap: square"/>
     </g>
     <g id="line2d_154">
      <g>
       <use xlink:href="#m4c063db5f0" x="430.99751" y="213.716" style="stroke: #000000; stroke-width: 0.8"/>
      </g>
     </g>
    </g>
   </g>
   <g id="line2d_155">
    <path d="M 430.99751 355.336 
L 599.140844 213.716 
" clip-path="url(#pbfcc4db165)" style="fill: none; stroke-dasharray: 3.33,1.44; stroke-dashoffset: 0; stroke: #777777; stroke-width: 0.9"/>
   </g>
   <g id="line2d_156">
    <path d="M 524.418281 269.933918 
L 539.623594 254.178857 
L 557.01127 242.851365 
L 574.367894 235.611197 
L 591.795325 237.319333 
" clip-path="url(#pbfcc4db165)" style="fill: none; stroke: #d55e00; stroke-opacity: 0.9; stroke-width: 1.8; stroke-linecap: square"/>
   </g>
   <g id="patch_18">
    <path d="M 430.99751 355.336 
L 430.99751 213.716 
" style="fill: none; stroke: #000000; stroke-width: 0.8; stroke-linejoin: miter; stroke-linecap: square"/>
   </g>
   <g id="patch_19">
    <path d="M 430.99751 355.336 
L 599.140844 355.336 
" style="fill: none; stroke: #000000; stroke-width: 0.8; stroke-linejoin: miter; stroke-linecap: square"/>
   </g>
   <g id="PathCollection_6">
    <path d="M 524.418281 274.495524 
C 525.628033 274.495524 526.788399 274.014884 527.643823 273.15946 
C 528.499247 272.304036 528.979887 271.14367 528.979887 269.933918 
C 528.979887 268.724165 528.499247 267.563799 527.643823 266.708375 
C 526.788399 265.852951 525.628033 265.372311 524.418281 265.372311 
C 523.208528 265.372311 522.048162 265.852951 521.192738 266.708375 
C 520.337314 267.563799 519.856674 268.724165 519.856674 269.933918 
C 519.856674 271.14367 520.337314 272.304036 521.192738 273.15946 
C 522.048162 274.014884 523.208528 274.495524 524.418281 274.495524 
z
" style="fill: #d55e00; fill-opacity: 0.9; stroke: #d55e00; stroke-opacity: 0.9; stroke-width: 0.25"/>
    <path d="M 539.623594 258.469002 
C 540.761354 258.469002 541.852667 258.016965 542.657185 257.212447 
C 543.461702 256.40793 543.913739 255.316617 543.913739 254.178857 
C 543.913739 253.041098 543.461702 251.949784 542.657185 251.145267 
C 541.852667 250.340749 540.761354 249.888713 539.623594 249.888713 
C 538.485835 249.888713 537.394522 250.340749 536.590004 251.145267 
C 535.785487 251.949784 535.33345 253.041098 535.33345 254.178857 
C 535.33345 255.316617 535.785487 256.40793 536.590004 257.212447 
C 537.394522 258.016965 538.485835 258.469002 539.623594 258.469002 
z
" style="fill: #d55e00; fill-opacity: 0.9; stroke: #d55e00; stroke-opacity: 0.9; stroke-width: 0.25"/>
    <path d="M 557.01127 247.181772 
C 558.159707 247.181772 559.261262 246.725493 560.07333 245.913425 
C 560.885398 245.101357 561.341677 243.999802 561.341677 242.851365 
C 561.341677 241.702927 560.885398 240.601372 560.07333 239.789304 
C 559.261262 238.977236 558.159707 238.520957 557.01127 238.520957 
C 555.862833 238.520957 554.761278 238.977236 553.94921 239.789304 
C 553.137142 240.601372 552.680863 241.702927 552.680863 242.851365 
C 552.680863 243.999802 553.137142 245.101357 553.94921 245.913425 
C 554.761278 246.725493 555.862833 247.181772 557.01127 247.181772 
z
" style="fill: #d55e00; fill-opacity: 0.9; stroke: #d55e00; stroke-opacity: 0.9; stroke-width: 0.25"/>
    <path d="M 574.367894 239.687532 
C 575.448951 239.687532 576.485876 239.258024 577.250298 238.493601 
C 578.01472 237.729179 578.444229 236.692254 578.444229 235.611197 
C 578.444229 234.530141 578.01472 233.493216 577.250298 232.728793 
C 576.485876 231.964371 575.448951 231.534863 574.367894 231.534863 
C 573.286837 231.534863 572.249913 231.964371 571.48549 232.728793 
C 570.721068 233.493216 570.291559 234.530141 570.291559 235.611197 
C 570.291559 236.692254 570.721068 237.729179 571.48549 238.493601 
C 572.249913 239.258024 573.286837 239.687532 574.367894 239.687532 
z
" style="fill: #d55e00; fill-opacity: 0.9; stroke: #d55e00; stroke-opacity: 0.9; stroke-width: 0.25"/>
    <path d="M 591.795325 242.106553 
C 593.06491 242.106553 594.282668 241.602142 595.1804 240.704409 
C 596.078133 239.806677 596.582545 238.588919 596.582545 237.319333 
C 596.582545 236.049748 596.078133 234.83199 595.1804 233.934258 
C 594.282668 233.036525 593.06491 232.532113 591.795325 232.532113 
C 590.525739 232.532113 589.307982 233.036525 588.410249 233.934258 
C 587.512516 234.83199 587.008105 236.049748 587.008105 237.319333 
C 587.008105 238.588919 587.512516 239.806677 588.410249 240.704409 
C 589.307982 241.602142 590.525739 242.106553 591.795325 242.106553 
z
" style="fill: #d55e00; fill-opacity: 0.9; stroke: #d55e00; stroke-opacity: 0.9; stroke-width: 0.25"/>
   </g>
  </g>
  <g id="text_39">
   <!-- Reliability diagrams: LLaVA-OV -->
   <g transform="translate(213.319281 16.318125) scale(0.12 -0.12)">
    <defs>
     <path id="DejaVuSans-6c" d="M 603 4863 
L 1178 4863 
L 1178 0 
L 603 0 
L 603 4863 
z
" transform="scale(0.015625)"/>
     <path id="DejaVuSans-62" d="M 3116 1747 
Q 3116 2381 2855 2742 
Q 2594 3103 2138 3103 
Q 1681 3103 1420 2742 
Q 1159 2381 1159 1747 
Q 1159 1113 1420 752 
Q 1681 391 2138 391 
Q 2594 391 2855 752 
Q 3116 1113 3116 1747 
z
M 1159 2969 
Q 1341 3281 1617 3432 
Q 1894 3584 2278 3584 
Q 2916 3584 3314 3078 
Q 3713 2572 3713 1747 
Q 3713 922 3314 415 
Q 2916 -91 2278 -91 
Q 1894 -91 1617 61 
Q 1341 213 1159 525 
L 1159 0 
L 581 0 
L 581 4863 
L 1159 4863 
L 1159 2969 
z
" transform="scale(0.015625)"/>
     <path id="DejaVuSans-20" transform="scale(0.015625)"/>
     <path id="DejaVuSans-67" d="M 2906 1791 
Q 2906 2416 2648 2759 
Q 2391 3103 1925 3103 
Q 1463 3103 1205 2759 
Q 947 2416 947 1791 
Q 947 1169 1205 825 
Q 1463 481 1925 481 
Q 2391 481 2648 825 
Q 2906 1169 2906 1791 
z
M 3481 434 
Q 3481 -459 3084 -895 
Q 2688 -1331 1869 -1331 
Q 1566 -1331 1297 -1286 
Q 1028 -1241 775 -1147 
L 775 -588 
Q 1028 -725 1275 -790 
Q 1522 -856 1778 -856 
Q 2344 -856 2625 -561 
Q 2906 -266 2906 331 
L 2906 616 
Q 2728 306 2450 153 
Q 2172 0 1784 0 
Q 1141 0 747 490 
Q 353 981 353 1791 
Q 353 2603 747 3093 
Q 1141 3584 1784 3584 
Q 2172 3584 2450 3431 
Q 2728 3278 2906 2969 
L 2906 3500 
L 3481 3500 
L 3481 434 
z
" transform="scale(0.015625)"/>
     <path id="DejaVuSans-6d" d="M 3328 2828 
Q 3544 3216 3844 3400 
Q 4144 3584 4550 3584 
Q 5097 3584 5394 3201 
Q 5691 2819 5691 2113 
L 5691 0 
L 5113 0 
L 5113 2094 
Q 5113 2597 4934 2840 
Q 4756 3084 4391 3084 
Q 3944 3084 3684 2787 
Q 3425 2491 3425 1978 
L 3425 0 
L 2847 0 
L 2847 2094 
Q 2847 2600 2669 2842 
Q 2491 3084 2119 3084 
Q 1678 3084 1418 2786 
Q 1159 2488 1159 1978 
L 1159 0 
L 581 0 
L 581 3500 
L 1159 3500 
L 1159 2956 
Q 1356 3278 1631 3431 
Q 1906 3584 2284 3584 
Q 2666 3584 2933 3390 
Q 3200 3197 3328 2828 
z
" transform="scale(0.015625)"/>
     <path id="DejaVuSans-3a" d="M 750 794 
L 1409 794 
L 1409 0 
L 750 0 
L 750 794 
z
M 750 3309 
L 1409 3309 
L 1409 2516 
L 750 2516 
L 750 3309 
z
" transform="scale(0.015625)"/>
     <path id="DejaVuSans-4f" d="M 2522 4238 
Q 1834 4238 1429 3725 
Q 1025 3213 1025 2328 
Q 1025 1447 1429 934 
Q 1834 422 2522 422 
Q 3209 422 3611 934 
Q 4013 1447 4013 2328 
Q 4013 3213 3611 3725 
Q 3209 4238 2522 4238 
z
M 2522 4750 
Q 3503 4750 4090 4092 
Q 4678 3434 4678 2328 
Q 4678 1225 4090 567 
Q 3503 -91 2522 -91 
Q 1538 -91 948 565 
Q 359 1222 359 2328 
Q 359 3434 948 4092 
Q 1538 4750 2522 4750 
z
" transform="scale(0.015625)"/>
    </defs>
    <use xlink:href="#DejaVuSans-52"/>
    <use xlink:href="#DejaVuSans-65" transform="translate(64.982422 0)"/>
    <use xlink:href="#DejaVuSans-6c" transform="translate(126.505859 0)"/>
    <use xlink:href="#DejaVuSans-69" transform="translate(154.289062 0)"/>
    <use xlink:href="#DejaVuSans-61" transform="translate(182.072266 0)"/>
    <use xlink:href="#DejaVuSans-62" transform="translate(243.351562 0)"/>
    <use xlink:href="#DejaVuSans-69" transform="translate(306.828125 0)"/>
    <use xlink:href="#DejaVuSans-6c" transform="translate(334.611328 0)"/>
    <use xlink:href="#DejaVuSans-69" transform="translate(362.394531 0)"/>
    <use xlink:href="#DejaVuSans-74" transform="translate(390.177734 0)"/>
    <use xlink:href="#DejaVuSans-79" transform="translate(429.386719 0)"/>
    <use xlink:href="#DejaVuSans-20" transform="translate(488.566406 0)"/>
    <use xlink:href="#DejaVuSans-64" transform="translate(520.353516 0)"/>
    <use xlink:href="#DejaVuSans-69" transform="translate(583.830078 0)"/>
    <use xlink:href="#DejaVuSans-61" transform="translate(611.613281 0)"/>
    <use xlink:href="#DejaVuSans-67" transform="translate(672.892578 0)"/>
    <use xlink:href="#DejaVuSans-72" transform="translate(736.369141 0)"/>
    <use xlink:href="#DejaVuSans-61" transform="translate(777.482422 0)"/>
    <use xlink:href="#DejaVuSans-6d" transform="translate(838.761719 0)"/>
    <use xlink:href="#DejaVuSans-73" transform="translate(936.173828 0)"/>
    <use xlink:href="#DejaVuSans-3a" transform="translate(988.273438 0)"/>
    <use xlink:href="#DejaVuSans-20" transform="translate(1021.964844 0)"/>
    <use xlink:href="#DejaVuSans-4c" transform="translate(1053.751953 0)"/>
    <use xlink:href="#DejaVuSans-4c" transform="translate(1109.464844 0)"/>
    <use xlink:href="#DejaVuSans-61" transform="translate(1165.177734 0)"/>
    <use xlink:href="#DejaVuSans-56" transform="translate(1226.457031 0)"/>
    <use xlink:href="#DejaVuSans-41" transform="translate(1288.490234 0)"/>
    <use xlink:href="#DejaVuSans-2d" transform="translate(1354.648438 0)"/>
    <use xlink:href="#DejaVuSans-4f" transform="translate(1393.482422 0)"/>
    <use xlink:href="#DejaVuSans-56" transform="translate(1470.443359 0)"/>
   </g>
  </g>
 </g>
 <defs>
  <clipPath id="pa1579e20be">
   <rect x="49.710844" y="55.176" width="168.143333" height="141.62"/>
  </clipPath>
  <clipPath id="p702bf6bf93">
   <rect x="240.354177" y="55.176" width="168.143333" height="141.62"/>
  </clipPath>
  <clipPath id="pecff3272ca">
   <rect x="430.99751" y="55.176" width="168.143333" height="141.62"/>
  </clipPath>
  <clipPath id="p0d77a36374">
   <rect x="49.710844" y="213.716" width="168.143333" height="141.62"/>
  </clipPath>
  <clipPath id="pac2f3d999b">
   <rect x="240.354177" y="213.716" width="168.143333" height="141.62"/>
  </clipPath>
  <clipPath id="pbfcc4db165">
   <rect x="430.99751" y="213.716" width="168.143333" height="141.62"/>
  </clipPath>
 </defs>
</svg>
