<?xml version="1.0" encoding="utf-8" standalone="no"?>
<!DOCTYPE svg PUBLIC "-//W3C//DTD SVG 1.1//EN"
  "http://www.w3.org/Graphics/SVG/1.1/DTD/svg11.dtd">
<svg xmlns:xlink="http://www.w3.org/1999/xlink" width="612.702094pt" height="389.988812pt" viewBox="0 0 612.702094 389.988812" xmlns="http://www.w3.org/2000/svg" version="1.1">
 <metadata>
  <rdf:RDF xmlns:dc="http://purl.org/dc/elements/1.1/" xmlns:cc="http://creativecommons.org/ns#" xmlns:rdf="http://www.w3.org/1999/02/22-rdf-syntax-ns#">
   <cc:Work>
    <dc:type rdf:resource="http://purl.org/dc/dcmitype/StillImage"/>
    <dc:date>2026-06-19T21:22:46.198423</dc:date>
    <dc:format>image/svg+xml</dc:format>
    <dc:creator>
     <cc:Agent>
      <dc:title>Matplotlib v3.10.9, https://matplotlib.org/</dc:title>
     </cc:Agent>
    </dc:creator>
   </cc:Work>
  </rdf:RDF>
 </metadata>
 <defs>
  <style type="text/css">*{stroke-linejoin: round; stroke-linecap: butt}</style>
 </defs>
 <g id="figure_1">
  <g id="patch_1">
   <path d="M 0 389.988812 
L 612.702094 389.988812 
L 612.702094 0 
L 0 0 
z
" style="fill: #ffffff"/>
  </g>
  <g id="axes_1">
   <g id="patch_2">
    <path d="M 49.710844 196.796 
L 217.854177 196.796 
L 217.854177 55.176 
L 49.710844 55.176 
z
" style="fill: #ffffff"/>
   </g>
   <g id="matplotlib.axis_1">
    <g id="xtick_1">
     <g id="line2d_1">
      <path d="M 49.710844 196.796 
L 49.710844 55.176 
" clip-path="url(#p80ce54e095)" style="fill: none; stroke: #b0b0b0; stroke-opacity: 0.18; stroke-width: 0.6; stroke-linecap: square"/>
     </g>
     <g id="line2d_2">
      <defs>
       <path id="ma932ca6ad0" d="M 0 0 
L 0 3.5 
" style="stroke: #000000; stroke-width: 0.8"/>
      </defs>
      <g>
       <use xlink:href="#ma932ca6ad0" x="49.710844" y="196.796" style="stroke: #000000; stroke-width: 0.8"/>
      </g>
     </g>
    </g>
    <g id="xtick_2">
     <g id="line2d_3">
      <path d="M 83.33951 196.796 
L 83.33951 55.176 
" clip-path="url(#p80ce54e095)" style="fill: none; stroke: #b0b0b0; stroke-opacity: 0.18; stroke-width: 0.6; stroke-linecap: square"/>
     </g>
     <g id="line2d_4">
      <g>
       <use xlink:href="#ma932ca6ad0" x="83.33951" y="196.796" style="stroke: #000000; stroke-width: 0.8"/>
      </g>
     </g>
    </g>
    <g id="xtick_3">
     <g id="line2d_5">
      <path d="M 116.968177 196.796 
L 116.968177 55.176 
" clip-path="url(#p80ce54e095)" style="fill: none; stroke: #b0b0b0; stroke-opacity: 0.18; stroke-width: 0.6; stroke-linecap: square"/>
     </g>
     <g id="line2d_6">
      <g>
       <use xlink:href="#ma932ca6ad0" x="116.968177" y="196.796" style="stroke: #000000; stroke-width: 0.8"/>
      </g>
     </g>
    </g>
    <g id="xtick_4">
     <g id="line2d_7">
      <path d="M 150.596844 196.796 
L 150.596844 55.176 
" clip-path="url(#p80ce54e095)" style="fill: none; stroke: #b0b0b0; stroke-opacity: 0.18; stroke-width: 0.6; stroke-linecap: square"/>
     </g>
     <g id="line2d_8">
      <g>
       <use xlink:href="#ma932ca6ad0" x="150.596844" y="196.796" style="stroke: #000000; stroke-width: 0.8"/>
      </g>
     </g>
    </g>
    <g id="xtick_5">
     <g id="line2d_9">
      <path d="M 184.22551 196.796 
L 184.22551 55.176 
" clip-path="url(#p80ce54e095)" style="fill: none; stroke: #b0b0b0; stroke-opacity: 0.18; stroke-width: 0.6; stroke-linecap: square"/>
     </g>
     <g id="line2d_10">
      <g>
       <use xlink:href="#ma932ca6ad0" x="184.22551" y="196.796" style="stroke: #000000; stroke-width: 0.8"/>
      </g>
     </g>
    </g>
    <g id="xtick_6">
     <g id="line2d_11">
      <path d="M 217.854177 196.796 
L 217.854177 55.176 
" clip-path="url(#p80ce54e095)" style="fill: none; stroke: #b0b0b0; stroke-opacity: 0.18; stroke-width: 0.6; stroke-linecap: square"/>
     </g>
     <g id="line2d_12">
      <g>
       <use xlink:href="#ma932ca6ad0" x="217.854177" y="196.796" style="stroke: #000000; stroke-width: 0.8"/>
      </g>
     </g>
    </g>
   </g>
   <g id="matplotlib.axis_2">
    <g id="ytick_1">
     <g id="line2d_13">
      <path d="M 49.710844 196.796 
L 217.854177 196.796 
" clip-path="url(#p80ce54e095)" style="fill: none; stroke: #b0b0b0; stroke-opacity: 0.18; stroke-width: 0.6; stroke-linecap: square"/>
     </g>
     <g id="line2d_14">
      <defs>
       <path id="ma043f9aa32" d="M 0 0 
L -3.5 0 
" style="stroke: #000000; stroke-width: 0.8"/>
      </defs>
      <g>
       <use xlink:href="#ma043f9aa32" x="49.710844" y="196.796" style="stroke: #000000; stroke-width: 0.8"/>
      </g>
     </g>
     <g id="text_1">
      <!-- 0.0 -->
      <g transform="translate(29.988344 199.835375) scale(0.08 -0.08)">
       <defs>
        <path id="DejaVuSans-30" d="M 2034 4250 
Q 1547 4250 1301 3770 
Q 1056 3291 1056 2328 
Q 1056 1369 1301 889 
Q 1547 409 2034 409 
Q 2525 409 2770 889 
Q 3016 1369 3016 2328 
Q 3016 3291 2770 3770 
Q 2525 4250 2034 4250 
z
M 2034 4750 
Q 2819 4750 3233 4129 
Q 3647 3509 3647 2328 
Q 3647 1150 3233 529 
Q 2819 -91 2034 -91 
Q 1250 -91 836 529 
Q 422 1150 422 2328 
Q 422 3509 836 4129 
Q 1250 4750 2034 4750 
z
" transform="scale(0.015625)"/>
        <path id="DejaVuSans-2e" d="M 684 794 
L 1344 794 
L 1344 0 
L 684 0 
L 684 794 
z
" transform="scale(0.015625)"/>
       </defs>
       <use xlink:href="#DejaVuSans-30"/>
       <use xlink:href="#DejaVuSans-2e" transform="translate(63.623047 0)"/>
       <use xlink:href="#DejaVuSans-30" transform="translate(95.410156 0)"/>
      </g>
     </g>
    </g>
    <g id="ytick_2">
     <g id="line2d_15">
      <path d="M 49.710844 168.472 
L 217.854177 168.472 
" clip-path="url(#p80ce54e095)" style="fill: none; stroke: #b0b0b0; stroke-opacity: 0.18; stroke-width: 0.6; stroke-linecap: square"/>
     </g>
     <g id="line2d_16">
      <g>
       <use xlink:href="#ma043f9aa32" x="49.710844" y="168.472" style="stroke: #000000; stroke-width: 0.8"/>
      </g>
     </g>
     <g id="text_2">
      <!-- 0.2 -->
      <g transform="translate(29.988344 171.511375) scale(0.08 -0.08)">
       <defs>
        <path id="DejaVuSans-32" d="M 1228 531 
L 3431 531 
L 3431 0 
L 469 0 
L 469 531 
Q 828 903 1448 1529 
Q 2069 2156 2228 2338 
Q 2531 2678 2651 2914 
Q 2772 3150 2772 3378 
Q 2772 3750 2511 3984 
Q 2250 4219 1831 4219 
Q 1534 4219 1204 4116 
Q 875 4013 500 3803 
L 500 4441 
Q 881 4594 1212 4672 
Q 1544 4750 1819 4750 
Q 2544 4750 2975 4387 
Q 3406 4025 3406 3419 
Q 3406 3131 3298 2873 
Q 3191 2616 2906 2266 
Q 2828 2175 2409 1742 
Q 1991 1309 1228 531 
z
" transform="scale(0.015625)"/>
       </defs>
       <use xlink:href="#DejaVuSans-30"/>
       <use xlink:href="#DejaVuSans-2e" transform="translate(63.623047 0)"/>
       <use xlink:href="#DejaVuSans-32" transform="translate(95.410156 0)"/>
      </g>
     </g>
    </g>
    <g id="ytick_3">
     <g id="line2d_17">
      <path d="M 49.710844 140.148 
L 217.854177 140.148 
" clip-path="url(#p80ce54e095)" style="fill: none; stroke: #b0b0b0; stroke-opacity: 0.18; stroke-width: 0.6; stroke-linecap: square"/>
     </g>
     <g id="line2d_18">
      <g>
       <use xlink:href="#ma043f9aa32" x="49.710844" y="140.148" style="stroke: #000000; stroke-width: 0.8"/>
      </g>
     </g>
     <g id="text_3">
      <!-- 0.4 -->
      <g transform="translate(29.988344 143.187375) scale(0.08 -0.08)">
       <defs>
        <path id="DejaVuSans-34" d="M 2419 4116 
L 825 1625 
L 2419 1625 
L 2419 4116 
z
M 2253 4666 
L 3047 4666 
L 3047 1625 
L 3713 1625 
L 3713 1100 
L 3047 1100 
L 3047 0 
L 2419 0 
L 2419 1100 
L 313 1100 
L 313 1709 
L 2253 4666 
z
" transform="scale(0.015625)"/>
       </defs>
       <use xlink:href="#DejaVuSans-30"/>
       <use xlink:href="#DejaVuSans-2e" transform="translate(63.623047 0)"/>
       <use xlink:href="#DejaVuSans-34" transform="translate(95.410156 0)"/>
      </g>
     </g>
    </g>
    <g id="ytick_4">
     <g id="line2d_19">
      <path d="M 49.710844 111.824 
L 217.854177 111.824 
" clip-path="url(#p80ce54e095)" style="fill: none; stroke: #b0b0b0; stroke-opacity: 0.18; stroke-width: 0.6; stroke-linecap: square"/>
     </g>
     <g id="line2d_20">
      <g>
       <use xlink:href="#ma043f9aa32" x="49.710844" y="111.824" style="stroke: #000000; stroke-width: 0.8"/>
      </g>
     </g>
     <g id="text_4">
      <!-- 0.6 -->
      <g transform="translate(29.988344 114.863375) scale(0.08 -0.08)">
       <defs>
        <path id="DejaVuSans-36" d="M 2113 2584 
Q 1688 2584 1439 2293 
Q 1191 2003 1191 1497 
Q 1191 994 1439 701 
Q 1688 409 2113 409 
Q 2538 409 2786 701 
Q 3034 994 3034 1497 
Q 3034 2003 2786 2293 
Q 2538 2584 2113 2584 
z
M 3366 4563 
L 3366 3988 
Q 3128 4100 2886 4159 
Q 2644 4219 2406 4219 
Q 1781 4219 1451 3797 
Q 1122 3375 1075 2522 
Q 1259 2794 1537 2939 
Q 1816 3084 2150 3084 
Q 2853 3084 3261 2657 
Q 3669 2231 3669 1497 
Q 3669 778 3244 343 
Q 2819 -91 2113 -91 
Q 1303 -91 875 529 
Q 447 1150 447 2328 
Q 447 3434 972 4092 
Q 1497 4750 2381 4750 
Q 2619 4750 2861 4703 
Q 3103 4656 3366 4563 
z
" transform="scale(0.015625)"/>
       </defs>
       <use xlink:href="#DejaVuSans-30"/>
       <use xlink:href="#DejaVuSans-2e" transform="translate(63.623047 0)"/>
       <use xlink:href="#DejaVuSans-36" transform="translate(95.410156 0)"/>
      </g>
     </g>
    </g>
    <g id="ytick_5">
     <g id="line2d_21">
      <path d="M 49.710844 83.5 
L 217.854177 83.5 
" clip-path="url(#p80ce54e095)" style="fill: none; stroke: #b0b0b0; stroke-opacity: 0.18; stroke-width: 0.6; stroke-linecap: square"/>
     </g>
     <g id="line2d_22">
      <g>
       <use xlink:href="#ma043f9aa32" x="49.710844" y="83.5" style="stroke: #000000; stroke-width: 0.8"/>
      </g>
     </g>
     <g id="text_5">
      <!-- 0.8 -->
      <g transform="translate(29.988344 86.539375) scale(0.08 -0.08)">
       <defs>
        <path id="DejaVuSans-38" d="M 2034 2216 
Q 1584 2216 1326 1975 
Q 1069 1734 1069 1313 
Q 1069 891 1326 650 
Q 1584 409 2034 409 
Q 2484 409 2743 651 
Q 3003 894 3003 1313 
Q 3003 1734 2745 1975 
Q 2488 2216 2034 2216 
z
M 1403 2484 
Q 997 2584 770 2862 
Q 544 3141 544 3541 
Q 544 4100 942 4425 
Q 1341 4750 2034 4750 
Q 2731 4750 3128 4425 
Q 3525 4100 3525 3541 
Q 3525 3141 3298 2862 
Q 3072 2584 2669 2484 
Q 3125 2378 3379 2068 
Q 3634 1759 3634 1313 
Q 3634 634 3220 271 
Q 2806 -91 2034 -91 
Q 1263 -91 848 271 
Q 434 634 434 1313 
Q 434 1759 690 2068 
Q 947 2378 1403 2484 
z
M 1172 3481 
Q 1172 3119 1398 2916 
Q 1625 2713 2034 2713 
Q 2441 2713 2670 2916 
Q 2900 3119 2900 3481 
Q 2900 3844 2670 4047 
Q 2441 4250 2034 4250 
Q 1625 4250 1398 4047 
Q 1172 3844 1172 3481 
z
" transform="scale(0.015625)"/>
       </defs>
       <use xlink:href="#DejaVuSans-30"/>
       <use xlink:href="#DejaVuSans-2e" transform="translate(63.623047 0)"/>
       <use xlink:href="#DejaVuSans-38" transform="translate(95.410156 0)"/>
      </g>
     </g>
    </g>
    <g id="ytick_6">
     <g id="line2d_23">
      <path d="M 49.710844 55.176 
L 217.854177 55.176 
" clip-path="url(#p80ce54e095)" style="fill: none; stroke: #b0b0b0; stroke-opacity: 0.18; stroke-width: 0.6; stroke-linecap: square"/>
     </g>
     <g id="line2d_24">
      <g>
       <use xlink:href="#ma043f9aa32" x="49.710844" y="55.176" style="stroke: #000000; stroke-width: 0.8"/>
      </g>
     </g>
     <g id="text_6">
      <!-- 1.0 -->
      <g transform="translate(29.988344 58.215375) scale(0.08 -0.08)">
       <defs>
        <path id="DejaVuSans-31" d="M 794 531 
L 1825 531 
L 1825 4091 
L 703 3866 
L 703 4441 
L 1819 4666 
L 2450 4666 
L 2450 531 
L 3481 531 
L 3481 0 
L 794 0 
L 794 531 
z
" transform="scale(0.015625)"/>
       </defs>
       <use xlink:href="#DejaVuSans-31"/>
       <use xlink:href="#DejaVuSans-2e" transform="translate(63.623047 0)"/>
       <use xlink:href="#DejaVuSans-30" transform="translate(95.410156 0)"/>
      </g>
     </g>
    </g>
    <g id="text_7">
     <!-- Zero-shot -->
     <g transform="translate(14.038594 147.761078) rotate(-90) scale(0.09 -0.09)">
      <defs>
       <path id="DejaVuSans-5a" d="M 359 4666 
L 4025 4666 
L 4025 4184 
L 1075 531 
L 4097 531 
L 4097 0 
L 288 0 
L 288 481 
L 3238 4134 
L 359 4134 
L 359 4666 
z
" transform="scale(0.015625)"/>
       <path id="DejaVuSans-65" d="M 3597 1894 
L 3597 1613 
L 953 1613 
Q 991 1019 1311 708 
Q 1631 397 2203 397 
Q 2534 397 2845 478 
Q 3156 559 3463 722 
L 3463 178 
Q 3153 47 2828 -22 
Q 2503 -91 2169 -91 
Q 1331 -91 842 396 
Q 353 884 353 1716 
Q 353 2575 817 3079 
Q 1281 3584 2069 3584 
Q 2775 3584 3186 3129 
Q 3597 2675 3597 1894 
z
M 3022 2063 
Q 3016 2534 2758 2815 
Q 2500 3097 2075 3097 
Q 1594 3097 1305 2825 
Q 1016 2553 972 2059 
L 3022 2063 
z
" transform="scale(0.015625)"/>
       <path id="DejaVuSans-72" d="M 2631 2963 
Q 2534 3019 2420 3045 
Q 2306 3072 2169 3072 
Q 1681 3072 1420 2755 
Q 1159 2438 1159 1844 
L 1159 0 
L 581 0 
L 581 3500 
L 1159 3500 
L 1159 2956 
Q 1341 3275 1631 3429 
Q 1922 3584 2338 3584 
Q 2397 3584 2469 3576 
Q 2541 3569 2628 3553 
L 2631 2963 
z
" transform="scale(0.015625)"/>
       <path id="DejaVuSans-6f" d="M 1959 3097 
Q 1497 3097 1228 2736 
Q 959 2375 959 1747 
Q 959 1119 1226 758 
Q 1494 397 1959 397 
Q 2419 397 2687 759 
Q 2956 1122 2956 1747 
Q 2956 2369 2687 2733 
Q 2419 3097 1959 3097 
z
M 1959 3584 
Q 2709 3584 3137 3096 
Q 3566 2609 3566 1747 
Q 3566 888 3137 398 
Q 2709 -91 1959 -91 
Q 1206 -91 779 398 
Q 353 888 353 1747 
Q 353 2609 779 3096 
Q 1206 3584 1959 3584 
z
" transform="scale(0.015625)"/>
       <path id="DejaVuSans-2d" d="M 313 2009 
L 1997 2009 
L 1997 1497 
L 313 1497 
L 313 2009 
z
" transform="scale(0.015625)"/>
       <path id="DejaVuSans-73" d="M 2834 3397 
L 2834 2853 
Q 2591 2978 2328 3040 
Q 2066 3103 1784 3103 
Q 1356 3103 1142 2972 
Q 928 2841 928 2578 
Q 928 2378 1081 2264 
Q 1234 2150 1697 2047 
L 1894 2003 
Q 2506 1872 2764 1633 
Q 3022 1394 3022 966 
Q 3022 478 2636 193 
Q 2250 -91 1575 -91 
Q 1294 -91 989 -36 
Q 684 19 347 128 
L 347 722 
Q 666 556 975 473 
Q 1284 391 1588 391 
Q 1994 391 2212 530 
Q 2431 669 2431 922 
Q 2431 1156 2273 1281 
Q 2116 1406 1581 1522 
L 1381 1569 
Q 847 1681 609 1914 
Q 372 2147 372 2553 
Q 372 3047 722 3315 
Q 1072 3584 1716 3584 
Q 2034 3584 2315 3537 
Q 2597 3491 2834 3397 
z
" transform="scale(0.015625)"/>
       <path id="DejaVuSans-68" d="M 3513 2113 
L 3513 0 
L 2938 0 
L 2938 2094 
Q 2938 2591 2744 2837 
Q 2550 3084 2163 3084 
Q 1697 3084 1428 2787 
Q 1159 2491 1159 1978 
L 1159 0 
L 581 0 
L 581 4863 
L 1159 4863 
L 1159 2956 
Q 1366 3272 1645 3428 
Q 1925 3584 2291 3584 
Q 2894 3584 3203 3211 
Q 3513 2838 3513 2113 
z
" transform="scale(0.015625)"/>
       <path id="DejaVuSans-74" d="M 1172 4494 
L 1172 3500 
L 2356 3500 
L 2356 3053 
L 1172 3053 
L 1172 1153 
Q 1172 725 1289 603 
Q 1406 481 1766 481 
L 2356 481 
L 2356 0 
L 1766 0 
Q 1100 0 847 248 
Q 594 497 594 1153 
L 594 3053 
L 172 3053 
L 172 3500 
L 594 3500 
L 594 4494 
L 1172 4494 
z
" transform="scale(0.015625)"/>
      </defs>
      <use xlink:href="#DejaVuSans-5a"/>
      <use xlink:href="#DejaVuSans-65" transform="translate(68.505859 0)"/>
      <use xlink:href="#DejaVuSans-72" transform="translate(130.029297 0)"/>
      <use xlink:href="#DejaVuSans-6f" transform="translate(168.892578 0)"/>
      <use xlink:href="#DejaVuSans-2d" transform="translate(231.949219 0)"/>
      <use xlink:href="#DejaVuSans-73" transform="translate(268.033203 0)"/>
      <use xlink:href="#DejaVuSans-68" transform="translate(320.132812 0)"/>
      <use xlink:href="#DejaVuSans-6f" transform="translate(383.511719 0)"/>
      <use xlink:href="#DejaVuSans-74" transform="translate(444.693359 0)"/>
     </g>
     <!-- Accuracy -->
     <g transform="translate(24.116625 146.531312) rotate(-90) scale(0.09 -0.09)">
      <defs>
       <path id="DejaVuSans-41" d="M 2188 4044 
L 1331 1722 
L 3047 1722 
L 2188 4044 
z
M 1831 4666 
L 2547 4666 
L 4325 0 
L 3669 0 
L 3244 1197 
L 1141 1197 
L 716 0 
L 50 0 
L 1831 4666 
z
" transform="scale(0.015625)"/>
       <path id="DejaVuSans-63" d="M 3122 3366 
L 3122 2828 
Q 2878 2963 2633 3030 
Q 2388 3097 2138 3097 
Q 1578 3097 1268 2742 
Q 959 2388 959 1747 
Q 959 1106 1268 751 
Q 1578 397 2138 397 
Q 2388 397 2633 464 
Q 2878 531 3122 666 
L 3122 134 
Q 2881 22 2623 -34 
Q 2366 -91 2075 -91 
Q 1284 -91 818 406 
Q 353 903 353 1747 
Q 353 2603 823 3093 
Q 1294 3584 2113 3584 
Q 2378 3584 2631 3529 
Q 2884 3475 3122 3366 
z
" transform="scale(0.015625)"/>
       <path id="DejaVuSans-75" d="M 544 1381 
L 544 3500 
L 1119 3500 
L 1119 1403 
Q 1119 906 1312 657 
Q 1506 409 1894 409 
Q 2359 409 2629 706 
Q 2900 1003 2900 1516 
L 2900 3500 
L 3475 3500 
L 3475 0 
L 2900 0 
L 2900 538 
Q 2691 219 2414 64 
Q 2138 -91 1772 -91 
Q 1169 -91 856 284 
Q 544 659 544 1381 
z
M 1991 3584 
L 1991 3584 
z
" transform="scale(0.015625)"/>
       <path id="DejaVuSans-61" d="M 2194 1759 
Q 1497 1759 1228 1600 
Q 959 1441 959 1056 
Q 959 750 1161 570 
Q 1363 391 1709 391 
Q 2188 391 2477 730 
Q 2766 1069 2766 1631 
L 2766 1759 
L 2194 1759 
z
M 3341 1997 
L 3341 0 
L 2766 0 
L 2766 531 
Q 2569 213 2275 61 
Q 1981 -91 1556 -91 
Q 1019 -91 701 211 
Q 384 513 384 1019 
Q 384 1609 779 1909 
Q 1175 2209 1959 2209 
L 2766 2209 
L 2766 2266 
Q 2766 2663 2505 2880 
Q 2244 3097 1772 3097 
Q 1472 3097 1187 3025 
Q 903 2953 641 2809 
L 641 3341 
Q 956 3463 1253 3523 
Q 1550 3584 1831 3584 
Q 2591 3584 2966 3190 
Q 3341 2797 3341 1997 
z
" transform="scale(0.015625)"/>
       <path id="DejaVuSans-79" d="M 2059 -325 
Q 1816 -950 1584 -1140 
Q 1353 -1331 966 -1331 
L 506 -1331 
L 506 -850 
L 844 -850 
Q 1081 -850 1212 -737 
Q 1344 -625 1503 -206 
L 1606 56 
L 191 3500 
L 800 3500 
L 1894 763 
L 2988 3500 
L 3597 3500 
L 2059 -325 
z
" transform="scale(0.015625)"/>
      </defs>
      <use xlink:href="#DejaVuSans-41"/>
      <use xlink:href="#DejaVuSans-63" transform="translate(66.658203 0)"/>
      <use xlink:href="#DejaVuSans-63" transform="translate(121.638672 0)"/>
      <use xlink:href="#DejaVuSans-75" transform="translate(176.619141 0)"/>
      <use xlink:href="#DejaVuSans-72" transform="translate(239.998047 0)"/>
      <use xlink:href="#DejaVuSans-61" transform="translate(281.111328 0)"/>
      <use xlink:href="#DejaVuSans-63" transform="translate(342.390625 0)"/>
      <use xlink:href="#DejaVuSans-79" transform="translate(397.371094 0)"/>
     </g>
    </g>
   </g>
   <g id="line2d_25">
    <path d="M 49.710844 196.796 
L 217.854177 55.176 
" clip-path="url(#p80ce54e095)" style="fill: none; stroke-dasharray: 3.33,1.44; stroke-dashoffset: 0; stroke: #777777; stroke-width: 0.9"/>
   </g>
   <g id="line2d_26">
    <path d="M 141.633617 125.986 
L 161.571018 125.986 
L 172.63347 196.796 
L 194.165692 111.824 
L 216.733177 90.899964 
" clip-path="url(#p80ce54e095)" style="fill: none; stroke: #666666; stroke-opacity: 0.9; stroke-width: 1.8; stroke-linecap: square"/>
   </g>
   <g id="patch_3">
    <path d="M 49.710844 196.796 
L 49.710844 55.176 
" style="fill: none; stroke: #000000; stroke-width: 0.8; stroke-linejoin: miter; stroke-linecap: square"/>
   </g>
   <g id="patch_4">
    <path d="M 49.710844 196.796 
L 217.854177 196.796 
" style="fill: none; stroke: #000000; stroke-width: 0.8; stroke-linejoin: miter; stroke-linecap: square"/>
   </g>
   <g id="PathCollection_1">
    <path d="M 141.633617 129.052209 
C 142.446785 129.052209 143.226757 128.729134 143.801754 128.154137 
C 144.376751 127.579141 144.699826 126.799168 144.699826 125.986 
C 144.699826 125.172832 144.376751 124.392859 143.801754 123.817863 
C 143.226757 123.242866 142.446785 122.919791 141.633617 122.919791 
C 140.820448 122.919791 140.040476 123.242866 139.465479 123.817863 
C 138.890482 124.392859 138.567407 125.172832 138.567407 125.986 
C 138.567407 126.799168 138.890482 127.579141 139.465479 128.154137 
C 140.040476 128.729134 140.820448 129.052209 141.633617 129.052209 
z
" style="fill: #666666; fill-opacity: 0.9; stroke: #666666; stroke-opacity: 0.9; stroke-width: 0.25"/>
    <path d="M 161.571018 129.052209 
C 162.384186 129.052209 163.164159 128.729134 163.739155 128.154137 
C 164.314152 127.579141 164.637227 126.799168 164.637227 125.986 
C 164.637227 125.172832 164.314152 124.392859 163.739155 123.817863 
C 163.164159 123.242866 162.384186 122.919791 161.571018 122.919791 
C 160.75785 122.919791 159.977877 123.242866 159.402881 123.817863 
C 158.827884 124.392859 158.504809 125.172832 158.504809 125.986 
C 158.504809 126.799168 158.827884 127.579141 159.402881 128.154137 
C 159.977877 128.729134 160.75785 129.052209 161.571018 129.052209 
z
" style="fill: #666666; fill-opacity: 0.9; stroke: #666666; stroke-opacity: 0.9; stroke-width: 0.25"/>
    <path d="M 172.63347 199.862209 
C 173.446638 199.862209 174.226611 199.539134 174.801607 198.964137 
C 175.376604 198.389141 175.699679 197.609168 175.699679 196.796 
C 175.699679 195.982832 175.376604 195.202859 174.801607 194.627863 
C 174.226611 194.052866 173.446638 193.729791 172.63347 193.729791 
C 171.820302 193.729791 171.040329 194.052866 170.465333 194.627863 
C 169.890336 195.202859 169.567261 195.982832 169.567261 196.796 
C 169.567261 197.609168 169.890336 198.389141 170.465333 198.964137 
C 171.040329 199.539134 171.820302 199.862209 172.63347 199.862209 
z
" style="fill: #666666; fill-opacity: 0.9; stroke: #666666; stroke-opacity: 0.9; stroke-width: 0.25"/>
    <path d="M 194.165692 115.103344 
C 195.035385 115.103344 195.869574 114.757812 196.484539 114.142847 
C 197.099504 113.527881 197.445037 112.693692 197.445037 111.824 
C 197.445037 110.954308 197.099504 110.120119 196.484539 109.505153 
C 195.869574 108.890188 195.035385 108.544656 194.165692 108.544656 
C 193.296 108.544656 192.461811 108.890188 191.846846 109.505153 
C 191.231881 110.120119 190.886348 110.954308 190.886348 111.824 
C 190.886348 112.693692 191.231881 113.527881 191.846846 114.142847 
C 192.461811 114.757812 193.296 115.103344 194.165692 115.103344 
z
" style="fill: #666666; fill-opacity: 0.9; stroke: #666666; stroke-opacity: 0.9; stroke-width: 0.25"/>
    <path d="M 216.733177 98.551172 
C 218.762301 98.551172 220.70859 97.744992 222.143398 96.310185 
C 223.578205 94.875378 224.384385 92.929088 224.384385 90.899964 
C 224.384385 88.87084 223.578205 86.92455 222.143398 85.489743 
C 220.70859 84.054936 218.762301 83.248756 216.733177 83.248756 
C 214.704053 83.248756 212.757763 84.054936 211.322956 85.489743 
C 209.888148 86.92455 209.081969 88.87084 209.081969 90.899964 
C 209.081969 92.929088 209.888148 94.875378 211.322956 96.310185 
C 212.757763 97.744992 214.704053 98.551172 216.733177 98.551172 
z
" style="fill: #666666; fill-opacity: 0.9; stroke: #666666; stroke-opacity: 0.9; stroke-width: 0.25"/>
   </g>
   <g id="text_8">
    <!-- VQA-RAD -->
    <g transform="translate(110.77001 49.176) scale(0.1 -0.1)">
     <defs>
      <path id="DejaVuSans-56" d="M 1831 0 
L 50 4666 
L 709 4666 
L 2188 738 
L 3669 4666 
L 4325 4666 
L 2547 0 
L 1831 0 
z
" transform="scale(0.015625)"/>
      <path id="DejaVuSans-51" d="M 2522 4238 
Q 1834 4238 1429 3725 
Q 1025 3213 1025 2328 
Q 1025 1447 1429 934 
Q 1834 422 2522 422 
Q 3209 422 3611 934 
Q 4013 1447 4013 2328 
Q 4013 3213 3611 3725 
Q 3209 4238 2522 4238 
z
M 3406 84 
L 4238 -825 
L 3475 -825 
L 2784 -78 
Q 2681 -84 2626 -87 
Q 2572 -91 2522 -91 
Q 1538 -91 948 567 
Q 359 1225 359 2328 
Q 359 3434 948 4092 
Q 1538 4750 2522 4750 
Q 3503 4750 4090 4092 
Q 4678 3434 4678 2328 
Q 4678 1516 4351 937 
Q 4025 359 3406 84 
z
" transform="scale(0.015625)"/>
      <path id="DejaVuSans-52" d="M 2841 2188 
Q 3044 2119 3236 1894 
Q 3428 1669 3622 1275 
L 4263 0 
L 3584 0 
L 2988 1197 
Q 2756 1666 2539 1819 
Q 2322 1972 1947 1972 
L 1259 1972 
L 1259 0 
L 628 0 
L 628 4666 
L 2053 4666 
Q 2853 4666 3247 4331 
Q 3641 3997 3641 3322 
Q 3641 2881 3436 2590 
Q 3231 2300 2841 2188 
z
M 1259 4147 
L 1259 2491 
L 2053 2491 
Q 2509 2491 2742 2702 
Q 2975 2913 2975 3322 
Q 2975 3731 2742 3939 
Q 2509 4147 2053 4147 
L 1259 4147 
z
" transform="scale(0.015625)"/>
      <path id="DejaVuSans-44" d="M 1259 4147 
L 1259 519 
L 2022 519 
Q 2988 519 3436 956 
Q 3884 1394 3884 2338 
Q 3884 3275 3436 3711 
Q 2988 4147 2022 4147 
L 1259 4147 
z
M 628 4666 
L 1925 4666 
Q 3281 4666 3915 4102 
Q 4550 3538 4550 2338 
Q 4550 1131 3912 565 
Q 3275 0 1925 0 
L 628 0 
L 628 4666 
z
" transform="scale(0.015625)"/>
     </defs>
     <use xlink:href="#DejaVuSans-56"/>
     <use xlink:href="#DejaVuSans-51" transform="translate(68.408203 0)"/>
     <use xlink:href="#DejaVuSans-41" transform="translate(147.119141 0)"/>
     <use xlink:href="#DejaVuSans-2d" transform="translate(213.277344 0)"/>
     <use xlink:href="#DejaVuSans-52" transform="translate(249.361328 0)"/>
     <use xlink:href="#DejaVuSans-41" transform="translate(314.84375 0)"/>
     <use xlink:href="#DejaVuSans-44" transform="translate(383.251953 0)"/>
    </g>
   </g>
  </g>
  <g id="axes_2">
   <g id="patch_5">
    <path d="M 240.354177 196.796 
L 408.49751 196.796 
L 408.49751 55.176 
L 240.354177 55.176 
z
" style="fill: #ffffff"/>
   </g>
   <g id="matplotlib.axis_3">
    <g id="xtick_7">
     <g id="line2d_27">
      <path d="M 240.354177 196.796 
L 240.354177 55.176 
" clip-path="url(#p5a6f0e144b)" style="fill: none; stroke: #b0b0b0; stroke-opacity: 0.18; stroke-width: 0.6; stroke-linecap: square"/>
     </g>
     <g id="line2d_28">
      <g>
       <use xlink:href="#ma932ca6ad0" x="240.354177" y="196.796" style="stroke: #000000; stroke-width: 0.8"/>
      </g>
     </g>
    </g>
    <g id="xtick_8">
     <g id="line2d_29">
      <path d="M 273.982844 196.796 
L 273.982844 55.176 
" clip-path="url(#p5a6f0e144b)" style="fill: none; stroke: #b0b0b0; stroke-opacity: 0.18; stroke-width: 0.6; stroke-linecap: square"/>
     </g>
     <g id="line2d_30">
      <g>
       <use xlink:href="#ma932ca6ad0" x="273.982844" y="196.796" style="stroke: #000000; stroke-width: 0.8"/>
      </g>
     </g>
    </g>
    <g id="xtick_9">
     <g id="line2d_31">
      <path d="M 307.61151 196.796 
L 307.61151 55.176 
" clip-path="url(#p5a6f0e144b)" style="fill: none; stroke: #b0b0b0; stroke-opacity: 0.18; stroke-width: 0.6; stroke-linecap: square"/>
     </g>
     <g id="line2d_32">
      <g>
       <use xlink:href="#ma932ca6ad0" x="307.61151" y="196.796" style="stroke: #000000; stroke-width: 0.8"/>
      </g>
     </g>
    </g>
    <g id="xtick_10">
     <g id="line2d_33">
      <path d="M 341.240177 196.796 
L 341.240177 55.176 
" clip-path="url(#p5a6f0e144b)" style="fill: none; stroke: #b0b0b0; stroke-opacity: 0.18; stroke-width: 0.6; stroke-linecap: square"/>
     </g>
     <g id="line2d_34">
      <g>
       <use xlink:href="#ma932ca6ad0" x="341.240177" y="196.796" style="stroke: #000000; stroke-width: 0.8"/>
      </g>
     </g>
    </g>
    <g id="xtick_11">
     <g id="line2d_35">
      <path d="M 374.868844 196.796 
L 374.868844 55.176 
" clip-path="url(#p5a6f0e144b)" style="fill: none; stroke: #b0b0b0; stroke-opacity: 0.18; stroke-width: 0.6; stroke-linecap: square"/>
     </g>
     <g id="line2d_36">
      <g>
       <use xlink:href="#ma932ca6ad0" x="374.868844" y="196.796" style="stroke: #000000; stroke-width: 0.8"/>
      </g>
     </g>
    </g>
    <g id="xtick_12">
     <g id="line2d_37">
      <path d="M 408.49751 196.796 
L 408.49751 55.176 
" clip-path="url(#p5a6f0e144b)" style="fill: none; stroke: #b0b0b0; stroke-opacity: 0.18; stroke-width: 0.6; stroke-linecap: square"/>
     </g>
     <g id="line2d_38">
      <g>
       <use xlink:href="#ma932ca6ad0" x="408.49751" y="196.796" style="stroke: #000000; stroke-width: 0.8"/>
      </g>
     </g>
    </g>
   </g>
   <g id="matplotlib.axis_4">
    <g id="ytick_7">
     <g id="line2d_39">
      <path d="M 240.354177 196.796 
L 408.49751 196.796 
" clip-path="url(#p5a6f0e144b)" style="fill: none; stroke: #b0b0b0; stroke-opacity: 0.18; stroke-width: 0.6; stroke-linecap: square"/>
     </g>
     <g id="line2d_40">
      <g>
       <use xlink:href="#ma043f9aa32" x="240.354177" y="196.796" style="stroke: #000000; stroke-width: 0.8"/>
      </g>
     </g>
    </g>
    <g id="ytick_8">
     <g id="line2d_41">
      <path d="M 240.354177 168.472 
L 408.49751 168.472 
" clip-path="url(#p5a6f0e144b)" style="fill: none; stroke: #b0b0b0; stroke-opacity: 0.18; stroke-width: 0.6; stroke-linecap: square"/>
     </g>
     <g id="line2d_42">
      <g>
       <use xlink:href="#ma043f9aa32" x="240.354177" y="168.472" style="stroke: #000000; stroke-width: 0.8"/>
      </g>
     </g>
    </g>
    <g id="ytick_9">
     <g id="line2d_43">
      <path d="M 240.354177 140.148 
L 408.49751 140.148 
" clip-path="url(#p5a6f0e144b)" style="fill: none; stroke: #b0b0b0; stroke-opacity: 0.18; stroke-width: 0.6; stroke-linecap: square"/>
     </g>
     <g id="line2d_44">
      <g>
       <use xlink:href="#ma043f9aa32" x="240.354177" y="140.148" style="stroke: #000000; stroke-width: 0.8"/>
      </g>
     </g>
    </g>
    <g id="ytick_10">
     <g id="line2d_45">
      <path d="M 240.354177 111.824 
L 408.49751 111.824 
" clip-path="url(#p5a6f0e144b)" style="fill: none; stroke: #b0b0b0; stroke-opacity: 0.18; stroke-width: 0.6; stroke-linecap: square"/>
     </g>
     <g id="line2d_46">
      <g>
       <use xlink:href="#ma043f9aa32" x="240.354177" y="111.824" style="stroke: #000000; stroke-width: 0.8"/>
      </g>
     </g>
    </g>
    <g id="ytick_11">
     <g id="line2d_47">
      <path d="M 240.354177 83.5 
L 408.49751 83.5 
" clip-path="url(#p5a6f0e144b)" style="fill: none; stroke: #b0b0b0; stroke-opacity: 0.18; stroke-width: 0.6; stroke-linecap: square"/>
     </g>
     <g id="line2d_48">
      <g>
       <use xlink:href="#ma043f9aa32" x="240.354177" y="83.5" style="stroke: #000000; stroke-width: 0.8"/>
      </g>
     </g>
    </g>
    <g id="ytick_12">
     <g id="line2d_49">
      <path d="M 240.354177 55.176 
L 408.49751 55.176 
" clip-path="url(#p5a6f0e144b)" style="fill: none; stroke: #b0b0b0; stroke-opacity: 0.18; stroke-width: 0.6; stroke-linecap: square"/>
     </g>
     <g id="line2d_50">
      <g>
       <use xlink:href="#ma043f9aa32" x="240.354177" y="55.176" style="stroke: #000000; stroke-width: 0.8"/>
      </g>
     </g>
    </g>
   </g>
   <g id="line2d_51">
    <path d="M 240.354177 196.796 
L 408.49751 55.176 
" clip-path="url(#p5a6f0e144b)" style="fill: none; stroke-dasharray: 3.33,1.44; stroke-dashoffset: 0; stroke: #777777; stroke-width: 0.9"/>
   </g>
   <g id="line2d_52">
    <path d="M 332.256898 90.581 
L 352.214351 125.986 
L 370.988999 90.581 
L 383.423239 108.2835 
L 407.892531 72.721841 
" clip-path="url(#p5a6f0e144b)" style="fill: none; stroke: #666666; stroke-opacity: 0.9; stroke-width: 1.8; stroke-linecap: square"/>
   </g>
   <g id="patch_6">
    <path d="M 240.354177 196.796 
L 240.354177 55.176 
" style="fill: none; stroke: #000000; stroke-width: 0.8; stroke-linejoin: miter; stroke-linecap: square"/>
   </g>
   <g id="patch_7">
    <path d="M 240.354177 196.796 
L 408.49751 196.796 
" style="fill: none; stroke: #000000; stroke-width: 0.8; stroke-linejoin: miter; stroke-linecap: square"/>
   </g>
   <g id="PathCollection_2">
    <path d="M 332.256898 93.600312 
C 333.057629 93.600312 333.825671 93.282178 334.391874 92.715976 
C 334.958076 92.149774 335.27621 91.381731 335.27621 90.581 
C 335.27621 89.780269 334.958076 89.012226 334.391874 88.446024 
C 333.825671 87.879822 333.057629 87.561688 332.256898 87.561688 
C 331.456167 87.561688 330.688124 87.879822 330.121921 88.446024 
C 329.555719 89.012226 329.237585 89.780269 329.237585 90.581 
C 329.237585 91.381731 329.555719 92.149774 330.121921 92.715976 
C 330.688124 93.282178 331.456167 93.600312 332.256898 93.600312 
z
" style="fill: #666666; fill-opacity: 0.9; stroke: #666666; stroke-opacity: 0.9; stroke-width: 0.25"/>
    <path d="M 352.214351 128.953848 
C 353.001434 128.953848 353.756386 128.641137 354.312937 128.084586 
C 354.869488 127.528034 355.1822 126.773083 355.1822 125.986 
C 355.1822 125.198917 354.869488 124.443966 354.312937 123.887414 
C 353.756386 123.330863 353.001434 123.018152 352.214351 123.018152 
C 351.427269 123.018152 350.672317 123.330863 350.115766 123.887414 
C 349.559214 124.443966 349.246503 125.198917 349.246503 125.986 
C 349.246503 126.773083 349.559214 127.528034 350.115766 128.084586 
C 350.672317 128.641137 351.427269 128.953848 352.214351 128.953848 
z
" style="fill: #666666; fill-opacity: 0.9; stroke: #666666; stroke-opacity: 0.9; stroke-width: 0.25"/>
    <path d="M 370.988999 93.600312 
C 371.78973 93.600312 372.557773 93.282178 373.123975 92.715976 
C 373.690177 92.149774 374.008311 91.381731 374.008311 90.581 
C 374.008311 89.780269 373.690177 89.012226 373.123975 88.446024 
C 372.557773 87.879822 371.78973 87.561688 370.988999 87.561688 
C 370.188268 87.561688 369.420225 87.879822 368.854023 88.446024 
C 368.28782 89.012226 367.969687 89.780269 367.969687 90.581 
C 367.969687 91.381731 368.28782 92.149774 368.854023 92.715976 
C 369.420225 93.282178 370.188268 93.600312 370.988999 93.600312 
z
" style="fill: #666666; fill-opacity: 0.9; stroke: #666666; stroke-opacity: 0.9; stroke-width: 0.25"/>
    <path d="M 383.423239 111.403194 
C 384.250591 111.403194 385.044169 111.074484 385.629196 110.489457 
C 386.214222 109.90443 386.542933 109.110853 386.542933 108.2835 
C 386.542933 107.456147 386.214222 106.66257 385.629196 106.077543 
C 385.044169 105.492516 384.250591 105.163806 383.423239 105.163806 
C 382.595886 105.163806 381.802308 105.492516 381.217282 106.077543 
C 380.632255 106.66257 380.303544 107.456147 380.303544 108.2835 
C 380.303544 109.110853 380.632255 109.90443 381.217282 110.489457 
C 381.802308 111.074484 382.595886 111.403194 383.423239 111.403194 
z
" style="fill: #666666; fill-opacity: 0.9; stroke: #666666; stroke-opacity: 0.9; stroke-width: 0.25"/>
    <path d="M 407.892531 80.514587 
C 409.959191 80.514587 411.941485 79.693494 413.402834 78.232144 
C 414.864184 76.770795 415.685277 74.788501 415.685277 72.721841 
C 415.685277 70.65518 414.864184 68.672887 413.402834 67.211537 
C 411.941485 65.750188 409.959191 64.929095 407.892531 64.929095 
C 405.82587 64.929095 403.843577 65.750188 402.382227 67.211537 
C 400.920878 68.672887 400.099785 70.65518 400.099785 72.721841 
C 400.099785 74.788501 400.920878 76.770795 402.382227 78.232144 
C 403.843577 79.693494 405.82587 80.514587 407.892531 80.514587 
z
" style="fill: #666666; fill-opacity: 0.9; stroke: #666666; stroke-opacity: 0.9; stroke-width: 0.25"/>
   </g>
   <g id="text_9">
    <!-- SLAKE-en -->
    <g transform="translate(300.445375 49.176) scale(0.1 -0.1)">
     <defs>
      <path id="DejaVuSans-53" d="M 3425 4513 
L 3425 3897 
Q 3066 4069 2747 4153 
Q 2428 4238 2131 4238 
Q 1616 4238 1336 4038 
Q 1056 3838 1056 3469 
Q 1056 3159 1242 3001 
Q 1428 2844 1947 2747 
L 2328 2669 
Q 3034 2534 3370 2195 
Q 3706 1856 3706 1288 
Q 3706 609 3251 259 
Q 2797 -91 1919 -91 
Q 1588 -91 1214 -16 
Q 841 59 441 206 
L 441 856 
Q 825 641 1194 531 
Q 1563 422 1919 422 
Q 2459 422 2753 634 
Q 3047 847 3047 1241 
Q 3047 1584 2836 1778 
Q 2625 1972 2144 2069 
L 1759 2144 
Q 1053 2284 737 2584 
Q 422 2884 422 3419 
Q 422 4038 858 4394 
Q 1294 4750 2059 4750 
Q 2388 4750 2728 4690 
Q 3069 4631 3425 4513 
z
" transform="scale(0.015625)"/>
      <path id="DejaVuSans-4c" d="M 628 4666 
L 1259 4666 
L 1259 531 
L 3531 531 
L 3531 0 
L 628 0 
L 628 4666 
z
" transform="scale(0.015625)"/>
      <path id="DejaVuSans-4b" d="M 628 4666 
L 1259 4666 
L 1259 2694 
L 3353 4666 
L 4166 4666 
L 1850 2491 
L 4331 0 
L 3500 0 
L 1259 2247 
L 1259 0 
L 628 0 
L 628 4666 
z
" transform="scale(0.015625)"/>
      <path id="DejaVuSans-45" d="M 628 4666 
L 3578 4666 
L 3578 4134 
L 1259 4134 
L 1259 2753 
L 3481 2753 
L 3481 2222 
L 1259 2222 
L 1259 531 
L 3634 531 
L 3634 0 
L 628 0 
L 628 4666 
z
" transform="scale(0.015625)"/>
      <path id="DejaVuSans-6e" d="M 3513 2113 
L 3513 0 
L 2938 0 
L 2938 2094 
Q 2938 2591 2744 2837 
Q 2550 3084 2163 3084 
Q 1697 3084 1428 2787 
Q 1159 2491 1159 1978 
L 1159 0 
L 581 0 
L 581 3500 
L 1159 3500 
L 1159 2956 
Q 1366 3272 1645 3428 
Q 1925 3584 2291 3584 
Q 2894 3584 3203 3211 
Q 3513 2838 3513 2113 
z
" transform="scale(0.015625)"/>
     </defs>
     <use xlink:href="#DejaVuSans-53"/>
     <use xlink:href="#DejaVuSans-4c" transform="translate(63.476562 0)"/>
     <use xlink:href="#DejaVuSans-41" transform="translate(121.439453 0)"/>
     <use xlink:href="#DejaVuSans-4b" transform="translate(189.847656 0)"/>
     <use xlink:href="#DejaVuSans-45" transform="translate(255.423828 0)"/>
     <use xlink:href="#DejaVuSans-2d" transform="translate(318.607422 0)"/>
     <use xlink:href="#DejaVuSans-65" transform="translate(354.691406 0)"/>
     <use xlink:href="#DejaVuSans-6e" transform="translate(416.214844 0)"/>
    </g>
   </g>
  </g>
  <g id="axes_3">
   <g id="patch_8">
    <path d="M 430.99751 196.796 
L 599.140844 196.796 
L 599.140844 55.176 
L 430.99751 55.176 
z
" style="fill: #ffffff"/>
   </g>
   <g id="matplotlib.axis_5">
    <g id="xtick_13">
     <g id="line2d_53">
      <path d="M 430.99751 196.796 
L 430.99751 55.176 
" clip-path="url(#pa78d3a1409)" style="fill: none; stroke: #b0b0b0; stroke-opacity: 0.18; stroke-width: 0.6; stroke-linecap: square"/>
     </g>
     <g id="line2d_54">
      <g>
       <use xlink:href="#ma932ca6ad0" x="430.99751" y="196.796" style="stroke: #000000; stroke-width: 0.8"/>
      </g>
     </g>
    </g>
    <g id="xtick_14">
     <g id="line2d_55">
      <path d="M 464.626177 196.796 
L 464.626177 55.176 
" clip-path="url(#pa78d3a1409)" style="fill: none; stroke: #b0b0b0; stroke-opacity: 0.18; stroke-width: 0.6; stroke-linecap: square"/>
     </g>
     <g id="line2d_56">
      <g>
       <use xlink:href="#ma932ca6ad0" x="464.626177" y="196.796" style="stroke: #000000; stroke-width: 0.8"/>
      </g>
     </g>
    </g>
    <g id="xtick_15">
     <g id="line2d_57">
      <path d="M 498.254844 196.796 
L 498.254844 55.176 
" clip-path="url(#pa78d3a1409)" style="fill: none; stroke: #b0b0b0; stroke-opacity: 0.18; stroke-width: 0.6; stroke-linecap: square"/>
     </g>
     <g id="line2d_58">
      <g>
       <use xlink:href="#ma932ca6ad0" x="498.254844" y="196.796" style="stroke: #000000; stroke-width: 0.8"/>
      </g>
     </g>
    </g>
    <g id="xtick_16">
     <g id="line2d_59">
      <path d="M 531.88351 196.796 
L 531.88351 55.176 
" clip-path="url(#pa78d3a1409)" style="fill: none; stroke: #b0b0b0; stroke-opacity: 0.18; stroke-width: 0.6; stroke-linecap: square"/>
     </g>
     <g id="line2d_60">
      <g>
       <use xlink:href="#ma932ca6ad0" x="531.88351" y="196.796" style="stroke: #000000; stroke-width: 0.8"/>
      </g>
     </g>
    </g>
    <g id="xtick_17">
     <g id="line2d_61">
      <path d="M 565.512177 196.796 
L 565.512177 55.176 
" clip-path="url(#pa78d3a1409)" style="fill: none; stroke: #b0b0b0; stroke-opacity: 0.18; stroke-width: 0.6; stroke-linecap: square"/>
     </g>
     <g id="line2d_62">
      <g>
       <use xlink:href="#ma932ca6ad0" x="565.512177" y="196.796" style="stroke: #000000; stroke-width: 0.8"/>
      </g>
     </g>
    </g>
    <g id="xtick_18">
     <g id="line2d_63">
      <path d="M 599.140844 196.796 
L 599.140844 55.176 
" clip-path="url(#pa78d3a1409)" style="fill: none; stroke: #b0b0b0; stroke-opacity: 0.18; stroke-width: 0.6; stroke-linecap: square"/>
     </g>
     <g id="line2d_64">
      <g>
       <use xlink:href="#ma932ca6ad0" x="599.140844" y="196.796" style="stroke: #000000; stroke-width: 0.8"/>
      </g>
     </g>
    </g>
   </g>
   <g id="matplotlib.axis_6">
    <g id="ytick_13">
     <g id="line2d_65">
      <path d="M 430.99751 196.796 
L 599.140844 196.796 
" clip-path="url(#pa78d3a1409)" style="fill: none; stroke: #b0b0b0; stroke-opacity: 0.18; stroke-width: 0.6; stroke-linecap: square"/>
     </g>
     <g id="line2d_66">
      <g>
       <use xlink:href="#ma043f9aa32" x="430.99751" y="196.796" style="stroke: #000000; stroke-width: 0.8"/>
      </g>
     </g>
    </g>
    <g id="ytick_14">
     <g id="line2d_67">
      <path d="M 430.99751 168.472 
L 599.140844 168.472 
" clip-path="url(#pa78d3a1409)" style="fill: none; stroke: #b0b0b0; stroke-opacity: 0.18; stroke-width: 0.6; stroke-linecap: square"/>
     </g>
     <g id="line2d_68">
      <g>
       <use xlink:href="#ma043f9aa32" x="430.99751" y="168.472" style="stroke: #000000; stroke-width: 0.8"/>
      </g>
     </g>
    </g>
    <g id="ytick_15">
     <g id="line2d_69">
      <path d="M 430.99751 140.148 
L 599.140844 140.148 
" clip-path="url(#pa78d3a1409)" style="fill: none; stroke: #b0b0b0; stroke-opacity: 0.18; stroke-width: 0.6; stroke-linecap: square"/>
     </g>
     <g id="line2d_70">
      <g>
       <use xlink:href="#ma043f9aa32" x="430.99751" y="140.148" style="stroke: #000000; stroke-width: 0.8"/>
      </g>
     </g>
    </g>
    <g id="ytick_16">
     <g id="line2d_71">
      <path d="M 430.99751 111.824 
L 599.140844 111.824 
" clip-path="url(#pa78d3a1409)" style="fill: none; stroke: #b0b0b0; stroke-opacity: 0.18; stroke-width: 0.6; stroke-linecap: square"/>
     </g>
     <g id="line2d_72">
      <g>
       <use xlink:href="#ma043f9aa32" x="430.99751" y="111.824" style="stroke: #000000; stroke-width: 0.8"/>
      </g>
     </g>
    </g>
    <g id="ytick_17">
     <g id="line2d_73">
      <path d="M 430.99751 83.5 
L 599.140844 83.5 
" clip-path="url(#pa78d3a1409)" style="fill: none; stroke: #b0b0b0; stroke-opacity: 0.18; stroke-width: 0.6; stroke-linecap: square"/>
     </g>
     <g id="line2d_74">
      <g>
       <use xlink:href="#ma043f9aa32" x="430.99751" y="83.5" style="stroke: #000000; stroke-width: 0.8"/>
      </g>
     </g>
    </g>
    <g id="ytick_18">
     <g id="line2d_75">
      <path d="M 430.99751 55.176 
L 599.140844 55.176 
" clip-path="url(#pa78d3a1409)" style="fill: none; stroke: #b0b0b0; stroke-opacity: 0.18; stroke-width: 0.6; stroke-linecap: square"/>
     </g>
     <g id="line2d_76">
      <g>
       <use xlink:href="#ma043f9aa32" x="430.99751" y="55.176" style="stroke: #000000; stroke-width: 0.8"/>
      </g>
     </g>
    </g>
   </g>
   <g id="line2d_77">
    <path d="M 430.99751 196.796 
L 599.140844 55.176 
" clip-path="url(#pa78d3a1409)" style="fill: none; stroke-dasharray: 3.33,1.44; stroke-dashoffset: 0; stroke: #777777; stroke-width: 0.9"/>
   </g>
   <g id="line2d_78">
    <path d="M 524.596644 140.148 
L 540.184989 130.151294 
L 556.861291 131.6508 
L 575.17547 130.467646 
L 598.085274 103.472831 
" clip-path="url(#pa78d3a1409)" style="fill: none; stroke: #666666; stroke-opacity: 0.9; stroke-width: 1.8; stroke-linecap: square"/>
   </g>
   <g id="patch_9">
    <path d="M 430.99751 196.796 
L 430.99751 55.176 
" style="fill: none; stroke: #000000; stroke-width: 0.8; stroke-linejoin: miter; stroke-linecap: square"/>
   </g>
   <g id="patch_10">
    <path d="M 430.99751 196.796 
L 599.140844 196.796 
" style="fill: none; stroke: #000000; stroke-width: 0.8; stroke-linejoin: miter; stroke-linecap: square"/>
   </g>
   <g id="PathCollection_3">
    <path d="M 524.596644 143.219558 
C 525.411231 143.219558 526.192564 142.895919 526.768563 142.319919 
C 527.344563 141.743919 527.668202 140.962587 527.668202 140.148 
C 527.668202 139.333413 527.344563 138.552081 526.768563 137.976081 
C 526.192564 137.400081 525.411231 137.076442 524.596644 137.076442 
C 523.782058 137.076442 523.000725 137.400081 522.424725 137.976081 
C 521.848725 138.552081 521.525087 139.333413 521.525087 140.148 
C 521.525087 140.962587 521.848725 141.743919 522.424725 142.319919 
C 523.000725 142.895919 523.782058 143.219558 524.596644 143.219558 
z
" style="fill: #666666; fill-opacity: 0.9; stroke: #666666; stroke-opacity: 0.9; stroke-width: 0.25"/>
    <path d="M 540.184989 133.218502 
C 540.998422 133.218502 541.778649 132.895322 542.353833 132.320138 
C 542.929017 131.744954 543.252198 130.964727 543.252198 130.151294 
C 543.252198 129.337861 542.929017 128.557634 542.353833 127.98245 
C 541.778649 127.407266 540.998422 127.084086 540.184989 127.084086 
C 539.371556 127.084086 538.59133 127.407266 538.016145 127.98245 
C 537.440961 128.557634 537.117781 129.337861 537.117781 130.151294 
C 537.117781 130.964727 537.440961 131.744954 538.016145 132.320138 
C 538.59133 132.895322 539.371556 133.218502 540.184989 133.218502 
z
" style="fill: #666666; fill-opacity: 0.9; stroke: #666666; stroke-opacity: 0.9; stroke-width: 0.25"/>
    <path d="M 556.861291 134.786873 
C 557.692987 134.786873 558.490731 134.456436 559.078829 133.868338 
C 559.666927 133.28024 559.997363 132.482496 559.997363 131.6508 
C 559.997363 130.819104 559.666927 130.02136 559.078829 129.433262 
C 558.490731 128.845164 557.692987 128.514727 556.861291 128.514727 
C 556.029595 128.514727 555.231851 128.845164 554.643753 129.433262 
C 554.055655 130.02136 553.725218 130.819104 553.725218 131.6508 
C 553.725218 132.482496 554.055655 133.28024 554.643753 133.868338 
C 555.231851 134.456436 556.029595 134.786873 556.861291 134.786873 
z
" style="fill: #666666; fill-opacity: 0.9; stroke: #666666; stroke-opacity: 0.9; stroke-width: 0.25"/>
    <path d="M 575.17547 133.724826 
C 576.039285 133.724826 576.867836 133.381629 577.478645 132.77082 
C 578.089454 132.160011 578.432651 131.33146 578.432651 130.467646 
C 578.432651 129.603831 578.089454 128.77528 577.478645 128.164471 
C 576.867836 127.553662 576.039285 127.210465 575.17547 127.210465 
C 574.311656 127.210465 573.483105 127.553662 572.872296 128.164471 
C 572.261487 128.77528 571.91829 129.603831 571.91829 130.467646 
C 571.91829 131.33146 572.261487 132.160011 572.872296 132.77082 
C 573.483105 133.381629 574.311656 133.724826 575.17547 133.724826 
z
" style="fill: #666666; fill-opacity: 0.9; stroke: #666666; stroke-opacity: 0.9; stroke-width: 0.25"/>
    <path d="M 598.085274 111.102615 
C 600.108716 111.102615 602.049556 110.298693 603.480346 108.867903 
C 604.911135 107.437113 605.715058 105.496274 605.715058 103.472831 
C 605.715058 101.449389 604.911135 99.50855 603.480346 98.07776 
C 602.049556 96.64697 600.108716 95.843048 598.085274 95.843048 
C 596.061832 95.843048 594.120992 96.64697 592.690203 98.07776 
C 591.259413 99.50855 590.455491 101.449389 590.455491 103.472831 
C 590.455491 105.496274 591.259413 107.437113 592.690203 108.867903 
C 594.120992 110.298693 596.061832 111.102615 598.085274 111.102615 
z
" style="fill: #666666; fill-opacity: 0.9; stroke: #666666; stroke-opacity: 0.9; stroke-width: 0.25"/>
   </g>
   <g id="text_10">
    <!-- PathVQA -->
    <g transform="translate(493.309802 49.176) scale(0.1 -0.1)">
     <defs>
      <path id="DejaVuSans-50" d="M 1259 4147 
L 1259 2394 
L 2053 2394 
Q 2494 2394 2734 2622 
Q 2975 2850 2975 3272 
Q 2975 3691 2734 3919 
Q 2494 4147 2053 4147 
L 1259 4147 
z
M 628 4666 
L 2053 4666 
Q 2838 4666 3239 4311 
Q 3641 3956 3641 3272 
Q 3641 2581 3239 2228 
Q 2838 1875 2053 1875 
L 1259 1875 
L 1259 0 
L 628 0 
L 628 4666 
z
" transform="scale(0.015625)"/>
     </defs>
     <use xlink:href="#DejaVuSans-50"/>
     <use xlink:href="#DejaVuSans-61" transform="translate(55.802734 0)"/>
     <use xlink:href="#DejaVuSans-74" transform="translate(117.082031 0)"/>
     <use xlink:href="#DejaVuSans-68" transform="translate(156.291016 0)"/>
     <use xlink:href="#DejaVuSans-56" transform="translate(219.669922 0)"/>
     <use xlink:href="#DejaVuSans-51" transform="translate(288.078125 0)"/>
     <use xlink:href="#DejaVuSans-41" transform="translate(366.789062 0)"/>
    </g>
   </g>
  </g>
  <g id="axes_4">
   <g id="patch_11">
    <path d="M 49.710844 355.336 
L 217.854177 355.336 
L 217.854177 213.716 
L 49.710844 213.716 
z
" style="fill: #ffffff"/>
   </g>
   <g id="matplotlib.axis_7">
    <g id="xtick_19">
     <g id="line2d_79">
      <path d="M 49.710844 355.336 
L 49.710844 213.716 
" clip-path="url(#p522eb25e40)" style="fill: none; stroke: #b0b0b0; stroke-opacity: 0.18; stroke-width: 0.6; stroke-linecap: square"/>
     </g>
     <g id="line2d_80">
      <g>
       <use xlink:href="#ma932ca6ad0" x="49.710844" y="355.336" style="stroke: #000000; stroke-width: 0.8"/>
      </g>
     </g>
     <g id="text_11">
      <!-- 0.0 -->
      <g transform="translate(43.349594 368.41475) scale(0.08 -0.08)">
       <use xlink:href="#DejaVuSans-30"/>
       <use xlink:href="#DejaVuSans-2e" transform="translate(63.623047 0)"/>
       <use xlink:href="#DejaVuSans-30" transform="translate(95.410156 0)"/>
      </g>
     </g>
    </g>
    <g id="xtick_20">
     <g id="line2d_81">
      <path d="M 83.33951 355.336 
L 83.33951 213.716 
" clip-path="url(#p522eb25e40)" style="fill: none; stroke: #b0b0b0; stroke-opacity: 0.18; stroke-width: 0.6; stroke-linecap: square"/>
     </g>
     <g id="line2d_82">
      <g>
       <use xlink:href="#ma932ca6ad0" x="83.33951" y="355.336" style="stroke: #000000; stroke-width: 0.8"/>
      </g>
     </g>
     <g id="text_12">
      <!-- 0.2 -->
      <g transform="translate(76.97826 368.41475) scale(0.08 -0.08)">
       <use xlink:href="#DejaVuSans-30"/>
       <use xlink:href="#DejaVuSans-2e" transform="translate(63.623047 0)"/>
       <use xlink:href="#DejaVuSans-32" transform="translate(95.410156 0)"/>
      </g>
     </g>
    </g>
    <g id="xtick_21">
     <g id="line2d_83">
      <path d="M 116.968177 355.336 
L 116.968177 213.716 
" clip-path="url(#p522eb25e40)" style="fill: none; stroke: #b0b0b0; stroke-opacity: 0.18; stroke-width: 0.6; stroke-linecap: square"/>
     </g>
     <g id="line2d_84">
      <g>
       <use xlink:href="#ma932ca6ad0" x="116.968177" y="355.336" style="stroke: #000000; stroke-width: 0.8"/>
      </g>
     </g>
     <g id="text_13">
      <!-- 0.4 -->
      <g transform="translate(110.606927 368.41475) scale(0.08 -0.08)">
       <use xlink:href="#DejaVuSans-30"/>
       <use xlink:href="#DejaVuSans-2e" transform="translate(63.623047 0)"/>
       <use xlink:href="#DejaVuSans-34" transform="translate(95.410156 0)"/>
      </g>
     </g>
    </g>
    <g id="xtick_22">
     <g id="line2d_85">
      <path d="M 150.596844 355.336 
L 150.596844 213.716 
" clip-path="url(#p522eb25e40)" style="fill: none; stroke: #b0b0b0; stroke-opacity: 0.18; stroke-width: 0.6; stroke-linecap: square"/>
     </g>
     <g id="line2d_86">
      <g>
       <use xlink:href="#ma932ca6ad0" x="150.596844" y="355.336" style="stroke: #000000; stroke-width: 0.8"/>
      </g>
     </g>
     <g id="text_14">
      <!-- 0.6 -->
      <g transform="translate(144.235594 368.41475) scale(0.08 -0.08)">
       <use xlink:href="#DejaVuSans-30"/>
       <use xlink:href="#DejaVuSans-2e" transform="translate(63.623047 0)"/>
       <use xlink:href="#DejaVuSans-36" transform="translate(95.410156 0)"/>
      </g>
     </g>
    </g>
    <g id="xtick_23">
     <g id="line2d_87">
      <path d="M 184.22551 355.336 
L 184.22551 213.716 
" clip-path="url(#p522eb25e40)" style="fill: none; stroke: #b0b0b0; stroke-opacity: 0.18; stroke-width: 0.6; stroke-linecap: square"/>
     </g>
     <g id="line2d_88">
      <g>
       <use xlink:href="#ma932ca6ad0" x="184.22551" y="355.336" style="stroke: #000000; stroke-width: 0.8"/>
      </g>
     </g>
     <g id="text_15">
      <!-- 0.8 -->
      <g transform="translate(177.86426 368.41475) scale(0.08 -0.08)">
       <use xlink:href="#DejaVuSans-30"/>
       <use xlink:href="#DejaVuSans-2e" transform="translate(63.623047 0)"/>
       <use xlink:href="#DejaVuSans-38" transform="translate(95.410156 0)"/>
      </g>
     </g>
    </g>
    <g id="xtick_24">
     <g id="line2d_89">
      <path d="M 217.854177 355.336 
L 217.854177 213.716 
" clip-path="url(#p522eb25e40)" style="fill: none; stroke: #b0b0b0; stroke-opacity: 0.18; stroke-width: 0.6; stroke-linecap: square"/>
     </g>
     <g id="line2d_90">
      <g>
       <use xlink:href="#ma932ca6ad0" x="217.854177" y="355.336" style="stroke: #000000; stroke-width: 0.8"/>
      </g>
     </g>
     <g id="text_16">
      <!-- 1.0 -->
      <g transform="translate(211.492927 368.41475) scale(0.08 -0.08)">
       <use xlink:href="#DejaVuSans-31"/>
       <use xlink:href="#DejaVuSans-2e" transform="translate(63.623047 0)"/>
       <use xlink:href="#DejaVuSans-30" transform="translate(95.410156 0)"/>
      </g>
     </g>
    </g>
    <g id="text_17">
     <!-- Confidence -->
     <g transform="translate(108.479854 380.917094) scale(0.09 -0.09)">
      <defs>
       <path id="DejaVuSans-43" d="M 4122 4306 
L 4122 3641 
Q 3803 3938 3442 4084 
Q 3081 4231 2675 4231 
Q 1875 4231 1450 3742 
Q 1025 3253 1025 2328 
Q 1025 1406 1450 917 
Q 1875 428 2675 428 
Q 3081 428 3442 575 
Q 3803 722 4122 1019 
L 4122 359 
Q 3791 134 3420 21 
Q 3050 -91 2638 -91 
Q 1578 -91 968 557 
Q 359 1206 359 2328 
Q 359 3453 968 4101 
Q 1578 4750 2638 4750 
Q 3056 4750 3426 4639 
Q 3797 4528 4122 4306 
z
" transform="scale(0.015625)"/>
       <path id="DejaVuSans-66" d="M 2375 4863 
L 2375 4384 
L 1825 4384 
Q 1516 4384 1395 4259 
Q 1275 4134 1275 3809 
L 1275 3500 
L 2222 3500 
L 2222 3053 
L 1275 3053 
L 1275 0 
L 697 0 
L 697 3053 
L 147 3053 
L 147 3500 
L 697 3500 
L 697 3744 
Q 697 4328 969 4595 
Q 1241 4863 1831 4863 
L 2375 4863 
z
" transform="scale(0.015625)"/>
       <path id="DejaVuSans-69" d="M 603 3500 
L 1178 3500 
L 1178 0 
L 603 0 
L 603 3500 
z
M 603 4863 
L 1178 4863 
L 1178 4134 
L 603 4134 
L 603 4863 
z
" transform="scale(0.015625)"/>
       <path id="DejaVuSans-64" d="M 2906 2969 
L 2906 4863 
L 3481 4863 
L 3481 0 
L 2906 0 
L 2906 525 
Q 2725 213 2448 61 
Q 2172 -91 1784 -91 
Q 1150 -91 751 415 
Q 353 922 353 1747 
Q 353 2572 751 3078 
Q 1150 3584 1784 3584 
Q 2172 3584 2448 3432 
Q 2725 3281 2906 2969 
z
M 947 1747 
Q 947 1113 1208 752 
Q 1469 391 1925 391 
Q 2381 391 2643 752 
Q 2906 1113 2906 1747 
Q 2906 2381 2643 2742 
Q 2381 3103 1925 3103 
Q 1469 3103 1208 2742 
Q 947 2381 947 1747 
z
" transform="scale(0.015625)"/>
      </defs>
      <use xlink:href="#DejaVuSans-43"/>
      <use xlink:href="#DejaVuSans-6f" transform="translate(69.824219 0)"/>
      <use xlink:href="#DejaVuSans-6e" transform="translate(131.005859 0)"/>
      <use xlink:href="#DejaVuSans-66" transform="translate(194.384766 0)"/>
      <use xlink:href="#DejaVuSans-69" transform="translate(229.589844 0)"/>
      <use xlink:href="#DejaVuSans-64" transform="translate(257.373047 0)"/>
      <use xlink:href="#DejaVuSans-65" transform="translate(320.849609 0)"/>
      <use xlink:href="#DejaVuSans-6e" transform="translate(382.373047 0)"/>
      <use xlink:href="#DejaVuSans-63" transform="translate(445.751953 0)"/>
      <use xlink:href="#DejaVuSans-65" transform="translate(500.732422 0)"/>
     </g>
    </g>
   </g>
   <g id="matplotlib.axis_8">
    <g id="ytick_19">
     <g id="line2d_91">
      <path d="M 49.710844 355.336 
L 217.854177 355.336 
" clip-path="url(#p522eb25e40)" style="fill: none; stroke: #b0b0b0; stroke-opacity: 0.18; stroke-width: 0.6; stroke-linecap: square"/>
     </g>
     <g id="line2d_92">
      <g>
       <use xlink:href="#ma043f9aa32" x="49.710844" y="355.336" style="stroke: #000000; stroke-width: 0.8"/>
      </g>
     </g>
     <g id="text_18">
      <!-- 0.0 -->
      <g transform="translate(29.988344 358.375375) scale(0.08 -0.08)">
       <use xlink:href="#DejaVuSans-30"/>
       <use xlink:href="#DejaVuSans-2e" transform="translate(63.623047 0)"/>
       <use xlink:href="#DejaVuSans-30" transform="translate(95.410156 0)"/>
      </g>
     </g>
    </g>
    <g id="ytick_20">
     <g id="line2d_93">
      <path d="M 49.710844 327.012 
L 217.854177 327.012 
" clip-path="url(#p522eb25e40)" style="fill: none; stroke: #b0b0b0; stroke-opacity: 0.18; stroke-width: 0.6; stroke-linecap: square"/>
     </g>
     <g id="line2d_94">
      <g>
       <use xlink:href="#ma043f9aa32" x="49.710844" y="327.012" style="stroke: #000000; stroke-width: 0.8"/>
      </g>
     </g>
     <g id="text_19">
      <!-- 0.2 -->
      <g transform="translate(29.988344 330.051375) scale(0.08 -0.08)">
       <use xlink:href="#DejaVuSans-30"/>
       <use xlink:href="#DejaVuSans-2e" transform="translate(63.623047 0)"/>
       <use xlink:href="#DejaVuSans-32" transform="translate(95.410156 0)"/>
      </g>
     </g>
    </g>
    <g id="ytick_21">
     <g id="line2d_95">
      <path d="M 49.710844 298.688 
L 217.854177 298.688 
" clip-path="url(#p522eb25e40)" style="fill: none; stroke: #b0b0b0; stroke-opacity: 0.18; stroke-width: 0.6; stroke-linecap: square"/>
     </g>
     <g id="line2d_96">
      <g>
       <use xlink:href="#ma043f9aa32" x="49.710844" y="298.688" style="stroke: #000000; stroke-width: 0.8"/>
      </g>
     </g>
     <g id="text_20">
      <!-- 0.4 -->
      <g transform="translate(29.988344 301.727375) scale(0.08 -0.08)">
       <use xlink:href="#DejaVuSans-30"/>
       <use xlink:href="#DejaVuSans-2e" transform="translate(63.623047 0)"/>
       <use xlink:href="#DejaVuSans-34" transform="translate(95.410156 0)"/>
      </g>
     </g>
    </g>
    <g id="ytick_22">
     <g id="line2d_97">
      <path d="M 49.710844 270.364 
L 217.854177 270.364 
" clip-path="url(#p522eb25e40)" style="fill: none; stroke: #b0b0b0; stroke-opacity: 0.18; stroke-width: 0.6; stroke-linecap: square"/>
     </g>
     <g id="line2d_98">
      <g>
       <use xlink:href="#ma043f9aa32" x="49.710844" y="270.364" style="stroke: #000000; stroke-width: 0.8"/>
      </g>
     </g>
     <g id="text_21">
      <!-- 0.6 -->
      <g transform="translate(29.988344 273.403375) scale(0.08 -0.08)">
       <use xlink:href="#DejaVuSans-30"/>
       <use xlink:href="#DejaVuSans-2e" transform="translate(63.623047 0)"/>
       <use xlink:href="#DejaVuSans-36" transform="translate(95.410156 0)"/>
      </g>
     </g>
    </g>
    <g id="ytick_23">
     <g id="line2d_99">
      <path d="M 49.710844 242.04 
L 217.854177 242.04 
" clip-path="url(#p522eb25e40)" style="fill: none; stroke: #b0b0b0; stroke-opacity: 0.18; stroke-width: 0.6; stroke-linecap: square"/>
     </g>
     <g id="line2d_100">
      <g>
       <use xlink:href="#ma043f9aa32" x="49.710844" y="242.04" style="stroke: #000000; stroke-width: 0.8"/>
      </g>
     </g>
     <g id="text_22">
      <!-- 0.8 -->
      <g transform="translate(29.988344 245.079375) scale(0.08 -0.08)">
       <use xlink:href="#DejaVuSans-30"/>
       <use xlink:href="#DejaVuSans-2e" transform="translate(63.623047 0)"/>
       <use xlink:href="#DejaVuSans-38" transform="translate(95.410156 0)"/>
      </g>
     </g>
    </g>
    <g id="ytick_24">
     <g id="line2d_101">
      <path d="M 49.710844 213.716 
L 217.854177 213.716 
" clip-path="url(#p522eb25e40)" style="fill: none; stroke: #b0b0b0; stroke-opacity: 0.18; stroke-width: 0.6; stroke-linecap: square"/>
     </g>
     <g id="line2d_102">
      <g>
       <use xlink:href="#ma043f9aa32" x="49.710844" y="213.716" style="stroke: #000000; stroke-width: 0.8"/>
      </g>
     </g>
     <g id="text_23">
      <!-- 1.0 -->
      <g transform="translate(29.988344 216.755375) scale(0.08 -0.08)">
       <use xlink:href="#DejaVuSans-31"/>
       <use xlink:href="#DejaVuSans-2e" transform="translate(63.623047 0)"/>
       <use xlink:href="#DejaVuSans-30" transform="translate(95.410156 0)"/>
      </g>
     </g>
    </g>
    <g id="text_24">
     <!-- Fine-tuned -->
     <g transform="translate(14.038594 308.376) rotate(-90) scale(0.09 -0.09)">
      <defs>
       <path id="DejaVuSans-46" d="M 628 4666 
L 3309 4666 
L 3309 4134 
L 1259 4134 
L 1259 2759 
L 3109 2759 
L 3109 2228 
L 1259 2228 
L 1259 0 
L 628 0 
L 628 4666 
z
" transform="scale(0.015625)"/>
      </defs>
      <use xlink:href="#DejaVuSans-46"/>
      <use xlink:href="#DejaVuSans-69" transform="translate(50.269531 0)"/>
      <use xlink:href="#DejaVuSans-6e" transform="translate(78.052734 0)"/>
      <use xlink:href="#DejaVuSans-65" transform="translate(141.431641 0)"/>
      <use xlink:href="#DejaVuSans-2d" transform="translate(202.955078 0)"/>
      <use xlink:href="#DejaVuSans-74" transform="translate(239.039062 0)"/>
      <use xlink:href="#DejaVuSans-75" transform="translate(278.248047 0)"/>
      <use xlink:href="#DejaVuSans-6e" transform="translate(341.626953 0)"/>
      <use xlink:href="#DejaVuSans-65" transform="translate(405.005859 0)"/>
      <use xlink:href="#DejaVuSans-64" transform="translate(466.529297 0)"/>
     </g>
     <!-- Accuracy -->
     <g transform="translate(24.116625 305.071312) rotate(-90) scale(0.09 -0.09)">
      <use xlink:href="#DejaVuSans-41"/>
      <use xlink:href="#DejaVuSans-63" transform="translate(66.658203 0)"/>
      <use xlink:href="#DejaVuSans-63" transform="translate(121.638672 0)"/>
      <use xlink:href="#DejaVuSans-75" transform="translate(176.619141 0)"/>
      <use xlink:href="#DejaVuSans-72" transform="translate(239.998047 0)"/>
      <use xlink:href="#DejaVuSans-61" transform="translate(281.111328 0)"/>
      <use xlink:href="#DejaVuSans-63" transform="translate(342.390625 0)"/>
      <use xlink:href="#DejaVuSans-79" transform="translate(397.371094 0)"/>
     </g>
    </g>
   </g>
   <g id="line2d_103">
    <path d="M 49.710844 355.336 
L 217.854177 213.716 
" clip-path="url(#p522eb25e40)" style="fill: none; stroke-dasharray: 3.33,1.44; stroke-dashoffset: 0; stroke: #777777; stroke-width: 0.9"/>
   </g>
   <g id="line2d_104">
    <path d="M 135.531726 308.129333 
L 159.177489 355.336 
L 195.034612 319.931 
L 215.254184 237.528212 
" clip-path="url(#p522eb25e40)" style="fill: none; stroke: #cc79a7; stroke-opacity: 0.9; stroke-width: 1.8; stroke-linecap: square"/>
   </g>
   <g id="patch_12">
    <path d="M 49.710844 355.336 
L 49.710844 213.716 
" style="fill: none; stroke: #000000; stroke-width: 0.8; stroke-linejoin: miter; stroke-linecap: square"/>
   </g>
   <g id="patch_13">
    <path d="M 49.710844 355.336 
L 217.854177 355.336 
" style="fill: none; stroke: #000000; stroke-width: 0.8; stroke-linejoin: miter; stroke-linecap: square"/>
   </g>
   <g id="PathCollection_4">
    <path d="M 135.531726 311.268196 
C 136.364163 311.268196 137.162616 310.937466 137.751238 310.348844 
C 138.339859 309.760223 138.670589 308.961769 138.670589 308.129333 
C 138.670589 307.296897 138.339859 306.498443 137.751238 305.909822 
C 137.162616 305.321201 136.364163 304.990471 135.531726 304.990471 
C 134.69929 304.990471 133.900837 305.321201 133.312215 305.909822 
C 132.723594 306.498443 132.392864 307.296897 132.392864 308.129333 
C 132.392864 308.961769 132.723594 309.760223 133.312215 310.348844 
C 133.900837 310.937466 134.69929 311.268196 135.531726 311.268196 
z
" style="fill: #cc79a7; fill-opacity: 0.9; stroke: #cc79a7; stroke-opacity: 0.9; stroke-width: 0.25"/>
    <path d="M 159.177489 358.402209 
C 159.990657 358.402209 160.770629 358.079134 161.345626 357.504137 
C 161.920623 356.929141 162.243698 356.149168 162.243698 355.336 
C 162.243698 354.522832 161.920623 353.742859 161.345626 353.167863 
C 160.770629 352.592866 159.990657 352.269791 159.177489 352.269791 
C 158.364321 352.269791 157.584348 352.592866 157.009351 353.167863 
C 156.434355 353.742859 156.111279 354.522832 156.111279 355.336 
C 156.111279 356.149168 156.434355 356.929141 157.009351 357.504137 
C 157.584348 358.079134 158.364321 358.402209 159.177489 358.402209 
z
" style="fill: #cc79a7; fill-opacity: 0.9; stroke: #cc79a7; stroke-opacity: 0.9; stroke-width: 0.25"/>
    <path d="M 195.034612 323.140872 
C 195.88588 323.140872 196.702396 322.80266 197.304334 322.200722 
C 197.906271 321.598785 198.244484 320.782268 198.244484 319.931 
C 198.244484 319.079732 197.906271 318.263215 197.304334 317.661278 
C 196.702396 317.05934 195.88588 316.721128 195.034612 316.721128 
C 194.183344 316.721128 193.366827 317.05934 192.764889 317.661278 
C 192.162952 318.263215 191.824739 319.079732 191.824739 319.931 
C 191.824739 320.782268 192.162952 321.598785 192.764889 322.200722 
C 193.366827 322.80266 194.183344 323.140872 195.034612 323.140872 
z
" style="fill: #cc79a7; fill-opacity: 0.9; stroke: #cc79a7; stroke-opacity: 0.9; stroke-width: 0.25"/>
    <path d="M 215.254184 245.238117 
C 217.298874 245.238117 219.260095 244.425752 220.705909 242.979938 
C 222.151724 241.534123 222.964088 239.572903 222.964088 237.528212 
C 222.964088 235.483522 222.151724 233.522301 220.705909 232.076487 
C 219.260095 230.630672 217.298874 229.818308 215.254184 229.818308 
C 213.209493 229.818308 211.248273 230.630672 209.802458 232.076487 
C 208.356644 233.522301 207.54428 235.483522 207.54428 237.528212 
C 207.54428 239.572903 208.356644 241.534123 209.802458 242.979938 
C 211.248273 244.425752 213.209493 245.238117 215.254184 245.238117 
z
" style="fill: #cc79a7; fill-opacity: 0.9; stroke: #cc79a7; stroke-opacity: 0.9; stroke-width: 0.25"/>
   </g>
  </g>
  <g id="axes_5">
   <g id="patch_14">
    <path d="M 240.354177 355.336 
L 408.49751 355.336 
L 408.49751 213.716 
L 240.354177 213.716 
z
" style="fill: #ffffff"/>
   </g>
   <g id="matplotlib.axis_9">
    <g id="xtick_25">
     <g id="line2d_105">
      <path d="M 240.354177 355.336 
L 240.354177 213.716 
" clip-path="url(#p172783b2e7)" style="fill: none; stroke: #b0b0b0; stroke-opacity: 0.18; stroke-width: 0.6; stroke-linecap: square"/>
     </g>
     <g id="line2d_106">
      <g>
       <use xlink:href="#ma932ca6ad0" x="240.354177" y="355.336" style="stroke: #000000; stroke-width: 0.8"/>
      </g>
     </g>
     <g id="text_25">
      <!-- 0.0 -->
      <g transform="translate(233.992927 368.41475) scale(0.08 -0.08)">
       <use xlink:href="#DejaVuSans-30"/>
       <use xlink:href="#DejaVuSans-2e" transform="translate(63.623047 0)"/>
       <use xlink:href="#DejaVuSans-30" transform="translate(95.410156 0)"/>
      </g>
     </g>
    </g>
    <g id="xtick_26">
     <g id="line2d_107">
      <path d="M 273.982844 355.336 
L 273.982844 213.716 
" clip-path="url(#p172783b2e7)" style="fill: none; stroke: #b0b0b0; stroke-opacity: 0.18; stroke-width: 0.6; stroke-linecap: square"/>
     </g>
     <g id="line2d_108">
      <g>
       <use xlink:href="#ma932ca6ad0" x="273.982844" y="355.336" style="stroke: #000000; stroke-width: 0.8"/>
      </g>
     </g>
     <g id="text_26">
      <!-- 0.2 -->
      <g transform="translate(267.621594 368.41475) scale(0.08 -0.08)">
       <use xlink:href="#DejaVuSans-30"/>
       <use xlink:href="#DejaVuSans-2e" transform="translate(63.623047 0)"/>
       <use xlink:href="#DejaVuSans-32" transform="translate(95.410156 0)"/>
      </g>
     </g>
    </g>
    <g id="xtick_27">
     <g id="line2d_109">
      <path d="M 307.61151 355.336 
L 307.61151 213.716 
" clip-path="url(#p172783b2e7)" style="fill: none; stroke: #b0b0b0; stroke-opacity: 0.18; stroke-width: 0.6; stroke-linecap: square"/>
     </g>
     <g id="line2d_110">
      <g>
       <use xlink:href="#ma932ca6ad0" x="307.61151" y="355.336" style="stroke: #000000; stroke-width: 0.8"/>
      </g>
     </g>
     <g id="text_27">
      <!-- 0.4 -->
      <g transform="translate(301.25026 368.41475) scale(0.08 -0.08)">
       <use xlink:href="#DejaVuSans-30"/>
       <use xlink:href="#DejaVuSans-2e" transform="translate(63.623047 0)"/>
       <use xlink:href="#DejaVuSans-34" transform="translate(95.410156 0)"/>
      </g>
     </g>
    </g>
    <g id="xtick_28">
     <g id="line2d_111">
      <path d="M 341.240177 355.336 
L 341.240177 213.716 
" clip-path="url(#p172783b2e7)" style="fill: none; stroke: #b0b0b0; stroke-opacity: 0.18; stroke-width: 0.6; stroke-linecap: square"/>
     </g>
     <g id="line2d_112">
      <g>
       <use xlink:href="#ma932ca6ad0" x="341.240177" y="355.336" style="stroke: #000000; stroke-width: 0.8"/>
      </g>
     </g>
     <g id="text_28">
      <!-- 0.6 -->
      <g transform="translate(334.878927 368.41475) scale(0.08 -0.08)">
       <use xlink:href="#DejaVuSans-30"/>
       <use xlink:href="#DejaVuSans-2e" transform="translate(63.623047 0)"/>
       <use xlink:href="#DejaVuSans-36" transform="translate(95.410156 0)"/>
      </g>
     </g>
    </g>
    <g id="xtick_29">
     <g id="line2d_113">
      <path d="M 374.868844 355.336 
L 374.868844 213.716 
" clip-path="url(#p172783b2e7)" style="fill: none; stroke: #b0b0b0; stroke-opacity: 0.18; stroke-width: 0.6; stroke-linecap: square"/>
     </g>
     <g id="line2d_114">
      <g>
       <use xlink:href="#ma932ca6ad0" x="374.868844" y="355.336" style="stroke: #000000; stroke-width: 0.8"/>
      </g>
     </g>
     <g id="text_29">
      <!-- 0.8 -->
      <g transform="translate(368.507594 368.41475) scale(0.08 -0.08)">
       <use xlink:href="#DejaVuSans-30"/>
       <use xlink:href="#DejaVuSans-2e" transform="translate(63.623047 0)"/>
       <use xlink:href="#DejaVuSans-38" transform="translate(95.410156 0)"/>
      </g>
     </g>
    </g>
    <g id="xtick_30">
     <g id="line2d_115">
      <path d="M 408.49751 355.336 
L 408.49751 213.716 
" clip-path="url(#p172783b2e7)" style="fill: none; stroke: #b0b0b0; stroke-opacity: 0.18; stroke-width: 0.6; stroke-linecap: square"/>
     </g>
     <g id="line2d_116">
      <g>
       <use xlink:href="#ma932ca6ad0" x="408.49751" y="355.336" style="stroke: #000000; stroke-width: 0.8"/>
      </g>
     </g>
     <g id="text_30">
      <!-- 1.0 -->
      <g transform="translate(402.13626 368.41475) scale(0.08 -0.08)">
       <use xlink:href="#DejaVuSans-31"/>
       <use xlink:href="#DejaVuSans-2e" transform="translate(63.623047 0)"/>
       <use xlink:href="#DejaVuSans-30" transform="translate(95.410156 0)"/>
      </g>
     </g>
    </g>
    <g id="text_31">
     <!-- Confidence -->
     <g transform="translate(299.123187 380.917094) scale(0.09 -0.09)">
      <use xlink:href="#DejaVuSans-43"/>
      <use xlink:href="#DejaVuSans-6f" transform="translate(69.824219 0)"/>
      <use xlink:href="#DejaVuSans-6e" transform="translate(131.005859 0)"/>
      <use xlink:href="#DejaVuSans-66" transform="translate(194.384766 0)"/>
      <use xlink:href="#DejaVuSans-69" transform="translate(229.589844 0)"/>
      <use xlink:href="#DejaVuSans-64" transform="translate(257.373047 0)"/>
      <use xlink:href="#DejaVuSans-65" transform="translate(320.849609 0)"/>
      <use xlink:href="#DejaVuSans-6e" transform="translate(382.373047 0)"/>
      <use xlink:href="#DejaVuSans-63" transform="translate(445.751953 0)"/>
      <use xlink:href="#DejaVuSans-65" transform="translate(500.732422 0)"/>
     </g>
    </g>
   </g>
   <g id="matplotlib.axis_10">
    <g id="ytick_25">
     <g id="line2d_117">
      <path d="M 240.354177 355.336 
L 408.49751 355.336 
" clip-path="url(#p172783b2e7)" style="fill: none; stroke: #b0b0b0; stroke-opacity: 0.18; stroke-width: 0.6; stroke-linecap: square"/>
     </g>
     <g id="line2d_118">
      <g>
       <use xlink:href="#ma043f9aa32" x="240.354177" y="355.336" style="stroke: #000000; stroke-width: 0.8"/>
      </g>
     </g>
    </g>
    <g id="ytick_26">
     <g id="line2d_119">
      <path d="M 240.354177 327.012 
L 408.49751 327.012 
" clip-path="url(#p172783b2e7)" style="fill: none; stroke: #b0b0b0; stroke-opacity: 0.18; stroke-width: 0.6; stroke-linecap: square"/>
     </g>
     <g id="line2d_120">
      <g>
       <use xlink:href="#ma043f9aa32" x="240.354177" y="327.012" style="stroke: #000000; stroke-width: 0.8"/>
      </g>
     </g>
    </g>
    <g id="ytick_27">
     <g id="line2d_121">
      <path d="M 240.354177 298.688 
L 408.49751 298.688 
" clip-path="url(#p172783b2e7)" style="fill: none; stroke: #b0b0b0; stroke-opacity: 0.18; stroke-width: 0.6; stroke-linecap: square"/>
     </g>
     <g id="line2d_122">
      <g>
       <use xlink:href="#ma043f9aa32" x="240.354177" y="298.688" style="stroke: #000000; stroke-width: 0.8"/>
      </g>
     </g>
    </g>
    <g id="ytick_28">
     <g id="line2d_123">
      <path d="M 240.354177 270.364 
L 408.49751 270.364 
" clip-path="url(#p172783b2e7)" style="fill: none; stroke: #b0b0b0; stroke-opacity: 0.18; stroke-width: 0.6; stroke-linecap: square"/>
     </g>
     <g id="line2d_124">
      <g>
       <use xlink:href="#ma043f9aa32" x="240.354177" y="270.364" style="stroke: #000000; stroke-width: 0.8"/>
      </g>
     </g>
    </g>
    <g id="ytick_29">
     <g id="line2d_125">
      <path d="M 240.354177 242.04 
L 408.49751 242.04 
" clip-path="url(#p172783b2e7)" style="fill: none; stroke: #b0b0b0; stroke-opacity: 0.18; stroke-width: 0.6; stroke-linecap: square"/>
     </g>
     <g id="line2d_126">
      <g>
       <use xlink:href="#ma043f9aa32" x="240.354177" y="242.04" style="stroke: #000000; stroke-width: 0.8"/>
      </g>
     </g>
    </g>
    <g id="ytick_30">
     <g id="line2d_127">
      <path d="M 240.354177 213.716 
L 408.49751 213.716 
" clip-path="url(#p172783b2e7)" style="fill: none; stroke: #b0b0b0; stroke-opacity: 0.18; stroke-width: 0.6; stroke-linecap: square"/>
     </g>
     <g id="line2d_128">
      <g>
       <use xlink:href="#ma043f9aa32" x="240.354177" y="213.716" style="stroke: #000000; stroke-width: 0.8"/>
      </g>
     </g>
    </g>
   </g>
   <g id="line2d_129">
    <path d="M 240.354177 355.336 
L 408.49751 213.716 
" clip-path="url(#p172783b2e7)" style="fill: none; stroke-dasharray: 3.33,1.44; stroke-dashoffset: 0; stroke: #777777; stroke-width: 0.9"/>
   </g>
   <g id="line2d_130">
    <path d="M 324.425844 355.336 
L 348.912567 298.688 
L 366.829677 355.336 
L 388.402555 355.336 
L 407.677509 229.587207 
" clip-path="url(#p172783b2e7)" style="fill: none; stroke: #cc79a7; stroke-opacity: 0.9; stroke-width: 1.8; stroke-linecap: square"/>
   </g>
   <g id="patch_15">
    <path d="M 240.354177 355.336 
L 240.354177 213.716 
" style="fill: none; stroke: #000000; stroke-width: 0.8; stroke-linejoin: miter; stroke-linecap: square"/>
   </g>
   <g id="patch_16">
    <path d="M 240.354177 355.336 
L 408.49751 355.336 
" style="fill: none; stroke: #000000; stroke-width: 0.8; stroke-linejoin: miter; stroke-linecap: square"/>
   </g>
   <g id="PathCollection_5">
    <path d="M 324.425844 358.277779 
C 325.206013 358.277779 325.954333 357.967814 326.505995 357.416152 
C 327.057658 356.864489 327.367622 356.116169 327.367622 355.336 
C 327.367622 354.555831 327.057658 353.807511 326.505995 353.255848 
C 325.954333 352.704186 325.206013 352.394221 324.425844 352.394221 
C 323.645675 352.394221 322.897355 352.704186 322.345692 353.255848 
C 321.794029 353.807511 321.484065 354.555831 321.484065 355.336 
C 321.484065 356.116169 321.794029 356.864489 322.345692 357.416152 
C 322.897355 357.967814 323.645675 358.277779 324.425844 358.277779 
z
" style="fill: #cc79a7; fill-opacity: 0.9; stroke: #cc79a7; stroke-opacity: 0.9; stroke-width: 0.25"/>
    <path d="M 348.912567 301.732718 
C 349.720036 301.732718 350.494541 301.411907 351.065508 300.840941 
C 351.636474 300.269974 351.957285 299.495469 351.957285 298.688 
C 351.957285 297.880531 351.636474 297.106026 351.065508 296.535059 
C 350.494541 295.964093 349.720036 295.643282 348.912567 295.643282 
C 348.105098 295.643282 347.330593 295.964093 346.759626 296.535059 
C 346.188659 297.106026 345.867849 297.880531 345.867849 298.688 
C 345.867849 299.495469 346.188659 300.269974 346.759626 300.840941 
C 347.330593 301.411907 348.105098 301.732718 348.912567 301.732718 
z
" style="fill: #cc79a7; fill-opacity: 0.9; stroke: #cc79a7; stroke-opacity: 0.9; stroke-width: 0.25"/>
    <path d="M 366.829677 358.303848 
C 367.616759 358.303848 368.371711 357.991137 368.928262 357.434586 
C 369.484814 356.878034 369.797525 356.123083 369.797525 355.336 
C 369.797525 354.548917 369.484814 353.793966 368.928262 353.237414 
C 368.371711 352.680863 367.616759 352.368152 366.829677 352.368152 
C 366.042594 352.368152 365.287643 352.680863 364.731091 353.237414 
C 364.17454 353.793966 363.861828 354.548917 363.861828 355.336 
C 363.861828 356.123083 364.17454 356.878034 364.731091 357.434586 
C 365.287643 357.991137 366.042594 358.303848 366.829677 358.303848 
z
" style="fill: #cc79a7; fill-opacity: 0.9; stroke: #cc79a7; stroke-opacity: 0.9; stroke-width: 0.25"/>
    <path d="M 388.402555 358.277779 
C 389.182724 358.277779 389.931044 357.967814 390.482707 357.416152 
C 391.03437 356.864489 391.344334 356.116169 391.344334 355.336 
C 391.344334 354.555831 391.03437 353.807511 390.482707 353.255848 
C 389.931044 352.704186 389.182724 352.394221 388.402555 352.394221 
C 387.622387 352.394221 386.874066 352.704186 386.322404 353.255848 
C 385.770741 353.807511 385.460777 354.555831 385.460777 355.336 
C 385.460777 356.116169 385.770741 356.864489 386.322404 357.416152 
C 386.874066 357.967814 387.622387 358.277779 388.402555 358.277779 
z
" style="fill: #cc79a7; fill-opacity: 0.9; stroke: #cc79a7; stroke-opacity: 0.9; stroke-width: 0.25"/>
    <path d="M 407.677509 237.468415 
C 409.767629 237.468415 411.772426 236.638001 413.250364 235.160063 
C 414.728303 233.682124 415.558717 231.677328 415.558717 229.587207 
C 415.558717 227.497086 414.728303 225.49229 413.250364 224.014351 
C 411.772426 222.536412 409.767629 221.705999 407.677509 221.705999 
C 405.587388 221.705999 403.582591 222.536412 402.104653 224.014351 
C 400.626714 225.49229 399.7963 227.497086 399.7963 229.587207 
C 399.7963 231.677328 400.626714 233.682124 402.104653 235.160063 
C 403.582591 236.638001 405.587388 237.468415 407.677509 237.468415 
z
" style="fill: #cc79a7; fill-opacity: 0.9; stroke: #cc79a7; stroke-opacity: 0.9; stroke-width: 0.25"/>
   </g>
  </g>
  <g id="axes_6">
   <g id="patch_17">
    <path d="M 430.99751 355.336 
L 599.140844 355.336 
L 599.140844 213.716 
L 430.99751 213.716 
z
" style="fill: #ffffff"/>
   </g>
   <g id="matplotlib.axis_11">
    <g id="xtick_31">
     <g id="line2d_131">
      <path d="M 430.99751 355.336 
L 430.99751 213.716 
" clip-path="url(#pbcda0362f3)" style="fill: none; stroke: #b0b0b0; stroke-opacity: 0.18; stroke-width: 0.6; stroke-linecap: square"/>
     </g>
     <g id="line2d_132">
      <g>
       <use xlink:href="#ma932ca6ad0" x="430.99751" y="355.336" style="stroke: #000000; stroke-width: 0.8"/>
      </g>
     </g>
     <g id="text_32">
      <!-- 0.0 -->
      <g transform="translate(424.63626 368.41475) scale(0.08 -0.08)">
       <use xlink:href="#DejaVuSans-30"/>
       <use xlink:href="#DejaVuSans-2e" transform="translate(63.623047 0)"/>
       <use xlink:href="#DejaVuSans-30" transform="translate(95.410156 0)"/>
      </g>
     </g>
    </g>
    <g id="xtick_32">
     <g id="line2d_133">
      <path d="M 464.626177 355.336 
L 464.626177 213.716 
" clip-path="url(#pbcda0362f3)" style="fill: none; stroke: #b0b0b0; stroke-opacity: 0.18; stroke-width: 0.6; stroke-linecap: square"/>
     </g>
     <g id="line2d_134">
      <g>
       <use xlink:href="#ma932ca6ad0" x="464.626177" y="355.336" style="stroke: #000000; stroke-width: 0.8"/>
      </g>
     </g>
     <g id="text_33">
      <!-- 0.2 -->
      <g transform="translate(458.264927 368.41475) scale(0.08 -0.08)">
       <use xlink:href="#DejaVuSans-30"/>
       <use xlink:href="#DejaVuSans-2e" transform="translate(63.623047 0)"/>
       <use xlink:href="#DejaVuSans-32" transform="translate(95.410156 0)"/>
      </g>
     </g>
    </g>
    <g id="xtick_33">
     <g id="line2d_135">
      <path d="M 498.254844 355.336 
L 498.254844 213.716 
" clip-path="url(#pbcda0362f3)" style="fill: none; stroke: #b0b0b0; stroke-opacity: 0.18; stroke-width: 0.6; stroke-linecap: square"/>
     </g>
     <g id="line2d_136">
      <g>
       <use xlink:href="#ma932ca6ad0" x="498.254844" y="355.336" style="stroke: #000000; stroke-width: 0.8"/>
      </g>
     </g>
     <g id="text_34">
      <!-- 0.4 -->
      <g transform="translate(491.893594 368.41475) scale(0.08 -0.08)">
       <use xlink:href="#DejaVuSans-30"/>
       <use xlink:href="#DejaVuSans-2e" transform="translate(63.623047 0)"/>
       <use xlink:href="#DejaVuSans-34" transform="translate(95.410156 0)"/>
      </g>
     </g>
    </g>
    <g id="xtick_34">
     <g id="line2d_137">
      <path d="M 531.88351 355.336 
L 531.88351 213.716 
" clip-path="url(#pbcda0362f3)" style="fill: none; stroke: #b0b0b0; stroke-opacity: 0.18; stroke-width: 0.6; stroke-linecap: square"/>
     </g>
     <g id="line2d_138">
      <g>
       <use xlink:href="#ma932ca6ad0" x="531.88351" y="355.336" style="stroke: #000000; stroke-width: 0.8"/>
      </g>
     </g>
     <g id="text_35">
      <!-- 0.6 -->
      <g transform="translate(525.52226 368.41475) scale(0.08 -0.08)">
       <use xlink:href="#DejaVuSans-30"/>
       <use xlink:href="#DejaVuSans-2e" transform="translate(63.623047 0)"/>
       <use xlink:href="#DejaVuSans-36" transform="translate(95.410156 0)"/>
      </g>
     </g>
    </g>
    <g id="xtick_35">
     <g id="line2d_139">
      <path d="M 565.512177 355.336 
L 565.512177 213.716 
" clip-path="url(#pbcda0362f3)" style="fill: none; stroke: #b0b0b0; stroke-opacity: 0.18; stroke-width: 0.6; stroke-linecap: square"/>
     </g>
     <g id="line2d_140">
      <g>
       <use xlink:href="#ma932ca6ad0" x="565.512177" y="355.336" style="stroke: #000000; stroke-width: 0.8"/>
      </g>
     </g>
     <g id="text_36">
      <!-- 0.8 -->
      <g transform="translate(559.150927 368.41475) scale(0.08 -0.08)">
       <use xlink:href="#DejaVuSans-30"/>
       <use xlink:href="#DejaVuSans-2e" transform="translate(63.623047 0)"/>
       <use xlink:href="#DejaVuSans-38" transform="translate(95.410156 0)"/>
      </g>
     </g>
    </g>
    <g id="xtick_36">
     <g id="line2d_141">
      <path d="M 599.140844 355.336 
L 599.140844 213.716 
" clip-path="url(#pbcda0362f3)" style="fill: none; stroke: #b0b0b0; stroke-opacity: 0.18; stroke-width: 0.6; stroke-linecap: square"/>
     </g>
     <g id="line2d_142">
      <g>
       <use xlink:href="#ma932ca6ad0" x="599.140844" y="355.336" style="stroke: #000000; stroke-width: 0.8"/>
      </g>
     </g>
     <g id="text_37">
      <!-- 1.0 -->
      <g transform="translate(592.779594 368.41475) scale(0.08 -0.08)">
       <use xlink:href="#DejaVuSans-31"/>
       <use xlink:href="#DejaVuSans-2e" transform="translate(63.623047 0)"/>
       <use xlink:href="#DejaVuSans-30" transform="translate(95.410156 0)"/>
      </g>
     </g>
    </g>
    <g id="text_38">
     <!-- Confidence -->
     <g transform="translate(489.766521 380.917094) scale(0.09 -0.09)">
      <use xlink:href="#DejaVuSans-43"/>
      <use xlink:href="#DejaVuSans-6f" transform="translate(69.824219 0)"/>
      <use xlink:href="#DejaVuSans-6e" transform="translate(131.005859 0)"/>
      <use xlink:href="#DejaVuSans-66" transform="translate(194.384766 0)"/>
      <use xlink:href="#DejaVuSans-69" transform="translate(229.589844 0)"/>
      <use xlink:href="#DejaVuSans-64" transform="translate(257.373047 0)"/>
      <use xlink:href="#DejaVuSans-65" transform="translate(320.849609 0)"/>
      <use xlink:href="#DejaVuSans-6e" transform="translate(382.373047 0)"/>
      <use xlink:href="#DejaVuSans-63" transform="translate(445.751953 0)"/>
      <use xlink:href="#DejaVuSans-65" transform="translate(500.732422 0)"/>
     </g>
    </g>
   </g>
   <g id="matplotlib.axis_12">
    <g id="ytick_31">
     <g id="line2d_143">
      <path d="M 430.99751 355.336 
L 599.140844 355.336 
" clip-path="url(#pbcda0362f3)" style="fill: none; stroke: #b0b0b0; stroke-opacity: 0.18; stroke-width: 0.6; stroke-linecap: square"/>
     </g>
     <g id="line2d_144">
      <g>
       <use xlink:href="#ma043f9aa32" x="430.99751" y="355.336" style="stroke: #000000; stroke-width: 0.8"/>
      </g>
     </g>
    </g>
    <g id="ytick_32">
     <g id="line2d_145">
      <path d="M 430.99751 327.012 
L 599.140844 327.012 
" clip-path="url(#pbcda0362f3)" style="fill: none; stroke: #b0b0b0; stroke-opacity: 0.18; stroke-width: 0.6; stroke-linecap: square"/>
     </g>
     <g id="line2d_146">
      <g>
       <use xlink:href="#ma043f9aa32" x="430.99751" y="327.012" style="stroke: #000000; stroke-width: 0.8"/>
      </g>
     </g>
    </g>
    <g id="ytick_33">
     <g id="line2d_147">
      <path d="M 430.99751 298.688 
L 599.140844 298.688 
" clip-path="url(#pbcda0362f3)" style="fill: none; stroke: #b0b0b0; stroke-opacity: 0.18; stroke-width: 0.6; stroke-linecap: square"/>
     </g>
     <g id="line2d_148">
      <g>
       <use xlink:href="#ma043f9aa32" x="430.99751" y="298.688" style="stroke: #000000; stroke-width: 0.8"/>
      </g>
     </g>
    </g>
    <g id="ytick_34">
     <g id="line2d_149">
      <path d="M 430.99751 270.364 
L 599.140844 270.364 
" clip-path="url(#pbcda0362f3)" style="fill: none; stroke: #b0b0b0; stroke-opacity: 0.18; stroke-width: 0.6; stroke-linecap: square"/>
     </g>
     <g id="line2d_150">
      <g>
       <use xlink:href="#ma043f9aa32" x="430.99751" y="270.364" style="stroke: #000000; stroke-width: 0.8"/>
      </g>
     </g>
    </g>
    <g id="ytick_35">
     <g id="line2d_151">
      <path d="M 430.99751 242.04 
L 599.140844 242.04 
" clip-path="url(#pbcda0362f3)" style="fill: none; stroke: #b0b0b0; stroke-opacity: 0.18; stroke-width: 0.6; stroke-linecap: square"/>
     </g>
     <g id="line2d_152">
      <g>
       <use xlink:href="#ma043f9aa32" x="430.99751" y="242.04" style="stroke: #000000; stroke-width: 0.8"/>
      </g>
     </g>
    </g>
    <g id="ytick_36">
     <g id="line2d_153">
      <path d="M 430.99751 213.716 
L 599.140844 213.716 
" clip-path="url(#pbcda0362f3)" style="fill: none; stroke: #b0b0b0; stroke-opacity: 0.18; stroke-width: 0.6; stroke-linecap: square"/>
     </g>
     <g id="line2d_154">
      <g>
       <use xlink:href="#ma043f9aa32" x="430.99751" y="213.716" style="stroke: #000000; stroke-width: 0.8"/>
      </g>
     </g>
    </g>
   </g>
   <g id="line2d_155">
    <path d="M 430.99751 355.336 
L 599.140844 213.716 
" clip-path="url(#pbcda0362f3)" style="fill: none; stroke-dasharray: 3.33,1.44; stroke-dashoffset: 0; stroke: #777777; stroke-width: 0.9"/>
   </g>
   <g id="line2d_156">
    <path d="M 524.030995 269.937005 
L 540.585674 258.86124 
L 558.922856 284.965814 
L 575.080133 313.341426 
L 592.727349 250.377982 
" clip-path="url(#pbcda0362f3)" style="fill: none; stroke: #cc79a7; stroke-opacity: 0.9; stroke-width: 1.8; stroke-linecap: square"/>
   </g>
   <g id="patch_18">
    <path d="M 430.99751 355.336 
L 430.99751 213.716 
" style="fill: none; stroke: #000000; stroke-width: 0.8; stroke-linejoin: miter; stroke-linecap: square"/>
   </g>
   <g id="patch_19">
    <path d="M 430.99751 355.336 
L 599.140844 355.336 
" style="fill: none; stroke: #000000; stroke-width: 0.8; stroke-linejoin: miter; stroke-linecap: square"/>
   </g>
   <g id="PathCollection_6">
    <path d="M 524.030995 273.653604 
C 525.016648 273.653604 525.962065 273.262 526.659027 272.565037 
C 527.355989 271.868075 527.747593 270.922659 527.747593 269.937005 
C 527.747593 268.951351 527.355989 268.005935 526.659027 267.308973 
C 525.962065 266.612011 525.016648 266.220406 524.030995 266.220406 
C 523.045341 266.220406 522.099925 266.612011 521.402962 267.308973 
C 520.706 268.005935 520.314396 268.951351 520.314396 269.937005 
C 520.314396 270.922659 520.706 271.868075 521.402962 272.565037 
C 522.099925 273.262 523.045341 273.653604 524.030995 273.653604 
z
" style="fill: #cc79a7; fill-opacity: 0.9; stroke: #cc79a7; stroke-opacity: 0.9; stroke-width: 0.25"/>
    <path d="M 540.585674 262.684077 
C 541.599502 262.684077 542.571943 262.281278 543.288827 261.564394 
C 544.005712 260.847509 544.40851 259.875068 544.40851 258.86124 
C 544.40851 257.847412 544.005712 256.874971 543.288827 256.158087 
C 542.571943 255.441202 541.599502 255.038404 540.585674 255.038404 
C 539.571846 255.038404 538.599405 255.441202 537.88252 256.158087 
C 537.165636 256.874971 536.762837 257.847412 536.762837 258.86124 
C 536.762837 259.875068 537.165636 260.847509 537.88252 261.564394 
C 538.599405 262.281278 539.571846 262.684077 540.585674 262.684077 
z
" style="fill: #cc79a7; fill-opacity: 0.9; stroke: #cc79a7; stroke-opacity: 0.9; stroke-width: 0.25"/>
    <path d="M 558.922856 289.100676 
C 560.019435 289.100676 561.071248 288.665001 561.846646 287.889603 
C 562.622044 287.114205 563.057719 286.062392 563.057719 284.965814 
C 563.057719 283.869235 562.622044 282.817422 561.846646 282.042024 
C 561.071248 281.266626 560.019435 280.830951 558.922856 280.830951 
C 557.826278 280.830951 556.774465 281.266626 555.999067 282.042024 
C 555.223669 282.817422 554.787994 283.869235 554.787994 284.965814 
C 554.787994 286.062392 555.223669 287.114205 555.999067 287.889603 
C 556.774465 288.665001 557.826278 289.100676 558.922856 289.100676 
z
" style="fill: #cc79a7; fill-opacity: 0.9; stroke: #cc79a7; stroke-opacity: 0.9; stroke-width: 0.25"/>
    <path d="M 575.080133 318.383963 
C 576.417429 318.383963 577.700134 317.85265 578.645745 316.907038 
C 579.591357 315.961427 580.12267 314.678722 580.12267 313.341426 
C 580.12267 312.004129 579.591357 310.721425 578.645745 309.775813 
C 577.700134 308.830202 576.417429 308.298888 575.080133 308.298888 
C 573.742836 308.298888 572.460132 308.830202 571.51452 309.775813 
C 570.568909 310.721425 570.037595 312.004129 570.037595 313.341426 
C 570.037595 314.678722 570.568909 315.961427 571.51452 316.907038 
C 572.460132 317.85265 573.742836 318.383963 575.080133 318.383963 
z
" style="fill: #cc79a7; fill-opacity: 0.9; stroke: #cc79a7; stroke-opacity: 0.9; stroke-width: 0.25"/>
    <path d="M 592.727349 255.53051 
C 594.093816 255.53051 595.404499 254.987607 596.370737 254.02137 
C 597.336975 253.055132 597.879877 251.744449 597.879877 250.377982 
C 597.879877 249.011516 597.336975 247.700832 596.370737 246.734595 
C 595.404499 245.768357 594.093816 245.225454 592.727349 245.225454 
C 591.360883 245.225454 590.0502 245.768357 589.083962 246.734595 
C 588.117724 247.700832 587.574822 249.011516 587.574822 250.377982 
C 587.574822 251.744449 588.117724 253.055132 589.083962 254.02137 
C 590.0502 254.987607 591.360883 255.53051 592.727349 255.53051 
z
" style="fill: #cc79a7; fill-opacity: 0.9; stroke: #cc79a7; stroke-opacity: 0.9; stroke-width: 0.25"/>
   </g>
  </g>
  <g id="text_39">
   <!-- Reliability diagrams: MedGemma -->
   <g transform="translate(206.041469 16.318125) scale(0.12 -0.12)">
    <defs>
     <path id="DejaVuSans-6c" d="M 603 4863 
L 1178 4863 
L 1178 0 
L 603 0 
L 603 4863 
z
" transform="scale(0.015625)"/>
     <path id="DejaVuSans-62" d="M 3116 1747 
Q 3116 2381 2855 2742 
Q 2594 3103 2138 3103 
Q 1681 3103 1420 2742 
Q 1159 2381 1159 1747 
Q 1159 1113 1420 752 
Q 1681 391 2138 391 
Q 2594 391 2855 752 
Q 3116 1113 3116 1747 
z
M 1159 2969 
Q 1341 3281 1617 3432 
Q 1894 3584 2278 3584 
Q 2916 3584 3314 3078 
Q 3713 2572 3713 1747 
Q 3713 922 3314 415 
Q 2916 -91 2278 -91 
Q 1894 -91 1617 61 
Q 1341 213 1159 525 
L 1159 0 
L 581 0 
L 581 4863 
L 1159 4863 
L 1159 2969 
z
" transform="scale(0.015625)"/>
     <path id="DejaVuSans-20" transform="scale(0.015625)"/>
     <path id="DejaVuSans-67" d="M 2906 1791 
Q 2906 2416 2648 2759 
Q 2391 3103 1925 3103 
Q 1463 3103 1205 2759 
Q 947 2416 947 1791 
Q 947 1169 1205 825 
Q 1463 481 1925 481 
Q 2391 481 2648 825 
Q 2906 1169 2906 1791 
z
M 3481 434 
Q 3481 -459 3084 -895 
Q 2688 -1331 1869 -1331 
Q 1566 -1331 1297 -1286 
Q 1028 -1241 775 -1147 
L 775 -588 
Q 1028 -725 1275 -790 
Q 1522 -856 1778 -856 
Q 2344 -856 2625 -561 
Q 2906 -266 2906 331 
L 2906 616 
Q 2728 306 2450 153 
Q 2172 0 1784 0 
Q 1141 0 747 490 
Q 353 981 353 1791 
Q 353 2603 747 3093 
Q 1141 3584 1784 3584 
Q 2172 3584 2450 3431 
Q 2728 3278 2906 2969 
L 2906 3500 
L 3481 3500 
L 3481 434 
z
" transform="scale(0.015625)"/>
     <path id="DejaVuSans-6d" d="M 3328 2828 
Q 3544 3216 3844 3400 
Q 4144 3584 4550 3584 
Q 5097 3584 5394 3201 
Q 5691 2819 5691 2113 
L 5691 0 
L 5113 0 
L 5113 2094 
Q 5113 2597 4934 2840 
Q 4756 3084 4391 3084 
Q 3944 3084 3684 2787 
Q 3425 2491 3425 1978 
L 3425 0 
L 2847 0 
L 2847 2094 
Q 2847 2600 2669 2842 
Q 2491 3084 2119 3084 
Q 1678 3084 1418 2786 
Q 1159 2488 1159 1978 
L 1159 0 
L 581 0 
L 581 3500 
L 1159 3500 
L 1159 2956 
Q 1356 3278 1631 3431 
Q 1906 3584 2284 3584 
Q 2666 3584 2933 3390 
Q 3200 3197 3328 2828 
z
" transform="scale(0.015625)"/>
     <path id="DejaVuSans-3a" d="M 750 794 
L 1409 794 
L 1409 0 
L 750 0 
L 750 794 
z
M 750 3309 
L 1409 3309 
L 1409 2516 
L 750 2516 
L 750 3309 
z
" transform="scale(0.015625)"/>
     <path id="DejaVuSans-4d" d="M 628 4666 
L 1569 4666 
L 2759 1491 
L 3956 4666 
L 4897 4666 
L 4897 0 
L 4281 0 
L 4281 4097 
L 3078 897 
L 2444 897 
L 1241 4097 
L 1241 0 
L 628 0 
L 628 4666 
z
" transform="scale(0.015625)"/>
     <path id="DejaVuSans-47" d="M 3809 666 
L 3809 1919 
L 2778 1919 
L 2778 2438 
L 4434 2438 
L 4434 434 
Q 4069 175 3628 42 
Q 3188 -91 2688 -91 
Q 1594 -91 976 548 
Q 359 1188 359 2328 
Q 359 3472 976 4111 
Q 1594 4750 2688 4750 
Q 3144 4750 3555 4637 
Q 3966 4525 4313 4306 
L 4313 3634 
Q 3963 3931 3569 4081 
Q 3175 4231 2741 4231 
Q 1884 4231 1454 3753 
Q 1025 3275 1025 2328 
Q 1025 1384 1454 906 
Q 1884 428 2741 428 
Q 3075 428 3337 486 
Q 3600 544 3809 666 
z
" transform="scale(0.015625)"/>
    </defs>
    <use xlink:href="#DejaVuSans-52"/>
    <use xlink:href="#DejaVuSans-65" transform="translate(64.982422 0)"/>
    <use xlink:href="#DejaVuSans-6c" transform="translate(126.505859 0)"/>
    <use xlink:href="#DejaVuSans-69" transform="translate(154.289062 0)"/>
    <use xlink:href="#DejaVuSans-61" transform="translate(182.072266 0)"/>
    <use xlink:href="#DejaVuSans-62" transform="translate(243.351562 0)"/>
    <use xlink:href="#DejaVuSans-69" transform="translate(306.828125 0)"/>
    <use xlink:href="#DejaVuSans-6c" transform="translate(334.611328 0)"/>
    <use xlink:href="#DejaVuSans-69" transform="translate(362.394531 0)"/>
    <use xlink:href="#DejaVuSans-74" transform="translate(390.177734 0)"/>
    <use xlink:href="#DejaVuSans-79" transform="translate(429.386719 0)"/>
    <use xlink:href="#DejaVuSans-20" transform="translate(488.566406 0)"/>
    <use xlink:href="#DejaVuSans-64" transform="translate(520.353516 0)"/>
    <use xlink:href="#DejaVuSans-69" transform="translate(583.830078 0)"/>
    <use xlink:href="#DejaVuSans-61" transform="translate(611.613281 0)"/>
    <use xlink:href="#DejaVuSans-67" transform="translate(672.892578 0)"/>
    <use xlink:href="#DejaVuSans-72" transform="translate(736.369141 0)"/>
    <use xlink:href="#DejaVuSans-61" transform="translate(777.482422 0)"/>
    <use xlink:href="#DejaVuSans-6d" transform="translate(838.761719 0)"/>
    <use xlink:href="#DejaVuSans-73" transform="translate(936.173828 0)"/>
    <use xlink:href="#DejaVuSans-3a" transform="translate(988.273438 0)"/>
    <use xlink:href="#DejaVuSans-20" transform="translate(1021.964844 0)"/>
    <use xlink:href="#DejaVuSans-4d" transform="translate(1053.751953 0)"/>
    <use xlink:href="#DejaVuSans-65" transform="translate(1140.03125 0)"/>
    <use xlink:href="#DejaVuSans-64" transform="translate(1201.554688 0)"/>
    <use xlink:href="#DejaVuSans-47" transform="translate(1265.03125 0)"/>
    <use xlink:href="#DejaVuSans-65" transform="translate(1342.521484 0)"/>
    <use xlink:href="#DejaVuSans-6d" transform="translate(1404.044922 0)"/>
    <use xlink:href="#DejaVuSans-6d" transform="translate(1501.457031 0)"/>
    <use xlink:href="#DejaVuSans-61" transform="translate(1598.869141 0)"/>
   </g>
  </g>
 </g>
 <defs>
  <clipPath id="p80ce54e095">
   <rect x="49.710844" y="55.176" width="168.143333" height="141.62"/>
  </clipPath>
  <clipPath id="p5a6f0e144b">
   <rect x="240.354177" y="55.176" width="168.143333" height="141.62"/>
  </clipPath>
  <clipPath id="pa78d3a1409">
   <rect x="430.99751" y="55.176" width="168.143333" height="141.62"/>
  </clipPath>
  <clipPath id="p522eb25e40">
   <rect x="49.710844" y="213.716" width="168.143333" height="141.62"/>
  </clipPath>
  <clipPath id="p172783b2e7">
   <rect x="240.354177" y="213.716" width="168.143333" height="141.62"/>
  </clipPath>
  <clipPath id="pbcda0362f3">
   <rect x="430.99751" y="213.716" width="168.143333" height="141.62"/>
  </clipPath>
 </defs>
</svg>
